<svg width="687" height="401" viewBox="0 0 687 401" fill="none" xmlns="http://www.w3.org/2000/svg">
<rect width="687" height="401" fill="white"/>
<g clip-path="url(#clip0_4655_14296)">
<path d="M31.728 86.732H30.272V89H29.082V86.732H24.294V85.682L28.998 78.948H30.272V85.626H31.728V86.732ZM29.082 82.476C29.082 82.2333 29.082 82.014 29.082 81.818C29.0913 81.6127 29.1007 81.4213 29.11 81.244C29.1193 81.0667 29.124 80.8987 29.124 80.74C29.1333 80.572 29.1427 80.4133 29.152 80.264H29.096C29.0213 80.4413 28.928 80.6327 28.816 80.838C28.704 81.0433 28.5967 81.216 28.494 81.356L25.498 85.626H29.082V82.476ZM39.3337 83.988C39.3337 84.8 39.2731 85.5233 39.1517 86.158C39.0304 86.7927 38.8344 87.334 38.5637 87.782C38.3024 88.2207 37.9571 88.5567 37.5277 88.79C37.1077 89.0233 36.5991 89.14 36.0017 89.14C35.2551 89.14 34.6344 88.9347 34.1397 88.524C33.6544 88.1133 33.2904 87.5253 33.0477 86.76C32.8144 85.9853 32.6977 85.0613 32.6977 83.988C32.6977 82.9053 32.8051 81.9813 33.0197 81.216C33.2437 80.4507 33.5984 79.8673 34.0837 79.466C34.5691 79.0553 35.2084 78.85 36.0017 78.85C36.7484 78.85 37.3691 79.0553 37.8637 79.466C38.3584 79.8673 38.7271 80.4507 38.9697 81.216C39.2124 81.9813 39.3337 82.9053 39.3337 83.988ZM33.9297 83.988C33.9297 84.9027 33.9951 85.6633 34.1257 86.27C34.2657 86.8767 34.4851 87.334 34.7837 87.642C35.0917 87.9407 35.4977 88.09 36.0017 88.09C36.5057 88.09 36.9071 87.9407 37.2057 87.642C37.5137 87.3433 37.7377 86.8907 37.8777 86.284C38.0177 85.668 38.0877 84.9027 38.0877 83.988C38.0877 83.0733 38.0177 82.3173 37.8777 81.72C37.7377 81.1133 37.5137 80.6607 37.2057 80.362C36.9071 80.054 36.5057 79.9 36.0017 79.9C35.4977 79.9 35.0917 80.054 34.7837 80.362C34.4851 80.6607 34.2657 81.1133 34.1257 81.72C33.9951 82.3173 33.9297 83.0733 33.9297 83.988ZM47.3454 83.988C47.3454 84.8 47.2848 85.5233 47.1634 86.158C47.0421 86.7927 46.8461 87.334 46.5754 87.782C46.3141 88.2207 45.9688 88.5567 45.5394 88.79C45.1194 89.0233 44.6108 89.14 44.0134 89.14C43.2668 89.14 42.6461 88.9347 42.1514 88.524C41.6661 88.1133 41.3021 87.5253 41.0594 86.76C40.8261 85.9853 40.7094 85.0613 40.7094 83.988C40.7094 82.9053 40.8168 81.9813 41.0314 81.216C41.2554 80.4507 41.6101 79.8673 42.0954 79.466C42.5808 79.0553 43.2201 78.85 44.0134 78.85C44.7601 78.85 45.3808 79.0553 45.8754 79.466C46.3701 79.8673 46.7388 80.4507 46.9814 81.216C47.2241 81.9813 47.3454 82.9053 47.3454 83.988ZM41.9414 83.988C41.9414 84.9027 42.0068 85.6633 42.1374 86.27C42.2774 86.8767 42.4968 87.334 42.7954 87.642C43.1034 87.9407 43.5094 88.09 44.0134 88.09C44.5174 88.09 44.9188 87.9407 45.2174 87.642C45.5254 87.3433 45.7494 86.8907 45.8894 86.284C46.0294 85.668 46.0994 84.9027 46.0994 83.988C46.0994 83.0733 46.0294 82.3173 45.8894 81.72C45.7494 81.1133 45.5254 80.6607 45.2174 80.362C44.9188 80.054 44.5174 79.9 44.0134 79.9C43.5094 79.9 43.1034 80.054 42.7954 80.362C42.4968 80.6607 42.2774 81.1133 42.1374 81.72C42.0068 82.3173 41.9414 83.0733 41.9414 83.988ZM50.7652 78.864C51.4558 78.864 51.9785 79.1393 52.3332 79.69C52.6878 80.2313 52.8652 80.9967 52.8652 81.986C52.8652 82.9753 52.6925 83.75 52.3472 84.31C52.0112 84.8607 51.4838 85.136 50.7652 85.136C50.3265 85.136 49.9532 85.01 49.6452 84.758C49.3372 84.506 49.1038 84.1467 48.9452 83.68C48.7958 83.204 48.7212 82.6393 48.7212 81.986C48.7212 80.9967 48.8845 80.2313 49.2112 79.69C49.5378 79.1393 50.0558 78.864 50.7652 78.864ZM50.7652 79.732C50.4105 79.732 50.1492 79.9233 49.9812 80.306C49.8225 80.6793 49.7432 81.2393 49.7432 81.986C49.7432 82.7327 49.8225 83.2973 49.9812 83.68C50.1492 84.0627 50.4105 84.254 50.7652 84.254C51.1292 84.254 51.3998 84.0673 51.5772 83.694C51.7545 83.3113 51.8432 82.742 51.8432 81.986C51.8432 81.2393 51.7545 80.6793 51.5772 80.306C51.3998 79.9233 51.1292 79.732 50.7652 79.732ZM57.1632 79.004L51.6192 89H50.5412L56.0852 79.004H57.1632ZM56.8832 82.868C57.3405 82.868 57.7232 82.994 58.0312 83.246C58.3392 83.4887 58.5725 83.8433 58.7312 84.31C58.8992 84.7673 58.9832 85.3273 58.9832 85.99C58.9832 86.9793 58.8105 87.754 58.4652 88.314C58.1292 88.8647 57.6018 89.14 56.8832 89.14C56.4445 89.14 56.0712 89.014 55.7632 88.762C55.4552 88.51 55.2218 88.1507 55.0632 87.684C54.9138 87.208 54.8392 86.6433 54.8392 85.99C54.8392 85.0007 55.0025 84.2353 55.3292 83.694C55.6558 83.1433 56.1738 82.868 56.8832 82.868ZM56.8832 83.75C56.5285 83.75 56.2672 83.9367 56.0992 84.31C55.9405 84.6833 55.8612 85.2433 55.8612 85.99C55.8612 86.746 55.9405 87.3153 56.0992 87.698C56.2672 88.0713 56.5285 88.258 56.8832 88.258C57.2472 88.258 57.5178 88.0713 57.6952 87.698C57.8725 87.3247 57.9612 86.7553 57.9612 85.99C57.9612 85.2433 57.8725 84.6833 57.6952 84.31C57.5178 83.9367 57.2472 83.75 56.8832 83.75Z" fill="#000240"/>
<line x1="24" y1="100.5" x2="664" y2="100.5" stroke="#D3D6DB"/>
<path d="M31.28 157.667H24.672V156.645L27.29 153.999C27.794 153.495 28.2187 153.047 28.564 152.655C28.9093 152.263 29.1707 151.88 29.348 151.507C29.5253 151.124 29.614 150.709 29.614 150.261C29.614 149.71 29.4507 149.295 29.124 149.015C28.7973 148.725 28.3727 148.581 27.85 148.581C27.3647 148.581 26.9353 148.665 26.562 148.833C26.198 149.001 25.8247 149.234 25.442 149.533L24.784 148.707C25.0453 148.483 25.33 148.282 25.638 148.105C25.9553 147.927 26.296 147.787 26.66 147.685C27.0333 147.582 27.43 147.531 27.85 147.531C28.4753 147.531 29.012 147.638 29.46 147.853C29.908 148.067 30.2533 148.375 30.496 148.777C30.748 149.169 30.874 149.64 30.874 150.191C30.874 150.583 30.8133 150.956 30.692 151.311C30.5707 151.656 30.398 151.997 30.174 152.333C29.95 152.669 29.6793 153.009 29.362 153.355C29.0447 153.7 28.6947 154.059 28.312 154.433L26.226 156.491V156.547H31.28V157.667ZM39.3337 152.655C39.3337 153.467 39.2731 154.19 39.1517 154.825C39.0304 155.459 38.8344 156.001 38.5637 156.449C38.3024 156.887 37.9571 157.223 37.5277 157.457C37.1077 157.69 36.5991 157.807 36.0017 157.807C35.2551 157.807 34.6344 157.601 34.1397 157.191C33.6544 156.78 33.2904 156.192 33.0477 155.427C32.8144 154.652 32.6977 153.728 32.6977 152.655C32.6977 151.572 32.8051 150.648 33.0197 149.883C33.2437 149.117 33.5984 148.534 34.0837 148.133C34.5691 147.722 35.2084 147.517 36.0017 147.517C36.7484 147.517 37.3691 147.722 37.8637 148.133C38.3584 148.534 38.7271 149.117 38.9697 149.883C39.2124 150.648 39.3337 151.572 39.3337 152.655ZM33.9297 152.655C33.9297 153.569 33.9951 154.33 34.1257 154.937C34.2657 155.543 34.4851 156.001 34.7837 156.309C35.0917 156.607 35.4977 156.757 36.0017 156.757C36.5057 156.757 36.9071 156.607 37.2057 156.309C37.5137 156.01 37.7377 155.557 37.8777 154.951C38.0177 154.335 38.0877 153.569 38.0877 152.655C38.0877 151.74 38.0177 150.984 37.8777 150.387C37.7377 149.78 37.5137 149.327 37.2057 149.029C36.9071 148.721 36.5057 148.567 36.0017 148.567C35.4977 148.567 35.0917 148.721 34.7837 149.029C34.4851 149.327 34.2657 149.78 34.1257 150.387C33.9951 150.984 33.9297 151.74 33.9297 152.655ZM47.3454 152.655C47.3454 153.467 47.2848 154.19 47.1634 154.825C47.0421 155.459 46.8461 156.001 46.5754 156.449C46.3141 156.887 45.9688 157.223 45.5394 157.457C45.1194 157.69 44.6108 157.807 44.0134 157.807C43.2668 157.807 42.6461 157.601 42.1514 157.191C41.6661 156.78 41.3021 156.192 41.0594 155.427C40.8261 154.652 40.7094 153.728 40.7094 152.655C40.7094 151.572 40.8168 150.648 41.0314 149.883C41.2554 149.117 41.6101 148.534 42.0954 148.133C42.5808 147.722 43.2201 147.517 44.0134 147.517C44.7601 147.517 45.3808 147.722 45.8754 148.133C46.3701 148.534 46.7388 149.117 46.9814 149.883C47.2241 150.648 47.3454 151.572 47.3454 152.655ZM41.9414 152.655C41.9414 153.569 42.0068 154.33 42.1374 154.937C42.2774 155.543 42.4968 156.001 42.7954 156.309C43.1034 156.607 43.5094 156.757 44.0134 156.757C44.5174 156.757 44.9188 156.607 45.2174 156.309C45.5254 156.01 45.7494 155.557 45.8894 154.951C46.0294 154.335 46.0994 153.569 46.0994 152.655C46.0994 151.74 46.0294 150.984 45.8894 150.387C45.7494 149.78 45.5254 149.327 45.2174 149.029C44.9188 148.721 44.5174 148.567 44.0134 148.567C43.5094 148.567 43.1034 148.721 42.7954 149.029C42.4968 149.327 42.2774 149.78 42.1374 150.387C42.0068 150.984 41.9414 151.74 41.9414 152.655ZM50.7652 147.531C51.4558 147.531 51.9785 147.806 52.3332 148.357C52.6878 148.898 52.8652 149.663 52.8652 150.653C52.8652 151.642 52.6925 152.417 52.3472 152.977C52.0112 153.527 51.4838 153.803 50.7652 153.803C50.3265 153.803 49.9532 153.677 49.6452 153.425C49.3372 153.173 49.1038 152.813 48.9452 152.347C48.7958 151.871 48.7212 151.306 48.7212 150.653C48.7212 149.663 48.8845 148.898 49.2112 148.357C49.5378 147.806 50.0558 147.531 50.7652 147.531ZM50.7652 148.399C50.4105 148.399 50.1492 148.59 49.9812 148.973C49.8225 149.346 49.7432 149.906 49.7432 150.653C49.7432 151.399 49.8225 151.964 49.9812 152.347C50.1492 152.729 50.4105 152.921 50.7652 152.921C51.1292 152.921 51.3998 152.734 51.5772 152.361C51.7545 151.978 51.8432 151.409 51.8432 150.653C51.8432 149.906 51.7545 149.346 51.5772 148.973C51.3998 148.59 51.1292 148.399 50.7652 148.399ZM57.1632 147.671L51.6192 157.667H50.5412L56.0852 147.671H57.1632ZM56.8832 151.535C57.3405 151.535 57.7232 151.661 58.0312 151.913C58.3392 152.155 58.5725 152.51 58.7312 152.977C58.8992 153.434 58.9832 153.994 58.9832 154.657C58.9832 155.646 58.8105 156.421 58.4652 156.981C58.1292 157.531 57.6018 157.807 56.8832 157.807C56.4445 157.807 56.0712 157.681 55.7632 157.429C55.4552 157.177 55.2218 156.817 55.0632 156.351C54.9138 155.875 54.8392 155.31 54.8392 154.657C54.8392 153.667 55.0025 152.902 55.3292 152.361C55.6558 151.81 56.1738 151.535 56.8832 151.535ZM56.8832 152.417C56.5285 152.417 56.2672 152.603 56.0992 152.977C55.9405 153.35 55.8612 153.91 55.8612 154.657C55.8612 155.413 55.9405 155.982 56.0992 156.365C56.2672 156.738 56.5285 156.925 56.8832 156.925C57.2472 156.925 57.5178 156.738 57.6952 156.365C57.8725 155.991 57.9612 155.422 57.9612 154.657C57.9612 153.91 57.8725 153.35 57.6952 152.977C57.5178 152.603 57.2472 152.417 56.8832 152.417Z" fill="#000240"/>
<line x1="24" y1="169.167" x2="664" y2="169.167" stroke="#D3D6DB"/>
<path d="M31.322 221.321C31.322 222.133 31.2613 222.857 31.14 223.491C31.0187 224.126 30.8227 224.667 30.552 225.115C30.2907 225.554 29.9453 225.89 29.516 226.123C29.096 226.357 28.5873 226.473 27.99 226.473C27.2433 226.473 26.6227 226.268 26.128 225.857C25.6427 225.447 25.2787 224.859 25.036 224.093C24.8027 223.319 24.686 222.395 24.686 221.321C24.686 220.239 24.7933 219.315 25.008 218.549C25.232 217.784 25.5867 217.201 26.072 216.799C26.5573 216.389 27.1967 216.183 27.99 216.183C28.7367 216.183 29.3573 216.389 29.852 216.799C30.3467 217.201 30.7153 217.784 30.958 218.549C31.2007 219.315 31.322 220.239 31.322 221.321ZM25.918 221.321C25.918 222.236 25.9833 222.997 26.114 223.603C26.254 224.21 26.4733 224.667 26.772 224.975C27.08 225.274 27.486 225.423 27.99 225.423C28.494 225.423 28.8953 225.274 29.194 224.975C29.502 224.677 29.726 224.224 29.866 223.617C30.006 223.001 30.076 222.236 30.076 221.321C30.076 220.407 30.006 219.651 29.866 219.053C29.726 218.447 29.502 217.994 29.194 217.695C28.8953 217.387 28.494 217.233 27.99 217.233C27.486 217.233 27.08 217.387 26.772 217.695C26.4733 217.994 26.254 218.447 26.114 219.053C25.9833 219.651 25.918 220.407 25.918 221.321Z" fill="#000240"/>
<line x1="24" y1="237.833" x2="664" y2="237.833" stroke="#D3D6DB"/>
<path d="M24.56 291.794V290.702H27.948V291.794H24.56ZM35.7917 295H29.1837V293.978L31.8017 291.332C32.3057 290.828 32.7304 290.38 33.0757 289.988C33.4211 289.596 33.6824 289.213 33.8597 288.84C34.0371 288.457 34.1257 288.042 34.1257 287.594C34.1257 287.043 33.9624 286.628 33.6357 286.348C33.3091 286.059 32.8844 285.914 32.3617 285.914C31.8764 285.914 31.4471 285.998 31.0737 286.166C30.7097 286.334 30.3364 286.567 29.9537 286.866L29.2957 286.04C29.5571 285.816 29.8417 285.615 30.1497 285.438C30.4671 285.261 30.8077 285.121 31.1717 285.018C31.5451 284.915 31.9417 284.864 32.3617 284.864C32.9871 284.864 33.5237 284.971 33.9717 285.186C34.4197 285.401 34.7651 285.709 35.0077 286.11C35.2597 286.502 35.3857 286.973 35.3857 287.524C35.3857 287.916 35.3251 288.289 35.2037 288.644C35.0824 288.989 34.9097 289.33 34.6857 289.666C34.4617 290.002 34.1911 290.343 33.8737 290.688C33.5564 291.033 33.2064 291.393 32.8237 291.766L30.7377 293.824V293.88H35.7917V295ZM43.8454 289.988C43.8454 290.8 43.7848 291.523 43.6634 292.158C43.5421 292.793 43.3461 293.334 43.0754 293.782C42.8141 294.221 42.4688 294.557 42.0394 294.79C41.6194 295.023 41.1108 295.14 40.5134 295.14C39.7668 295.14 39.1461 294.935 38.6514 294.524C38.1661 294.113 37.8021 293.525 37.5594 292.76C37.3261 291.985 37.2094 291.061 37.2094 289.988C37.2094 288.905 37.3168 287.981 37.5314 287.216C37.7554 286.451 38.1101 285.867 38.5954 285.466C39.0808 285.055 39.7201 284.85 40.5134 284.85C41.2601 284.85 41.8808 285.055 42.3754 285.466C42.8701 285.867 43.2388 286.451 43.4814 287.216C43.7241 287.981 43.8454 288.905 43.8454 289.988ZM38.4414 289.988C38.4414 290.903 38.5068 291.663 38.6374 292.27C38.7774 292.877 38.9968 293.334 39.2954 293.642C39.6034 293.941 40.0094 294.09 40.5134 294.09C41.0174 294.09 41.4188 293.941 41.7174 293.642C42.0254 293.343 42.2494 292.891 42.3894 292.284C42.5294 291.668 42.5994 290.903 42.5994 289.988C42.5994 289.073 42.5294 288.317 42.3894 287.72C42.2494 287.113 42.0254 286.661 41.7174 286.362C41.4188 286.054 41.0174 285.9 40.5134 285.9C40.0094 285.9 39.6034 286.054 39.2954 286.362C38.9968 286.661 38.7774 287.113 38.6374 287.72C38.5068 288.317 38.4414 289.073 38.4414 289.988ZM51.8572 289.988C51.8572 290.8 51.7965 291.523 51.6752 292.158C51.5538 292.793 51.3578 293.334 51.0872 293.782C50.8258 294.221 50.4805 294.557 50.0512 294.79C49.6312 295.023 49.1225 295.14 48.5252 295.14C47.7785 295.14 47.1578 294.935 46.6632 294.524C46.1778 294.113 45.8138 293.525 45.5712 292.76C45.3378 291.985 45.2212 291.061 45.2212 289.988C45.2212 288.905 45.3285 287.981 45.5432 287.216C45.7672 286.451 46.1218 285.867 46.6072 285.466C47.0925 285.055 47.7318 284.85 48.5252 284.85C49.2718 284.85 49.8925 285.055 50.3872 285.466C50.8818 285.867 51.2505 286.451 51.4932 287.216C51.7358 287.981 51.8572 288.905 51.8572 289.988ZM46.4532 289.988C46.4532 290.903 46.5185 291.663 46.6492 292.27C46.7892 292.877 47.0085 293.334 47.3072 293.642C47.6152 293.941 48.0212 294.09 48.5252 294.09C49.0292 294.09 49.4305 293.941 49.7292 293.642C50.0372 293.343 50.2612 292.891 50.4012 292.284C50.5412 291.668 50.6112 290.903 50.6112 289.988C50.6112 289.073 50.5412 288.317 50.4012 287.72C50.2612 287.113 50.0372 286.661 49.7292 286.362C49.4305 286.054 49.0292 285.9 48.5252 285.9C48.0212 285.9 47.6152 286.054 47.3072 286.362C47.0085 286.661 46.7892 287.113 46.6492 287.72C46.5185 288.317 46.4532 289.073 46.4532 289.988ZM55.2769 284.864C55.9675 284.864 56.4902 285.139 56.8449 285.69C57.1995 286.231 57.3769 286.997 57.3769 287.986C57.3769 288.975 57.2042 289.75 56.8589 290.31C56.5229 290.861 55.9955 291.136 55.2769 291.136C54.8382 291.136 54.4649 291.01 54.1569 290.758C53.8489 290.506 53.6155 290.147 53.4569 289.68C53.3075 289.204 53.2329 288.639 53.2329 287.986C53.2329 286.997 53.3962 286.231 53.7229 285.69C54.0495 285.139 54.5675 284.864 55.2769 284.864ZM55.2769 285.732C54.9222 285.732 54.6609 285.923 54.4929 286.306C54.3342 286.679 54.2549 287.239 54.2549 287.986C54.2549 288.733 54.3342 289.297 54.4929 289.68C54.6609 290.063 54.9222 290.254 55.2769 290.254C55.6409 290.254 55.9115 290.067 56.0889 289.694C56.2662 289.311 56.3549 288.742 56.3549 287.986C56.3549 287.239 56.2662 286.679 56.0889 286.306C55.9115 285.923 55.6409 285.732 55.2769 285.732ZM61.6749 285.004L56.1309 295H55.0529L60.5969 285.004H61.6749ZM61.3949 288.868C61.8522 288.868 62.2349 288.994 62.5429 289.246C62.8509 289.489 63.0842 289.843 63.2429 290.31C63.4109 290.767 63.4949 291.327 63.4949 291.99C63.4949 292.979 63.3222 293.754 62.9769 294.314C62.6409 294.865 62.1135 295.14 61.3949 295.14C60.9562 295.14 60.5829 295.014 60.2749 294.762C59.9669 294.51 59.7335 294.151 59.5749 293.684C59.4255 293.208 59.3509 292.643 59.3509 291.99C59.3509 291.001 59.5142 290.235 59.8409 289.694C60.1675 289.143 60.6855 288.868 61.3949 288.868ZM61.3949 289.75C61.0402 289.75 60.7789 289.937 60.6109 290.31C60.4522 290.683 60.3729 291.243 60.3729 291.99C60.3729 292.746 60.4522 293.315 60.6109 293.698C60.7789 294.071 61.0402 294.258 61.3949 294.258C61.7589 294.258 62.0295 294.071 62.2069 293.698C62.3842 293.325 62.4729 292.755 62.4729 291.99C62.4729 291.243 62.3842 290.683 62.2069 290.31C62.0295 289.937 61.7589 289.75 61.3949 289.75Z" fill="#000240"/>
<line x1="24" y1="306.5" x2="664" y2="306.5" stroke="#D3D6DB"/>
<path d="M74.2331 330H67.6251V328.978L70.2431 326.332C70.7471 325.828 71.1718 325.38 71.5171 324.988C71.8625 324.596 72.1238 324.213 72.3011 323.84C72.4785 323.457 72.5671 323.042 72.5671 322.594C72.5671 322.043 72.4038 321.628 72.0771 321.348C71.7505 321.059 71.3258 320.914 70.8031 320.914C70.3178 320.914 69.8885 320.998 69.5151 321.166C69.1511 321.334 68.7778 321.567 68.3951 321.866L67.7371 321.04C67.9985 320.816 68.2831 320.615 68.5911 320.438C68.9085 320.261 69.2491 320.121 69.6131 320.018C69.9865 319.915 70.3831 319.864 70.8031 319.864C71.4285 319.864 71.9651 319.971 72.4131 320.186C72.8611 320.401 73.2065 320.709 73.4491 321.11C73.7011 321.502 73.8271 321.973 73.8271 322.524C73.8271 322.916 73.7665 323.289 73.6451 323.644C73.5238 323.989 73.3511 324.33 73.1271 324.666C72.9031 325.002 72.6325 325.343 72.3151 325.688C71.9978 326.033 71.6478 326.393 71.2651 326.766L69.1791 328.824V328.88H74.2331V330ZM82.2868 324.988C82.2868 325.8 82.2262 326.523 82.1048 327.158C81.9835 327.793 81.7875 328.334 81.5168 328.782C81.2555 329.221 80.9102 329.557 80.4808 329.79C80.0608 330.023 79.5522 330.14 78.9548 330.14C78.2082 330.14 77.5875 329.935 77.0928 329.524C76.6075 329.113 76.2435 328.525 76.0008 327.76C75.7675 326.985 75.6508 326.061 75.6508 324.988C75.6508 323.905 75.7582 322.981 75.9728 322.216C76.1968 321.451 76.5515 320.867 77.0368 320.466C77.5222 320.055 78.1615 319.85 78.9548 319.85C79.7015 319.85 80.3222 320.055 80.8168 320.466C81.3115 320.867 81.6802 321.451 81.9228 322.216C82.1655 322.981 82.2868 323.905 82.2868 324.988ZM76.8828 324.988C76.8828 325.903 76.9482 326.663 77.0788 327.27C77.2188 327.877 77.4382 328.334 77.7368 328.642C78.0448 328.941 78.4508 329.09 78.9548 329.09C79.4588 329.09 79.8602 328.941 80.1588 328.642C80.4668 328.343 80.6908 327.891 80.8308 327.284C80.9708 326.668 81.0408 325.903 81.0408 324.988C81.0408 324.073 80.9708 323.317 80.8308 322.72C80.6908 322.113 80.4668 321.661 80.1588 321.362C79.8602 321.054 79.4588 320.9 78.9548 320.9C78.4508 320.9 78.0448 321.054 77.7368 321.362C77.4382 321.661 77.2188 322.113 77.0788 322.72C76.9482 323.317 76.8828 324.073 76.8828 324.988ZM90.2566 330H83.6486V328.978L86.2666 326.332C86.7706 325.828 87.1952 325.38 87.5406 324.988C87.8859 324.596 88.1472 324.213 88.3246 323.84C88.5019 323.457 88.5906 323.042 88.5906 322.594C88.5906 322.043 88.4272 321.628 88.1006 321.348C87.7739 321.059 87.3492 320.914 86.8266 320.914C86.3412 320.914 85.9119 320.998 85.5386 321.166C85.1746 321.334 84.8012 321.567 84.4186 321.866L83.7606 321.04C84.0219 320.816 84.3066 320.615 84.6146 320.438C84.9319 320.261 85.2726 320.121 85.6366 320.018C86.0099 319.915 86.4066 319.864 86.8266 319.864C87.4519 319.864 87.9886 319.971 88.4366 320.186C88.8846 320.401 89.2299 320.709 89.4726 321.11C89.7246 321.502 89.8506 321.973 89.8506 322.524C89.8506 322.916 89.7899 323.289 89.6686 323.644C89.5472 323.989 89.3746 324.33 89.1506 324.666C88.9266 325.002 88.6559 325.343 88.3386 325.688C88.0212 326.033 87.6712 326.393 87.2886 326.766L85.2026 328.824V328.88H90.2566V330ZM94.8383 323.868C95.5196 323.868 96.1123 323.985 96.6163 324.218C97.1203 324.451 97.5076 324.787 97.7783 325.226C98.0583 325.655 98.1983 326.183 98.1983 326.808C98.1983 327.499 98.0489 328.096 97.7503 328.6C97.4516 329.095 97.0223 329.477 96.4623 329.748C95.9116 330.009 95.2443 330.14 94.4603 330.14C93.9469 330.14 93.4616 330.093 93.0043 330C92.5563 329.907 92.1783 329.771 91.8703 329.594V328.432C92.2063 328.637 92.6123 328.801 93.0883 328.922C93.5736 329.034 94.0356 329.09 94.4743 329.09C94.9689 329.09 95.3983 329.015 95.7623 328.866C96.1356 328.707 96.4249 328.469 96.6303 328.152C96.8356 327.825 96.9383 327.419 96.9383 326.934C96.9383 326.281 96.7376 325.781 96.3363 325.436C95.9349 325.081 95.3003 324.904 94.4323 324.904C94.1709 324.904 93.8723 324.927 93.5363 324.974C93.2003 325.021 92.9296 325.067 92.7243 325.114L92.1083 324.722L92.4863 320.004H97.4983V321.124H93.5363L93.2983 324.022C93.4569 323.994 93.6716 323.961 93.9423 323.924C94.2129 323.887 94.5116 323.868 94.8383 323.868Z" fill="#000240"/>
<path d="M168.733 330H162.125V328.978L164.743 326.332C165.247 325.828 165.672 325.38 166.017 324.988C166.362 324.596 166.624 324.213 166.801 323.84C166.978 323.457 167.067 323.042 167.067 322.594C167.067 322.043 166.904 321.628 166.577 321.348C166.25 321.059 165.826 320.914 165.303 320.914C164.818 320.914 164.388 320.998 164.015 321.166C163.651 321.334 163.278 321.567 162.895 321.866L162.237 321.04C162.498 320.816 162.783 320.615 163.091 320.438C163.408 320.261 163.749 320.121 164.113 320.018C164.486 319.915 164.883 319.864 165.303 319.864C165.928 319.864 166.465 319.971 166.913 320.186C167.361 320.401 167.706 320.709 167.949 321.11C168.201 321.502 168.327 321.973 168.327 322.524C168.327 322.916 168.266 323.289 168.145 323.644C168.024 323.989 167.851 324.33 167.627 324.666C167.403 325.002 167.132 325.343 166.815 325.688C166.498 326.033 166.148 326.393 165.765 326.766L163.679 328.824V328.88H168.733V330ZM176.787 324.988C176.787 325.8 176.726 326.523 176.605 327.158C176.484 327.793 176.288 328.334 176.017 328.782C175.756 329.221 175.41 329.557 174.981 329.79C174.561 330.023 174.052 330.14 173.455 330.14C172.708 330.14 172.088 329.935 171.593 329.524C171.108 329.113 170.744 328.525 170.501 327.76C170.268 326.985 170.151 326.061 170.151 324.988C170.151 323.905 170.258 322.981 170.473 322.216C170.697 321.451 171.052 320.867 171.537 320.466C172.022 320.055 172.662 319.85 173.455 319.85C174.202 319.85 174.822 320.055 175.317 320.466C175.812 320.867 176.18 321.451 176.423 322.216C176.666 322.981 176.787 323.905 176.787 324.988ZM171.383 324.988C171.383 325.903 171.448 326.663 171.579 327.27C171.719 327.877 171.938 328.334 172.237 328.642C172.545 328.941 172.951 329.09 173.455 329.09C173.959 329.09 174.36 328.941 174.659 328.642C174.967 328.343 175.191 327.891 175.331 327.284C175.471 326.668 175.541 325.903 175.541 324.988C175.541 324.073 175.471 323.317 175.331 322.72C175.191 322.113 174.967 321.661 174.659 321.362C174.36 321.054 173.959 320.9 173.455 320.9C172.951 320.9 172.545 321.054 172.237 321.362C171.938 321.661 171.719 322.113 171.579 322.72C171.448 323.317 171.383 324.073 171.383 324.988ZM184.757 330H178.149V328.978L180.767 326.332C181.271 325.828 181.695 325.38 182.041 324.988C182.386 324.596 182.647 324.213 182.825 323.84C183.002 323.457 183.091 323.042 183.091 322.594C183.091 322.043 182.927 321.628 182.601 321.348C182.274 321.059 181.849 320.914 181.327 320.914C180.841 320.914 180.412 320.998 180.039 321.166C179.675 321.334 179.301 321.567 178.919 321.866L178.261 321.04C178.522 320.816 178.807 320.615 179.115 320.438C179.432 320.261 179.773 320.121 180.137 320.018C180.51 319.915 180.907 319.864 181.327 319.864C181.952 319.864 182.489 319.971 182.937 320.186C183.385 320.401 183.73 320.709 183.973 321.11C184.225 321.502 184.351 321.973 184.351 322.524C184.351 322.916 184.29 323.289 184.169 323.644C184.047 323.989 183.875 324.33 183.651 324.666C183.427 325.002 183.156 325.343 182.839 325.688C182.521 326.033 182.171 326.393 181.789 326.766L179.703 328.824V328.88H184.757V330ZM186.258 325.73C186.258 325.151 186.296 324.582 186.37 324.022C186.454 323.462 186.594 322.935 186.79 322.44C186.986 321.936 187.257 321.493 187.602 321.11C187.948 320.718 188.382 320.415 188.904 320.2C189.436 319.976 190.08 319.864 190.836 319.864C191.032 319.864 191.247 319.873 191.48 319.892C191.723 319.911 191.919 319.943 192.068 319.99V321.04C191.9 320.984 191.709 320.942 191.494 320.914C191.289 320.886 191.079 320.872 190.864 320.872C190.22 320.872 189.684 320.979 189.254 321.194C188.825 321.409 188.484 321.703 188.232 322.076C187.99 322.449 187.812 322.879 187.7 323.364C187.588 323.849 187.518 324.367 187.49 324.918H187.574C187.714 324.694 187.892 324.493 188.106 324.316C188.321 324.139 188.578 323.999 188.876 323.896C189.184 323.793 189.539 323.742 189.94 323.742C190.519 323.742 191.023 323.863 191.452 324.106C191.891 324.339 192.232 324.685 192.474 325.142C192.717 325.59 192.838 326.136 192.838 326.78C192.838 327.471 192.708 328.068 192.446 328.572C192.185 329.076 191.816 329.463 191.34 329.734C190.874 330.005 190.314 330.14 189.66 330.14C189.184 330.14 188.741 330.051 188.33 329.874C187.92 329.697 187.556 329.426 187.238 329.062C186.93 328.698 186.688 328.241 186.51 327.69C186.342 327.13 186.258 326.477 186.258 325.73ZM189.646 329.104C190.234 329.104 190.71 328.917 191.074 328.544C191.438 328.161 191.62 327.573 191.62 326.78C191.62 326.145 191.457 325.641 191.13 325.268C190.813 324.895 190.332 324.708 189.688 324.708C189.25 324.708 188.867 324.801 188.54 324.988C188.214 325.165 187.957 325.394 187.77 325.674C187.593 325.954 187.504 326.243 187.504 326.542C187.504 326.85 187.546 327.153 187.63 327.452C187.724 327.751 187.859 328.026 188.036 328.278C188.223 328.53 188.447 328.731 188.708 328.88C188.979 329.029 189.292 329.104 189.646 329.104Z" fill="#000240"/>
<path d="M263.233 330H256.625V328.978L259.243 326.332C259.747 325.828 260.172 325.38 260.517 324.988C260.862 324.596 261.124 324.213 261.301 323.84C261.478 323.457 261.567 323.042 261.567 322.594C261.567 322.043 261.404 321.628 261.077 321.348C260.75 321.059 260.326 320.914 259.803 320.914C259.318 320.914 258.888 320.998 258.515 321.166C258.151 321.334 257.778 321.567 257.395 321.866L256.737 321.04C256.998 320.816 257.283 320.615 257.591 320.438C257.908 320.261 258.249 320.121 258.613 320.018C258.986 319.915 259.383 319.864 259.803 319.864C260.428 319.864 260.965 319.971 261.413 320.186C261.861 320.401 262.206 320.709 262.449 321.11C262.701 321.502 262.827 321.973 262.827 322.524C262.827 322.916 262.766 323.289 262.645 323.644C262.524 323.989 262.351 324.33 262.127 324.666C261.903 325.002 261.632 325.343 261.315 325.688C260.998 326.033 260.648 326.393 260.265 326.766L258.179 328.824V328.88H263.233V330ZM271.287 324.988C271.287 325.8 271.226 326.523 271.105 327.158C270.984 327.793 270.788 328.334 270.517 328.782C270.256 329.221 269.91 329.557 269.481 329.79C269.061 330.023 268.552 330.14 267.955 330.14C267.208 330.14 266.588 329.935 266.093 329.524C265.608 329.113 265.244 328.525 265.001 327.76C264.768 326.985 264.651 326.061 264.651 324.988C264.651 323.905 264.758 322.981 264.973 322.216C265.197 321.451 265.552 320.867 266.037 320.466C266.522 320.055 267.162 319.85 267.955 319.85C268.702 319.85 269.322 320.055 269.817 320.466C270.312 320.867 270.68 321.451 270.923 322.216C271.166 322.981 271.287 323.905 271.287 324.988ZM265.883 324.988C265.883 325.903 265.948 326.663 266.079 327.27C266.219 327.877 266.438 328.334 266.737 328.642C267.045 328.941 267.451 329.09 267.955 329.09C268.459 329.09 268.86 328.941 269.159 328.642C269.467 328.343 269.691 327.891 269.831 327.284C269.971 326.668 270.041 325.903 270.041 324.988C270.041 324.073 269.971 323.317 269.831 322.72C269.691 322.113 269.467 321.661 269.159 321.362C268.86 321.054 268.459 320.9 267.955 320.9C267.451 320.9 267.045 321.054 266.737 321.362C266.438 321.661 266.219 322.113 266.079 322.72C265.948 323.317 265.883 324.073 265.883 324.988ZM279.257 330H272.649V328.978L275.267 326.332C275.771 325.828 276.195 325.38 276.541 324.988C276.886 324.596 277.147 324.213 277.325 323.84C277.502 323.457 277.591 323.042 277.591 322.594C277.591 322.043 277.427 321.628 277.101 321.348C276.774 321.059 276.349 320.914 275.827 320.914C275.341 320.914 274.912 320.998 274.539 321.166C274.175 321.334 273.801 321.567 273.419 321.866L272.761 321.04C273.022 320.816 273.307 320.615 273.615 320.438C273.932 320.261 274.273 320.121 274.637 320.018C275.01 319.915 275.407 319.864 275.827 319.864C276.452 319.864 276.989 319.971 277.437 320.186C277.885 320.401 278.23 320.709 278.473 321.11C278.725 321.502 278.851 321.973 278.851 322.524C278.851 322.916 278.79 323.289 278.669 323.644C278.547 323.989 278.375 324.33 278.151 324.666C277.927 325.002 277.656 325.343 277.339 325.688C277.021 326.033 276.671 326.393 276.289 326.766L274.203 328.824V328.88H279.257V330ZM281.892 330L285.994 321.124H280.604V320.004H287.31V320.956L283.25 330H281.892Z" fill="#000240"/>
<path d="M357.733 330H351.125V328.978L353.743 326.332C354.247 325.828 354.672 325.38 355.017 324.988C355.362 324.596 355.624 324.213 355.801 323.84C355.978 323.457 356.067 323.042 356.067 322.594C356.067 322.043 355.904 321.628 355.577 321.348C355.25 321.059 354.826 320.914 354.303 320.914C353.818 320.914 353.388 320.998 353.015 321.166C352.651 321.334 352.278 321.567 351.895 321.866L351.237 321.04C351.498 320.816 351.783 320.615 352.091 320.438C352.408 320.261 352.749 320.121 353.113 320.018C353.486 319.915 353.883 319.864 354.303 319.864C354.928 319.864 355.465 319.971 355.913 320.186C356.361 320.401 356.706 320.709 356.949 321.11C357.201 321.502 357.327 321.973 357.327 322.524C357.327 322.916 357.266 323.289 357.145 323.644C357.024 323.989 356.851 324.33 356.627 324.666C356.403 325.002 356.132 325.343 355.815 325.688C355.498 326.033 355.148 326.393 354.765 326.766L352.679 328.824V328.88H357.733V330ZM365.787 324.988C365.787 325.8 365.726 326.523 365.605 327.158C365.484 327.793 365.288 328.334 365.017 328.782C364.756 329.221 364.41 329.557 363.981 329.79C363.561 330.023 363.052 330.14 362.455 330.14C361.708 330.14 361.088 329.935 360.593 329.524C360.108 329.113 359.744 328.525 359.501 327.76C359.268 326.985 359.151 326.061 359.151 324.988C359.151 323.905 359.258 322.981 359.473 322.216C359.697 321.451 360.052 320.867 360.537 320.466C361.022 320.055 361.662 319.85 362.455 319.85C363.202 319.85 363.822 320.055 364.317 320.466C364.812 320.867 365.18 321.451 365.423 322.216C365.666 322.981 365.787 323.905 365.787 324.988ZM360.383 324.988C360.383 325.903 360.448 326.663 360.579 327.27C360.719 327.877 360.938 328.334 361.237 328.642C361.545 328.941 361.951 329.09 362.455 329.09C362.959 329.09 363.36 328.941 363.659 328.642C363.967 328.343 364.191 327.891 364.331 327.284C364.471 326.668 364.541 325.903 364.541 324.988C364.541 324.073 364.471 323.317 364.331 322.72C364.191 322.113 363.967 321.661 363.659 321.362C363.36 321.054 362.959 320.9 362.455 320.9C361.951 320.9 361.545 321.054 361.237 321.362C360.938 321.661 360.719 322.113 360.579 322.72C360.448 323.317 360.383 324.073 360.383 324.988ZM373.757 330H367.149V328.978L369.767 326.332C370.271 325.828 370.695 325.38 371.041 324.988C371.386 324.596 371.647 324.213 371.825 323.84C372.002 323.457 372.091 323.042 372.091 322.594C372.091 322.043 371.927 321.628 371.601 321.348C371.274 321.059 370.849 320.914 370.327 320.914C369.841 320.914 369.412 320.998 369.039 321.166C368.675 321.334 368.301 321.567 367.919 321.866L367.261 321.04C367.522 320.816 367.807 320.615 368.115 320.438C368.432 320.261 368.773 320.121 369.137 320.018C369.51 319.915 369.907 319.864 370.327 319.864C370.952 319.864 371.489 319.971 371.937 320.186C372.385 320.401 372.73 320.709 372.973 321.11C373.225 321.502 373.351 321.973 373.351 322.524C373.351 322.916 373.29 323.289 373.169 323.644C373.047 323.989 372.875 324.33 372.651 324.666C372.427 325.002 372.156 325.343 371.839 325.688C371.521 326.033 371.171 326.393 370.789 326.766L368.703 328.824V328.88H373.757V330ZM378.478 319.864C379.066 319.864 379.584 319.957 380.032 320.144C380.48 320.321 380.83 320.587 381.082 320.942C381.344 321.297 381.474 321.735 381.474 322.258C381.474 322.659 381.386 323.009 381.208 323.308C381.04 323.607 380.812 323.873 380.522 324.106C380.233 324.33 379.916 324.531 379.57 324.708C379.981 324.904 380.354 325.128 380.69 325.38C381.026 325.623 381.292 325.907 381.488 326.234C381.694 326.561 381.796 326.953 381.796 327.41C381.796 327.97 381.661 328.455 381.39 328.866C381.12 329.267 380.737 329.58 380.242 329.804C379.757 330.028 379.183 330.14 378.52 330.14C377.802 330.14 377.19 330.033 376.686 329.818C376.192 329.603 375.814 329.3 375.552 328.908C375.3 328.507 375.174 328.021 375.174 327.452C375.174 326.995 375.268 326.598 375.454 326.262C375.65 325.926 375.907 325.637 376.224 325.394C376.542 325.151 376.882 324.946 377.246 324.778C376.92 324.591 376.621 324.381 376.35 324.148C376.089 323.905 375.879 323.63 375.72 323.322C375.571 323.014 375.496 322.655 375.496 322.244C375.496 321.731 375.627 321.301 375.888 320.956C376.15 320.601 376.504 320.331 376.952 320.144C377.4 319.957 377.909 319.864 378.478 319.864ZM376.378 327.466C376.378 327.951 376.551 328.357 376.896 328.684C377.242 329.001 377.774 329.16 378.492 329.16C378.95 329.16 379.332 329.085 379.64 328.936C379.948 328.787 380.182 328.581 380.34 328.32C380.508 328.059 380.592 327.76 380.592 327.424C380.592 327.097 380.504 326.813 380.326 326.57C380.158 326.318 379.916 326.094 379.598 325.898C379.29 325.702 378.922 325.525 378.492 325.366L378.268 325.282C377.858 325.459 377.512 325.651 377.232 325.856C376.952 326.061 376.738 326.295 376.588 326.556C376.448 326.817 376.378 327.121 376.378 327.466ZM378.464 320.858C377.951 320.858 377.526 320.984 377.19 321.236C376.864 321.479 376.7 321.833 376.7 322.3C376.7 322.645 376.78 322.935 376.938 323.168C377.106 323.401 377.33 323.602 377.61 323.77C377.89 323.929 378.198 324.083 378.534 324.232C378.861 324.092 379.15 323.938 379.402 323.77C379.664 323.602 379.869 323.401 380.018 323.168C380.177 322.925 380.256 322.636 380.256 322.3C380.256 321.833 380.093 321.479 379.766 321.236C379.44 320.984 379.006 320.858 378.464 320.858Z" fill="#000240"/>
<path d="M452.233 330H445.625V328.978L448.243 326.332C448.747 325.828 449.172 325.38 449.517 324.988C449.862 324.596 450.124 324.213 450.301 323.84C450.478 323.457 450.567 323.042 450.567 322.594C450.567 322.043 450.404 321.628 450.077 321.348C449.75 321.059 449.326 320.914 448.803 320.914C448.318 320.914 447.888 320.998 447.515 321.166C447.151 321.334 446.778 321.567 446.395 321.866L445.737 321.04C445.998 320.816 446.283 320.615 446.591 320.438C446.908 320.261 447.249 320.121 447.613 320.018C447.986 319.915 448.383 319.864 448.803 319.864C449.428 319.864 449.965 319.971 450.413 320.186C450.861 320.401 451.206 320.709 451.449 321.11C451.701 321.502 451.827 321.973 451.827 322.524C451.827 322.916 451.766 323.289 451.645 323.644C451.524 323.989 451.351 324.33 451.127 324.666C450.903 325.002 450.632 325.343 450.315 325.688C449.998 326.033 449.648 326.393 449.265 326.766L447.179 328.824V328.88H452.233V330ZM460.287 324.988C460.287 325.8 460.226 326.523 460.105 327.158C459.984 327.793 459.788 328.334 459.517 328.782C459.256 329.221 458.91 329.557 458.481 329.79C458.061 330.023 457.552 330.14 456.955 330.14C456.208 330.14 455.588 329.935 455.093 329.524C454.608 329.113 454.244 328.525 454.001 327.76C453.768 326.985 453.651 326.061 453.651 324.988C453.651 323.905 453.758 322.981 453.973 322.216C454.197 321.451 454.552 320.867 455.037 320.466C455.522 320.055 456.162 319.85 456.955 319.85C457.702 319.85 458.322 320.055 458.817 320.466C459.312 320.867 459.68 321.451 459.923 322.216C460.166 322.981 460.287 323.905 460.287 324.988ZM454.883 324.988C454.883 325.903 454.948 326.663 455.079 327.27C455.219 327.877 455.438 328.334 455.737 328.642C456.045 328.941 456.451 329.09 456.955 329.09C457.459 329.09 457.86 328.941 458.159 328.642C458.467 328.343 458.691 327.891 458.831 327.284C458.971 326.668 459.041 325.903 459.041 324.988C459.041 324.073 458.971 323.317 458.831 322.72C458.691 322.113 458.467 321.661 458.159 321.362C457.86 321.054 457.459 320.9 456.955 320.9C456.451 320.9 456.045 321.054 455.737 321.362C455.438 321.661 455.219 322.113 455.079 322.72C454.948 323.317 454.883 324.073 454.883 324.988ZM468.257 330H461.649V328.978L464.267 326.332C464.771 325.828 465.195 325.38 465.541 324.988C465.886 324.596 466.147 324.213 466.325 323.84C466.502 323.457 466.591 323.042 466.591 322.594C466.591 322.043 466.427 321.628 466.101 321.348C465.774 321.059 465.349 320.914 464.827 320.914C464.341 320.914 463.912 320.998 463.539 321.166C463.175 321.334 462.801 321.567 462.419 321.866L461.761 321.04C462.022 320.816 462.307 320.615 462.615 320.438C462.932 320.261 463.273 320.121 463.637 320.018C464.01 319.915 464.407 319.864 464.827 319.864C465.452 319.864 465.989 319.971 466.437 320.186C466.885 320.401 467.23 320.709 467.473 321.11C467.725 321.502 467.851 321.973 467.851 322.524C467.851 322.916 467.79 323.289 467.669 323.644C467.547 323.989 467.375 324.33 467.151 324.666C466.927 325.002 466.656 325.343 466.339 325.688C466.021 326.033 465.671 326.393 465.289 326.766L463.203 328.824V328.88H468.257V330ZM476.268 324.274C476.268 324.843 476.226 325.413 476.142 325.982C476.068 326.542 475.932 327.074 475.736 327.578C475.54 328.073 475.27 328.516 474.924 328.908C474.579 329.291 474.14 329.594 473.608 329.818C473.076 330.033 472.432 330.14 471.676 330.14C471.49 330.14 471.27 330.126 471.018 330.098C470.776 330.079 470.575 330.047 470.416 330V328.95C470.584 329.006 470.78 329.053 471.004 329.09C471.228 329.118 471.443 329.132 471.648 329.132C472.302 329.132 472.838 329.025 473.258 328.81C473.688 328.595 474.028 328.306 474.28 327.942C474.532 327.569 474.714 327.139 474.826 326.654C474.938 326.159 475.004 325.641 475.022 325.1H474.938C474.798 325.315 474.621 325.511 474.406 325.688C474.192 325.865 473.93 326.005 473.622 326.108C473.324 326.211 472.969 326.262 472.558 326.262C471.989 326.262 471.485 326.145 471.046 325.912C470.617 325.669 470.281 325.324 470.038 324.876C469.805 324.428 469.688 323.882 469.688 323.238C469.688 322.538 469.819 321.936 470.08 321.432C470.351 320.928 470.724 320.541 471.2 320.27C471.676 319.999 472.236 319.864 472.88 319.864C473.356 319.864 473.8 319.957 474.21 320.144C474.621 320.321 474.98 320.592 475.288 320.956C475.596 321.32 475.834 321.777 476.002 322.328C476.18 322.879 476.268 323.527 476.268 324.274ZM472.88 320.9C472.302 320.9 471.826 321.091 471.452 321.474C471.088 321.857 470.906 322.44 470.906 323.224C470.906 323.868 471.06 324.377 471.368 324.75C471.686 325.114 472.171 325.296 472.824 325.296C473.272 325.296 473.66 325.207 473.986 325.03C474.313 324.843 474.565 324.61 474.742 324.33C474.929 324.05 475.022 323.761 475.022 323.462C475.022 323.163 474.976 322.865 474.882 322.566C474.798 322.258 474.668 321.978 474.49 321.726C474.313 321.474 474.089 321.273 473.818 321.124C473.548 320.975 473.235 320.9 472.88 320.9Z" fill="#000240"/>
<path d="M545.733 330H539.125V328.978L541.743 326.332C542.247 325.828 542.672 325.38 543.017 324.988C543.362 324.596 543.624 324.213 543.801 323.84C543.978 323.457 544.067 323.042 544.067 322.594C544.067 322.043 543.904 321.628 543.577 321.348C543.25 321.059 542.826 320.914 542.303 320.914C541.818 320.914 541.388 320.998 541.015 321.166C540.651 321.334 540.278 321.567 539.895 321.866L539.237 321.04C539.498 320.816 539.783 320.615 540.091 320.438C540.408 320.261 540.749 320.121 541.113 320.018C541.486 319.915 541.883 319.864 542.303 319.864C542.928 319.864 543.465 319.971 543.913 320.186C544.361 320.401 544.706 320.709 544.949 321.11C545.201 321.502 545.327 321.973 545.327 322.524C545.327 322.916 545.266 323.289 545.145 323.644C545.024 323.989 544.851 324.33 544.627 324.666C544.403 325.002 544.132 325.343 543.815 325.688C543.498 326.033 543.148 326.393 542.765 326.766L540.679 328.824V328.88H545.733V330ZM553.787 324.988C553.787 325.8 553.726 326.523 553.605 327.158C553.484 327.793 553.288 328.334 553.017 328.782C552.756 329.221 552.41 329.557 551.981 329.79C551.561 330.023 551.052 330.14 550.455 330.14C549.708 330.14 549.088 329.935 548.593 329.524C548.108 329.113 547.744 328.525 547.501 327.76C547.268 326.985 547.151 326.061 547.151 324.988C547.151 323.905 547.258 322.981 547.473 322.216C547.697 321.451 548.052 320.867 548.537 320.466C549.022 320.055 549.662 319.85 550.455 319.85C551.202 319.85 551.822 320.055 552.317 320.466C552.812 320.867 553.18 321.451 553.423 322.216C553.666 322.981 553.787 323.905 553.787 324.988ZM548.383 324.988C548.383 325.903 548.448 326.663 548.579 327.27C548.719 327.877 548.938 328.334 549.237 328.642C549.545 328.941 549.951 329.09 550.455 329.09C550.959 329.09 551.36 328.941 551.659 328.642C551.967 328.343 552.191 327.891 552.331 327.284C552.471 326.668 552.541 325.903 552.541 324.988C552.541 324.073 552.471 323.317 552.331 322.72C552.191 322.113 551.967 321.661 551.659 321.362C551.36 321.054 550.959 320.9 550.455 320.9C549.951 320.9 549.545 321.054 549.237 321.362C548.938 321.661 548.719 322.113 548.579 322.72C548.448 323.317 548.383 324.073 548.383 324.988ZM561.379 322.342C561.379 322.79 561.295 323.177 561.127 323.504C560.959 323.831 560.716 324.097 560.399 324.302C560.091 324.507 559.727 324.652 559.307 324.736V324.792C560.109 324.885 560.707 325.137 561.099 325.548C561.491 325.959 561.687 326.495 561.687 327.158C561.687 327.737 561.551 328.255 561.281 328.712C561.01 329.16 560.59 329.51 560.021 329.762C559.461 330.014 558.737 330.14 557.851 330.14C557.328 330.14 556.843 330.098 556.395 330.014C555.947 329.939 555.517 329.799 555.107 329.594V328.446C555.527 328.651 555.979 328.815 556.465 328.936C556.95 329.048 557.417 329.104 557.865 329.104C558.761 329.104 559.405 328.931 559.797 328.586C560.198 328.231 560.399 327.746 560.399 327.13C560.399 326.71 560.287 326.374 560.063 326.122C559.848 325.861 559.531 325.669 559.111 325.548C558.691 325.427 558.187 325.366 557.599 325.366H556.633V324.316H557.613C558.163 324.316 558.621 324.237 558.985 324.078C559.358 323.919 559.638 323.7 559.825 323.42C560.021 323.131 560.119 322.799 560.119 322.426C560.119 321.941 559.955 321.567 559.629 321.306C559.302 321.035 558.859 320.9 558.299 320.9C557.944 320.9 557.622 320.937 557.333 321.012C557.043 321.077 556.773 321.175 556.521 321.306C556.278 321.427 556.031 321.572 555.779 321.74L555.163 320.9C555.405 320.713 555.681 320.541 555.989 320.382C556.306 320.223 556.656 320.097 557.039 320.004C557.421 319.911 557.837 319.864 558.285 319.864C559.33 319.864 560.105 320.097 560.609 320.564C561.122 321.031 561.379 321.623 561.379 322.342ZM569.81 324.988C569.81 325.8 569.75 326.523 569.628 327.158C569.507 327.793 569.311 328.334 569.04 328.782C568.779 329.221 568.434 329.557 568.004 329.79C567.584 330.023 567.076 330.14 566.478 330.14C565.732 330.14 565.111 329.935 564.616 329.524C564.131 329.113 563.767 328.525 563.524 327.76C563.291 326.985 563.174 326.061 563.174 324.988C563.174 323.905 563.282 322.981 563.496 322.216C563.72 321.451 564.075 320.867 564.56 320.466C565.046 320.055 565.685 319.85 566.478 319.85C567.225 319.85 567.846 320.055 568.34 320.466C568.835 320.867 569.204 321.451 569.446 322.216C569.689 322.981 569.81 323.905 569.81 324.988ZM564.406 324.988C564.406 325.903 564.472 326.663 564.602 327.27C564.742 327.877 564.962 328.334 565.26 328.642C565.568 328.941 565.974 329.09 566.478 329.09C566.982 329.09 567.384 328.941 567.682 328.642C567.99 328.343 568.214 327.891 568.354 327.284C568.494 326.668 568.564 325.903 568.564 324.988C568.564 324.073 568.494 323.317 568.354 322.72C568.214 322.113 567.99 321.661 567.682 321.362C567.384 321.054 566.982 320.9 566.478 320.9C565.974 320.9 565.568 321.054 565.26 321.362C564.962 321.661 564.742 322.113 564.602 322.72C564.472 323.317 564.406 324.073 564.406 324.988Z" fill="#000240"/>
<path d="M639.233 330H632.625V328.978L635.243 326.332C635.747 325.828 636.172 325.38 636.517 324.988C636.862 324.596 637.124 324.213 637.301 323.84C637.478 323.457 637.567 323.042 637.567 322.594C637.567 322.043 637.404 321.628 637.077 321.348C636.75 321.059 636.326 320.914 635.803 320.914C635.318 320.914 634.888 320.998 634.515 321.166C634.151 321.334 633.778 321.567 633.395 321.866L632.737 321.04C632.998 320.816 633.283 320.615 633.591 320.438C633.908 320.261 634.249 320.121 634.613 320.018C634.986 319.915 635.383 319.864 635.803 319.864C636.428 319.864 636.965 319.971 637.413 320.186C637.861 320.401 638.206 320.709 638.449 321.11C638.701 321.502 638.827 321.973 638.827 322.524C638.827 322.916 638.766 323.289 638.645 323.644C638.524 323.989 638.351 324.33 638.127 324.666C637.903 325.002 637.632 325.343 637.315 325.688C636.998 326.033 636.648 326.393 636.265 326.766L634.179 328.824V328.88H639.233V330ZM647.287 324.988C647.287 325.8 647.226 326.523 647.105 327.158C646.984 327.793 646.788 328.334 646.517 328.782C646.256 329.221 645.91 329.557 645.481 329.79C645.061 330.023 644.552 330.14 643.955 330.14C643.208 330.14 642.588 329.935 642.093 329.524C641.608 329.113 641.244 328.525 641.001 327.76C640.768 326.985 640.651 326.061 640.651 324.988C640.651 323.905 640.758 322.981 640.973 322.216C641.197 321.451 641.552 320.867 642.037 320.466C642.522 320.055 643.162 319.85 643.955 319.85C644.702 319.85 645.322 320.055 645.817 320.466C646.312 320.867 646.68 321.451 646.923 322.216C647.166 322.981 647.287 323.905 647.287 324.988ZM641.883 324.988C641.883 325.903 641.948 326.663 642.079 327.27C642.219 327.877 642.438 328.334 642.737 328.642C643.045 328.941 643.451 329.09 643.955 329.09C644.459 329.09 644.86 328.941 645.159 328.642C645.467 328.343 645.691 327.891 645.831 327.284C645.971 326.668 646.041 325.903 646.041 324.988C646.041 324.073 645.971 323.317 645.831 322.72C645.691 322.113 645.467 321.661 645.159 321.362C644.86 321.054 644.459 320.9 643.955 320.9C643.451 320.9 643.045 321.054 642.737 321.362C642.438 321.661 642.219 322.113 642.079 322.72C641.948 323.317 641.883 324.073 641.883 324.988ZM654.879 322.342C654.879 322.79 654.795 323.177 654.627 323.504C654.459 323.831 654.216 324.097 653.899 324.302C653.591 324.507 653.227 324.652 652.807 324.736V324.792C653.609 324.885 654.207 325.137 654.599 325.548C654.991 325.959 655.187 326.495 655.187 327.158C655.187 327.737 655.051 328.255 654.781 328.712C654.51 329.16 654.09 329.51 653.521 329.762C652.961 330.014 652.237 330.14 651.351 330.14C650.828 330.14 650.343 330.098 649.895 330.014C649.447 329.939 649.017 329.799 648.607 329.594V328.446C649.027 328.651 649.479 328.815 649.965 328.936C650.45 329.048 650.917 329.104 651.365 329.104C652.261 329.104 652.905 328.931 653.297 328.586C653.698 328.231 653.899 327.746 653.899 327.13C653.899 326.71 653.787 326.374 653.563 326.122C653.348 325.861 653.031 325.669 652.611 325.548C652.191 325.427 651.687 325.366 651.099 325.366H650.133V324.316H651.113C651.663 324.316 652.121 324.237 652.485 324.078C652.858 323.919 653.138 323.7 653.325 323.42C653.521 323.131 653.619 322.799 653.619 322.426C653.619 321.941 653.455 321.567 653.129 321.306C652.802 321.035 652.359 320.9 651.799 320.9C651.444 320.9 651.122 320.937 650.833 321.012C650.543 321.077 650.273 321.175 650.021 321.306C649.778 321.427 649.531 321.572 649.279 321.74L648.663 320.9C648.905 320.713 649.181 320.541 649.489 320.382C649.806 320.223 650.156 320.097 650.539 320.004C650.921 319.911 651.337 319.864 651.785 319.864C652.83 319.864 653.605 320.097 654.109 320.564C654.622 321.031 654.879 321.623 654.879 322.342ZM660.958 330H659.754V323.014C659.754 322.743 659.754 322.515 659.754 322.328C659.764 322.141 659.773 321.969 659.782 321.81C659.792 321.642 659.801 321.469 659.81 321.292C659.661 321.441 659.526 321.567 659.404 321.67C659.283 321.773 659.129 321.903 658.942 322.062L657.878 322.93L657.234 322.104L659.936 320.004H660.958V330Z" fill="#000240"/>
<path d="M2988 -42.6366L2967.77 -25.5868L2947.59 -46L2927.4 -31.0428L2907.17 12.0761L2886.99 -6.58631L2866.8 21.2178L2846.61 -6.58631L2826.39 10.3825L2806.2 34.2829L2786.01 -28.9524L2765.79 -10.5098L2745.6 9.46711L2725.41 -2.30351L2705.19 -39.2491L2685 10.7617L2664.81 -25.9251L2644.59 5.54359L2624.4 45.1182L2604.21 77.9011L2583.99 77.6024L2563.8 106.721L2543.61 77.6024L2523.39 91.9621L2503.2 118.849L2483.01 126.696L2462.83 74.7928L2442.6 164.398L2422.42 160.475L2402.23 167.007L2382 140.498L2361.82 143.107L2341.63 99.6086L2321.4 110.065L2301.22 109.128L2281.03 98.6715L2260.8 149.26L2240.62 209.311L2220.43 151.869L2200.2 133.586L2180.02 141.413L2159.83 164.098L2139.6 85.6063L2119.42 51.6876L2099.23 69.5548L2079 93.076L2058.82 99.6086L2038.63 61.7277L2018.44 57.5253L1998.22 68.8981L1978.03 54.3984L1957.84 77.2231L1937.62 76.286L1917.43 95.6851L1897.24 104.847L1877.02 81.5041L1856.83 87.2007L1836.64 67.3231L1816.42 95.6851L1796.23 51.629L1776.04 73.4783L1755.82 54.8159L1735.63 57.4249L1715.44 87.6792L1695.22 108.951L1675.03 132.472L1654.84 105.027L1634.62 107.837L1614.43 76.8857L1594.24 18.6286L1574.05 21.5564L1553.83 129.662L1533.64 111.379L1513.45 103.733L1493.23 55.0164L1473.04 89.033L1452.85 50.4332L1432.63 14.6833L1412.44 36.892L1384.56 69.8734L1364.33 86.9232L1344.14 66.5099L1323.96 81.4671L1303.73 124.586L1283.54 105.924L1263.36 133.728L1243.17 105.924L1222.94 122.892L1202.76 146.793L1182.57 83.5576L1162.34 102L1142.16 121.977L1121.97 110.206L1101.74 73.2608L1081.56 123.272L1061.37 86.5848L1041.14 118.054L1020.96 157.628L1000.77 190.411L980.543 190.112L960.357 219.231L940.17 190.112L919.944 204.472L899.757 231.359L879.57 152.66L859.384 187.303L839.157 190.362L818.971 186.438L798.784 192.971L778.557 166.462L758.371 169.071L738.184 212.119L717.958 222.575L697.771 221.637L677.584 211.181L657.358 131.951L637.171 192.002L616.984 134.56L596.758 116.277L576.571 124.104L556.385 146.789L536.158 198.116L515.971 164.198L495.785 182.065L475.558 205.586L455.372 212.119L435.185 174.238L414.998 170.035L394.772 181.408L374.585 166.908L354.398 189.733L334.172 188.796L313.985 208.195L293.798 217.357L273.572 194.014L253.385 199.711L233.199 179.833L212.973 208.195L192.785 164.139L172.599 185.988L152.372 167.326L132.186 169.935L111.999 200.189L91.7725 221.461L71.5858 232L51.3992 217.537L31.1729 220.347L10.9863 189.396L-9.20036 131.139L-29.3875 134.066L-49.6138 229.19L-69.8004 223.889L-89.987 216.243L-110.214 167.526L-130.4 201.543L-150.587 162.943L-170.813 127.193L-191 149.402" stroke="#2C728B" stroke-width="1.5"/>
<path d="M2993 53.2987L2972.77 64.9515L2952.59 51L2932.4 61.2226L2912.17 90.6923L2891.99 77.9374L2871.8 96.9402L2851.61 77.9374L2831.39 89.5348L2811.2 105.87L2791.01 62.6512L2770.79 75.2559L2750.6 88.9092L2730.41 80.8645L2710.19 55.6139L2690 89.794L2669.81 64.7203L2649.59 86.2276L2629.4 113.275L2609.21 135.681L2588.99 135.476L2568.8 155.378L2548.61 135.476L2528.39 145.291L2508.2 163.667L2488.01 169.03L2467.83 133.556L2447.6 194.797L2427.42 192.116L2407.23 196.58L2387 178.462L2366.82 180.246L2346.63 150.517L2326.4 157.663L2306.22 157.022L2286.03 149.876L2265.8 184.451L2245.62 225.493L2225.43 186.234L2205.2 173.739L2185.02 179.088L2164.83 194.592L2144.6 140.947L2124.42 117.765L2104.23 129.976L2084 146.052L2063.82 150.517L2043.63 124.627L2023.44 121.755L2003.22 129.527L1983.03 119.618L1962.84 135.217L1942.62 134.577L1922.43 147.835L1902.24 154.097L1882.02 138.143L1861.83 142.036L1841.64 128.451L1821.42 147.835L1801.23 117.725L1781.04 132.658L1760.82 119.903L1740.63 121.686L1720.44 142.364L1700.22 156.902L1680.03 172.977L1659.84 154.22L1639.62 156.14L1619.43 134.987L1599.24 95.1706L1579.05 97.1716L1558.83 171.057L1538.64 158.561L1518.45 153.335L1498.23 120.04L1478.04 143.289L1457.85 116.908L1437.63 92.4742L1417.44 107.653L1389.56 130.194L1369.33 141.847L1349.14 127.895L1328.96 138.118L1308.73 167.588L1288.54 154.833L1268.36 173.835L1248.17 154.833L1227.94 166.43L1207.76 182.765L1187.57 139.547L1167.34 152.151L1147.16 165.804L1126.97 157.76L1106.74 132.509L1086.56 166.689L1066.37 141.616L1046.14 163.123L1025.96 190.17L1005.77 212.576L985.543 212.372L965.357 232.273L945.17 212.372L924.944 222.186L904.757 240.562L884.57 186.775L864.383 210.452L844.157 212.542L823.971 209.861L803.784 214.326L783.557 196.208L763.371 197.991L743.184 227.412L722.958 234.558L702.771 233.918L682.584 226.771L662.358 172.621L642.171 213.663L621.984 174.404L601.758 161.909L581.571 167.258L561.385 182.762L541.158 217.842L520.971 194.66L500.785 206.872L480.558 222.947L460.372 227.412L440.185 201.522L419.998 198.65L399.772 206.423L379.585 196.513L359.398 212.113L339.172 211.472L318.985 224.73L298.798 230.992L278.572 215.038L258.385 218.932L238.199 205.346L217.973 224.73L197.785 194.62L177.599 209.553L157.373 196.798L137.186 198.581L116.999 219.259L96.7725 233.797L76.5858 241L56.3992 231.115L36.1729 233.036L15.9863 211.882L-4.20036 172.066L-24.3875 174.067L-44.6138 239.08L-64.8004 235.457L-84.987 230.231L-105.214 196.935L-125.4 220.184L-145.587 193.803L-165.813 169.37L-186 184.548" stroke="#A97B00" stroke-width="1.5"/>
<path d="M2987 -28.6366L2966.77 -11.5868L2946.59 -32L2926.4 -17.0428L2906.17 26.0761L2885.99 7.41369L2865.8 35.2178L2845.61 7.41369L2825.39 24.3825L2805.2 48.2829L2785.01 -14.9524L2764.79 3.4902L2744.6 23.4671L2724.41 11.6965L2704.19 -25.2491L2684 24.7617L2663.81 -11.9251L2643.59 19.5436L2623.4 59.1182L2603.21 91.9011L2582.99 91.6024L2562.8 120.721L2542.61 91.6024L2522.39 105.962L2502.2 132.849L2482.01 140.696L2461.83 88.7928L2441.6 178.398L2421.42 174.475L2401.23 181.007L2381 154.498L2360.82 157.107L2340.63 113.609L2320.4 124.065L2300.22 123.128L2280.03 112.671L2259.8 163.26L2239.62 223.311L2219.43 165.869L2199.2 147.586L2179.02 155.413L2158.83 178.098L2138.6 99.6063L2118.42 65.6876L2098.23 83.5548L2078 107.076L2057.82 113.609L2037.63 75.7277L2017.44 71.5253L1997.22 82.8981L1977.03 68.3984L1956.84 91.2231L1936.62 90.286L1916.43 109.685L1896.24 118.847L1876.02 95.5041L1855.83 101.201L1835.64 81.3231L1815.42 109.685L1795.23 65.629L1775.04 87.4783L1754.82 68.8159L1734.63 71.4249L1714.44 101.679L1694.22 122.951L1674.03 146.472L1653.84 119.027L1633.62 121.837L1613.43 90.8857L1593.24 32.6286L1573.05 35.5564L1552.83 143.662L1532.64 125.379L1512.45 117.733L1492.23 69.0164L1472.04 103.033L1451.85 64.4332L1431.63 28.6833L1411.44 50.892L1383.56 83.8734L1363.33 100.923L1343.14 80.5099L1322.96 95.4671L1302.73 138.586L1282.54 119.924L1262.36 147.728L1242.17 119.924L1221.94 136.892L1201.76 160.793L1181.57 97.5576L1161.34 116L1141.16 135.977L1120.97 124.206L1100.74 87.2608L1080.56 137.272L1060.37 100.585L1040.14 132.054L1019.96 171.628L999.77 204.411L979.543 204.112L959.357 233.231L939.17 204.112L918.944 218.472L898.757 245.359L878.57 166.66L858.384 201.303L838.157 204.362L817.971 200.438L797.784 206.971L777.557 180.462L757.371 183.071L737.184 226.119L716.958 236.575L696.771 235.637L676.584 225.181L656.358 145.951L636.171 206.002L615.984 148.56L595.758 130.277L575.571 138.104L555.385 160.789L535.158 212.116L514.971 178.198L494.785 196.065L474.558 219.586L454.372 226.119L434.185 188.238L413.998 184.035L393.772 195.408L373.585 180.908L353.398 203.733L333.172 202.796L312.985 222.195L292.798 231.357L272.572 208.014L252.385 213.711L232.199 193.833L211.973 222.195L191.785 178.139L171.599 199.988L151.372 181.326L131.186 183.935L110.999 214.189L90.7725 235.461L70.5858 246L50.3992 231.537L30.1729 234.347L9.98627 203.396L-10.2004 145.139L-30.3875 148.066L-50.6138 243.19L-70.8004 237.889L-90.987 230.243L-111.214 181.526L-131.4 215.543L-151.587 176.943L-171.813 141.193L-192 163.402" stroke="#7F3100" stroke-width="1.5"/>
<path d="M2996 357.282L2975.77 348.573L2955.59 359L2935.4 351.36L2915.17 329.335L2894.99 338.868L2874.8 324.666L2854.61 338.868L2834.39 330.2L2814.2 317.992L2794.01 350.292L2773.79 340.872L2753.6 330.668L2733.41 336.68L2713.19 355.552L2693 330.007L2672.81 348.746L2652.59 332.672L2632.4 312.458L2612.21 295.712L2591.99 295.865L2571.8 280.991L2551.61 295.865L2531.39 288.53L2511.2 274.797L2491.01 270.788L2470.83 297.3L2450.6 251.53L2430.42 253.535L2410.23 250.198L2390 263.739L2369.82 262.406L2349.63 284.624L2329.4 279.283L2309.22 279.762L2289.03 285.103L2268.8 259.263L2248.62 228.589L2228.43 257.93L2208.2 267.269L2188.02 263.271L2167.83 251.684L2147.6 291.777L2127.42 309.102L2107.23 299.976L2087 287.961L2066.82 284.624L2046.63 303.974L2026.44 306.12L2006.22 300.311L1986.03 307.717L1965.84 296.059L1945.62 296.537L1925.43 286.628L1905.24 281.949L1885.02 293.872L1864.83 290.962L1844.64 301.116L1824.42 286.628L1804.23 309.132L1784.04 297.972L1763.82 307.504L1743.63 306.171L1723.44 290.718L1703.22 279.853L1683.03 267.838L1662.84 281.857L1642.62 280.422L1622.43 296.231L1602.24 325.988L1582.05 324.493L1561.83 269.273L1541.64 278.612L1521.45 282.518L1501.23 307.402L1481.04 290.026L1460.85 309.743L1440.63 328.003L1420.44 316.66L1392.56 299.813L1372.33 291.104L1352.14 301.531L1331.96 293.891L1311.73 271.866L1291.54 281.399L1271.36 267.197L1251.17 281.399L1230.94 272.731L1210.76 260.523L1190.57 292.823L1170.34 283.403L1150.16 273.199L1129.97 279.211L1109.74 298.083L1089.56 272.538L1069.37 291.277L1049.14 275.203L1028.96 254.988L1008.77 238.243L988.543 238.396L968.357 223.522L948.17 238.396L927.944 231.061L907.757 217.327L887.57 257.526L867.384 239.831L847.157 238.268L826.971 240.272L806.784 236.936L786.557 250.476L766.371 249.144L746.184 227.155L725.958 221.814L705.771 222.293L685.584 227.634L665.358 268.104L645.171 237.431L624.984 266.772L604.758 276.11L584.571 272.112L564.385 260.525L544.158 234.308L523.971 251.633L503.785 242.506L483.558 230.492L463.372 227.155L443.185 246.505L422.998 248.651L402.772 242.842L382.585 250.248L362.398 238.59L342.172 239.068L321.985 229.159L301.798 224.48L281.572 236.403L261.385 233.493L241.199 243.646L220.973 229.159L200.785 251.663L180.599 240.502L160.372 250.035L140.186 248.702L119.999 233.249L99.7725 222.383L79.5858 217L59.3992 224.387L39.1729 222.952L18.9863 238.762L-1.20036 268.519L-21.3875 267.024L-41.6138 218.435L-61.8004 221.143L-81.987 225.049L-102.214 249.933L-122.4 232.557L-142.587 252.274L-162.813 270.534L-183 259.19" stroke="#67B0E4" stroke-width="1.5"/>
</g>
<line x1="138" y1="367.5" x2="120" y2="367.5" stroke="#19767E" stroke-width="2"/>
<path d="M134 363.5L129.493 371.5L125 363.5L134 363.5Z" fill="#19767E" stroke="#19767E"/>
<path d="M153.63 373L152.426 369.906H148.464L147.274 373H146L149.906 362.962H151.04L154.932 373H153.63ZM150.928 365.762C150.9 365.687 150.853 365.552 150.788 365.356C150.723 365.16 150.657 364.959 150.592 364.754C150.536 364.539 150.489 364.376 150.452 364.264C150.405 364.451 150.354 364.642 150.298 364.838C150.251 365.025 150.2 365.197 150.144 365.356C150.097 365.515 150.055 365.65 150.018 365.762L148.884 368.786H152.048L150.928 365.762ZM158.973 365.37C159.888 365.37 160.565 365.571 161.003 365.972C161.442 366.373 161.661 367.013 161.661 367.89V373H160.765L160.527 371.936H160.471C160.257 372.207 160.033 372.435 159.799 372.622C159.575 372.799 159.314 372.93 159.015 373.014C158.726 373.098 158.371 373.14 157.951 373.14C157.503 373.14 157.097 373.061 156.733 372.902C156.379 372.743 156.099 372.501 155.893 372.174C155.688 371.838 155.585 371.418 155.585 370.914C155.585 370.167 155.879 369.593 156.467 369.192C157.055 368.781 157.961 368.557 159.183 368.52L160.457 368.478V368.03C160.457 367.405 160.322 366.971 160.051 366.728C159.781 366.485 159.398 366.364 158.903 366.364C158.511 366.364 158.138 366.425 157.783 366.546C157.429 366.658 157.097 366.789 156.789 366.938L156.411 366.014C156.738 365.837 157.125 365.687 157.573 365.566C158.021 365.435 158.488 365.37 158.973 365.37ZM159.337 369.374C158.404 369.411 157.755 369.561 157.391 369.822C157.037 370.083 156.859 370.452 156.859 370.928C156.859 371.348 156.985 371.656 157.237 371.852C157.499 372.048 157.83 372.146 158.231 372.146C158.866 372.146 159.393 371.973 159.813 371.628C160.233 371.273 160.443 370.732 160.443 370.004V369.332L159.337 369.374ZM167.591 365.356C168.487 365.356 169.164 365.575 169.621 366.014C170.078 366.443 170.307 367.143 170.307 368.114V373H169.089V368.198C169.089 367.591 168.954 367.139 168.683 366.84C168.412 366.541 167.988 366.392 167.409 366.392C166.578 366.392 166.004 366.625 165.687 367.092C165.37 367.559 165.211 368.231 165.211 369.108V373H163.979V365.496H164.973L165.155 366.518H165.225C165.393 366.257 165.598 366.042 165.841 365.874C166.093 365.697 166.368 365.566 166.667 365.482C166.966 365.398 167.274 365.356 167.591 365.356ZM175.293 373.14C174.36 373.14 173.613 372.818 173.053 372.174C172.493 371.521 172.213 370.55 172.213 369.262C172.213 367.974 172.493 367.003 173.053 366.35C173.623 365.687 174.374 365.356 175.307 365.356C175.699 365.356 176.04 365.407 176.329 365.51C176.619 365.603 176.871 365.734 177.085 365.902C177.3 366.07 177.482 366.257 177.631 366.462H177.715C177.706 366.341 177.687 366.163 177.659 365.93C177.641 365.687 177.631 365.496 177.631 365.356V362.36H178.863V373H177.869L177.687 371.992H177.631C177.482 372.207 177.3 372.403 177.085 372.58C176.871 372.748 176.614 372.883 176.315 372.986C176.026 373.089 175.685 373.14 175.293 373.14ZM175.489 372.118C176.283 372.118 176.838 371.903 177.155 371.474C177.482 371.035 177.645 370.377 177.645 369.5V369.276C177.645 368.343 177.491 367.629 177.183 367.134C176.875 366.63 176.306 366.378 175.475 366.378C174.813 366.378 174.313 366.644 173.977 367.176C173.651 367.699 173.487 368.403 173.487 369.29C173.487 370.186 173.651 370.881 173.977 371.376C174.313 371.871 174.817 372.118 175.489 372.118ZM184.145 365.356C184.789 365.356 185.339 365.496 185.797 365.776C186.263 366.056 186.618 366.453 186.861 366.966C187.113 367.47 187.239 368.063 187.239 368.744V369.486H182.101C182.119 370.335 182.334 370.984 182.745 371.432C183.165 371.871 183.748 372.09 184.495 372.09C184.971 372.09 185.391 372.048 185.755 371.964C186.128 371.871 186.511 371.74 186.903 371.572V372.65C186.52 372.818 186.142 372.939 185.769 373.014C185.395 373.098 184.952 373.14 184.439 373.14C183.729 373.14 183.099 372.995 182.549 372.706C182.007 372.417 181.583 371.987 181.275 371.418C180.976 370.839 180.827 370.135 180.827 369.304C180.827 368.483 180.962 367.778 181.233 367.19C181.513 366.602 181.9 366.149 182.395 365.832C182.899 365.515 183.482 365.356 184.145 365.356ZM184.131 366.364C183.543 366.364 183.076 366.555 182.731 366.938C182.395 367.311 182.194 367.834 182.129 368.506H185.951C185.951 368.077 185.885 367.703 185.755 367.386C185.624 367.069 185.423 366.821 185.153 366.644C184.891 366.457 184.551 366.364 184.131 366.364ZM190.381 373H189.149V362.36H190.381V373ZM195.656 365.356C196.3 365.356 196.851 365.496 197.308 365.776C197.775 366.056 198.13 366.453 198.372 366.966C198.624 367.47 198.75 368.063 198.75 368.744V369.486H193.612C193.631 370.335 193.846 370.984 194.256 371.432C194.676 371.871 195.26 372.09 196.006 372.09C196.482 372.09 196.902 372.048 197.266 371.964C197.64 371.871 198.022 371.74 198.414 371.572V372.65C198.032 372.818 197.654 372.939 197.28 373.014C196.907 373.098 196.464 373.14 195.95 373.14C195.241 373.14 194.611 372.995 194.06 372.706C193.519 372.417 193.094 371.987 192.786 371.418C192.488 370.839 192.338 370.135 192.338 369.304C192.338 368.483 192.474 367.778 192.744 367.19C193.024 366.602 193.412 366.149 193.906 365.832C194.41 365.515 194.994 365.356 195.656 365.356ZM195.642 366.364C195.054 366.364 194.588 366.555 194.242 366.938C193.906 367.311 193.706 367.834 193.64 368.506H197.462C197.462 368.077 197.397 367.703 197.266 367.386C197.136 367.069 196.935 366.821 196.664 366.644C196.403 366.457 196.062 366.364 195.642 366.364ZM204.273 365.356C205.169 365.356 205.845 365.575 206.303 366.014C206.76 366.443 206.989 367.143 206.989 368.114V373H205.771V368.198C205.771 367.591 205.635 367.139 205.365 366.84C205.094 366.541 204.669 366.392 204.091 366.392C203.26 366.392 202.686 366.625 202.369 367.092C202.051 367.559 201.893 368.231 201.893 369.108V373H200.661V365.496H201.655L201.837 366.518H201.907C202.075 366.257 202.28 366.042 202.523 365.874C202.775 365.697 203.05 365.566 203.349 365.482C203.647 365.398 203.955 365.356 204.273 365.356Z" fill="#000240"/>
<rect width="8" height="8" transform="translate(237.5 363.5)" fill="#A97B00"/>
<line x1="250" y1="367.5" x2="233" y2="367.5" stroke="#A97B00" stroke-width="2"/>
<path d="M263.698 367.722H267.156V372.622C266.615 372.799 266.069 372.93 265.518 373.014C264.967 373.098 264.342 373.14 263.642 373.14C262.606 373.14 261.733 372.935 261.024 372.524C260.315 372.104 259.773 371.511 259.4 370.746C259.036 369.971 258.854 369.057 258.854 368.002C258.854 366.957 259.059 366.051 259.47 365.286C259.881 364.521 260.469 363.928 261.234 363.508C262.009 363.079 262.942 362.864 264.034 362.864C264.594 362.864 265.121 362.915 265.616 363.018C266.12 363.121 266.587 363.265 267.016 363.452L266.54 364.544C266.185 364.385 265.784 364.25 265.336 364.138C264.897 364.026 264.44 363.97 263.964 363.97C263.171 363.97 262.489 364.133 261.92 364.46C261.351 364.787 260.917 365.253 260.618 365.86C260.319 366.457 260.17 367.171 260.17 368.002C260.17 368.795 260.296 369.5 260.548 370.116C260.809 370.723 261.215 371.199 261.766 371.544C262.317 371.88 263.04 372.048 263.936 372.048C264.235 372.048 264.496 372.039 264.72 372.02C264.953 371.992 265.163 371.959 265.35 371.922C265.546 371.885 265.728 371.847 265.896 371.81V368.842H263.698V367.722ZM272.876 365.356C273.016 365.356 273.165 365.365 273.324 365.384C273.492 365.393 273.636 365.412 273.758 365.44L273.604 366.574C273.482 366.546 273.347 366.523 273.198 366.504C273.058 366.485 272.922 366.476 272.792 366.476C272.502 366.476 272.227 366.537 271.966 366.658C271.704 366.779 271.471 366.952 271.266 367.176C271.06 367.391 270.897 367.652 270.776 367.96C270.664 368.268 270.608 368.613 270.608 368.996V373H269.376V365.496H270.384L270.524 366.868H270.58C270.738 366.588 270.93 366.336 271.154 366.112C271.378 365.879 271.634 365.697 271.924 365.566C272.213 365.426 272.53 365.356 272.876 365.356ZM281.409 369.234C281.409 369.859 281.325 370.415 281.157 370.9C280.999 371.376 280.765 371.782 280.457 372.118C280.159 372.454 279.79 372.711 279.351 372.888C278.922 373.056 278.441 373.14 277.909 373.14C277.415 373.14 276.957 373.056 276.537 372.888C276.117 372.711 275.753 372.454 275.445 372.118C275.137 371.782 274.895 371.376 274.717 370.9C274.549 370.415 274.465 369.859 274.465 369.234C274.465 368.403 274.605 367.703 274.885 367.134C275.165 366.555 275.567 366.117 276.089 365.818C276.612 365.51 277.233 365.356 277.951 365.356C278.633 365.356 279.23 365.51 279.743 365.818C280.266 366.117 280.672 366.555 280.961 367.134C281.26 367.703 281.409 368.403 281.409 369.234ZM275.739 369.234C275.739 369.822 275.814 370.335 275.963 370.774C276.122 371.203 276.365 371.535 276.691 371.768C277.018 372.001 277.433 372.118 277.937 372.118C278.441 372.118 278.857 372.001 279.183 371.768C279.51 371.535 279.748 371.203 279.897 370.774C280.056 370.335 280.135 369.822 280.135 369.234C280.135 368.637 280.056 368.128 279.897 367.708C279.739 367.288 279.496 366.966 279.169 366.742C278.852 366.509 278.437 366.392 277.923 366.392C277.158 366.392 276.603 366.644 276.257 367.148C275.912 367.652 275.739 368.347 275.739 369.234ZM286.974 365.356C287.87 365.356 288.547 365.575 289.004 366.014C289.461 366.443 289.69 367.143 289.69 368.114V373H288.472V368.198C288.472 367.591 288.337 367.139 288.066 366.84C287.795 366.541 287.371 366.392 286.792 366.392C285.961 366.392 285.387 366.625 285.07 367.092C284.753 367.559 284.594 368.231 284.594 369.108V373H283.362V365.496H284.356L284.538 366.518H284.608C284.776 366.257 284.981 366.042 285.224 365.874C285.476 365.697 285.751 365.566 286.05 365.482C286.349 365.398 286.657 365.356 286.974 365.356ZM294.676 373.14C293.743 373.14 292.996 372.818 292.436 372.174C291.876 371.521 291.596 370.55 291.596 369.262C291.596 367.974 291.876 367.003 292.436 366.35C293.006 365.687 293.757 365.356 294.69 365.356C295.082 365.356 295.423 365.407 295.712 365.51C296.002 365.603 296.254 365.734 296.468 365.902C296.683 366.07 296.865 366.257 297.014 366.462H297.098C297.089 366.341 297.07 366.163 297.042 365.93C297.024 365.687 297.014 365.496 297.014 365.356V362.36H298.246V373H297.252L297.07 371.992H297.014C296.865 372.207 296.683 372.403 296.468 372.58C296.254 372.748 295.997 372.883 295.698 372.986C295.409 373.089 295.068 373.14 294.676 373.14ZM294.872 372.118C295.666 372.118 296.221 371.903 296.538 371.474C296.865 371.035 297.028 370.377 297.028 369.5V369.276C297.028 368.343 296.874 367.629 296.566 367.134C296.258 366.63 295.689 366.378 294.858 366.378C294.196 366.378 293.696 366.644 293.36 367.176C293.034 367.699 292.87 368.403 292.87 369.29C292.87 370.186 293.034 370.881 293.36 371.376C293.696 371.871 294.2 372.118 294.872 372.118ZM305.515 370.928C305.515 371.413 305.394 371.819 305.151 372.146C304.909 372.473 304.563 372.72 304.115 372.888C303.667 373.056 303.135 373.14 302.519 373.14C301.997 373.14 301.544 373.098 301.161 373.014C300.788 372.93 300.457 372.813 300.167 372.664V371.544C300.466 371.693 300.825 371.833 301.245 371.964C301.675 372.085 302.109 372.146 302.547 372.146C303.173 372.146 303.625 372.048 303.905 371.852C304.185 371.647 304.325 371.376 304.325 371.04C304.325 370.853 304.274 370.685 304.171 370.536C304.069 370.387 303.882 370.237 303.611 370.088C303.35 369.939 302.972 369.771 302.477 369.584C301.992 369.397 301.577 369.211 301.231 369.024C300.886 368.837 300.62 368.613 300.433 368.352C300.247 368.091 300.153 367.755 300.153 367.344C300.153 366.709 300.41 366.219 300.923 365.874C301.446 365.529 302.127 365.356 302.967 365.356C303.425 365.356 303.849 365.403 304.241 365.496C304.643 365.58 305.016 365.701 305.361 365.86L304.941 366.84C304.736 366.747 304.517 366.667 304.283 366.602C304.059 366.527 303.831 366.471 303.597 366.434C303.364 366.387 303.126 366.364 302.883 366.364C302.379 366.364 301.992 366.448 301.721 366.616C301.46 366.775 301.329 366.994 301.329 367.274C301.329 367.479 301.39 367.657 301.511 367.806C301.633 367.946 301.833 368.086 302.113 368.226C302.403 368.357 302.785 368.515 303.261 368.702C303.737 368.879 304.143 369.061 304.479 369.248C304.815 369.435 305.072 369.663 305.249 369.934C305.427 370.195 305.515 370.527 305.515 370.928ZM309.835 372.132C310.021 372.132 310.213 372.118 310.409 372.09C310.605 372.053 310.763 372.015 310.885 371.978V372.916C310.754 372.981 310.567 373.033 310.325 373.07C310.082 373.117 309.849 373.14 309.625 373.14C309.233 373.14 308.869 373.075 308.533 372.944C308.206 372.804 307.94 372.566 307.735 372.23C307.529 371.894 307.427 371.423 307.427 370.816V366.448H306.363V365.86L307.441 365.37L307.931 363.774H308.659V365.496H310.829V366.448H308.659V370.788C308.659 371.245 308.766 371.586 308.981 371.81C309.205 372.025 309.489 372.132 309.835 372.132ZM318.911 369.234C318.911 369.859 318.827 370.415 318.659 370.9C318.501 371.376 318.267 371.782 317.959 372.118C317.661 372.454 317.292 372.711 316.853 372.888C316.424 373.056 315.943 373.14 315.411 373.14C314.917 373.14 314.459 373.056 314.039 372.888C313.619 372.711 313.255 372.454 312.947 372.118C312.639 371.782 312.397 371.376 312.219 370.9C312.051 370.415 311.967 369.859 311.967 369.234C311.967 368.403 312.107 367.703 312.387 367.134C312.667 366.555 313.069 366.117 313.591 365.818C314.114 365.51 314.735 365.356 315.453 365.356C316.135 365.356 316.732 365.51 317.245 365.818C317.768 366.117 318.174 366.555 318.463 367.134C318.762 367.703 318.911 368.403 318.911 369.234ZM313.241 369.234C313.241 369.822 313.316 370.335 313.465 370.774C313.624 371.203 313.867 371.535 314.193 371.768C314.52 372.001 314.935 372.118 315.439 372.118C315.943 372.118 316.359 372.001 316.685 371.768C317.012 371.535 317.25 371.203 317.399 370.774C317.558 370.335 317.637 369.822 317.637 369.234C317.637 368.637 317.558 368.128 317.399 367.708C317.241 367.288 316.998 366.966 316.671 366.742C316.354 366.509 315.939 366.392 315.425 366.392C314.66 366.392 314.105 366.644 313.759 367.148C313.414 367.652 313.241 368.347 313.241 369.234ZM324.322 366.448H322.432V373H321.2V366.448H319.884V365.874L321.2 365.454V365.02C321.2 364.376 321.293 363.853 321.48 363.452C321.676 363.051 321.956 362.757 322.32 362.57C322.684 362.383 323.122 362.29 323.636 362.29C323.934 362.29 324.205 362.318 324.448 362.374C324.7 362.421 324.914 362.477 325.092 362.542L324.77 363.508C324.62 363.461 324.448 363.415 324.252 363.368C324.056 363.321 323.855 363.298 323.65 363.298C323.239 363.298 322.931 363.438 322.726 363.718C322.53 363.989 322.432 364.418 322.432 365.006V365.496H324.322V366.448ZM329.138 366.448H327.248V373H326.016V366.448H324.7V365.874L326.016 365.454V365.02C326.016 364.376 326.109 363.853 326.296 363.452C326.492 363.051 326.772 362.757 327.136 362.57C327.5 362.383 327.938 362.29 328.452 362.29C328.75 362.29 329.021 362.318 329.264 362.374C329.516 362.421 329.73 362.477 329.908 362.542L329.586 363.508C329.436 363.461 329.264 363.415 329.068 363.368C328.872 363.321 328.671 363.298 328.466 363.298C328.055 363.298 327.747 363.438 327.542 363.718C327.346 363.989 327.248 364.418 327.248 365.006V365.496H329.138V366.448ZM333.401 365.356C334.045 365.356 334.595 365.496 335.053 365.776C335.519 366.056 335.874 366.453 336.117 366.966C336.369 367.47 336.495 368.063 336.495 368.744V369.486H331.357C331.375 370.335 331.59 370.984 332.001 371.432C332.421 371.871 333.004 372.09 333.751 372.09C334.227 372.09 334.647 372.048 335.011 371.964C335.384 371.871 335.767 371.74 336.159 371.572V372.65C335.776 372.818 335.398 372.939 335.025 373.014C334.651 373.098 334.208 373.14 333.695 373.14C332.985 373.14 332.355 372.995 331.805 372.706C331.263 372.417 330.839 371.987 330.531 371.418C330.232 370.839 330.083 370.135 330.083 369.304C330.083 368.483 330.218 367.778 330.489 367.19C330.769 366.602 331.156 366.149 331.651 365.832C332.155 365.515 332.738 365.356 333.401 365.356ZM333.387 366.364C332.799 366.364 332.332 366.555 331.987 366.938C331.651 367.311 331.45 367.834 331.385 368.506H335.207C335.207 368.077 335.141 367.703 335.011 367.386C334.88 367.069 334.679 366.821 334.409 366.644C334.147 366.457 333.807 366.364 333.387 366.364ZM342.017 365.356C342.913 365.356 343.59 365.575 344.047 366.014C344.504 366.443 344.733 367.143 344.733 368.114V373H343.515V368.198C343.515 367.591 343.38 367.139 343.109 366.84C342.838 366.541 342.414 366.392 341.835 366.392C341.004 366.392 340.43 366.625 340.113 367.092C339.796 367.559 339.637 368.231 339.637 369.108V373H338.405V365.496H339.399L339.581 366.518H339.651C339.819 366.257 340.024 366.042 340.267 365.874C340.519 365.697 340.794 365.566 341.093 365.482C341.392 365.398 341.7 365.356 342.017 365.356Z" fill="#000240"/>
<rect x="373.5" y="364.5" width="6" height="6" rx="3" fill="#7F3100"/>
<rect x="373.5" y="364.5" width="6" height="6" rx="3" stroke="#7F3100"/>
<line x1="384" y1="367.5" x2="370" y2="367.5" stroke="#7F3100" stroke-width="2"/>
<path d="M395.944 372.5L392.062 362.479H393.497L396.102 369.759C396.311 370.342 396.487 370.889 396.628 371.399C396.783 370.853 396.963 370.306 397.168 369.759L399.875 362.479H401.229L397.305 372.5H395.944ZM405.959 371.604C405.503 371.992 405.063 372.265 404.64 372.425C404.22 372.584 403.769 372.664 403.286 372.664C402.489 372.664 401.876 372.47 401.447 372.083C401.019 371.691 400.805 371.192 400.805 370.586C400.805 370.23 400.884 369.907 401.044 369.615C401.208 369.319 401.42 369.082 401.68 368.904C401.944 368.727 402.24 368.592 402.568 368.501C402.81 368.437 403.174 368.376 403.662 368.316C404.656 368.198 405.387 368.057 405.856 367.893C405.861 367.724 405.863 367.617 405.863 367.571C405.863 367.07 405.747 366.717 405.515 366.512C405.2 366.234 404.733 366.095 404.113 366.095C403.535 366.095 403.106 366.197 402.828 366.402C402.555 366.603 402.352 366.961 402.22 367.476L401.017 367.312C401.126 366.797 401.306 366.382 401.557 366.067C401.807 365.748 402.17 365.505 402.644 365.336C403.118 365.163 403.667 365.076 404.291 365.076C404.911 365.076 405.414 365.149 405.802 365.295C406.189 365.441 406.474 365.625 406.656 365.849C406.839 366.067 406.966 366.345 407.039 366.683C407.08 366.892 407.101 367.271 407.101 367.817V369.458C407.101 370.602 407.126 371.326 407.176 371.632C407.23 371.933 407.335 372.222 407.49 372.5H406.205C406.077 372.245 405.995 371.946 405.959 371.604ZM405.856 368.856C405.41 369.039 404.74 369.194 403.847 369.321C403.341 369.394 402.983 369.476 402.773 369.567C402.564 369.659 402.402 369.793 402.288 369.971C402.174 370.144 402.117 370.338 402.117 370.552C402.117 370.88 402.24 371.153 402.486 371.372C402.737 371.591 403.102 371.7 403.58 371.7C404.054 371.7 404.476 371.598 404.845 371.393C405.214 371.183 405.485 370.898 405.658 370.538C405.79 370.26 405.856 369.85 405.856 369.308V368.856ZM408.522 370.333L409.739 370.142C409.808 370.629 409.997 371.003 410.307 371.263C410.621 371.522 411.059 371.652 411.619 371.652C412.184 371.652 412.604 371.538 412.877 371.311C413.15 371.078 413.287 370.807 413.287 370.497C413.287 370.219 413.166 370 412.925 369.841C412.756 369.731 412.337 369.592 411.667 369.424C410.765 369.196 410.138 369 409.787 368.836C409.441 368.667 409.176 368.437 408.994 368.146C408.816 367.849 408.728 367.523 408.728 367.168C408.728 366.844 408.8 366.546 408.946 366.272C409.097 365.994 409.299 365.764 409.555 365.582C409.746 365.441 410.006 365.322 410.334 365.227C410.667 365.126 411.022 365.076 411.4 365.076C411.97 365.076 412.469 365.158 412.897 365.322C413.33 365.486 413.649 365.71 413.854 365.992C414.06 366.27 414.201 366.644 414.278 367.113L413.075 367.277C413.021 366.904 412.861 366.612 412.597 366.402C412.337 366.193 411.968 366.088 411.489 366.088C410.924 366.088 410.521 366.181 410.279 366.368C410.038 366.555 409.917 366.774 409.917 367.024C409.917 367.184 409.967 367.327 410.067 367.455C410.168 367.587 410.325 367.697 410.539 367.783C410.662 367.829 411.024 367.934 411.626 368.098C412.496 368.33 413.103 368.521 413.444 368.672C413.791 368.818 414.062 369.032 414.258 369.314C414.454 369.597 414.552 369.948 414.552 370.367C414.552 370.777 414.431 371.165 414.189 371.529C413.952 371.889 413.608 372.17 413.157 372.37C412.706 372.566 412.196 372.664 411.626 372.664C410.683 372.664 409.963 372.468 409.466 372.076C408.974 371.684 408.659 371.103 408.522 370.333ZM418.701 371.399L418.879 372.486C418.533 372.559 418.223 372.596 417.949 372.596C417.503 372.596 417.156 372.525 416.91 372.384C416.664 372.243 416.491 372.058 416.391 371.83C416.29 371.598 416.24 371.112 416.24 370.374V366.197H415.338V365.24H416.24V363.442L417.464 362.704V365.24H418.701V366.197H417.464V370.442C417.464 370.793 417.484 371.019 417.525 371.119C417.571 371.219 417.642 371.299 417.737 371.358C417.838 371.418 417.979 371.447 418.161 371.447C418.298 371.447 418.478 371.431 418.701 371.399ZM419.686 373.102L420.882 373.279C420.932 373.648 421.071 373.917 421.299 374.086C421.604 374.314 422.021 374.428 422.55 374.428C423.119 374.428 423.559 374.314 423.869 374.086C424.179 373.858 424.389 373.539 424.498 373.129C424.562 372.878 424.591 372.352 424.587 371.55C424.049 372.183 423.379 372.5 422.577 372.5C421.579 372.5 420.807 372.14 420.26 371.42C419.713 370.7 419.439 369.836 419.439 368.829C419.439 368.136 419.565 367.498 419.815 366.915C420.066 366.327 420.428 365.874 420.902 365.555C421.381 365.236 421.941 365.076 422.584 365.076C423.441 365.076 424.147 365.423 424.703 366.115V365.24H425.838V371.516C425.838 372.646 425.722 373.446 425.489 373.915C425.261 374.389 424.897 374.763 424.396 375.036C423.899 375.31 423.286 375.446 422.557 375.446C421.691 375.446 420.991 375.25 420.458 374.858C419.925 374.471 419.667 373.885 419.686 373.102ZM420.704 368.74C420.704 369.693 420.893 370.388 421.271 370.825C421.65 371.263 422.124 371.481 422.693 371.481C423.258 371.481 423.732 371.265 424.115 370.832C424.498 370.395 424.689 369.711 424.689 368.781C424.689 367.893 424.491 367.223 424.095 366.771C423.703 366.32 423.229 366.095 422.673 366.095C422.126 366.095 421.661 366.318 421.278 366.765C420.896 367.207 420.704 367.865 420.704 368.74ZM427.246 368.87C427.246 367.526 427.62 366.53 428.367 365.883C428.992 365.345 429.753 365.076 430.65 365.076C431.648 365.076 432.464 365.404 433.098 366.061C433.731 366.712 434.048 367.615 434.048 368.768C434.048 369.702 433.907 370.438 433.624 370.976C433.346 371.509 432.938 371.924 432.4 372.22C431.867 372.516 431.284 372.664 430.65 372.664C429.634 372.664 428.812 372.338 428.183 371.687C427.558 371.035 427.246 370.096 427.246 368.87ZM428.511 368.87C428.511 369.8 428.714 370.497 429.119 370.962C429.525 371.422 430.035 371.652 430.65 371.652C431.261 371.652 431.769 371.42 432.175 370.955C432.58 370.49 432.783 369.782 432.783 368.829C432.783 367.931 432.578 367.252 432.168 366.792C431.762 366.327 431.257 366.095 430.65 366.095C430.035 366.095 429.525 366.325 429.119 366.785C428.714 367.245 428.511 367.94 428.511 368.87ZM440.467 370.162L441.738 370.319C441.538 371.062 441.166 371.639 440.624 372.049C440.082 372.459 439.389 372.664 438.546 372.664C437.484 372.664 436.641 372.338 436.017 371.687C435.397 371.03 435.087 370.112 435.087 368.932C435.087 367.71 435.401 366.762 436.03 366.088C436.659 365.413 437.475 365.076 438.478 365.076C439.448 365.076 440.241 365.407 440.856 366.067C441.472 366.728 441.779 367.658 441.779 368.856C441.779 368.929 441.777 369.039 441.772 369.185H436.358C436.404 369.982 436.63 370.593 437.035 371.017C437.441 371.44 437.947 371.652 438.553 371.652C439.004 371.652 439.389 371.534 439.708 371.297C440.027 371.06 440.28 370.682 440.467 370.162ZM436.427 368.173H440.48C440.426 367.562 440.271 367.104 440.016 366.799C439.624 366.325 439.116 366.088 438.491 366.088C437.926 366.088 437.45 366.277 437.062 366.655C436.68 367.034 436.468 367.539 436.427 368.173ZM448 372.5V371.584C447.54 372.304 446.863 372.664 445.97 372.664C445.391 372.664 444.858 372.505 444.37 372.186C443.887 371.867 443.511 371.422 443.242 370.853C442.978 370.278 442.846 369.62 442.846 368.877C442.846 368.152 442.966 367.496 443.208 366.908C443.45 366.316 443.812 365.862 444.295 365.548C444.778 365.233 445.318 365.076 445.915 365.076C446.353 365.076 446.742 365.17 447.084 365.356C447.426 365.539 447.704 365.778 447.918 366.074V362.479H449.142V372.5H448ZM444.11 368.877C444.11 369.807 444.306 370.502 444.698 370.962C445.09 371.422 445.553 371.652 446.086 371.652C446.624 371.652 447.079 371.434 447.453 370.996C447.831 370.554 448.021 369.882 448.021 368.979C448.021 367.986 447.829 367.257 447.446 366.792C447.063 366.327 446.592 366.095 446.031 366.095C445.484 366.095 445.026 366.318 444.657 366.765C444.293 367.211 444.11 367.915 444.11 368.877Z" fill="#000240"/>
<rect width="7" height="7" transform="translate(483.657 362.55) rotate(45)" fill="#67B0E4"/>
<line x1="492" y1="367.851" x2="475" y2="367.851" stroke="#67B0E4" stroke-width="2"/>
<path d="M510.08 367.988C510.08 368.763 509.982 369.467 509.786 370.102C509.59 370.727 509.296 371.269 508.904 371.726C508.521 372.183 508.041 372.533 507.462 372.776C506.893 373.019 506.23 373.14 505.474 373.14C504.69 373.14 504.009 373.019 503.43 372.776C502.851 372.524 502.371 372.174 501.988 371.726C501.605 371.269 501.321 370.723 501.134 370.088C500.947 369.453 500.854 368.749 500.854 367.974C500.854 366.947 501.022 366.051 501.358 365.286C501.694 364.521 502.203 363.923 502.884 363.494C503.575 363.065 504.443 362.85 505.488 362.85C506.487 362.85 507.327 363.065 508.008 363.494C508.689 363.914 509.203 364.511 509.548 365.286C509.903 366.051 510.08 366.952 510.08 367.988ZM502.184 367.988C502.184 368.828 502.301 369.551 502.534 370.158C502.767 370.765 503.127 371.231 503.612 371.558C504.107 371.885 504.727 372.048 505.474 372.048C506.23 372.048 506.846 371.885 507.322 371.558C507.807 371.231 508.167 370.765 508.4 370.158C508.633 369.551 508.75 368.828 508.75 367.988C508.75 366.728 508.489 365.743 507.966 365.034C507.443 364.315 506.617 363.956 505.488 363.956C504.732 363.956 504.107 364.119 503.612 364.446C503.127 364.763 502.767 365.225 502.534 365.832C502.301 366.429 502.184 367.148 502.184 367.988ZM513.36 364.95C513.36 365.267 513.35 365.566 513.332 365.846C513.322 366.117 513.308 366.331 513.29 366.49H513.36C513.574 366.173 513.868 365.907 514.242 365.692C514.615 365.477 515.096 365.37 515.684 365.37C516.617 365.37 517.364 365.697 517.924 366.35C518.493 366.994 518.778 367.96 518.778 369.248C518.778 370.107 518.647 370.825 518.386 371.404C518.133 371.983 517.774 372.417 517.308 372.706C516.841 372.995 516.3 373.14 515.684 373.14C515.096 373.14 514.615 373.033 514.242 372.818C513.868 372.603 513.574 372.347 513.36 372.048H513.262L513.01 373H512.128V362.36H513.36V364.95ZM515.474 366.392C514.942 366.392 514.522 366.495 514.214 366.7C513.906 366.896 513.686 367.204 513.556 367.624C513.425 368.035 513.36 368.562 513.36 369.206V369.262C513.36 370.186 513.509 370.895 513.808 371.39C514.116 371.875 514.68 372.118 515.502 372.118C516.174 372.118 516.673 371.871 517 371.376C517.336 370.881 517.504 370.167 517.504 369.234C517.504 368.291 517.336 367.582 517 367.106C516.673 366.63 516.164 366.392 515.474 366.392ZM521.973 373H520.741V362.36H521.973V373ZM525.582 365.496V373H524.35V365.496H525.582ZM524.98 362.682C525.167 362.682 525.33 362.747 525.47 362.878C525.619 362.999 525.694 363.195 525.694 363.466C525.694 363.727 525.619 363.923 525.47 364.054C525.33 364.185 525.167 364.25 524.98 364.25C524.775 364.25 524.602 364.185 524.462 364.054C524.322 363.923 524.252 363.727 524.252 363.466C524.252 363.195 524.322 362.999 524.462 362.878C524.602 362.747 524.775 362.682 524.98 362.682ZM530.62 365.356C531.114 365.356 531.558 365.449 531.95 365.636C532.351 365.823 532.692 366.107 532.972 366.49H533.042L533.21 365.496H534.19V373.126C534.19 373.835 534.068 374.428 533.826 374.904C533.583 375.389 533.214 375.753 532.72 375.996C532.225 376.239 531.595 376.36 530.83 376.36C530.288 376.36 529.789 376.318 529.332 376.234C528.884 376.159 528.482 376.043 528.128 375.884V374.75C528.37 374.871 528.636 374.974 528.926 375.058C529.215 375.151 529.528 375.221 529.864 375.268C530.2 375.315 530.545 375.338 530.9 375.338C531.544 375.338 532.048 375.147 532.412 374.764C532.785 374.391 532.972 373.877 532.972 373.224V372.93C532.972 372.818 532.976 372.659 532.986 372.454C532.995 372.239 533.004 372.09 533.014 372.006H532.958C532.696 372.389 532.37 372.673 531.978 372.86C531.595 373.047 531.147 373.14 530.634 373.14C529.663 373.14 528.902 372.799 528.352 372.118C527.81 371.437 527.54 370.485 527.54 369.262C527.54 368.459 527.661 367.769 527.904 367.19C528.156 366.602 528.51 366.149 528.968 365.832C529.425 365.515 529.976 365.356 530.62 365.356ZM530.788 366.392C530.368 366.392 530.008 366.504 529.71 366.728C529.42 366.952 529.196 367.279 529.038 367.708C528.888 368.137 528.814 368.66 528.814 369.276C528.814 370.2 528.982 370.909 529.318 371.404C529.663 371.889 530.162 372.132 530.816 372.132C531.198 372.132 531.525 372.085 531.796 371.992C532.066 371.889 532.29 371.735 532.468 371.53C532.645 371.315 532.776 371.045 532.86 370.718C532.944 370.391 532.986 370.004 532.986 369.556V369.262C532.986 368.581 532.906 368.03 532.748 367.61C532.598 367.19 532.36 366.882 532.034 366.686C531.707 366.49 531.292 366.392 530.788 366.392ZM539.415 365.37C540.329 365.37 541.006 365.571 541.445 365.972C541.883 366.373 542.103 367.013 542.103 367.89V373H541.207L540.969 371.936H540.913C540.698 372.207 540.474 372.435 540.241 372.622C540.017 372.799 539.755 372.93 539.457 373.014C539.167 373.098 538.813 373.14 538.393 373.14C537.945 373.14 537.539 373.061 537.175 372.902C536.82 372.743 536.54 372.501 536.335 372.174C536.129 371.838 536.027 371.418 536.027 370.914C536.027 370.167 536.321 369.593 536.909 369.192C537.497 368.781 538.402 368.557 539.625 368.52L540.899 368.478V368.03C540.899 367.405 540.763 366.971 540.493 366.728C540.222 366.485 539.839 366.364 539.345 366.364C538.953 366.364 538.579 366.425 538.225 366.546C537.87 366.658 537.539 366.789 537.231 366.938L536.853 366.014C537.179 365.837 537.567 365.687 538.015 365.566C538.463 365.435 538.929 365.37 539.415 365.37ZM539.779 369.374C538.845 369.411 538.197 369.561 537.833 369.822C537.478 370.083 537.301 370.452 537.301 370.928C537.301 371.348 537.427 371.656 537.679 371.852C537.94 372.048 538.271 372.146 538.673 372.146C539.307 372.146 539.835 371.973 540.255 371.628C540.675 371.273 540.885 370.732 540.885 370.004V369.332L539.779 369.374ZM546.926 372.132C547.113 372.132 547.304 372.118 547.5 372.09C547.696 372.053 547.855 372.015 547.976 371.978V372.916C547.846 372.981 547.659 373.033 547.416 373.07C547.174 373.117 546.94 373.14 546.716 373.14C546.324 373.14 545.96 373.075 545.624 372.944C545.298 372.804 545.032 372.566 544.826 372.23C544.621 371.894 544.518 371.423 544.518 370.816V366.448H543.454V365.86L544.532 365.37L545.022 363.774H545.75V365.496H547.92V366.448H545.75V370.788C545.75 371.245 545.858 371.586 546.072 371.81C546.296 372.025 546.581 372.132 546.926 372.132ZM550.711 365.496V373H549.479V365.496H550.711ZM550.109 362.682C550.296 362.682 550.459 362.747 550.599 362.878C550.748 362.999 550.823 363.195 550.823 363.466C550.823 363.727 550.748 363.923 550.599 364.054C550.459 364.185 550.296 364.25 550.109 364.25C549.904 364.25 549.731 364.185 549.591 364.054C549.451 363.923 549.381 363.727 549.381 363.466C549.381 363.195 549.451 362.999 549.591 362.878C549.731 362.747 549.904 362.682 550.109 362.682ZM555.986 365.356C556.63 365.356 557.181 365.496 557.638 365.776C558.105 366.056 558.46 366.453 558.702 366.966C558.954 367.47 559.08 368.063 559.08 368.744V369.486H553.942C553.961 370.335 554.176 370.984 554.586 371.432C555.006 371.871 555.59 372.09 556.336 372.09C556.812 372.09 557.232 372.048 557.596 371.964C557.97 371.871 558.352 371.74 558.744 371.572V372.65C558.362 372.818 557.984 372.939 557.61 373.014C557.237 373.098 556.794 373.14 556.28 373.14C555.571 373.14 554.941 372.995 554.39 372.706C553.849 372.417 553.424 371.987 553.116 371.418C552.818 370.839 552.668 370.135 552.668 369.304C552.668 368.483 552.804 367.778 553.074 367.19C553.354 366.602 553.742 366.149 554.236 365.832C554.74 365.515 555.324 365.356 555.986 365.356ZM555.972 366.364C555.384 366.364 554.918 366.555 554.572 366.938C554.236 367.311 554.036 367.834 553.97 368.506H557.792C557.792 368.077 557.727 367.703 557.596 367.386C557.466 367.069 557.265 366.821 556.994 366.644C556.733 366.457 556.392 366.364 555.972 366.364ZM565.877 370.928C565.877 371.413 565.755 371.819 565.513 372.146C565.27 372.473 564.925 372.72 564.477 372.888C564.029 373.056 563.497 373.14 562.881 373.14C562.358 373.14 561.905 373.098 561.523 373.014C561.149 372.93 560.818 372.813 560.529 372.664V371.544C560.827 371.693 561.187 371.833 561.607 371.964C562.036 372.085 562.47 372.146 562.909 372.146C563.534 372.146 563.987 372.048 564.267 371.852C564.547 371.647 564.687 371.376 564.687 371.04C564.687 370.853 564.635 370.685 564.533 370.536C564.43 370.387 564.243 370.237 563.973 370.088C563.711 369.939 563.333 369.771 562.839 369.584C562.353 369.397 561.938 369.211 561.593 369.024C561.247 368.837 560.981 368.613 560.795 368.352C560.608 368.091 560.515 367.755 560.515 367.344C560.515 366.709 560.771 366.219 561.285 365.874C561.807 365.529 562.489 365.356 563.329 365.356C563.786 365.356 564.211 365.403 564.603 365.496C565.004 365.58 565.377 365.701 565.723 365.86L565.303 366.84C565.097 366.747 564.878 366.667 564.645 366.602C564.421 366.527 564.192 366.471 563.959 366.434C563.725 366.387 563.487 366.364 563.245 366.364C562.741 366.364 562.353 366.448 562.083 366.616C561.821 366.775 561.691 366.994 561.691 367.274C561.691 367.479 561.751 367.657 561.873 367.806C561.994 367.946 562.195 368.086 562.475 368.226C562.764 368.357 563.147 368.515 563.623 368.702C564.099 368.879 564.505 369.061 564.841 369.248C565.177 369.435 565.433 369.663 565.611 369.934C565.788 370.195 565.877 370.527 565.877 370.928Z" fill="#000240"/>
<path d="M25.6 44V30H28.8L32.52 42.94H32.78L36.5 30H39.7V44H38.08V31.1H37.8L34.1 44H31.2L27.5 31.1H27.22V44H25.6ZM45.9647 44.28C45.2847 44.28 44.6647 44.16 44.1047 43.92C43.5447 43.68 43.1047 43.3333 42.7847 42.88C42.4647 42.4267 42.3047 41.8733 42.3047 41.22C42.3047 40.5533 42.4647 40.0067 42.7847 39.58C43.1047 39.14 43.5447 38.8133 44.1047 38.6C44.6647 38.3733 45.2914 38.26 45.9847 38.26H49.2847V37.54C49.2847 36.8467 49.078 36.3 48.6647 35.9C48.2647 35.5 47.6647 35.3 46.8647 35.3C46.078 35.3 45.4647 35.4933 45.0247 35.88C44.5847 36.2533 44.2847 36.76 44.1247 37.4L42.6447 36.92C42.8047 36.3733 43.058 35.88 43.4047 35.44C43.7514 34.9867 44.2114 34.6267 44.7847 34.36C45.3714 34.08 46.0714 33.94 46.8847 33.94C48.138 33.94 49.1114 34.2667 49.8047 34.92C50.498 35.56 50.8447 36.4667 50.8447 37.64V42.06C50.8447 42.46 51.0314 42.66 51.4047 42.66H52.3047V44H50.9247C50.4847 44 50.1314 43.88 49.8647 43.64C49.598 43.3867 49.4647 43.0533 49.4647 42.64V42.54H49.2247C49.078 42.7933 48.878 43.06 48.6247 43.34C48.3847 43.6067 48.0514 43.8267 47.6247 44C47.198 44.1867 46.6447 44.28 45.9647 44.28ZM46.1447 42.92C47.078 42.92 47.8314 42.6467 48.4047 42.1C48.9914 41.54 49.2847 40.76 49.2847 39.76V39.54H46.0447C45.418 39.54 44.898 39.68 44.4847 39.96C44.0847 40.2267 43.8847 40.6333 43.8847 41.18C43.8847 41.7267 44.0914 42.1533 44.5047 42.46C44.9314 42.7667 45.478 42.92 46.1447 42.92ZM54.4686 44V34.22H56.0086V35.42H56.2886C56.4619 34.9933 56.7286 34.68 57.0886 34.48C57.4486 34.28 57.9219 34.18 58.5086 34.18H59.6686V35.62H58.4086C57.7019 35.62 57.1286 35.82 56.6886 36.22C56.2619 36.6067 56.0486 37.2133 56.0486 38.04V44H54.4686ZM62.0077 44V30H63.5877V38.24H63.8677L68.3477 34.22H70.5477L65.1277 38.98L70.7077 44H68.5277L63.8677 39.74H63.5877V44H62.0077ZM76.3694 44C75.8094 44 75.376 43.8467 75.0694 43.54C74.776 43.2333 74.6294 42.8133 74.6294 42.28V35.6H71.6894V34.22H74.6294V30.74H76.2094V34.22H79.4094V35.6H76.2094V42.04C76.2094 42.44 76.4027 42.64 76.7894 42.64H78.9694V44H76.3694ZM85.757 44.28C84.917 44.28 84.1437 44.08 83.437 43.68C82.7304 43.28 82.1704 42.7 81.757 41.94C81.3437 41.18 81.137 40.28 81.137 39.24V38.98C81.137 37.94 81.3437 37.0467 81.757 36.3C82.1704 35.54 82.7237 34.96 83.417 34.56C84.1237 34.1467 84.9037 33.94 85.757 33.94C86.437 33.94 87.0104 34.0333 87.477 34.22C87.957 34.3933 88.3437 34.62 88.637 34.9C88.9304 35.1667 89.157 35.4533 89.317 35.76H89.597V30H91.177V44H89.637V42.38H89.357C89.0904 42.8733 88.677 43.3133 88.117 43.7C87.557 44.0867 86.7704 44.28 85.757 44.28ZM86.177 42.88C87.1904 42.88 88.0104 42.56 88.637 41.92C89.277 41.2667 89.597 40.36 89.597 39.2V39.02C89.597 37.86 89.277 36.96 88.637 36.32C88.0104 35.6667 87.1904 35.34 86.177 35.34C85.177 35.34 84.3504 35.6667 83.697 36.32C83.057 36.96 82.737 37.86 82.737 39.02V39.2C82.737 40.36 83.057 41.2667 83.697 41.92C84.3504 42.56 85.177 42.88 86.177 42.88ZM97.4881 44.28C96.8081 44.28 96.1881 44.16 95.6281 43.92C95.0681 43.68 94.6281 43.3333 94.3081 42.88C93.9881 42.4267 93.8281 41.8733 93.8281 41.22C93.8281 40.5533 93.9881 40.0067 94.3081 39.58C94.6281 39.14 95.0681 38.8133 95.6281 38.6C96.1881 38.3733 96.8148 38.26 97.5081 38.26H100.808V37.54C100.808 36.8467 100.601 36.3 100.188 35.9C99.7881 35.5 99.1881 35.3 98.3881 35.3C97.6015 35.3 96.9881 35.4933 96.5481 35.88C96.1081 36.2533 95.8081 36.76 95.6481 37.4L94.1681 36.92C94.3281 36.3733 94.5815 35.88 94.9281 35.44C95.2748 34.9867 95.7348 34.6267 96.3081 34.36C96.8948 34.08 97.5948 33.94 98.4081 33.94C99.6615 33.94 100.635 34.2667 101.328 34.92C102.021 35.56 102.368 36.4667 102.368 37.64V42.06C102.368 42.46 102.555 42.66 102.928 42.66H103.828V44H102.448C102.008 44 101.655 43.88 101.388 43.64C101.121 43.3867 100.988 43.0533 100.988 42.64V42.54H100.748C100.601 42.7933 100.401 43.06 100.148 43.34C99.9081 43.6067 99.5748 43.8267 99.1481 44C98.7215 44.1867 98.1681 44.28 97.4881 44.28ZM97.6681 42.92C98.6015 42.92 99.3548 42.6467 99.9281 42.1C100.515 41.54 100.808 40.76 100.808 39.76V39.54H97.5681C96.9415 39.54 96.4215 39.68 96.0081 39.96C95.6081 40.2267 95.4081 40.6333 95.4081 41.18C95.4081 41.7267 95.6148 42.1533 96.0281 42.46C96.4548 42.7667 97.0015 42.92 97.6681 42.92ZM108.948 44C108.388 44 107.954 43.8467 107.648 43.54C107.354 43.2333 107.208 42.8133 107.208 42.28V35.6H104.268V34.22H107.208V30.74H108.788V34.22H111.988V35.6H108.788V42.04C108.788 42.44 108.981 42.64 109.368 42.64H111.548V44H108.948ZM117.488 44.28C116.808 44.28 116.188 44.16 115.628 43.92C115.068 43.68 114.628 43.3333 114.308 42.88C113.988 42.4267 113.828 41.8733 113.828 41.22C113.828 40.5533 113.988 40.0067 114.308 39.58C114.628 39.14 115.068 38.8133 115.628 38.6C116.188 38.3733 116.815 38.26 117.508 38.26H120.808V37.54C120.808 36.8467 120.601 36.3 120.188 35.9C119.788 35.5 119.188 35.3 118.388 35.3C117.601 35.3 116.988 35.4933 116.548 35.88C116.108 36.2533 115.808 36.76 115.648 37.4L114.168 36.92C114.328 36.3733 114.581 35.88 114.928 35.44C115.275 34.9867 115.735 34.6267 116.308 34.36C116.895 34.08 117.595 33.94 118.408 33.94C119.661 33.94 120.635 34.2667 121.328 34.92C122.021 35.56 122.368 36.4667 122.368 37.64V42.06C122.368 42.46 122.555 42.66 122.928 42.66H123.828V44H122.448C122.008 44 121.655 43.88 121.388 43.64C121.121 43.3867 120.988 43.0533 120.988 42.64V42.54H120.748C120.601 42.7933 120.401 43.06 120.148 43.34C119.908 43.6067 119.575 43.8267 119.148 44C118.721 44.1867 118.168 44.28 117.488 44.28ZM117.668 42.92C118.601 42.92 119.355 42.6467 119.928 42.1C120.515 41.54 120.808 40.76 120.808 39.76V39.54H117.568C116.941 39.54 116.421 39.68 116.008 39.96C115.608 40.2267 115.408 40.6333 115.408 41.18C115.408 41.7267 115.615 42.1533 116.028 42.46C116.455 42.7667 117.001 42.92 117.668 42.92Z" fill="#000240"/>
<defs>
<clipPath id="clip0_4655_14296">
<rect width="639" height="260" fill="white" transform="translate(24 74)"/>
</clipPath>
</defs>
</svg>
