<svg width="448" height="439" viewBox="0 0 448 439" fill="none" xmlns="http://www.w3.org/2000/svg">
<rect width="447.333" height="439" fill="white"/>
<rect width="6" height="6" transform="translate(30.75 32.7574) rotate(45)" fill="#5AC498"/>
<line x1="38" y1="37.0001" x2="24" y2="37.0001" stroke="#5AC498" stroke-width="2"/>
<path d="M47.32 44V30H52.22L54.64 42.2H55L57.42 30H62.32V44H59.76V31.94H59.4L57 44H52.64L50.24 31.94H49.88V44H47.32ZM65.0367 44V34.08H67.5567V44H65.0367ZM66.2967 32.92C65.8434 32.92 65.4567 32.7733 65.1367 32.48C64.8301 32.1867 64.6767 31.8 64.6767 31.32C64.6767 30.84 64.8301 30.4533 65.1367 30.16C65.4567 29.8667 65.8434 29.72 66.2967 29.72C66.7634 29.72 67.1501 29.8667 67.4567 30.16C67.7634 30.4533 67.9167 30.84 67.9167 31.32C67.9167 31.8 67.7634 32.1867 67.4567 32.48C67.1501 32.7733 66.7634 32.92 66.2967 32.92ZM70.3492 44V30H72.8692V37.74H73.2292L76.5092 34.08H79.7892L75.2092 38.88L79.9492 44H76.7092L73.2292 40.06H72.8692V44H70.3492ZM85.5528 44.28C84.5661 44.28 83.6928 44.0733 82.9328 43.66C82.1861 43.2333 81.5995 42.64 81.1728 41.88C80.7595 41.1067 80.5528 40.2 80.5528 39.16V38.92C80.5528 37.88 80.7595 36.98 81.1728 36.22C81.5861 35.4467 82.1661 34.8533 82.9128 34.44C83.6595 34.0133 84.5261 33.8 85.5128 33.8C86.4861 33.8 87.3328 34.02 88.0528 34.46C88.7728 34.8867 89.3328 35.4867 89.7328 36.26C90.1328 37.02 90.3328 37.9067 90.3328 38.92V39.78H83.1128C83.1395 40.46 83.3928 41.0133 83.8728 41.44C84.3528 41.8667 84.9395 42.08 85.6328 42.08C86.3395 42.08 86.8595 41.9267 87.1928 41.62C87.5261 41.3133 87.7795 40.9733 87.9528 40.6L90.0128 41.68C89.8261 42.0267 89.5528 42.4067 89.1928 42.82C88.8461 43.22 88.3795 43.5667 87.7928 43.86C87.2061 44.14 86.4595 44.28 85.5528 44.28ZM83.1328 37.9H87.7728C87.7195 37.3267 87.4861 36.8667 87.0728 36.52C86.6728 36.1733 86.1461 36 85.4928 36C84.8128 36 84.2728 36.1733 83.8728 36.52C83.4728 36.8667 83.2261 37.3267 83.1328 37.9ZM94.1558 44.28C93.6224 44.28 93.1691 44.1067 92.7958 43.76C92.4358 43.4 92.2558 42.94 92.2558 42.38C92.2558 41.82 92.4358 41.3667 92.7958 41.02C93.1691 40.66 93.6224 40.48 94.1558 40.48C94.7024 40.48 95.1558 40.66 95.5158 41.02C95.8758 41.3667 96.0558 41.82 96.0558 42.38C96.0558 42.94 95.8758 43.4 95.5158 43.76C95.1558 44.1067 94.7024 44.28 94.1558 44.28ZM94.1558 37.6C93.6224 37.6 93.1691 37.4267 92.7958 37.08C92.4358 36.72 92.2558 36.26 92.2558 35.7C92.2558 35.14 92.4358 34.6867 92.7958 34.34C93.1691 33.98 93.6224 33.8 94.1558 33.8C94.7024 33.8 95.1558 33.98 95.5158 34.34C95.8758 34.6867 96.0558 35.14 96.0558 35.7C96.0558 36.26 95.8758 36.72 95.5158 37.08C95.1558 37.4267 94.7024 37.6 94.1558 37.6ZM103.87 44V30H109.23C110.07 30 110.816 30.1667 111.47 30.5C112.136 30.82 112.663 31.28 113.05 31.88C113.436 32.48 113.63 33.2067 113.63 34.06V34.32C113.63 35.16 113.43 35.8867 113.03 36.5C112.643 37.1 112.116 37.56 111.45 37.88C110.783 38.2 110.043 38.36 109.23 38.36H105.55V44H103.87ZM105.55 36.84H109.05C109.943 36.84 110.65 36.62 111.17 36.18C111.69 35.7267 111.95 35.0933 111.95 34.28V34.08C111.95 33.2667 111.69 32.64 111.17 32.2C110.663 31.7467 109.956 31.52 109.05 31.52H105.55V36.84ZM120.109 44.28C119.122 44.28 118.255 44.0733 117.509 43.66C116.762 43.2333 116.182 42.64 115.769 41.88C115.355 41.12 115.149 40.24 115.149 39.24V39C115.149 37.9867 115.355 37.1 115.769 36.34C116.182 35.58 116.755 34.9933 117.489 34.58C118.222 34.1533 119.062 33.94 120.009 33.94C120.929 33.94 121.742 34.14 122.449 34.54C123.155 34.9267 123.709 35.4867 124.109 36.22C124.509 36.9533 124.709 37.8133 124.709 38.8V39.52H116.729C116.769 40.5733 117.109 41.4 117.749 42C118.389 42.5867 119.189 42.88 120.149 42.88C120.989 42.88 121.635 42.6867 122.089 42.3C122.542 41.9133 122.889 41.4533 123.129 40.92L124.489 41.58C124.289 41.9933 124.009 42.4067 123.649 42.82C123.302 43.2333 122.842 43.58 122.269 43.86C121.709 44.14 120.989 44.28 120.109 44.28ZM116.749 38.22H123.109C123.055 37.3133 122.742 36.6067 122.169 36.1C121.609 35.5933 120.889 35.34 120.009 35.34C119.115 35.34 118.382 35.5933 117.809 36.1C117.235 36.6067 116.882 37.3133 116.749 38.22ZM127.465 44V34.22H129.005V35.88H129.285C129.498 35.4133 129.858 34.9933 130.365 34.62C130.885 34.2333 131.645 34.04 132.645 34.04C133.378 34.04 134.031 34.1933 134.605 34.5C135.191 34.8067 135.658 35.26 136.005 35.86C136.351 36.46 136.525 37.2 136.525 38.08V44H134.945V38.2C134.945 37.2267 134.698 36.52 134.205 36.08C133.725 35.64 133.071 35.42 132.245 35.42C131.298 35.42 130.525 35.7267 129.925 36.34C129.338 36.9533 129.045 37.8667 129.045 39.08V44H127.465ZM143.67 44.28C142.457 44.28 141.43 44 140.59 43.44C139.764 42.88 139.264 41.9933 139.09 40.78L140.59 40.44C140.697 41.08 140.897 41.5867 141.19 41.96C141.484 42.32 141.844 42.58 142.27 42.74C142.71 42.8867 143.177 42.96 143.67 42.96C144.404 42.96 144.984 42.8133 145.41 42.52C145.837 42.2267 146.05 41.8333 146.05 41.34C146.05 40.8333 145.844 40.48 145.43 40.28C145.03 40.0667 144.477 39.8933 143.77 39.76L142.95 39.62C142.324 39.5133 141.75 39.3467 141.23 39.12C140.71 38.8933 140.297 38.5867 139.99 38.2C139.684 37.8133 139.53 37.3267 139.53 36.74C139.53 35.86 139.87 35.1733 140.55 34.68C141.23 34.1867 142.13 33.94 143.25 33.94C144.357 33.94 145.25 34.1933 145.93 34.7C146.624 35.1933 147.07 35.8933 147.27 36.8L145.79 37.18C145.67 36.4733 145.384 35.98 144.93 35.7C144.477 35.4067 143.917 35.26 143.25 35.26C142.584 35.26 142.057 35.3867 141.67 35.64C141.284 35.88 141.09 36.24 141.09 36.72C141.09 37.1867 141.27 37.5333 141.63 37.76C142.004 37.9733 142.497 38.1333 143.11 38.24L143.93 38.38C144.624 38.5 145.244 38.6667 145.79 38.88C146.35 39.08 146.79 39.3733 147.11 39.76C147.444 40.1467 147.61 40.6533 147.61 41.28C147.61 42.24 147.25 42.98 146.53 43.5C145.824 44.02 144.87 44.28 143.67 44.28ZM150.277 44V34.22H151.857V44H150.277ZM151.077 32.7C150.731 32.7 150.437 32.5867 150.197 32.36C149.971 32.1333 149.857 31.8467 149.857 31.5C149.857 31.14 149.971 30.8467 150.197 30.62C150.437 30.3933 150.731 30.28 151.077 30.28C151.424 30.28 151.711 30.3933 151.937 30.62C152.164 30.8467 152.277 31.14 152.277 31.5C152.277 31.8467 152.164 32.1333 151.937 32.36C151.711 32.5867 151.424 32.7 151.077 32.7ZM159.7 44.28C158.713 44.28 157.84 44.0733 157.08 43.66C156.333 43.2467 155.746 42.6667 155.32 41.92C154.906 41.16 154.7 40.2667 154.7 39.24V38.98C154.7 37.9667 154.906 37.08 155.32 36.32C155.746 35.56 156.333 34.9733 157.08 34.56C157.84 34.1467 158.713 33.94 159.7 33.94C160.686 33.94 161.553 34.1467 162.3 34.56C163.06 34.9733 163.646 35.56 164.06 36.32C164.486 37.08 164.7 37.9667 164.7 38.98V39.24C164.7 40.2667 164.486 41.16 164.06 41.92C163.646 42.6667 163.06 43.2467 162.3 43.66C161.553 44.0733 160.686 44.28 159.7 44.28ZM159.7 42.86C160.74 42.86 161.566 42.5333 162.18 41.88C162.806 41.2133 163.12 40.32 163.12 39.2V39.02C163.12 37.9 162.806 37.0133 162.18 36.36C161.566 35.6933 160.74 35.36 159.7 35.36C158.673 35.36 157.846 35.6933 157.22 36.36C156.593 37.0133 156.28 37.9 156.28 39.02V39.2C156.28 40.32 156.593 41.2133 157.22 41.88C157.846 42.5333 158.673 42.86 159.7 42.86ZM172.023 44.28C171.036 44.28 170.169 44.0733 169.423 43.66C168.676 43.2333 168.096 42.64 167.683 41.88C167.269 41.12 167.063 40.24 167.063 39.24V39C167.063 37.9867 167.269 37.1 167.683 36.34C168.096 35.58 168.669 34.9933 169.403 34.58C170.136 34.1533 170.976 33.94 171.923 33.94C172.843 33.94 173.656 34.14 174.363 34.54C175.069 34.9267 175.623 35.4867 176.023 36.22C176.423 36.9533 176.623 37.8133 176.623 38.8V39.52H168.643C168.683 40.5733 169.023 41.4 169.663 42C170.303 42.5867 171.103 42.88 172.063 42.88C172.903 42.88 173.549 42.6867 174.003 42.3C174.456 41.9133 174.803 41.4533 175.043 40.92L176.403 41.58C176.203 41.9933 175.923 42.4067 175.563 42.82C175.216 43.2333 174.756 43.58 174.183 43.86C173.623 44.14 172.903 44.28 172.023 44.28ZM168.663 38.22H175.023C174.969 37.3133 174.656 36.6067 174.083 36.1C173.523 35.5933 172.803 35.34 171.923 35.34C171.029 35.34 170.296 35.5933 169.723 36.1C169.149 36.6067 168.796 37.3133 168.663 38.22ZM179.379 44V34.22H180.919V35.88H181.199C181.412 35.4133 181.772 34.9933 182.279 34.62C182.799 34.2333 183.559 34.04 184.559 34.04C185.292 34.04 185.945 34.1933 186.519 34.5C187.105 34.8067 187.572 35.26 187.919 35.86C188.265 36.46 188.439 37.2 188.439 38.08V44H186.859V38.2C186.859 37.2267 186.612 36.52 186.119 36.08C185.639 35.64 184.985 35.42 184.159 35.42C183.212 35.42 182.439 35.7267 181.839 36.34C181.252 36.9533 180.959 37.8667 180.959 39.08V44H179.379ZM199.261 44L195.761 34.22H197.441L200.381 42.82H200.661L203.601 34.22H205.281L201.781 44H199.261ZM211.209 44.28C209.996 44.28 208.969 44 208.129 43.44C207.303 42.88 206.803 41.9933 206.629 40.78L208.129 40.44C208.236 41.08 208.436 41.5867 208.729 41.96C209.023 42.32 209.383 42.58 209.809 42.74C210.249 42.8867 210.716 42.96 211.209 42.96C211.943 42.96 212.523 42.8133 212.949 42.52C213.376 42.2267 213.589 41.8333 213.589 41.34C213.589 40.8333 213.383 40.48 212.969 40.28C212.569 40.0667 212.016 39.8933 211.309 39.76L210.489 39.62C209.863 39.5133 209.289 39.3467 208.769 39.12C208.249 38.8933 207.836 38.5867 207.529 38.2C207.223 37.8133 207.069 37.3267 207.069 36.74C207.069 35.86 207.409 35.1733 208.089 34.68C208.769 34.1867 209.669 33.94 210.789 33.94C211.896 33.94 212.789 34.1933 213.469 34.7C214.163 35.1933 214.609 35.8933 214.809 36.8L213.329 37.18C213.209 36.4733 212.923 35.98 212.469 35.7C212.016 35.4067 211.456 35.26 210.789 35.26C210.123 35.26 209.596 35.3867 209.209 35.64C208.823 35.88 208.629 36.24 208.629 36.72C208.629 37.1867 208.809 37.5333 209.169 37.76C209.543 37.9733 210.036 38.1333 210.649 38.24L211.469 38.38C212.163 38.5 212.783 38.6667 213.329 38.88C213.889 39.08 214.329 39.3733 214.649 39.76C214.983 40.1467 215.149 40.6533 215.149 41.28C215.149 42.24 214.789 42.98 214.069 43.5C213.363 44.02 212.409 44.28 211.209 44.28ZM222.893 44V30H228.253C229.093 30 229.84 30.1667 230.493 30.5C231.16 30.82 231.686 31.28 232.073 31.88C232.46 32.48 232.653 33.2067 232.653 34.06V34.32C232.653 35.16 232.453 35.8867 232.053 36.5C231.666 37.1 231.14 37.56 230.473 37.88C229.806 38.2 229.066 38.36 228.253 38.36H224.573V44H222.893ZM224.573 36.84H228.073C228.966 36.84 229.673 36.62 230.193 36.18C230.713 35.7267 230.973 35.0933 230.973 34.28V34.08C230.973 33.2667 230.713 32.64 230.193 32.2C229.686 31.7467 228.98 31.52 228.073 31.52H224.573V36.84ZM234.965 44V34.22H236.505V35.42H236.785C236.958 34.9933 237.225 34.68 237.585 34.48C237.945 34.28 238.418 34.18 239.005 34.18H240.165V35.62H238.905C238.198 35.62 237.625 35.82 237.185 36.22C236.758 36.6067 236.545 37.2133 236.545 38.04V44H234.965ZM242.504 44V34.22H244.084V44H242.504ZM243.304 32.7C242.957 32.7 242.664 32.5867 242.424 32.36C242.197 32.1333 242.084 31.8467 242.084 31.5C242.084 31.14 242.197 30.8467 242.424 30.62C242.664 30.3933 242.957 30.28 243.304 30.28C243.65 30.28 243.937 30.3933 244.164 30.62C244.39 30.8467 244.504 31.14 244.504 31.5C244.504 31.8467 244.39 32.1333 244.164 32.36C243.937 32.5867 243.65 32.7 243.304 32.7ZM245.486 48V46.6H246.846C247.246 46.6 247.446 46.4 247.446 46V34.22H249.026V46.28C249.026 46.8133 248.873 47.2333 248.566 47.54C248.273 47.8467 247.846 48 247.286 48H245.486ZM248.246 32.7C247.899 32.7 247.606 32.5867 247.366 32.36C247.139 32.1333 247.026 31.8467 247.026 31.5C247.026 31.14 247.139 30.8467 247.366 30.62C247.606 30.3933 247.899 30.28 248.246 30.28C248.593 30.28 248.879 30.3933 249.106 30.62C249.333 30.8467 249.446 31.14 249.446 31.5C249.446 31.8467 249.333 32.1333 249.106 32.36C248.879 32.5867 248.593 32.7 248.246 32.7ZM256.288 44.28C255.074 44.28 254.048 44 253.208 43.44C252.381 42.88 251.881 41.9933 251.708 40.78L253.208 40.44C253.314 41.08 253.514 41.5867 253.808 41.96C254.101 42.32 254.461 42.58 254.888 42.74C255.328 42.8867 255.794 42.96 256.288 42.96C257.021 42.96 257.601 42.8133 258.028 42.52C258.454 42.2267 258.668 41.8333 258.668 41.34C258.668 40.8333 258.461 40.48 258.048 40.28C257.648 40.0667 257.094 39.8933 256.388 39.76L255.568 39.62C254.941 39.5133 254.368 39.3467 253.848 39.12C253.328 38.8933 252.914 38.5867 252.608 38.2C252.301 37.8133 252.148 37.3267 252.148 36.74C252.148 35.86 252.488 35.1733 253.168 34.68C253.848 34.1867 254.748 33.94 255.868 33.94C256.974 33.94 257.868 34.1933 258.548 34.7C259.241 35.1933 259.688 35.8933 259.888 36.8L258.408 37.18C258.288 36.4733 258.001 35.98 257.548 35.7C257.094 35.4067 256.534 35.26 255.868 35.26C255.201 35.26 254.674 35.3867 254.288 35.64C253.901 35.88 253.708 36.24 253.708 36.72C253.708 37.1867 253.888 37.5333 254.248 37.76C254.621 37.9733 255.114 38.1333 255.728 38.24L256.548 38.38C257.241 38.5 257.861 38.6667 258.408 38.88C258.968 39.08 259.408 39.3733 259.728 39.76C260.061 40.1467 260.228 40.6533 260.228 41.28C260.228 42.24 259.868 42.98 259.148 43.5C258.441 44.02 257.488 44.28 256.288 44.28ZM262.894 44V34.22H264.474V44H262.894ZM263.694 32.7C263.348 32.7 263.054 32.5867 262.814 32.36C262.588 32.1333 262.474 31.8467 262.474 31.5C262.474 31.14 262.588 30.8467 262.814 30.62C263.054 30.3933 263.348 30.28 263.694 30.28C264.041 30.28 264.328 30.3933 264.554 30.62C264.781 30.8467 264.894 31.14 264.894 31.5C264.894 31.8467 264.781 32.1333 264.554 32.36C264.328 32.5867 264.041 32.7 263.694 32.7ZM267.797 44V34.22H269.337V35.88H269.617C269.83 35.4133 270.19 34.9933 270.697 34.62C271.217 34.2333 271.977 34.04 272.977 34.04C273.71 34.04 274.363 34.1933 274.937 34.5C275.523 34.8067 275.99 35.26 276.337 35.86C276.683 36.46 276.857 37.2 276.857 38.08V44H275.277V38.2C275.277 37.2267 275.03 36.52 274.537 36.08C274.057 35.64 273.403 35.42 272.577 35.42C271.63 35.42 270.857 35.7267 270.257 36.34C269.67 36.9533 269.377 37.8667 269.377 39.08V44H267.797ZM284.202 44.28C283.362 44.28 282.589 44.08 281.882 43.68C281.176 43.28 280.616 42.7 280.202 41.94C279.789 41.18 279.582 40.28 279.582 39.24V38.98C279.582 37.94 279.789 37.0467 280.202 36.3C280.616 35.54 281.169 34.96 281.862 34.56C282.569 34.1467 283.349 33.94 284.202 33.94C284.882 33.94 285.456 34.0333 285.922 34.22C286.402 34.3933 286.789 34.62 287.082 34.9C287.376 35.1667 287.602 35.4533 287.762 35.76H288.042V30H289.622V44H288.082V42.38H287.802C287.536 42.8733 287.122 43.3133 286.562 43.7C286.002 44.0867 285.216 44.28 284.202 44.28ZM284.622 42.88C285.636 42.88 286.456 42.56 287.082 41.92C287.722 41.2667 288.042 40.36 288.042 39.2V39.02C288.042 37.86 287.722 36.96 287.082 36.32C286.456 35.6667 285.636 35.34 284.622 35.34C283.622 35.34 282.796 35.6667 282.142 36.32C281.502 36.96 281.182 37.86 281.182 39.02V39.2C281.182 40.36 281.502 41.2667 282.142 41.92C282.796 42.56 283.622 42.88 284.622 42.88ZM297.413 44.28C296.427 44.28 295.56 44.0733 294.813 43.66C294.067 43.2333 293.487 42.64 293.073 41.88C292.66 41.12 292.453 40.24 292.453 39.24V39C292.453 37.9867 292.66 37.1 293.073 36.34C293.487 35.58 294.06 34.9933 294.793 34.58C295.527 34.1533 296.367 33.94 297.313 33.94C298.233 33.94 299.047 34.14 299.753 34.54C300.46 34.9267 301.013 35.4867 301.413 36.22C301.813 36.9533 302.013 37.8133 302.013 38.8V39.52H294.033C294.073 40.5733 294.413 41.4 295.053 42C295.693 42.5867 296.493 42.88 297.453 42.88C298.293 42.88 298.94 42.6867 299.393 42.3C299.847 41.9133 300.193 41.4533 300.433 40.92L301.793 41.58C301.593 41.9933 301.313 42.4067 300.953 42.82C300.607 43.2333 300.147 43.58 299.573 43.86C299.013 44.14 298.293 44.28 297.413 44.28ZM294.053 38.22H300.413C300.36 37.3133 300.047 36.6067 299.473 36.1C298.913 35.5933 298.193 35.34 297.313 35.34C296.42 35.34 295.687 35.5933 295.113 36.1C294.54 36.6067 294.187 37.3133 294.053 38.22ZM303.305 44L307.225 39.04L303.425 34.22H305.325L308.245 38H308.525L311.425 34.22H313.345L309.525 39.04L313.445 44H311.525L308.525 40.1H308.245L305.245 44H303.305Z" fill="#000240"/>
<path d="M28.97 89H27.766V82.014C27.766 81.7433 27.766 81.5147 27.766 81.328C27.7753 81.1413 27.7847 80.9687 27.794 80.81C27.8033 80.642 27.8127 80.4693 27.822 80.292C27.6727 80.4413 27.5373 80.5673 27.416 80.67C27.2947 80.7727 27.1407 80.9033 26.954 81.062L25.89 81.93L25.246 81.104L27.948 79.004H28.97V89ZM39.2917 89H32.6837V87.978L35.3017 85.332C35.8057 84.828 36.2304 84.38 36.5757 83.988C36.9211 83.596 37.1824 83.2133 37.3597 82.84C37.5371 82.4573 37.6257 82.042 37.6257 81.594C37.6257 81.0433 37.4624 80.628 37.1357 80.348C36.8091 80.0587 36.3844 79.914 35.8617 79.914C35.3764 79.914 34.9471 79.998 34.5737 80.166C34.2097 80.334 33.8364 80.5673 33.4537 80.866L32.7957 80.04C33.0571 79.816 33.3417 79.6153 33.6497 79.438C33.9671 79.2607 34.3077 79.1207 34.6717 79.018C35.0451 78.9153 35.4417 78.864 35.8617 78.864C36.4871 78.864 37.0237 78.9713 37.4717 79.186C37.9197 79.4007 38.2651 79.7087 38.5077 80.11C38.7597 80.502 38.8857 80.9733 38.8857 81.524C38.8857 81.916 38.8251 82.2893 38.7037 82.644C38.5824 82.9893 38.4097 83.33 38.1857 83.666C37.9617 84.002 37.6911 84.3427 37.3737 84.688C37.0564 85.0333 36.7064 85.3927 36.3237 85.766L34.2377 87.824V87.88H39.2917V89ZM47.3454 83.988C47.3454 84.8 47.2848 85.5233 47.1634 86.158C47.0421 86.7927 46.8461 87.334 46.5754 87.782C46.3141 88.2207 45.9688 88.5567 45.5394 88.79C45.1194 89.0233 44.6108 89.14 44.0134 89.14C43.2668 89.14 42.6461 88.9347 42.1514 88.524C41.6661 88.1133 41.3021 87.5253 41.0594 86.76C40.8261 85.9853 40.7094 85.0613 40.7094 83.988C40.7094 82.9053 40.8168 81.9813 41.0314 81.216C41.2554 80.4507 41.6101 79.8673 42.0954 79.466C42.5808 79.0553 43.2201 78.85 44.0134 78.85C44.7601 78.85 45.3808 79.0553 45.8754 79.466C46.3701 79.8673 46.7388 80.4507 46.9814 81.216C47.2241 81.9813 47.3454 82.9053 47.3454 83.988ZM41.9414 83.988C41.9414 84.9027 42.0068 85.6633 42.1374 86.27C42.2774 86.8767 42.4968 87.334 42.7954 87.642C43.1034 87.9407 43.5094 88.09 44.0134 88.09C44.5174 88.09 44.9188 87.9407 45.2174 87.642C45.5254 87.3433 45.7494 86.8907 45.8894 86.284C46.0294 85.668 46.0994 84.9027 46.0994 83.988C46.0994 83.0733 46.0294 82.3173 45.8894 81.72C45.7494 81.1133 45.5254 80.6607 45.2174 80.362C44.9188 80.054 44.5174 79.9 44.0134 79.9C43.5094 79.9 43.1034 80.054 42.7954 80.362C42.4968 80.6607 42.2774 81.1133 42.1374 81.72C42.0068 82.3173 41.9414 83.0733 41.9414 83.988Z" fill="#000240"/>
<line x1="24" y1="100.5" x2="424" y2="100.5" stroke="#D3D6DB"/>
<path d="M28.97 159H27.766V152.014C27.766 151.743 27.766 151.515 27.766 151.328C27.7753 151.141 27.7847 150.969 27.794 150.81C27.8033 150.642 27.8127 150.469 27.822 150.292C27.6727 150.441 27.5373 150.567 27.416 150.67C27.2947 150.773 27.1407 150.903 26.954 151.062L25.89 151.93L25.246 151.104L27.948 149.004H28.97V159ZM39.3337 153.988C39.3337 154.8 39.2731 155.523 39.1517 156.158C39.0304 156.793 38.8344 157.334 38.5637 157.782C38.3024 158.221 37.9571 158.557 37.5277 158.79C37.1077 159.023 36.5991 159.14 36.0017 159.14C35.2551 159.14 34.6344 158.935 34.1397 158.524C33.6544 158.113 33.2904 157.525 33.0477 156.76C32.8144 155.985 32.6977 155.061 32.6977 153.988C32.6977 152.905 32.8051 151.981 33.0197 151.216C33.2437 150.451 33.5984 149.867 34.0837 149.466C34.5691 149.055 35.2084 148.85 36.0017 148.85C36.7484 148.85 37.3691 149.055 37.8637 149.466C38.3584 149.867 38.7271 150.451 38.9697 151.216C39.2124 151.981 39.3337 152.905 39.3337 153.988ZM33.9297 153.988C33.9297 154.903 33.9951 155.663 34.1257 156.27C34.2657 156.877 34.4851 157.334 34.7837 157.642C35.0917 157.941 35.4977 158.09 36.0017 158.09C36.5057 158.09 36.9071 157.941 37.2057 157.642C37.5137 157.343 37.7377 156.891 37.8777 156.284C38.0177 155.668 38.0877 154.903 38.0877 153.988C38.0877 153.073 38.0177 152.317 37.8777 151.72C37.7377 151.113 37.5137 150.661 37.2057 150.362C36.9071 150.054 36.5057 149.9 36.0017 149.9C35.4977 149.9 35.0917 150.054 34.7837 150.362C34.4851 150.661 34.2657 151.113 34.1257 151.72C33.9951 152.317 33.9297 153.073 33.9297 153.988ZM43.8734 152.868C44.5548 152.868 45.1474 152.985 45.6514 153.218C46.1554 153.451 46.5428 153.787 46.8134 154.226C47.0934 154.655 47.2334 155.183 47.2334 155.808C47.2334 156.499 47.0841 157.096 46.7854 157.6C46.4868 158.095 46.0574 158.477 45.4974 158.748C44.9468 159.009 44.2794 159.14 43.4954 159.14C42.9821 159.14 42.4968 159.093 42.0394 159C41.5914 158.907 41.2134 158.771 40.9054 158.594V157.432C41.2414 157.637 41.6474 157.801 42.1234 157.922C42.6088 158.034 43.0708 158.09 43.5094 158.09C44.0041 158.09 44.4334 158.015 44.7974 157.866C45.1708 157.707 45.4601 157.469 45.6654 157.152C45.8708 156.825 45.9734 156.419 45.9734 155.934C45.9734 155.281 45.7728 154.781 45.3714 154.436C44.9701 154.081 44.3354 153.904 43.4674 153.904C43.2061 153.904 42.9074 153.927 42.5714 153.974C42.2354 154.021 41.9648 154.067 41.7594 154.114L41.1434 153.722L41.5214 149.004H46.5334V150.124H42.5714L42.3334 153.022C42.4921 152.994 42.7068 152.961 42.9774 152.924C43.2481 152.887 43.5468 152.868 43.8734 152.868Z" fill="#000240"/>
<line x1="24" y1="170.5" x2="424" y2="170.5" stroke="#D3D6DB"/>
<path d="M31.28 223.274C31.28 223.843 31.238 224.413 31.154 224.982C31.0793 225.542 30.944 226.074 30.748 226.578C30.552 227.073 30.2813 227.516 29.936 227.908C29.5907 228.291 29.152 228.594 28.62 228.818C28.088 229.033 27.444 229.14 26.688 229.14C26.5013 229.14 26.282 229.126 26.03 229.098C25.7873 229.079 25.5867 229.047 25.428 229V227.95C25.596 228.006 25.792 228.053 26.016 228.09C26.24 228.118 26.4547 228.132 26.66 228.132C27.3133 228.132 27.85 228.025 28.27 227.81C28.6993 227.595 29.04 227.306 29.292 226.942C29.544 226.569 29.726 226.139 29.838 225.654C29.95 225.159 30.0153 224.641 30.034 224.1H29.95C29.81 224.315 29.6327 224.511 29.418 224.688C29.2033 224.865 28.942 225.005 28.634 225.108C28.3353 225.211 27.9807 225.262 27.57 225.262C27.0007 225.262 26.4967 225.145 26.058 224.912C25.6287 224.669 25.2927 224.324 25.05 223.876C24.8167 223.428 24.7 222.882 24.7 222.238C24.7 221.538 24.8307 220.936 25.092 220.432C25.3627 219.928 25.736 219.541 26.212 219.27C26.688 218.999 27.248 218.864 27.892 218.864C28.368 218.864 28.8113 218.957 29.222 219.144C29.6327 219.321 29.992 219.592 30.3 219.956C30.608 220.32 30.846 220.777 31.014 221.328C31.1913 221.879 31.28 222.527 31.28 223.274ZM27.892 219.9C27.3133 219.9 26.8373 220.091 26.464 220.474C26.1 220.857 25.918 221.44 25.918 222.224C25.918 222.868 26.072 223.377 26.38 223.75C26.6973 224.114 27.1827 224.296 27.836 224.296C28.284 224.296 28.6713 224.207 28.998 224.03C29.3247 223.843 29.5767 223.61 29.754 223.33C29.9407 223.05 30.034 222.761 30.034 222.462C30.034 222.163 29.9873 221.865 29.894 221.566C29.81 221.258 29.6793 220.978 29.502 220.726C29.3247 220.474 29.1007 220.273 28.83 220.124C28.5593 219.975 28.2467 219.9 27.892 219.9ZM39.3337 223.988C39.3337 224.8 39.2731 225.523 39.1517 226.158C39.0304 226.793 38.8344 227.334 38.5637 227.782C38.3024 228.221 37.9571 228.557 37.5277 228.79C37.1077 229.023 36.5991 229.14 36.0017 229.14C35.2551 229.14 34.6344 228.935 34.1397 228.524C33.6544 228.113 33.2904 227.525 33.0477 226.76C32.8144 225.985 32.6977 225.061 32.6977 223.988C32.6977 222.905 32.8051 221.981 33.0197 221.216C33.2437 220.451 33.5984 219.867 34.0837 219.466C34.5691 219.055 35.2084 218.85 36.0017 218.85C36.7484 218.85 37.3691 219.055 37.8637 219.466C38.3584 219.867 38.7271 220.451 38.9697 221.216C39.2124 221.981 39.3337 222.905 39.3337 223.988ZM33.9297 223.988C33.9297 224.903 33.9951 225.663 34.1257 226.27C34.2657 226.877 34.4851 227.334 34.7837 227.642C35.0917 227.941 35.4977 228.09 36.0017 228.09C36.5057 228.09 36.9071 227.941 37.2057 227.642C37.5137 227.343 37.7377 226.891 37.8777 226.284C38.0177 225.668 38.0877 224.903 38.0877 223.988C38.0877 223.073 38.0177 222.317 37.8777 221.72C37.7377 221.113 37.5137 220.661 37.2057 220.362C36.9071 220.054 36.5057 219.9 36.0017 219.9C35.4977 219.9 35.0917 220.054 34.7837 220.362C34.4851 220.661 34.2657 221.113 34.1257 221.72C33.9951 222.317 33.9297 223.073 33.9297 223.988Z" fill="#000240"/>
<line x1="24" y1="240.5" x2="424" y2="240.5" stroke="#D3D6DB"/>
<path d="M25.904 299L30.006 290.124H24.616V289.004H31.322V289.956L27.262 299H25.904ZM35.8617 292.868C36.5431 292.868 37.1357 292.985 37.6397 293.218C38.1437 293.451 38.5311 293.787 38.8017 294.226C39.0817 294.655 39.2217 295.183 39.2217 295.808C39.2217 296.499 39.0724 297.096 38.7737 297.6C38.4751 298.095 38.0457 298.477 37.4857 298.748C36.9351 299.009 36.2677 299.14 35.4837 299.14C34.9704 299.14 34.4851 299.093 34.0277 299C33.5797 298.907 33.2017 298.771 32.8937 298.594V297.432C33.2297 297.637 33.6357 297.801 34.1117 297.922C34.5971 298.034 35.0591 298.09 35.4977 298.09C35.9924 298.09 36.4217 298.015 36.7857 297.866C37.1591 297.707 37.4484 297.469 37.6537 297.152C37.8591 296.825 37.9617 296.419 37.9617 295.934C37.9617 295.281 37.7611 294.781 37.3597 294.436C36.9584 294.081 36.3237 293.904 35.4557 293.904C35.1944 293.904 34.8957 293.927 34.5597 293.974C34.2237 294.021 33.9531 294.067 33.7477 294.114L33.1317 293.722L33.5097 289.004H38.5217V290.124H34.5597L34.3217 293.022C34.4804 292.994 34.6951 292.961 34.9657 292.924C35.2364 292.887 35.5351 292.868 35.8617 292.868Z" fill="#000240"/>
<line x1="24" y1="310.5" x2="424" y2="310.5" stroke="#D3D6DB"/>
<path d="M74.2331 334H67.6251V332.978L70.2431 330.332C70.7471 329.828 71.1718 329.38 71.5171 328.988C71.8625 328.596 72.1238 328.213 72.3011 327.84C72.4785 327.457 72.5671 327.042 72.5671 326.594C72.5671 326.043 72.4038 325.628 72.0771 325.348C71.7505 325.059 71.3258 324.914 70.8031 324.914C70.3178 324.914 69.8885 324.998 69.5151 325.166C69.1511 325.334 68.7778 325.567 68.3951 325.866L67.7371 325.04C67.9985 324.816 68.2831 324.615 68.5911 324.438C68.9085 324.261 69.2491 324.121 69.6131 324.018C69.9865 323.915 70.3831 323.864 70.8031 323.864C71.4285 323.864 71.9651 323.971 72.4131 324.186C72.8611 324.401 73.2065 324.709 73.4491 325.11C73.7011 325.502 73.8271 325.973 73.8271 326.524C73.8271 326.916 73.7665 327.289 73.6451 327.644C73.5238 327.989 73.3511 328.33 73.1271 328.666C72.9031 329.002 72.6325 329.343 72.3151 329.688C71.9978 330.033 71.6478 330.393 71.2651 330.766L69.1791 332.824V332.88H74.2331V334ZM82.2868 328.988C82.2868 329.8 82.2262 330.523 82.1048 331.158C81.9835 331.793 81.7875 332.334 81.5168 332.782C81.2555 333.221 80.9102 333.557 80.4808 333.79C80.0608 334.023 79.5522 334.14 78.9548 334.14C78.2082 334.14 77.5875 333.935 77.0928 333.524C76.6075 333.113 76.2435 332.525 76.0008 331.76C75.7675 330.985 75.6508 330.061 75.6508 328.988C75.6508 327.905 75.7582 326.981 75.9728 326.216C76.1968 325.451 76.5515 324.867 77.0368 324.466C77.5222 324.055 78.1615 323.85 78.9548 323.85C79.7015 323.85 80.3222 324.055 80.8168 324.466C81.3115 324.867 81.6802 325.451 81.9228 326.216C82.1655 326.981 82.2868 327.905 82.2868 328.988ZM76.8828 328.988C76.8828 329.903 76.9482 330.663 77.0788 331.27C77.2188 331.877 77.4382 332.334 77.7368 332.642C78.0448 332.941 78.4508 333.09 78.9548 333.09C79.4588 333.09 79.8602 332.941 80.1588 332.642C80.4668 332.343 80.6908 331.891 80.8308 331.284C80.9708 330.668 81.0408 329.903 81.0408 328.988C81.0408 328.073 80.9708 327.317 80.8308 326.72C80.6908 326.113 80.4668 325.661 80.1588 325.362C79.8602 325.054 79.4588 324.9 78.9548 324.9C78.4508 324.9 78.0448 325.054 77.7368 325.362C77.4382 325.661 77.2188 326.113 77.0788 326.72C76.9482 327.317 76.8828 328.073 76.8828 328.988ZM90.2566 334H83.6486V332.978L86.2666 330.332C86.7706 329.828 87.1952 329.38 87.5406 328.988C87.8859 328.596 88.1472 328.213 88.3246 327.84C88.5019 327.457 88.5906 327.042 88.5906 326.594C88.5906 326.043 88.4272 325.628 88.1006 325.348C87.7739 325.059 87.3492 324.914 86.8266 324.914C86.3412 324.914 85.9119 324.998 85.5386 325.166C85.1746 325.334 84.8012 325.567 84.4186 325.866L83.7606 325.04C84.0219 324.816 84.3066 324.615 84.6146 324.438C84.9319 324.261 85.2726 324.121 85.6366 324.018C86.0099 323.915 86.4066 323.864 86.8266 323.864C87.4519 323.864 87.9886 323.971 88.4366 324.186C88.8846 324.401 89.2299 324.709 89.4726 325.11C89.7246 325.502 89.8506 325.973 89.8506 326.524C89.8506 326.916 89.7899 327.289 89.6686 327.644C89.5472 327.989 89.3746 328.33 89.1506 328.666C88.9266 329.002 88.6559 329.343 88.3386 329.688C88.0212 330.033 87.6712 330.393 87.2886 330.766L85.2026 332.824V332.88H90.2566V334ZM94.8383 327.868C95.5196 327.868 96.1123 327.985 96.6163 328.218C97.1203 328.451 97.5076 328.787 97.7783 329.226C98.0583 329.655 98.1983 330.183 98.1983 330.808C98.1983 331.499 98.0489 332.096 97.7503 332.6C97.4516 333.095 97.0223 333.477 96.4623 333.748C95.9116 334.009 95.2443 334.14 94.4603 334.14C93.9469 334.14 93.4616 334.093 93.0043 334C92.5563 333.907 92.1783 333.771 91.8703 333.594V332.432C92.2063 332.637 92.6123 332.801 93.0883 332.922C93.5736 333.034 94.0356 333.09 94.4743 333.09C94.9689 333.09 95.3983 333.015 95.7623 332.866C96.1356 332.707 96.4249 332.469 96.6303 332.152C96.8356 331.825 96.9383 331.419 96.9383 330.934C96.9383 330.281 96.7376 329.781 96.3363 329.436C95.9349 329.081 95.3003 328.904 94.4323 328.904C94.1709 328.904 93.8723 328.927 93.5363 328.974C93.2003 329.021 92.9296 329.067 92.7243 329.114L92.1083 328.722L92.4863 324.004H97.4983V325.124H93.5363L93.2983 328.022C93.4569 327.994 93.6716 327.961 93.9423 327.924C94.2129 327.887 94.5116 327.868 94.8383 327.868Z" fill="#000240"/>
<path d="M237.233 334H230.625V332.978L233.243 330.332C233.747 329.828 234.172 329.38 234.517 328.988C234.862 328.596 235.124 328.213 235.301 327.84C235.478 327.457 235.567 327.042 235.567 326.594C235.567 326.043 235.404 325.628 235.077 325.348C234.75 325.059 234.326 324.914 233.803 324.914C233.318 324.914 232.888 324.998 232.515 325.166C232.151 325.334 231.778 325.567 231.395 325.866L230.737 325.04C230.998 324.816 231.283 324.615 231.591 324.438C231.908 324.261 232.249 324.121 232.613 324.018C232.986 323.915 233.383 323.864 233.803 323.864C234.428 323.864 234.965 323.971 235.413 324.186C235.861 324.401 236.206 324.709 236.449 325.11C236.701 325.502 236.827 325.973 236.827 326.524C236.827 326.916 236.766 327.289 236.645 327.644C236.524 327.989 236.351 328.33 236.127 328.666C235.903 329.002 235.632 329.343 235.315 329.688C234.998 330.033 234.648 330.393 234.265 330.766L232.179 332.824V332.88H237.233V334ZM245.287 328.988C245.287 329.8 245.226 330.523 245.105 331.158C244.984 331.793 244.788 332.334 244.517 332.782C244.256 333.221 243.91 333.557 243.481 333.79C243.061 334.023 242.552 334.14 241.955 334.14C241.208 334.14 240.588 333.935 240.093 333.524C239.608 333.113 239.244 332.525 239.001 331.76C238.768 330.985 238.651 330.061 238.651 328.988C238.651 327.905 238.758 326.981 238.973 326.216C239.197 325.451 239.552 324.867 240.037 324.466C240.522 324.055 241.162 323.85 241.955 323.85C242.702 323.85 243.322 324.055 243.817 324.466C244.312 324.867 244.68 325.451 244.923 326.216C245.166 326.981 245.287 327.905 245.287 328.988ZM239.883 328.988C239.883 329.903 239.948 330.663 240.079 331.27C240.219 331.877 240.438 332.334 240.737 332.642C241.045 332.941 241.451 333.09 241.955 333.09C242.459 333.09 242.86 332.941 243.159 332.642C243.467 332.343 243.691 331.891 243.831 331.284C243.971 330.668 244.041 329.903 244.041 328.988C244.041 328.073 243.971 327.317 243.831 326.72C243.691 326.113 243.467 325.661 243.159 325.362C242.86 325.054 242.459 324.9 241.955 324.9C241.451 324.9 241.045 325.054 240.737 325.362C240.438 325.661 240.219 326.113 240.079 326.72C239.948 327.317 239.883 328.073 239.883 328.988ZM252.879 326.342C252.879 326.79 252.795 327.177 252.627 327.504C252.459 327.831 252.216 328.097 251.899 328.302C251.591 328.507 251.227 328.652 250.807 328.736V328.792C251.609 328.885 252.207 329.137 252.599 329.548C252.991 329.959 253.187 330.495 253.187 331.158C253.187 331.737 253.051 332.255 252.781 332.712C252.51 333.16 252.09 333.51 251.521 333.762C250.961 334.014 250.237 334.14 249.351 334.14C248.828 334.14 248.343 334.098 247.895 334.014C247.447 333.939 247.017 333.799 246.607 333.594V332.446C247.027 332.651 247.479 332.815 247.965 332.936C248.45 333.048 248.917 333.104 249.365 333.104C250.261 333.104 250.905 332.931 251.297 332.586C251.698 332.231 251.899 331.746 251.899 331.13C251.899 330.71 251.787 330.374 251.563 330.122C251.348 329.861 251.031 329.669 250.611 329.548C250.191 329.427 249.687 329.366 249.099 329.366H248.133V328.316H249.113C249.663 328.316 250.121 328.237 250.485 328.078C250.858 327.919 251.138 327.7 251.325 327.42C251.521 327.131 251.619 326.799 251.619 326.426C251.619 325.941 251.455 325.567 251.129 325.306C250.802 325.035 250.359 324.9 249.799 324.9C249.444 324.9 249.122 324.937 248.833 325.012C248.543 325.077 248.273 325.175 248.021 325.306C247.778 325.427 247.531 325.572 247.279 325.74L246.663 324.9C246.905 324.713 247.181 324.541 247.489 324.382C247.806 324.223 248.156 324.097 248.539 324.004C248.921 323.911 249.337 323.864 249.785 323.864C250.83 323.864 251.605 324.097 252.109 324.564C252.622 325.031 252.879 325.623 252.879 326.342ZM257.838 327.868C258.52 327.868 259.112 327.985 259.616 328.218C260.12 328.451 260.508 328.787 260.778 329.226C261.058 329.655 261.198 330.183 261.198 330.808C261.198 331.499 261.049 332.096 260.75 332.6C260.452 333.095 260.022 333.477 259.462 333.748C258.912 334.009 258.244 334.14 257.46 334.14C256.947 334.14 256.462 334.093 256.004 334C255.556 333.907 255.178 333.771 254.87 333.594V332.432C255.206 332.637 255.612 332.801 256.088 332.922C256.574 333.034 257.036 333.09 257.474 333.09C257.969 333.09 258.398 333.015 258.762 332.866C259.136 332.707 259.425 332.469 259.63 332.152C259.836 331.825 259.938 331.419 259.938 330.934C259.938 330.281 259.738 329.781 259.336 329.436C258.935 329.081 258.3 328.904 257.432 328.904C257.171 328.904 256.872 328.927 256.536 328.974C256.2 329.021 255.93 329.067 255.724 329.114L255.108 328.722L255.486 324.004H260.498V325.124H256.536L256.298 328.022C256.457 327.994 256.672 327.961 256.942 327.924C257.213 327.887 257.512 327.868 257.838 327.868Z" fill="#000240"/>
<path d="M399.233 334H392.625V332.978L395.243 330.332C395.747 329.828 396.172 329.38 396.517 328.988C396.862 328.596 397.124 328.213 397.301 327.84C397.478 327.457 397.567 327.042 397.567 326.594C397.567 326.043 397.404 325.628 397.077 325.348C396.75 325.059 396.326 324.914 395.803 324.914C395.318 324.914 394.888 324.998 394.515 325.166C394.151 325.334 393.778 325.567 393.395 325.866L392.737 325.04C392.998 324.816 393.283 324.615 393.591 324.438C393.908 324.261 394.249 324.121 394.613 324.018C394.986 323.915 395.383 323.864 395.803 323.864C396.428 323.864 396.965 323.971 397.413 324.186C397.861 324.401 398.206 324.709 398.449 325.11C398.701 325.502 398.827 325.973 398.827 326.524C398.827 326.916 398.766 327.289 398.645 327.644C398.524 327.989 398.351 328.33 398.127 328.666C397.903 329.002 397.632 329.343 397.315 329.688C396.998 330.033 396.648 330.393 396.265 330.766L394.179 332.824V332.88H399.233V334ZM407.287 328.988C407.287 329.8 407.226 330.523 407.105 331.158C406.984 331.793 406.788 332.334 406.517 332.782C406.256 333.221 405.91 333.557 405.481 333.79C405.061 334.023 404.552 334.14 403.955 334.14C403.208 334.14 402.588 333.935 402.093 333.524C401.608 333.113 401.244 332.525 401.001 331.76C400.768 330.985 400.651 330.061 400.651 328.988C400.651 327.905 400.758 326.981 400.973 326.216C401.197 325.451 401.552 324.867 402.037 324.466C402.522 324.055 403.162 323.85 403.955 323.85C404.702 323.85 405.322 324.055 405.817 324.466C406.312 324.867 406.68 325.451 406.923 326.216C407.166 326.981 407.287 327.905 407.287 328.988ZM401.883 328.988C401.883 329.903 401.948 330.663 402.079 331.27C402.219 331.877 402.438 332.334 402.737 332.642C403.045 332.941 403.451 333.09 403.955 333.09C404.459 333.09 404.86 332.941 405.159 332.642C405.467 332.343 405.691 331.891 405.831 331.284C405.971 330.668 406.041 329.903 406.041 328.988C406.041 328.073 405.971 327.317 405.831 326.72C405.691 326.113 405.467 325.661 405.159 325.362C404.86 325.054 404.459 324.9 403.955 324.9C403.451 324.9 403.045 325.054 402.737 325.362C402.438 325.661 402.219 326.113 402.079 326.72C401.948 327.317 401.883 328.073 401.883 328.988ZM415.705 331.732H414.249V334H413.059V331.732H408.271V330.682L412.975 323.948H414.249V330.626H415.705V331.732ZM413.059 327.476C413.059 327.233 413.059 327.014 413.059 326.818C413.068 326.613 413.077 326.421 413.087 326.244C413.096 326.067 413.101 325.899 413.101 325.74C413.11 325.572 413.119 325.413 413.129 325.264H413.073C412.998 325.441 412.905 325.633 412.793 325.838C412.681 326.043 412.573 326.216 412.471 326.356L409.475 330.626H413.059V327.476ZM419.838 327.868C420.52 327.868 421.112 327.985 421.616 328.218C422.12 328.451 422.508 328.787 422.778 329.226C423.058 329.655 423.198 330.183 423.198 330.808C423.198 331.499 423.049 332.096 422.75 332.6C422.452 333.095 422.022 333.477 421.462 333.748C420.912 334.009 420.244 334.14 419.46 334.14C418.947 334.14 418.462 334.093 418.004 334C417.556 333.907 417.178 333.771 416.87 333.594V332.432C417.206 332.637 417.612 332.801 418.088 332.922C418.574 333.034 419.036 333.09 419.474 333.09C419.969 333.09 420.398 333.015 420.762 332.866C421.136 332.707 421.425 332.469 421.63 332.152C421.836 331.825 421.938 331.419 421.938 330.934C421.938 330.281 421.738 329.781 421.336 329.436C420.935 329.081 420.3 328.904 419.432 328.904C419.171 328.904 418.872 328.927 418.536 328.974C418.2 329.021 417.93 329.067 417.724 329.114L417.108 328.722L417.486 324.004H422.498V325.124H418.536L418.298 328.022C418.457 327.994 418.672 327.961 418.942 327.924C419.213 327.887 419.512 327.868 419.838 327.868Z" fill="#000240"/>
<path d="M412.074 228.233L394.585 190.666L385.842 188.241L374.453 238.3L368.623 236.477L364.558 238.35L361.613 231.574L358.105 228.506L351.702 228.538L340.023 221.19L335.279 203.93L327.095 197.181L318.32 188.583L233.918 189.01L222.355 204.501L216.571 211.938L206.676 211.988L194.349 191.68L133.218 189.52L123.401 205.002L111.725 198.271L104.192 205.099L99.526 203.271L84.9053 189.764L59.8757 189.891" stroke="#66BC99" stroke-width="2" stroke-linecap="round"/>
<path d="M412.074 278.233L394.585 180.666L385.842 178.241L374.453 228.3L368.623 226.477L364.558 258.35L361.613 221.574L358.105 218.506L351.702 218.538L340.023 211.19L335.279 243.93L327.095 177.181L318.32 168.583L233.918 169.01L222.355 194.501L216.571 201.938L206.676 201.988L194.349 211.68L133.218 169.52L123.401 195.002L111.725 188.271L104.192 225.099L99.5259 193.271L84.9051 179.764L59.8756 179.891" stroke="#134DD6" stroke-width="2" stroke-linecap="round" stroke-dasharray="4 4"/>
<rect width="6" height="6" transform="translate(151.917 401.257) rotate(45)" fill="#5AC498"/>
<line x1="159.167" y1="405.5" x2="145.167" y2="405.5" stroke="#5AC498" stroke-width="2"/>
<path d="M172.935 411L169.645 402.236H169.589C169.607 402.423 169.621 402.661 169.631 402.95C169.649 403.239 169.663 403.557 169.673 403.902C169.682 404.238 169.687 404.583 169.687 404.938V411H168.525V401.004H170.387L173.467 409.194H173.523L176.659 401.004H178.507V411H177.261V404.854C177.261 404.527 177.265 404.205 177.275 403.888C177.284 403.561 177.298 403.258 177.317 402.978C177.335 402.689 177.349 402.446 177.359 402.25H177.303L173.971 411H172.935ZM182.29 403.496V411H181.058V403.496H182.29ZM181.688 400.682C181.874 400.682 182.038 400.747 182.178 400.878C182.327 400.999 182.402 401.195 182.402 401.466C182.402 401.727 182.327 401.923 182.178 402.054C182.038 402.185 181.874 402.25 181.688 402.25C181.482 402.25 181.31 402.185 181.17 402.054C181.03 401.923 180.96 401.727 180.96 401.466C180.96 401.195 181.03 400.999 181.17 400.878C181.31 400.747 181.482 400.682 181.688 400.682ZM185.885 405.918C185.885 406.067 185.876 406.263 185.857 406.506C185.848 406.749 185.839 406.959 185.829 407.136H185.885C185.941 407.061 186.025 406.954 186.137 406.814C186.249 406.674 186.361 406.534 186.473 406.394C186.595 406.245 186.697 406.123 186.781 406.03L189.175 403.496H190.617L187.579 406.702L190.827 411H189.343L186.739 407.5L185.885 408.242V411H184.667V400.36H185.885V405.918ZM195.044 403.356C195.688 403.356 196.238 403.496 196.696 403.776C197.162 404.056 197.517 404.453 197.76 404.966C198.012 405.47 198.138 406.063 198.138 406.744V407.486H193C193.018 408.335 193.233 408.984 193.644 409.432C194.064 409.871 194.647 410.09 195.394 410.09C195.87 410.09 196.29 410.048 196.654 409.964C197.027 409.871 197.41 409.74 197.802 409.572V410.65C197.419 410.818 197.041 410.939 196.668 411.014C196.294 411.098 195.851 411.14 195.338 411.14C194.628 411.14 193.998 410.995 193.448 410.706C192.906 410.417 192.482 409.987 192.174 409.418C191.875 408.839 191.726 408.135 191.726 407.304C191.726 406.483 191.861 405.778 192.132 405.19C192.412 404.602 192.799 404.149 193.294 403.832C193.798 403.515 194.381 403.356 195.044 403.356ZM195.03 404.364C194.442 404.364 193.975 404.555 193.63 404.938C193.294 405.311 193.093 405.834 193.028 406.506H196.85C196.85 406.077 196.784 405.703 196.654 405.386C196.523 405.069 196.322 404.821 196.052 404.644C195.79 404.457 195.45 404.364 195.03 404.364Z" fill="#000240"/>
<line x1="229.167" y1="406.5" x2="215.167" y2="406.5" stroke="#134DD6" stroke-width="2" stroke-dasharray="2 2"/>
<path d="M241.171 401.004C242.477 401.004 243.429 401.261 244.027 401.774C244.624 402.287 244.923 403.011 244.923 403.944C244.923 404.355 244.853 404.751 244.713 405.134C244.582 405.507 244.363 405.843 244.055 406.142C243.747 406.441 243.336 406.679 242.823 406.856C242.309 407.024 241.679 407.108 240.933 407.108H239.785V411H238.525V401.004H241.171ZM241.059 402.082H239.785V406.03H240.793C241.427 406.03 241.955 405.965 242.375 405.834C242.795 405.694 243.107 405.475 243.313 405.176C243.518 404.877 243.621 404.485 243.621 404C243.621 403.356 243.415 402.875 243.005 402.558C242.594 402.241 241.945 402.082 241.059 402.082ZM250.333 403.356C250.473 403.356 250.623 403.365 250.781 403.384C250.949 403.393 251.094 403.412 251.215 403.44L251.061 404.574C250.94 404.546 250.805 404.523 250.655 404.504C250.515 404.485 250.38 404.476 250.249 404.476C249.96 404.476 249.685 404.537 249.423 404.658C249.162 404.779 248.929 404.952 248.723 405.176C248.518 405.391 248.355 405.652 248.233 405.96C248.121 406.268 248.065 406.613 248.065 406.996V411H246.833V403.496H247.841L247.981 404.868H248.037C248.196 404.588 248.387 404.336 248.611 404.112C248.835 403.879 249.092 403.697 249.381 403.566C249.671 403.426 249.988 403.356 250.333 403.356ZM253.848 403.496V411H252.616V403.496H253.848ZM253.246 400.682C253.433 400.682 253.596 400.747 253.736 400.878C253.886 400.999 253.96 401.195 253.96 401.466C253.96 401.727 253.886 401.923 253.736 402.054C253.596 402.185 253.433 402.25 253.246 402.25C253.041 402.25 252.868 402.185 252.728 402.054C252.588 401.923 252.518 401.727 252.518 401.466C252.518 401.195 252.588 400.999 252.728 400.878C252.868 400.747 253.041 400.682 253.246 400.682ZM255.344 414.36C255.11 414.36 254.905 414.341 254.728 414.304C254.55 414.276 254.396 414.239 254.266 414.192V413.198C254.406 413.235 254.55 413.268 254.7 413.296C254.849 413.324 255.012 413.338 255.19 413.338C255.488 413.338 255.736 413.254 255.932 413.086C256.128 412.927 256.226 412.619 256.226 412.162V403.496H257.458V412.12C257.458 412.587 257.383 412.988 257.234 413.324C257.084 413.66 256.856 413.917 256.548 414.094C256.24 414.271 255.838 414.36 255.344 414.36ZM256.128 401.466C256.128 401.195 256.198 400.999 256.338 400.878C256.478 400.747 256.65 400.682 256.856 400.682C257.042 400.682 257.206 400.747 257.346 400.878C257.495 400.999 257.57 401.195 257.57 401.466C257.57 401.727 257.495 401.923 257.346 402.054C257.206 402.185 257.042 402.25 256.856 402.25C256.65 402.25 256.478 402.185 256.338 402.054C256.198 401.923 256.128 401.727 256.128 401.466ZM264.721 408.928C264.721 409.413 264.6 409.819 264.357 410.146C264.115 410.473 263.769 410.72 263.321 410.888C262.873 411.056 262.341 411.14 261.725 411.14C261.203 411.14 260.75 411.098 260.367 411.014C259.994 410.93 259.663 410.813 259.373 410.664V409.544C259.672 409.693 260.031 409.833 260.451 409.964C260.881 410.085 261.315 410.146 261.753 410.146C262.379 410.146 262.831 410.048 263.111 409.852C263.391 409.647 263.531 409.376 263.531 409.04C263.531 408.853 263.48 408.685 263.377 408.536C263.275 408.387 263.088 408.237 262.817 408.088C262.556 407.939 262.178 407.771 261.683 407.584C261.198 407.397 260.783 407.211 260.437 407.024C260.092 406.837 259.826 406.613 259.639 406.352C259.453 406.091 259.359 405.755 259.359 405.344C259.359 404.709 259.616 404.219 260.129 403.874C260.652 403.529 261.333 403.356 262.173 403.356C262.631 403.356 263.055 403.403 263.447 403.496C263.849 403.58 264.222 403.701 264.567 403.86L264.147 404.84C263.942 404.747 263.723 404.667 263.489 404.602C263.265 404.527 263.037 404.471 262.803 404.434C262.57 404.387 262.332 404.364 262.089 404.364C261.585 404.364 261.198 404.448 260.927 404.616C260.666 404.775 260.535 404.994 260.535 405.274C260.535 405.479 260.596 405.657 260.717 405.806C260.839 405.946 261.039 406.086 261.319 406.226C261.609 406.357 261.991 406.515 262.467 406.702C262.943 406.879 263.349 407.061 263.685 407.248C264.021 407.435 264.278 407.663 264.455 407.934C264.633 408.195 264.721 408.527 264.721 408.928ZM267.766 403.496V411H266.534V403.496H267.766ZM267.164 400.682C267.351 400.682 267.514 400.747 267.654 400.878C267.804 400.999 267.878 401.195 267.878 401.466C267.878 401.727 267.804 401.923 267.654 402.054C267.514 402.185 267.351 402.25 267.164 402.25C266.959 402.25 266.786 402.185 266.646 402.054C266.506 401.923 266.436 401.727 266.436 401.466C266.436 401.195 266.506 400.999 266.646 400.878C266.786 400.747 266.959 400.682 267.164 400.682ZM273.756 403.356C274.652 403.356 275.328 403.575 275.786 404.014C276.243 404.443 276.472 405.143 276.472 406.114V411H275.254V406.198C275.254 405.591 275.118 405.139 274.848 404.84C274.577 404.541 274.152 404.392 273.574 404.392C272.743 404.392 272.169 404.625 271.852 405.092C271.534 405.559 271.376 406.231 271.376 407.108V411H270.144V403.496H271.138L271.32 404.518H271.39C271.558 404.257 271.763 404.042 272.006 403.874C272.258 403.697 272.533 403.566 272.832 403.482C273.13 403.398 273.438 403.356 273.756 403.356ZM281.458 411.14C280.525 411.14 279.778 410.818 279.218 410.174C278.658 409.521 278.378 408.55 278.378 407.262C278.378 405.974 278.658 405.003 279.218 404.35C279.787 403.687 280.539 403.356 281.472 403.356C281.864 403.356 282.205 403.407 282.494 403.51C282.783 403.603 283.035 403.734 283.25 403.902C283.465 404.07 283.647 404.257 283.796 404.462H283.88C283.871 404.341 283.852 404.163 283.824 403.93C283.805 403.687 283.796 403.496 283.796 403.356V400.36H285.028V411H284.034L283.852 409.992H283.796C283.647 410.207 283.465 410.403 283.25 410.58C283.035 410.748 282.779 410.883 282.48 410.986C282.191 411.089 281.85 411.14 281.458 411.14ZM281.654 410.118C282.447 410.118 283.003 409.903 283.32 409.474C283.647 409.035 283.81 408.377 283.81 407.5V407.276C283.81 406.343 283.656 405.629 283.348 405.134C283.04 404.63 282.471 404.378 281.64 404.378C280.977 404.378 280.478 404.644 280.142 405.176C279.815 405.699 279.652 406.403 279.652 407.29C279.652 408.186 279.815 408.881 280.142 409.376C280.478 409.871 280.982 410.118 281.654 410.118ZM290.309 403.356C290.953 403.356 291.504 403.496 291.961 403.776C292.428 404.056 292.783 404.453 293.025 404.966C293.277 405.47 293.403 406.063 293.403 406.744V407.486H288.265C288.284 408.335 288.499 408.984 288.909 409.432C289.329 409.871 289.913 410.09 290.659 410.09C291.135 410.09 291.555 410.048 291.919 409.964C292.293 409.871 292.675 409.74 293.067 409.572V410.65C292.685 410.818 292.307 410.939 291.933 411.014C291.56 411.098 291.117 411.14 290.603 411.14C289.894 411.14 289.264 410.995 288.713 410.706C288.172 410.417 287.747 409.987 287.439 409.418C287.141 408.839 286.991 408.135 286.991 407.304C286.991 406.483 287.127 405.778 287.397 405.19C287.677 404.602 288.065 404.149 288.559 403.832C289.063 403.515 289.647 403.356 290.309 403.356ZM290.295 404.364C289.707 404.364 289.241 404.555 288.895 404.938C288.559 405.311 288.359 405.834 288.293 406.506H292.115C292.115 406.077 292.05 405.703 291.919 405.386C291.789 405.069 291.588 404.821 291.317 404.644C291.056 404.457 290.715 404.364 290.295 404.364ZM296.818 407.164L294.228 403.496H295.628L297.56 406.324L299.478 403.496H300.864L298.274 407.164L301.004 411H299.604L297.56 408.004L295.488 411H294.102L296.818 407.164Z" fill="#000240"/>
</svg>
