<svg width="448" height="439" viewBox="0 0 448 439" fill="none" xmlns="http://www.w3.org/2000/svg">
<g clip-path="url(#clip0_4655_32307)">
<rect width="447.333" height="439" fill="white"/>
<g clip-path="url(#clip1_4655_32307)">
<path d="M30 23.8333L37.9167 28.4166V37.5833L30 42.1666L22.0834 37.5833V28.4166L30 23.8333ZM30 25.7591L23.75 29.3775V36.6225L30 40.2408L36.25 36.6225V29.3775L30 25.7591ZM30 36.3333C29.116 36.3333 28.2681 35.9821 27.643 35.357C27.0179 34.7319 26.6667 33.884 26.6667 33C26.6667 32.1159 27.0179 31.2681 27.643 30.643C28.2681 30.0178 29.116 29.6666 30 29.6666C30.8841 29.6666 31.7319 30.0178 32.3571 30.643C32.9822 31.2681 33.3334 32.1159 33.3334 33C33.3334 33.884 32.9822 34.7319 32.3571 35.357C31.7319 35.9821 30.8841 36.3333 30 36.3333ZM30 34.6666C30.4421 34.6666 30.866 34.4911 31.1786 34.1785C31.4911 33.8659 31.6667 33.442 31.6667 33C31.6667 32.558 31.4911 32.134 31.1786 31.8215C30.866 31.5089 30.4421 31.3333 30 31.3333C29.558 31.3333 29.1341 31.5089 28.8215 31.8215C28.509 32.134 28.3334 32.558 28.3334 33C28.3334 33.442 28.509 33.8659 28.8215 34.1785C29.1341 34.4911 29.558 34.6666 30 34.6666Z" fill="#000240"/>
</g>
<path d="M48.94 40V38.5H50.9V27.5H48.94V26H55.96C56.7733 26 57.4933 26.1467 58.12 26.44C58.76 26.7333 59.2533 27.1467 59.6 27.68C59.96 28.2 60.14 28.8133 60.14 29.52V29.68C60.14 30.3333 60.0133 30.8733 59.76 31.3C59.5067 31.7133 59.2067 32.04 58.86 32.28C58.5133 32.5067 58.1733 32.6733 57.84 32.78V33.06C58.1733 33.14 58.52 33.3 58.88 33.54C59.24 33.7667 59.54 34.0933 59.78 34.52C60.0333 34.9467 60.16 35.4867 60.16 36.14V36.34C60.16 37.1 59.9733 37.76 59.6 38.32C59.24 38.8667 58.74 39.2867 58.1 39.58C57.4733 39.86 56.7533 40 55.94 40H48.94ZM52.58 38.48H55.76C56.64 38.48 57.3133 38.2733 57.78 37.86C58.2467 37.4467 58.48 36.8867 58.48 36.18V36C58.48 35.2933 58.2467 34.7333 57.78 34.32C57.3133 33.9067 56.64 33.7 55.76 33.7H52.58V38.48ZM52.58 32.18H55.82C56.62 32.18 57.26 31.98 57.74 31.58C58.22 31.1667 58.46 30.6267 58.46 29.96V29.76C58.46 29.08 58.22 28.54 57.74 28.14C57.2733 27.7267 56.6333 27.52 55.82 27.52H52.58V32.18ZM67.3627 40.28C66.376 40.28 65.5093 40.0733 64.7627 39.66C64.016 39.2333 63.436 38.64 63.0227 37.88C62.6093 37.12 62.4027 36.24 62.4027 35.24V35C62.4027 33.9867 62.6093 33.1 63.0227 32.34C63.436 31.58 64.0093 30.9933 64.7427 30.58C65.476 30.1533 66.316 29.94 67.2627 29.94C68.1827 29.94 68.996 30.14 69.7027 30.54C70.4093 30.9267 70.9627 31.4867 71.3627 32.22C71.7627 32.9533 71.9627 33.8133 71.9627 34.8V35.52H63.9827C64.0227 36.5733 64.3627 37.4 65.0027 38C65.6427 38.5867 66.4427 38.88 67.4027 38.88C68.2427 38.88 68.8893 38.6867 69.3427 38.3C69.796 37.9133 70.1427 37.4533 70.3827 36.92L71.7427 37.58C71.5427 37.9933 71.2627 38.4067 70.9027 38.82C70.556 39.2333 70.096 39.58 69.5227 39.86C68.9627 40.14 68.2427 40.28 67.3627 40.28ZM64.0027 34.22H70.3627C70.3093 33.3133 69.996 32.6067 69.4227 32.1C68.8627 31.5933 68.1427 31.34 67.2627 31.34C66.3693 31.34 65.636 31.5933 65.0627 32.1C64.4893 32.6067 64.136 33.3133 64.0027 34.22ZM74.7186 40V26H76.2986V40H74.7186ZM84.1009 40.28C83.1143 40.28 82.2476 40.0733 81.5009 39.66C80.7543 39.2333 80.1743 38.64 79.7609 37.88C79.3476 37.12 79.1409 36.24 79.1409 35.24V35C79.1409 33.9867 79.3476 33.1 79.7609 32.34C80.1743 31.58 80.7476 30.9933 81.4809 30.58C82.2143 30.1533 83.0543 29.94 84.0009 29.94C84.9209 29.94 85.7343 30.14 86.4409 30.54C87.1476 30.9267 87.7009 31.4867 88.1009 32.22C88.5009 32.9533 88.7009 33.8133 88.7009 34.8V35.52H80.7209C80.7609 36.5733 81.1009 37.4 81.7409 38C82.3809 38.5867 83.1809 38.88 84.1409 38.88C84.9809 38.88 85.6276 38.6867 86.0809 38.3C86.5343 37.9133 86.8809 37.4533 87.1209 36.92L88.4809 37.58C88.2809 37.9933 88.0009 38.4067 87.6409 38.82C87.2943 39.2333 86.8343 39.58 86.2609 39.86C85.7009 40.14 84.9809 40.28 84.1009 40.28ZM80.7409 34.22H87.1009C87.0476 33.3133 86.7343 32.6067 86.1609 32.1C85.6009 31.5933 84.8809 31.34 84.0009 31.34C83.1076 31.34 82.3743 31.5933 81.8009 32.1C81.2276 32.6067 80.8743 33.3133 80.7409 34.22ZM90.9769 35.16V34.88C90.9769 33.8533 91.1835 32.9733 91.5969 32.24C92.0102 31.5067 92.5702 30.94 93.2769 30.54C93.9835 30.14 94.7569 29.94 95.5969 29.94C96.6235 29.94 97.4102 30.14 97.9569 30.54C98.5169 30.9267 98.9302 31.36 99.1969 31.84H99.4769V30.22H100.977V42.28C100.977 42.8133 100.83 43.2333 100.537 43.54C100.244 43.8467 99.8169 44 99.2569 44H92.6169V42.6H98.8369C99.2369 42.6 99.4369 42.4 99.4369 42V38.28H99.1569C98.9969 38.5733 98.7702 38.86 98.4769 39.14C98.1835 39.42 97.8035 39.6533 97.3369 39.84C96.8702 40.0133 96.2902 40.1 95.5969 40.1C94.7569 40.1 93.9835 39.9 93.2769 39.5C92.5702 39.1 92.0102 38.5333 91.5969 37.8C91.1835 37.0533 90.9769 36.1733 90.9769 35.16ZM96.0169 38.7C97.0302 38.7 97.8502 38.38 98.4769 37.74C99.1169 37.1 99.4369 36.22 99.4369 35.1V34.94C99.4369 33.8067 99.1169 32.9267 98.4769 32.3C97.8502 31.66 97.0302 31.34 96.0169 31.34C95.0169 31.34 94.1902 31.66 93.5369 32.3C92.8969 32.9267 92.5769 33.8067 92.5769 34.94V35.1C92.5769 36.22 92.8969 37.1 93.5369 37.74C94.1902 38.38 95.0169 38.7 96.0169 38.7ZM103.809 35.16V34.88C103.809 33.8533 104.016 32.9733 104.429 32.24C104.842 31.5067 105.402 30.94 106.109 30.54C106.816 30.14 107.589 29.94 108.429 29.94C109.456 29.94 110.242 30.14 110.789 30.54C111.349 30.9267 111.762 31.36 112.029 31.84H112.309V30.22H113.809V42.28C113.809 42.8133 113.662 43.2333 113.369 43.54C113.076 43.8467 112.649 44 112.089 44H105.449V42.6H111.669C112.069 42.6 112.269 42.4 112.269 42V38.28H111.989C111.829 38.5733 111.602 38.86 111.309 39.14C111.016 39.42 110.636 39.6533 110.169 39.84C109.702 40.0133 109.122 40.1 108.429 40.1C107.589 40.1 106.816 39.9 106.109 39.5C105.402 39.1 104.842 38.5333 104.429 37.8C104.016 37.0533 103.809 36.1733 103.809 35.16ZM108.849 38.7C109.862 38.7 110.682 38.38 111.309 37.74C111.949 37.1 112.269 36.22 112.269 35.1V34.94C112.269 33.8067 111.949 32.9267 111.309 32.3C110.682 31.66 109.862 31.34 108.849 31.34C107.849 31.34 107.022 31.66 106.369 32.3C105.729 32.9267 105.409 33.8067 105.409 34.94V35.1C105.409 36.22 105.729 37.1 106.369 37.74C107.022 38.38 107.849 38.7 108.849 38.7ZM117.121 40V30.22H118.701V40H117.121ZM117.921 28.7C117.574 28.7 117.281 28.5867 117.041 28.36C116.814 28.1333 116.701 27.8467 116.701 27.5C116.701 27.14 116.814 26.8467 117.041 26.62C117.281 26.3933 117.574 26.28 117.921 26.28C118.268 26.28 118.554 26.3933 118.781 26.62C119.008 26.8467 119.121 27.14 119.121 27.5C119.121 27.8467 119.008 28.1333 118.781 28.36C118.554 28.5867 118.268 28.7 117.921 28.7ZM122.023 40V30.22H123.563V31.88H123.843C124.057 31.4133 124.417 30.9933 124.923 30.62C125.443 30.2333 126.203 30.04 127.203 30.04C127.937 30.04 128.59 30.1933 129.163 30.5C129.75 30.8067 130.217 31.26 130.563 31.86C130.91 32.46 131.083 33.2 131.083 34.08V40H129.503V34.2C129.503 33.2267 129.257 32.52 128.763 32.08C128.283 31.64 127.63 31.42 126.803 31.42C125.857 31.42 125.083 31.7267 124.483 32.34C123.897 32.9533 123.603 33.8667 123.603 35.08V40H122.023ZM133.809 35.16V34.88C133.809 33.8533 134.016 32.9733 134.429 32.24C134.842 31.5067 135.402 30.94 136.109 30.54C136.816 30.14 137.589 29.94 138.429 29.94C139.456 29.94 140.242 30.14 140.789 30.54C141.349 30.9267 141.762 31.36 142.029 31.84H142.309V30.22H143.809V42.28C143.809 42.8133 143.662 43.2333 143.369 43.54C143.076 43.8467 142.649 44 142.089 44H135.449V42.6H141.669C142.069 42.6 142.269 42.4 142.269 42V38.28H141.989C141.829 38.5733 141.602 38.86 141.309 39.14C141.016 39.42 140.636 39.6533 140.169 39.84C139.702 40.0133 139.122 40.1 138.429 40.1C137.589 40.1 136.816 39.9 136.109 39.5C135.402 39.1 134.842 38.5333 134.429 37.8C134.016 37.0533 133.809 36.1733 133.809 35.16ZM138.849 38.7C139.862 38.7 140.682 38.38 141.309 37.74C141.949 37.1 142.269 36.22 142.269 35.1V34.94C142.269 33.8067 141.949 32.9267 141.309 32.3C140.682 31.66 139.862 31.34 138.849 31.34C137.849 31.34 137.022 31.66 136.369 32.3C135.729 32.9267 135.409 33.8067 135.409 34.94V35.1C135.409 36.22 135.729 37.1 136.369 37.74C137.022 38.38 137.849 38.7 138.849 38.7ZM151.061 40.28C149.848 40.28 148.821 40 147.981 39.44C147.154 38.88 146.654 37.9933 146.481 36.78L147.981 36.44C148.088 37.08 148.288 37.5867 148.581 37.96C148.874 38.32 149.234 38.58 149.661 38.74C150.101 38.8867 150.568 38.96 151.061 38.96C151.794 38.96 152.374 38.8133 152.801 38.52C153.228 38.2267 153.441 37.8333 153.441 37.34C153.441 36.8333 153.234 36.48 152.821 36.28C152.421 36.0667 151.868 35.8933 151.161 35.76L150.341 35.62C149.714 35.5133 149.141 35.3467 148.621 35.12C148.101 34.8933 147.688 34.5867 147.381 34.2C147.074 33.8133 146.921 33.3267 146.921 32.74C146.921 31.86 147.261 31.1733 147.941 30.68C148.621 30.1867 149.521 29.94 150.641 29.94C151.748 29.94 152.641 30.1933 153.321 30.7C154.014 31.1933 154.461 31.8933 154.661 32.8L153.181 33.18C153.061 32.4733 152.774 31.98 152.321 31.7C151.868 31.4067 151.308 31.26 150.641 31.26C149.974 31.26 149.448 31.3867 149.061 31.64C148.674 31.88 148.481 32.24 148.481 32.72C148.481 33.1867 148.661 33.5333 149.021 33.76C149.394 33.9733 149.888 34.1333 150.501 34.24L151.321 34.38C152.014 34.5 152.634 34.6667 153.181 34.88C153.741 35.08 154.181 35.3733 154.501 35.76C154.834 36.1467 155.001 36.6533 155.001 37.28C155.001 38.24 154.641 38.98 153.921 39.5C153.214 40.02 152.261 40.28 151.061 40.28ZM157.668 44V30.22H159.208V31.84H159.488C159.741 31.3467 160.148 30.9067 160.708 30.52C161.281 30.1333 162.074 29.94 163.088 29.94C163.928 29.94 164.694 30.1467 165.388 30.56C166.094 30.96 166.654 31.5333 167.068 32.28C167.494 33.0267 167.708 33.9267 167.708 34.98V35.24C167.708 36.28 167.501 37.18 167.088 37.94C166.674 38.7 166.114 39.28 165.408 39.68C164.714 40.08 163.941 40.28 163.088 40.28C162.408 40.28 161.828 40.1867 161.348 40C160.881 39.8267 160.501 39.6 160.208 39.32C159.914 39.04 159.688 38.7533 159.528 38.46H159.248V44H157.668ZM162.668 38.88C163.681 38.88 164.501 38.56 165.128 37.92C165.768 37.2667 166.088 36.36 166.088 35.2V35.02C166.088 33.86 165.768 32.96 165.128 32.32C164.501 31.6667 163.681 31.34 162.668 31.34C161.668 31.34 160.841 31.6667 160.188 32.32C159.548 32.96 159.228 33.86 159.228 35.02V35.2C159.228 36.36 159.548 37.2667 160.188 37.92C160.841 38.56 161.668 38.88 162.668 38.88ZM175.059 40.28C174.072 40.28 173.199 40.0733 172.439 39.66C171.692 39.2467 171.106 38.6667 170.679 37.92C170.266 37.16 170.059 36.2667 170.059 35.24V34.98C170.059 33.9667 170.266 33.08 170.679 32.32C171.106 31.56 171.692 30.9733 172.439 30.56C173.199 30.1467 174.072 29.94 175.059 29.94C176.046 29.94 176.912 30.1467 177.659 30.56C178.419 30.9733 179.006 31.56 179.419 32.32C179.846 33.08 180.059 33.9667 180.059 34.98V35.24C180.059 36.2667 179.846 37.16 179.419 37.92C179.006 38.6667 178.419 39.2467 177.659 39.66C176.912 40.0733 176.046 40.28 175.059 40.28ZM175.059 38.86C176.099 38.86 176.926 38.5333 177.539 37.88C178.166 37.2133 178.479 36.32 178.479 35.2V35.02C178.479 33.9 178.166 33.0133 177.539 32.36C176.926 31.6933 176.099 31.36 175.059 31.36C174.032 31.36 173.206 31.6933 172.579 32.36C171.952 33.0133 171.639 33.9 171.639 35.02V35.2C171.639 36.32 171.952 37.2133 172.579 37.88C173.206 38.5333 174.032 38.86 175.059 38.86ZM182.902 40V30.22H184.442V31.42H184.722C184.896 30.9933 185.162 30.68 185.522 30.48C185.882 30.28 186.356 30.18 186.942 30.18H188.102V31.62H186.842C186.136 31.62 185.562 31.82 185.122 32.22C184.696 32.6067 184.482 33.2133 184.482 34.04V40H182.902ZM194.041 40C193.481 40 193.048 39.8467 192.741 39.54C192.448 39.2333 192.301 38.8133 192.301 38.28V31.6H189.361V30.22H192.301V26.74H193.881V30.22H197.081V31.6H193.881V38.04C193.881 38.44 194.075 38.64 194.461 38.64H196.641V40H194.041ZM203.769 40.28C202.782 40.28 201.916 40.0733 201.169 39.66C200.422 39.2333 199.842 38.64 199.429 37.88C199.016 37.12 198.809 36.24 198.809 35.24V35C198.809 33.9867 199.016 33.1 199.429 32.34C199.842 31.58 200.416 30.9933 201.149 30.58C201.882 30.1533 202.722 29.94 203.669 29.94C204.589 29.94 205.402 30.14 206.109 30.54C206.816 30.9267 207.369 31.4867 207.769 32.22C208.169 32.9533 208.369 33.8133 208.369 34.8V35.52H200.389C200.429 36.5733 200.769 37.4 201.409 38C202.049 38.5867 202.849 38.88 203.809 38.88C204.649 38.88 205.296 38.6867 205.749 38.3C206.202 37.9133 206.549 37.4533 206.789 36.92L208.149 37.58C207.949 37.9933 207.669 38.4067 207.309 38.82C206.962 39.2333 206.502 39.58 205.929 39.86C205.369 40.14 204.649 40.28 203.769 40.28ZM200.409 34.22H206.769C206.716 33.3133 206.402 32.6067 205.829 32.1C205.269 31.5933 204.549 31.34 203.669 31.34C202.776 31.34 202.042 31.5933 201.469 32.1C200.896 32.6067 200.542 33.3133 200.409 34.22ZM212.635 40V31.6H209.635V30.22H212.635V27.72C212.635 27.1867 212.781 26.7667 213.075 26.46C213.381 26.1533 213.815 26 214.375 26H216.835V27.36H214.815C214.415 27.36 214.215 27.56 214.215 27.96V30.22H217.295V31.6H214.215V40H212.635ZM223.554 40.28C222.567 40.28 221.701 40.0733 220.954 39.66C220.207 39.2333 219.627 38.64 219.214 37.88C218.801 37.12 218.594 36.24 218.594 35.24V35C218.594 33.9867 218.801 33.1 219.214 32.34C219.627 31.58 220.201 30.9933 220.934 30.58C221.667 30.1533 222.507 29.94 223.454 29.94C224.374 29.94 225.187 30.14 225.894 30.54C226.601 30.9267 227.154 31.4867 227.554 32.22C227.954 32.9533 228.154 33.8133 228.154 34.8V35.52H220.174C220.214 36.5733 220.554 37.4 221.194 38C221.834 38.5867 222.634 38.88 223.594 38.88C224.434 38.88 225.081 38.6867 225.534 38.3C225.987 37.9133 226.334 37.4533 226.574 36.92L227.934 37.58C227.734 37.9933 227.454 38.4067 227.094 38.82C226.747 39.2333 226.287 39.58 225.714 39.86C225.154 40.14 224.434 40.28 223.554 40.28ZM220.194 34.22H226.554C226.501 33.3133 226.187 32.6067 225.614 32.1C225.054 31.5933 224.334 31.34 223.454 31.34C222.561 31.34 221.827 31.5933 221.254 32.1C220.681 32.6067 220.327 33.3133 220.194 34.22ZM234.65 40.18C233.943 40.18 233.29 40.0267 232.69 39.72C232.103 39.4133 231.637 38.96 231.29 38.36C230.957 37.7467 230.79 37.0067 230.79 36.14V30.22H232.37V36.02C232.37 36.9933 232.61 37.7 233.09 38.14C233.583 38.58 234.243 38.8 235.07 38.8C236.003 38.8 236.77 38.4933 237.37 37.88C237.97 37.2667 238.27 36.3533 238.27 35.14V30.22H239.85V40H238.31V38.34H238.03C237.817 38.8067 237.45 39.2333 236.93 39.62C236.41 39.9933 235.65 40.18 234.65 40.18ZM243.156 40V30.22H244.736V40H243.156ZM243.956 28.7C243.609 28.7 243.316 28.5867 243.076 28.36C242.849 28.1333 242.736 27.8467 242.736 27.5C242.736 27.14 242.849 26.8467 243.076 26.62C243.316 26.3933 243.609 26.28 243.956 26.28C244.303 26.28 244.589 26.3933 244.816 26.62C245.043 26.8467 245.156 27.14 245.156 27.5C245.156 27.8467 245.043 28.1333 244.816 28.36C244.589 28.5867 244.303 28.7 243.956 28.7ZM248.058 40V26H249.638V40H248.058ZM252.961 40V26H254.541V40H252.961ZM262.343 40.28C261.356 40.28 260.49 40.0733 259.743 39.66C258.996 39.2333 258.416 38.64 258.003 37.88C257.59 37.12 257.383 36.24 257.383 35.24V35C257.383 33.9867 257.59 33.1 258.003 32.34C258.416 31.58 258.99 30.9933 259.723 30.58C260.456 30.1533 261.296 29.94 262.243 29.94C263.163 29.94 263.976 30.14 264.683 30.54C265.39 30.9267 265.943 31.4867 266.343 32.22C266.743 32.9533 266.943 33.8133 266.943 34.8V35.52H258.963C259.003 36.5733 259.343 37.4 259.983 38C260.623 38.5867 261.423 38.88 262.383 38.88C263.223 38.88 263.87 38.6867 264.323 38.3C264.776 37.9133 265.123 37.4533 265.363 36.92L266.723 37.58C266.523 37.9933 266.243 38.4067 265.883 38.82C265.536 39.2333 265.076 39.58 264.503 39.86C263.943 40.14 263.223 40.28 262.343 40.28ZM258.983 34.22H265.343C265.29 33.3133 264.976 32.6067 264.403 32.1C263.843 31.5933 263.123 31.34 262.243 31.34C261.35 31.34 260.616 31.5933 260.043 32.1C259.47 32.6067 259.116 33.3133 258.983 34.22Z" fill="#000240"/>
<g clip-path="url(#clip2_4655_32307)">
<path d="M26.902 77.342C26.902 77.79 26.818 78.1773 26.65 78.504C26.482 78.8307 26.2393 79.0967 25.922 79.302C25.614 79.5073 25.25 79.652 24.83 79.736V79.792C25.6327 79.8853 26.23 80.1373 26.622 80.548C27.014 80.9587 27.21 81.4953 27.21 82.158C27.21 82.7367 27.0747 83.2547 26.804 83.712C26.5333 84.16 26.1133 84.51 25.544 84.762C24.984 85.014 24.2607 85.14 23.374 85.14C22.8513 85.14 22.366 85.098 21.918 85.014C21.47 84.9393 21.0407 84.7993 20.63 84.594V83.446C21.05 83.6513 21.5027 83.8147 21.988 83.936C22.4733 84.048 22.94 84.104 23.388 84.104C24.284 84.104 24.928 83.9313 25.32 83.586C25.7213 83.2313 25.922 82.746 25.922 82.13C25.922 81.71 25.81 81.374 25.586 81.122C25.3713 80.8607 25.054 80.6693 24.634 80.548C24.214 80.4267 23.71 80.366 23.122 80.366H22.156V79.316H23.136C23.6867 79.316 24.144 79.2367 24.508 79.078C24.8813 78.9193 25.1613 78.7 25.348 78.42C25.544 78.1307 25.642 77.7993 25.642 77.426C25.642 76.9407 25.4787 76.5673 25.152 76.306C24.8253 76.0353 24.382 75.9 23.822 75.9C23.4673 75.9 23.1453 75.9373 22.856 76.012C22.5667 76.0773 22.296 76.1753 22.044 76.306C21.8013 76.4273 21.554 76.572 21.302 76.74L20.686 75.9C20.9287 75.7133 21.204 75.5407 21.512 75.382C21.8293 75.2233 22.1793 75.0973 22.562 75.004C22.9447 74.9107 23.36 74.864 23.808 74.864C24.8533 74.864 25.628 75.0973 26.132 75.564C26.6453 76.0307 26.902 76.6233 26.902 77.342ZM41.0704 77.356C41.9198 77.356 42.5544 77.5753 42.9744 78.014C43.3944 78.4433 43.6044 79.1433 43.6044 80.114V85H42.3864V80.17C42.3864 79.582 42.2604 79.1387 42.0084 78.84C41.7658 78.5413 41.3831 78.392 40.8604 78.392C40.1324 78.392 39.6098 78.602 39.2924 79.022C38.9844 79.442 38.8304 80.0533 38.8304 80.856V85H37.6124V80.17C37.6124 79.778 37.5564 79.4513 37.4444 79.19C37.3324 78.9193 37.1644 78.7187 36.9404 78.588C36.7164 78.4573 36.4271 78.392 36.0724 78.392C35.5684 78.392 35.1718 78.4993 34.8824 78.714C34.5931 78.9193 34.3831 79.2227 34.2524 79.624C34.1311 80.0253 34.0704 80.52 34.0704 81.108V85H32.8384V77.496H33.8324L34.0144 78.518H34.0844C34.2431 78.2567 34.4344 78.042 34.6584 77.874C34.8918 77.6967 35.1484 77.566 35.4284 77.482C35.7084 77.398 35.9978 77.356 36.2964 77.356C36.8751 77.356 37.3558 77.4587 37.7384 77.664C38.1304 77.8693 38.4151 78.1867 38.5924 78.616H38.6624C38.9144 78.1867 39.2551 77.8693 39.6844 77.664C40.1231 77.4587 40.5851 77.356 41.0704 77.356ZM47.1544 85H45.9224V74.36H47.1544V85ZM52.1918 85.14C51.2585 85.14 50.5118 84.818 49.9518 84.174C49.3918 83.5207 49.1118 82.55 49.1118 81.262C49.1118 79.974 49.3918 79.0033 49.9518 78.35C50.5211 77.6873 51.2725 77.356 52.2058 77.356C52.5978 77.356 52.9385 77.4073 53.2278 77.51C53.5171 77.6033 53.7691 77.734 53.9838 77.902C54.1985 78.07 54.3805 78.2567 54.5298 78.462H54.6138C54.6045 78.3407 54.5858 78.1633 54.5578 77.93C54.5391 77.6873 54.5298 77.496 54.5298 77.356V74.36H55.7618V85H54.7678L54.5858 83.992H54.5298C54.3805 84.2067 54.1985 84.4027 53.9838 84.58C53.7691 84.748 53.5125 84.8833 53.2138 84.986C52.9245 85.0887 52.5838 85.14 52.1918 85.14ZM52.3878 84.118C53.1811 84.118 53.7365 83.9033 54.0538 83.474C54.3805 83.0353 54.5438 82.3773 54.5438 81.5V81.276C54.5438 80.3427 54.3898 79.6287 54.0818 79.134C53.7738 78.63 53.2045 78.378 52.3738 78.378C51.7111 78.378 51.2118 78.644 50.8758 79.176C50.5491 79.6987 50.3858 80.4033 50.3858 81.29C50.3858 82.186 50.5491 82.8813 50.8758 83.376C51.2118 83.8707 51.7158 84.118 52.3878 84.118Z" fill="#000240"/>
<line opacity="0.5" x1="20" y1="96.5" x2="432" y2="96.5" stroke="#D3D6DB"/>
<path d="M27.28 157.333H20.672V156.311L23.29 153.665C23.794 153.161 24.2187 152.713 24.564 152.321C24.9093 151.929 25.1707 151.547 25.348 151.173C25.5253 150.791 25.614 150.375 25.614 149.927C25.614 149.377 25.4507 148.961 25.124 148.681C24.7973 148.392 24.3727 148.247 23.85 148.247C23.3647 148.247 22.9353 148.331 22.562 148.499C22.198 148.667 21.8247 148.901 21.442 149.199L20.784 148.373C21.0453 148.149 21.33 147.949 21.638 147.771C21.9553 147.594 22.296 147.454 22.66 147.351C23.0333 147.249 23.43 147.197 23.85 147.197C24.4753 147.197 25.012 147.305 25.46 147.519C25.908 147.734 26.2533 148.042 26.496 148.443C26.748 148.835 26.874 149.307 26.874 149.857C26.874 150.249 26.8133 150.623 26.692 150.977C26.5707 151.323 26.398 151.663 26.174 151.999C25.95 152.335 25.6793 152.676 25.362 153.021C25.0447 153.367 24.6947 153.726 24.312 154.099L22.226 156.157V156.213H27.28V157.333ZM41.0704 149.689C41.9198 149.689 42.5544 149.909 42.9744 150.347C43.3944 150.777 43.6044 151.477 43.6044 152.447V157.333H42.3864V152.503C42.3864 151.915 42.2604 151.472 42.0084 151.173C41.7658 150.875 41.3831 150.725 40.8604 150.725C40.1324 150.725 39.6098 150.935 39.2924 151.355C38.9844 151.775 38.8304 152.387 38.8304 153.189V157.333H37.6124V152.503C37.6124 152.111 37.5564 151.785 37.4444 151.523C37.3324 151.253 37.1644 151.052 36.9404 150.921C36.7164 150.791 36.4271 150.725 36.0724 150.725C35.5684 150.725 35.1718 150.833 34.8824 151.047C34.5931 151.253 34.3831 151.556 34.2524 151.957C34.1311 152.359 34.0704 152.853 34.0704 153.441V157.333H32.8384V149.829H33.8324L34.0144 150.851H34.0844C34.2431 150.59 34.4344 150.375 34.6584 150.207C34.8918 150.03 35.1484 149.899 35.4284 149.815C35.7084 149.731 35.9978 149.689 36.2964 149.689C36.8751 149.689 37.3558 149.792 37.7384 149.997C38.1304 150.203 38.4151 150.52 38.5924 150.949H38.6624C38.9144 150.52 39.2551 150.203 39.6844 149.997C40.1231 149.792 40.5851 149.689 41.0704 149.689ZM47.1544 157.333H45.9224V146.693H47.1544V157.333ZM52.1918 157.473C51.2585 157.473 50.5118 157.151 49.9518 156.507C49.3918 155.854 49.1118 154.883 49.1118 153.595C49.1118 152.307 49.3918 151.337 49.9518 150.683C50.5211 150.021 51.2725 149.689 52.2058 149.689C52.5978 149.689 52.9385 149.741 53.2278 149.843C53.5171 149.937 53.7691 150.067 53.9838 150.235C54.1985 150.403 54.3805 150.59 54.5298 150.795H54.6138C54.6045 150.674 54.5858 150.497 54.5578 150.263C54.5391 150.021 54.5298 149.829 54.5298 149.689V146.693H55.7618V157.333H54.7678L54.5858 156.325H54.5298C54.3805 156.54 54.1985 156.736 53.9838 156.913C53.7691 157.081 53.5125 157.217 53.2138 157.319C52.9245 157.422 52.5838 157.473 52.1918 157.473ZM52.3878 156.451C53.1811 156.451 53.7365 156.237 54.0538 155.807C54.3805 155.369 54.5438 154.711 54.5438 153.833V153.609C54.5438 152.676 54.3898 151.962 54.0818 151.467C53.7738 150.963 53.2045 150.711 52.3738 150.711C51.7111 150.711 51.2118 150.977 50.8758 151.509C50.5491 152.032 50.3858 152.737 50.3858 153.623C50.3858 154.519 50.5491 155.215 50.8758 155.709C51.2118 156.204 51.7158 156.451 52.3878 156.451Z" fill="#000240"/>
<line opacity="0.5" x1="20" y1="168.833" x2="432" y2="168.833" stroke="#D3D6DB"/>
<path d="M24.97 229.667H23.766V222.681C23.766 222.41 23.766 222.181 23.766 221.995C23.7753 221.808 23.7847 221.635 23.794 221.477C23.8033 221.309 23.8127 221.136 23.822 220.959C23.6727 221.108 23.5373 221.234 23.416 221.337C23.2947 221.439 23.1407 221.57 22.954 221.729L21.89 222.597L21.246 221.771L23.948 219.671H24.97V229.667ZM30.4337 221.617C30.4337 221.934 30.4244 222.233 30.4057 222.513C30.3964 222.783 30.3824 222.998 30.3637 223.157H30.4337C30.6484 222.839 30.9424 222.573 31.3157 222.359C31.6891 222.144 32.1697 222.037 32.7577 222.037C33.6911 222.037 34.4377 222.363 34.9977 223.017C35.5671 223.661 35.8517 224.627 35.8517 225.915C35.8517 226.773 35.7211 227.492 35.4597 228.071C35.2077 228.649 34.8484 229.083 34.3817 229.373C33.9151 229.662 33.3737 229.807 32.7577 229.807C32.1697 229.807 31.6891 229.699 31.3157 229.485C30.9424 229.27 30.6484 229.013 30.4337 228.715H30.3357L30.0837 229.667H29.2017V219.027H30.4337V221.617ZM32.5477 223.059C32.0157 223.059 31.5957 223.161 31.2877 223.367C30.9797 223.563 30.7604 223.871 30.6297 224.291C30.4991 224.701 30.4337 225.229 30.4337 225.873V225.929C30.4337 226.853 30.5831 227.562 30.8817 228.057C31.1897 228.542 31.7544 228.785 32.5757 228.785C33.2477 228.785 33.7471 228.537 34.0737 228.043C34.4097 227.548 34.5777 226.834 34.5777 225.901C34.5777 224.958 34.4097 224.249 34.0737 223.773C33.7471 223.297 33.2384 223.059 32.5477 223.059ZM41.427 222.023C42.323 222.023 42.9997 222.242 43.457 222.681C43.9143 223.11 44.143 223.81 44.143 224.781V229.667H42.925V224.865C42.925 224.258 42.7897 223.805 42.519 223.507C42.2483 223.208 41.8237 223.059 41.245 223.059C40.4143 223.059 39.8403 223.292 39.523 223.759C39.2057 224.225 39.047 224.897 39.047 225.775V229.667H37.815V222.163H38.809L38.991 223.185H39.061C39.229 222.923 39.4343 222.709 39.677 222.541C39.929 222.363 40.2043 222.233 40.503 222.149C40.8017 222.065 41.1097 222.023 41.427 222.023Z" fill="#000240"/>
<line opacity="0.5" x1="20" y1="241.167" x2="432" y2="241.167" stroke="#D3D6DB"/>
<path d="M27.322 296.988C27.322 297.8 27.2613 298.523 27.14 299.158C27.0187 299.793 26.8227 300.334 26.552 300.782C26.2907 301.221 25.9453 301.557 25.516 301.79C25.096 302.023 24.5873 302.14 23.99 302.14C23.2433 302.14 22.6227 301.935 22.128 301.524C21.6427 301.113 21.2787 300.525 21.036 299.76C20.8027 298.985 20.686 298.061 20.686 296.988C20.686 295.905 20.7933 294.981 21.008 294.216C21.232 293.451 21.5867 292.867 22.072 292.466C22.5573 292.055 23.1967 291.85 23.99 291.85C24.7367 291.85 25.3573 292.055 25.852 292.466C26.3467 292.867 26.7153 293.451 26.958 294.216C27.2007 294.981 27.322 295.905 27.322 296.988ZM21.918 296.988C21.918 297.903 21.9833 298.663 22.114 299.27C22.254 299.877 22.4733 300.334 22.772 300.642C23.08 300.941 23.486 301.09 23.99 301.09C24.494 301.09 24.8953 300.941 25.194 300.642C25.502 300.343 25.726 299.891 25.866 299.284C26.006 298.668 26.076 297.903 26.076 296.988C26.076 296.073 26.006 295.317 25.866 294.72C25.726 294.113 25.502 293.661 25.194 293.362C24.8953 293.054 24.494 292.9 23.99 292.9C23.486 292.9 23.08 293.054 22.772 293.362C22.4733 293.661 22.254 294.113 22.114 294.72C21.9833 295.317 21.918 296.073 21.918 296.988ZM30.4337 293.95C30.4337 294.267 30.4244 294.566 30.4057 294.846C30.3964 295.117 30.3824 295.331 30.3637 295.49H30.4337C30.6484 295.173 30.9424 294.907 31.3157 294.692C31.6891 294.477 32.1697 294.37 32.7577 294.37C33.6911 294.37 34.4377 294.697 34.9977 295.35C35.5671 295.994 35.8517 296.96 35.8517 298.248C35.8517 299.107 35.7211 299.825 35.4597 300.404C35.2077 300.983 34.8484 301.417 34.3817 301.706C33.9151 301.995 33.3737 302.14 32.7577 302.14C32.1697 302.14 31.6891 302.033 31.3157 301.818C30.9424 301.603 30.6484 301.347 30.4337 301.048H30.3357L30.0837 302H29.2017V291.36H30.4337V293.95ZM32.5477 295.392C32.0157 295.392 31.5957 295.495 31.2877 295.7C30.9797 295.896 30.7604 296.204 30.6297 296.624C30.4991 297.035 30.4337 297.562 30.4337 298.206V298.262C30.4337 299.186 30.5831 299.895 30.8817 300.39C31.1897 300.875 31.7544 301.118 32.5757 301.118C33.2477 301.118 33.7471 300.871 34.0737 300.376C34.4097 299.881 34.5777 299.167 34.5777 298.234C34.5777 297.291 34.4097 296.582 34.0737 296.106C33.7471 295.63 33.2384 295.392 32.5477 295.392ZM41.427 294.356C42.323 294.356 42.9997 294.575 43.457 295.014C43.9143 295.443 44.143 296.143 44.143 297.114V302H42.925V297.198C42.925 296.591 42.7897 296.139 42.519 295.84C42.2483 295.541 41.8237 295.392 41.245 295.392C40.4143 295.392 39.8403 295.625 39.523 296.092C39.2057 296.559 39.047 297.231 39.047 298.108V302H37.815V294.496H38.809L38.991 295.518H39.061C39.229 295.257 39.4343 295.042 39.677 294.874C39.929 294.697 40.2043 294.566 40.503 294.482C40.8017 294.398 41.1097 294.356 41.427 294.356Z" fill="#000240"/>
<line opacity="0.5" x1="20" y1="313.5" x2="432" y2="313.5" stroke="#D3D6DB"/>
</g>
<path d="M64.876 333.817V335H58.252C58.2428 334.704 58.2907 334.419 58.3955 334.146C58.5641 333.694 58.833 333.25 59.2021 332.812C59.5758 332.375 60.1136 331.869 60.8154 331.295C61.9046 330.402 62.6406 329.695 63.0234 329.176C63.4062 328.652 63.5977 328.157 63.5977 327.692C63.5977 327.205 63.4222 326.795 63.0713 326.462C62.7249 326.125 62.2715 325.956 61.7109 325.956C61.1185 325.956 60.6445 326.134 60.2891 326.489C59.9336 326.845 59.7536 327.337 59.749 327.966L58.4844 327.836C58.571 326.893 58.8968 326.175 59.4619 325.683C60.027 325.186 60.7858 324.938 61.7383 324.938C62.6999 324.938 63.4609 325.204 64.0215 325.737C64.582 326.271 64.8623 326.931 64.8623 327.72C64.8623 328.121 64.7803 328.515 64.6162 328.902C64.4521 329.29 64.1787 329.698 63.7959 330.126C63.4176 330.554 62.7865 331.142 61.9023 331.89C61.1641 332.509 60.6901 332.931 60.4805 333.154C60.2708 333.373 60.0977 333.594 59.9609 333.817H64.876ZM66.2021 330.058C66.2021 328.873 66.3229 327.92 66.5645 327.2C66.8105 326.476 67.1729 325.917 67.6514 325.525C68.1344 325.133 68.7406 324.938 69.4697 324.938C70.0075 324.938 70.4792 325.047 70.8848 325.266C71.2904 325.48 71.6253 325.792 71.8896 326.202C72.154 326.608 72.3613 327.104 72.5117 327.692C72.6621 328.276 72.7373 329.064 72.7373 330.058C72.7373 331.233 72.6165 332.184 72.375 332.908C72.1335 333.628 71.7712 334.187 71.2881 334.583C70.8096 334.975 70.2035 335.171 69.4697 335.171C68.5036 335.171 67.7448 334.825 67.1934 334.132C66.5326 333.298 66.2021 331.94 66.2021 330.058ZM67.4668 330.058C67.4668 331.703 67.6582 332.799 68.041 333.346C68.4284 333.888 68.9046 334.159 69.4697 334.159C70.0348 334.159 70.5088 333.886 70.8916 333.339C71.279 332.792 71.4727 331.698 71.4727 330.058C71.4727 328.408 71.279 327.312 70.8916 326.77C70.5088 326.227 70.0303 325.956 69.4561 325.956C68.891 325.956 68.4398 326.195 68.1025 326.674C67.6787 327.285 67.4668 328.412 67.4668 330.058ZM80.4619 333.817V335H73.8379C73.8288 334.704 73.8766 334.419 73.9814 334.146C74.1501 333.694 74.4189 333.25 74.7881 332.812C75.1618 332.375 75.6995 331.869 76.4014 331.295C77.4906 330.402 78.2266 329.695 78.6094 329.176C78.9922 328.652 79.1836 328.157 79.1836 327.692C79.1836 327.205 79.0081 326.795 78.6572 326.462C78.3109 326.125 77.8574 325.956 77.2969 325.956C76.7044 325.956 76.2305 326.134 75.875 326.489C75.5195 326.845 75.3395 327.337 75.335 327.966L74.0703 327.836C74.1569 326.893 74.4827 326.175 75.0479 325.683C75.613 325.186 76.3717 324.938 77.3242 324.938C78.2858 324.938 79.0469 325.204 79.6074 325.737C80.168 326.271 80.4482 326.931 80.4482 327.72C80.4482 328.121 80.3662 328.515 80.2021 328.902C80.0381 329.29 79.7646 329.698 79.3818 330.126C79.0036 330.554 78.3724 331.142 77.4883 331.89C76.75 332.509 76.276 332.931 76.0664 333.154C75.8568 333.373 75.6836 333.594 75.5469 333.817H80.4619ZM81.7881 332.375L83.0801 332.266C83.1758 332.895 83.3968 333.368 83.7432 333.688C84.0941 334.002 84.5156 334.159 85.0078 334.159C85.6003 334.159 86.1016 333.936 86.5117 333.489C86.9219 333.043 87.127 332.45 87.127 331.712C87.127 331.01 86.9287 330.456 86.5322 330.051C86.1403 329.645 85.6253 329.442 84.9873 329.442C84.5908 329.442 84.2331 329.534 83.9141 329.716C83.5951 329.894 83.3444 330.126 83.1621 330.413L82.0068 330.263L82.9775 325.115H87.9609V326.291H83.9619L83.4219 328.984C84.0234 328.565 84.6546 328.355 85.3154 328.355C86.1904 328.355 86.9287 328.659 87.5303 329.265C88.1318 329.871 88.4326 330.65 88.4326 331.603C88.4326 332.509 88.1683 333.293 87.6396 333.954C86.9971 334.765 86.1198 335.171 85.0078 335.171C84.0964 335.171 83.3512 334.916 82.7725 334.405C82.1982 333.895 81.8701 333.218 81.7881 332.375Z" fill="#000240"/>
<path d="M178.381 333.817V335H171.757C171.748 334.704 171.796 334.419 171.901 334.146C172.069 333.694 172.338 333.25 172.707 332.812C173.081 332.375 173.619 331.869 174.321 331.295C175.41 330.402 176.146 329.695 176.529 329.176C176.911 328.652 177.103 328.157 177.103 327.692C177.103 327.205 176.927 326.795 176.577 326.462C176.23 326.125 175.777 325.956 175.216 325.956C174.624 325.956 174.15 326.134 173.794 326.489C173.439 326.845 173.259 327.337 173.254 327.966L171.99 327.836C172.076 326.893 172.402 326.175 172.967 325.683C173.532 325.186 174.291 324.938 175.244 324.938C176.205 324.938 176.966 325.204 177.527 325.737C178.087 326.271 178.368 326.931 178.368 327.72C178.368 328.121 178.286 328.515 178.121 328.902C177.957 329.29 177.684 329.698 177.301 330.126C176.923 330.554 176.292 331.142 175.408 331.89C174.669 332.509 174.195 332.931 173.986 333.154C173.776 333.373 173.603 333.594 173.466 333.817H178.381ZM179.707 330.058C179.707 328.873 179.828 327.92 180.07 327.2C180.316 326.476 180.678 325.917 181.157 325.525C181.64 325.133 182.246 324.938 182.975 324.938C183.513 324.938 183.984 325.047 184.39 325.266C184.796 325.48 185.131 325.792 185.395 326.202C185.659 326.608 185.867 327.104 186.017 327.692C186.167 328.276 186.243 329.064 186.243 330.058C186.243 331.233 186.122 332.184 185.88 332.908C185.639 333.628 185.276 334.187 184.793 334.583C184.315 334.975 183.709 335.171 182.975 335.171C182.009 335.171 181.25 334.825 180.699 334.132C180.038 333.298 179.707 331.94 179.707 330.058ZM180.972 330.058C180.972 331.703 181.163 332.799 181.546 333.346C181.934 333.888 182.41 334.159 182.975 334.159C183.54 334.159 184.014 333.886 184.397 333.339C184.784 332.792 184.978 331.698 184.978 330.058C184.978 328.408 184.784 327.312 184.397 326.77C184.014 326.227 183.536 325.956 182.961 325.956C182.396 325.956 181.945 326.195 181.608 326.674C181.184 327.285 180.972 328.412 180.972 330.058ZM191.445 335V332.601H187.097V331.473L191.67 324.979H192.675V331.473H194.029V332.601H192.675V335H191.445ZM191.445 331.473V326.954L188.307 331.473H191.445ZM195.293 332.375L196.585 332.266C196.681 332.895 196.902 333.368 197.248 333.688C197.599 334.002 198.021 334.159 198.513 334.159C199.106 334.159 199.607 333.936 200.017 333.489C200.427 333.043 200.632 332.45 200.632 331.712C200.632 331.01 200.434 330.456 200.037 330.051C199.646 329.645 199.131 329.442 198.493 329.442C198.096 329.442 197.738 329.534 197.419 329.716C197.1 329.894 196.85 330.126 196.667 330.413L195.512 330.263L196.483 325.115H201.466V326.291H197.467L196.927 328.984C197.529 328.565 198.16 328.355 198.821 328.355C199.696 328.355 200.434 328.659 201.036 329.265C201.637 329.871 201.938 330.65 201.938 331.603C201.938 332.509 201.674 333.293 201.145 333.954C200.502 334.765 199.625 335.171 198.513 335.171C197.602 335.171 196.856 334.916 196.278 334.405C195.703 333.895 195.375 333.218 195.293 332.375Z" fill="#000240"/>
<path d="M292.715 333.817V335H286.091C286.081 334.704 286.129 334.419 286.234 334.146C286.403 333.694 286.672 333.25 287.041 332.812C287.414 332.375 287.952 331.869 288.654 331.295C289.743 330.402 290.479 329.695 290.862 329.176C291.245 328.652 291.436 328.157 291.436 327.692C291.436 327.205 291.261 326.795 290.91 326.462C290.564 326.125 290.11 325.956 289.55 325.956C288.957 325.956 288.483 326.134 288.128 326.489C287.772 326.845 287.592 327.337 287.588 327.966L286.323 327.836C286.41 326.893 286.735 326.175 287.301 325.683C287.866 325.186 288.624 324.938 289.577 324.938C290.538 324.938 291.3 325.204 291.86 325.737C292.421 326.271 292.701 326.931 292.701 327.72C292.701 328.121 292.619 328.515 292.455 328.902C292.291 329.29 292.017 329.698 291.635 330.126C291.256 330.554 290.625 331.142 289.741 331.89C289.003 332.509 288.529 332.931 288.319 333.154C288.109 333.373 287.936 333.594 287.8 333.817H292.715ZM294.041 330.058C294.041 328.873 294.162 327.92 294.403 327.2C294.649 326.476 295.011 325.917 295.49 325.525C295.973 325.133 296.579 324.938 297.308 324.938C297.846 324.938 298.318 325.047 298.723 325.266C299.129 325.48 299.464 325.792 299.728 326.202C299.993 326.608 300.2 327.104 300.35 327.692C300.501 328.276 300.576 329.064 300.576 330.058C300.576 331.233 300.455 332.184 300.214 332.908C299.972 333.628 299.61 334.187 299.127 334.583C298.648 334.975 298.042 335.171 297.308 335.171C296.342 335.171 295.583 334.825 295.032 334.132C294.371 333.298 294.041 331.94 294.041 330.058ZM295.305 330.058C295.305 331.703 295.497 332.799 295.88 333.346C296.267 333.888 296.743 334.159 297.308 334.159C297.873 334.159 298.347 333.886 298.73 333.339C299.118 332.792 299.311 331.698 299.311 330.058C299.311 328.408 299.118 327.312 298.73 326.77C298.347 326.227 297.869 325.956 297.295 325.956C296.73 325.956 296.278 326.195 295.941 326.674C295.517 327.285 295.305 328.412 295.305 330.058ZM308.219 327.433L306.995 327.528C306.885 327.045 306.731 326.694 306.53 326.476C306.197 326.125 305.787 325.949 305.3 325.949C304.908 325.949 304.564 326.059 304.267 326.277C303.88 326.56 303.575 326.972 303.351 327.515C303.128 328.057 303.012 328.829 303.003 329.832C303.299 329.381 303.661 329.046 304.09 328.827C304.518 328.608 304.967 328.499 305.436 328.499C306.257 328.499 306.954 328.802 307.528 329.408C308.107 330.01 308.396 330.789 308.396 331.746C308.396 332.375 308.26 332.961 307.986 333.503C307.717 334.041 307.346 334.453 306.872 334.74C306.398 335.027 305.86 335.171 305.259 335.171C304.233 335.171 303.397 334.795 302.75 334.043C302.103 333.286 301.779 332.042 301.779 330.311C301.779 328.374 302.137 326.965 302.852 326.086C303.477 325.32 304.317 324.938 305.375 324.938C306.163 324.938 306.808 325.159 307.309 325.601C307.815 326.043 308.118 326.653 308.219 327.433ZM303.194 331.753C303.194 332.177 303.283 332.582 303.461 332.97C303.643 333.357 303.896 333.653 304.219 333.858C304.543 334.059 304.883 334.159 305.238 334.159C305.758 334.159 306.204 333.95 306.578 333.53C306.952 333.111 307.138 332.541 307.138 331.821C307.138 331.129 306.954 330.584 306.585 330.188C306.216 329.786 305.751 329.586 305.19 329.586C304.634 329.586 304.163 329.786 303.775 330.188C303.388 330.584 303.194 331.106 303.194 331.753ZM309.627 332.375L310.919 332.266C311.014 332.895 311.235 333.368 311.582 333.688C311.933 334.002 312.354 334.159 312.846 334.159C313.439 334.159 313.94 333.936 314.35 333.489C314.76 333.043 314.966 332.45 314.966 331.712C314.966 331.01 314.767 330.456 314.371 330.051C313.979 329.645 313.464 329.442 312.826 329.442C312.429 329.442 312.072 329.534 311.753 329.716C311.434 329.894 311.183 330.126 311.001 330.413L309.845 330.263L310.816 325.115H315.8V326.291H311.801L311.26 328.984C311.862 328.565 312.493 328.355 313.154 328.355C314.029 328.355 314.767 328.659 315.369 329.265C315.97 329.871 316.271 330.65 316.271 331.603C316.271 332.509 316.007 333.293 315.478 333.954C314.836 334.765 313.958 335.171 312.846 335.171C311.935 335.171 311.19 334.916 310.611 334.405C310.037 333.895 309.709 333.218 309.627 332.375Z" fill="#000240"/>
<path d="M407.048 333.817V335H400.424C400.415 334.704 400.463 334.419 400.567 334.146C400.736 333.694 401.005 333.25 401.374 332.812C401.748 332.375 402.285 331.869 402.987 331.295C404.076 330.402 404.812 329.695 405.195 329.176C405.578 328.652 405.77 328.157 405.77 327.692C405.77 327.205 405.594 326.795 405.243 326.462C404.897 326.125 404.443 325.956 403.883 325.956C403.29 325.956 402.816 326.134 402.461 326.489C402.105 326.845 401.925 327.337 401.921 327.966L400.656 327.836C400.743 326.893 401.069 326.175 401.634 325.683C402.199 325.186 402.958 324.938 403.91 324.938C404.872 324.938 405.633 325.204 406.193 325.737C406.754 326.271 407.034 326.931 407.034 327.72C407.034 328.121 406.952 328.515 406.788 328.902C406.624 329.29 406.351 329.698 405.968 330.126C405.59 330.554 404.958 331.142 404.074 331.89C403.336 332.509 402.862 332.931 402.652 333.154C402.443 333.373 402.27 333.594 402.133 333.817H407.048ZM408.374 330.058C408.374 328.873 408.495 327.92 408.736 327.2C408.982 326.476 409.345 325.917 409.823 325.525C410.306 325.133 410.912 324.938 411.642 324.938C412.179 324.938 412.651 325.047 413.057 325.266C413.462 325.48 413.797 325.792 414.062 326.202C414.326 326.608 414.533 327.104 414.684 327.692C414.834 328.276 414.909 329.064 414.909 330.058C414.909 331.233 414.788 332.184 414.547 332.908C414.305 333.628 413.943 334.187 413.46 334.583C412.981 334.975 412.375 335.171 411.642 335.171C410.675 335.171 409.917 334.825 409.365 334.132C408.704 333.298 408.374 331.94 408.374 330.058ZM409.639 330.058C409.639 331.703 409.83 332.799 410.213 333.346C410.6 333.888 411.076 334.159 411.642 334.159C412.207 334.159 412.681 333.886 413.063 333.339C413.451 332.792 413.645 331.698 413.645 330.058C413.645 328.408 413.451 327.312 413.063 326.77C412.681 326.227 412.202 325.956 411.628 325.956C411.063 325.956 410.612 326.195 410.274 326.674C409.851 327.285 409.639 328.412 409.639 330.058ZM418.061 329.565C417.55 329.379 417.172 329.112 416.926 328.766C416.68 328.419 416.557 328.005 416.557 327.521C416.557 326.792 416.819 326.179 417.343 325.683C417.867 325.186 418.564 324.938 419.435 324.938C420.31 324.938 421.014 325.193 421.547 325.703C422.08 326.209 422.347 326.826 422.347 327.556C422.347 328.021 422.224 328.426 421.978 328.772C421.736 329.114 421.367 329.379 420.87 329.565C421.485 329.766 421.952 330.09 422.271 330.536C422.595 330.983 422.757 331.516 422.757 332.136C422.757 332.993 422.454 333.713 421.848 334.296C421.242 334.879 420.444 335.171 419.455 335.171C418.466 335.171 417.669 334.879 417.062 334.296C416.456 333.708 416.153 332.977 416.153 332.102C416.153 331.45 416.317 330.905 416.646 330.468C416.978 330.026 417.45 329.725 418.061 329.565ZM417.814 327.48C417.814 327.954 417.967 328.342 418.272 328.643C418.578 328.943 418.974 329.094 419.462 329.094C419.936 329.094 420.323 328.946 420.624 328.649C420.929 328.349 421.082 327.982 421.082 327.549C421.082 327.098 420.925 326.719 420.61 326.414C420.3 326.104 419.913 325.949 419.448 325.949C418.979 325.949 418.589 326.1 418.279 326.4C417.969 326.701 417.814 327.061 417.814 327.48ZM417.418 332.108C417.418 332.459 417.5 332.799 417.664 333.127C417.833 333.455 418.081 333.71 418.409 333.893C418.737 334.07 419.09 334.159 419.469 334.159C420.057 334.159 420.542 333.97 420.925 333.592C421.308 333.214 421.499 332.733 421.499 332.149C421.499 331.557 421.301 331.067 420.904 330.68C420.512 330.292 420.02 330.099 419.428 330.099C418.849 330.099 418.368 330.29 417.985 330.673C417.607 331.056 417.418 331.534 417.418 332.108ZM423.96 332.375L425.252 332.266C425.348 332.895 425.569 333.368 425.915 333.688C426.266 334.002 426.688 334.159 427.18 334.159C427.772 334.159 428.273 333.936 428.684 333.489C429.094 333.043 429.299 332.45 429.299 331.712C429.299 331.01 429.101 330.456 428.704 330.051C428.312 329.645 427.797 329.442 427.159 329.442C426.763 329.442 426.405 329.534 426.086 329.716C425.767 329.894 425.516 330.126 425.334 330.413L424.179 330.263L425.149 325.115H430.133V326.291H426.134L425.594 328.984C426.195 328.565 426.826 328.355 427.487 328.355C428.362 328.355 429.101 328.659 429.702 329.265C430.304 329.871 430.604 330.65 430.604 331.603C430.604 332.509 430.34 333.293 429.812 333.954C429.169 334.765 428.292 335.171 427.18 335.171C426.268 335.171 425.523 334.916 424.944 334.405C424.37 333.895 424.042 333.218 423.96 332.375Z" fill="#000240"/>
<path d="M75.9608 242.374L69.5 240.384V313H429V124L423.001 125.492L400.849 178.213L393.004 180.203L381.928 188.658L377.313 186.171L365.315 190.647L358.854 182.689L348.701 178.213L337.164 192.139L333.01 188.658L325.165 187.663L314.551 175.229L309.474 181.197L303.936 178.213H297.014L291.015 173.239L287.323 176.721H279.016L274.863 179.208L268.402 176.721L257.788 182.689L241.635 200.595L235.636 211.039L229.637 208.553L223.637 199.103L218.1 202.087L212.1 213.029H206.562L201.024 207.061L183.949 220.489L178.411 218.5L161.336 228.945L156.26 226.955L149.338 225.463L139.185 233.421H132.724L127.186 226.955L115.187 228.945L110.111 238.892H93.0359L87.0366 233.421L75.9608 242.374Z" fill="#C5DFD6"/>
<path d="M69.5 240.384L75.9608 242.374L87.0366 233.421L93.0359 238.892H110.111L115.187 228.945L127.186 226.955L132.724 233.421H139.185L149.338 225.463L156.26 226.955L161.336 228.945L178.411 218.5L183.949 220.489L201.024 207.061L206.562 213.029H212.1L218.099 202.087L223.637 199.103L229.637 208.553L235.636 211.039L241.635 200.595L257.788 182.689L268.402 176.721L274.863 179.208L279.016 176.721H287.323L291.015 173.239L297.014 178.213H303.936L309.474 181.197L314.551 175.229L325.165 187.663L333.01 188.658L337.164 192.139L348.701 178.213L358.854 182.689L365.315 190.647L377.313 186.171L381.928 188.658L393.004 180.203L400.849 178.213L423.001 125.492L429 124" stroke="#19767E"/>
<path d="M75.9608 257.321L69.5 255.753V313H429V164L423.001 165.176L400.849 206.739L393.004 208.308L381.928 214.974L377.313 213.013L365.315 216.542L358.854 210.268L348.701 206.739L337.164 217.718L333.01 214.974L325.165 214.189L314.551 204.387L309.474 209.092L303.936 206.739H297.014L291.015 202.818L287.323 205.563H279.016L274.863 207.524L268.402 205.563L257.788 210.268L241.635 224.384L235.636 232.618L229.637 230.658L223.637 223.208L218.1 225.561L212.1 234.187H206.562L201.024 229.482L183.949 240.068L178.411 238.5L161.336 246.734L156.26 245.166L149.338 243.989L139.185 250.263H132.724L127.186 245.166L115.187 246.734L110.111 254.576H93.0359L87.0366 250.263L75.9608 257.321Z" fill="#DBCC9D"/>
<path d="M69.5 255.753L75.9608 257.321L87.0366 250.263L93.0359 254.576H110.111L115.187 246.734L127.186 245.166L132.724 250.263H139.185L149.338 243.989L156.26 245.166L161.336 246.734L178.411 238.5L183.949 240.068L201.024 229.482L206.562 234.187H212.1L218.099 225.561L223.637 223.208L229.637 230.658L235.636 232.618L241.635 224.384L257.788 210.268L268.402 205.563L274.863 207.524L279.016 205.563H287.323L291.015 202.818L297.014 206.739H303.936L309.474 209.092L314.551 204.387L325.165 214.189L333.01 214.974L337.164 217.718L348.701 206.739L358.854 210.268L365.315 216.542L377.313 213.013L381.928 214.974L393.004 208.308L400.849 206.739L423.001 165.176L429 164" stroke="#A97B00"/>
<path d="M75.9608 272.642L69.5 271.505V313H429V205L423.001 205.853L400.849 235.979L393.004 237.116L381.928 241.947L377.313 240.526L365.315 243.084L358.854 238.537L348.701 235.979L337.164 243.937L333.01 241.947L325.165 241.379L314.551 234.274L309.474 237.684L303.936 235.979H297.014L291.015 233.137L287.323 235.126H279.016L274.863 236.547L268.402 235.126L257.788 238.537L241.635 248.768L235.636 254.737L229.637 253.316L223.637 247.916L218.1 249.621L212.1 255.874H206.562L201.024 252.463L183.949 260.137L178.411 259L161.336 264.968L156.26 263.832L149.338 262.979L139.185 267.526H132.724L127.186 263.832L115.187 264.968L110.111 270.653H93.0359L87.0366 267.526L75.9608 272.642Z" fill="#C8AE9B"/>
<path d="M69.5 271.505L75.9608 272.642L87.0366 267.526L93.0359 270.653H110.111L115.187 264.968L127.186 263.832L132.724 267.526H139.185L149.338 262.979L156.26 263.832L161.336 264.968L178.411 259L183.949 260.137L201.024 252.463L206.562 255.874H212.1L218.099 249.621L223.637 247.916L229.637 253.316L235.636 254.737L241.635 248.768L257.788 238.537L268.402 235.126L274.863 236.547L279.016 235.126H287.323L291.015 233.137L297.014 235.979H303.936L309.474 237.684L314.551 234.274L325.165 241.379L333.01 241.947L337.164 243.937L348.701 235.979L358.854 238.537L365.315 243.084L377.313 240.526L381.928 241.947L393.004 237.116L400.849 235.979L423.001 205.853L429 205" stroke="#7F3100"/>
<path d="M75.9608 285.721L69.5 284.953V313H429V240L423.001 240.576L400.849 260.939L393.004 261.708L381.928 264.974L377.313 264.013L365.315 265.742L358.854 262.668L348.701 260.939L337.164 266.318L333.01 264.974L325.165 264.589L314.551 259.787L309.474 262.092L303.936 260.939H297.014L291.015 259.018L287.323 260.363H279.016L274.863 261.324L268.402 260.363L257.788 262.668L241.635 269.584L235.636 273.618L229.637 272.658L223.637 269.008L218.1 270.161L212.1 274.387H206.562L201.024 272.082L183.949 277.268L178.411 276.5L161.336 280.534L156.26 279.766L149.338 279.189L139.185 282.263H132.724L127.186 279.766L115.187 280.534L110.111 284.376H93.0359L87.0366 282.263L75.9608 285.721Z" fill="#C6DEF4"/>
<path d="M69.5 284.953L75.9608 285.721L87.0366 282.263L93.0359 284.376H110.111L115.187 280.534L127.186 279.766L132.724 282.263H139.185L149.338 279.189L156.26 279.766L161.336 280.534L178.411 276.5L183.949 277.268L201.024 272.082L206.562 274.387H212.1L218.099 270.161L223.637 269.008L229.637 272.658L235.636 273.618L241.635 269.584L257.788 262.668L268.402 260.363L274.863 261.324L279.016 260.363H287.323L291.015 259.018L297.014 260.939H303.936L309.474 262.092L314.551 259.787L325.165 264.589L333.01 264.974L337.164 266.318L348.701 260.939L358.854 262.668L365.315 265.742L377.313 264.013L381.928 264.974L393.004 261.708L400.849 260.939L423.001 240.576L429 240" stroke="#67B0E4"/>
<line x1="84.1666" y1="374.5" x2="66.1666" y2="374.5" stroke="#19767E" stroke-width="2"/>
<path d="M80.1666 370.5L75.6599 378.5L71.1666 370.5L80.1666 370.5Z" fill="#19767E" stroke="#19767E"/>
<path d="M99.7966 380L98.5926 376.906H94.6306L93.4406 380H92.1666L96.0726 369.962H97.2066L101.099 380H99.7966ZM97.0946 372.762C97.0666 372.687 97.02 372.552 96.9546 372.356C96.8893 372.16 96.824 371.959 96.7586 371.754C96.7026 371.539 96.656 371.376 96.6186 371.264C96.572 371.451 96.5206 371.642 96.4646 371.838C96.418 372.025 96.3666 372.197 96.3106 372.356C96.264 372.515 96.222 372.65 96.1846 372.762L95.0506 375.786H98.2146L97.0946 372.762ZM105.14 372.37C106.055 372.37 106.731 372.571 107.17 372.972C107.609 373.373 107.828 374.013 107.828 374.89V380H106.932L106.694 378.936H106.638C106.423 379.207 106.199 379.435 105.966 379.622C105.742 379.799 105.481 379.93 105.182 380.014C104.893 380.098 104.538 380.14 104.118 380.14C103.67 380.14 103.264 380.061 102.9 379.902C102.545 379.743 102.265 379.501 102.06 379.174C101.855 378.838 101.752 378.418 101.752 377.914C101.752 377.167 102.046 376.593 102.634 376.192C103.222 375.781 104.127 375.557 105.35 375.52L106.624 375.478V375.03C106.624 374.405 106.489 373.971 106.218 373.728C105.947 373.485 105.565 373.364 105.07 373.364C104.678 373.364 104.305 373.425 103.95 373.546C103.595 373.658 103.264 373.789 102.956 373.938L102.578 373.014C102.905 372.837 103.292 372.687 103.74 372.566C104.188 372.435 104.655 372.37 105.14 372.37ZM105.504 376.374C104.571 376.411 103.922 376.561 103.558 376.822C103.203 377.083 103.026 377.452 103.026 377.928C103.026 378.348 103.152 378.656 103.404 378.852C103.665 379.048 103.997 379.146 104.398 379.146C105.033 379.146 105.56 378.973 105.98 378.628C106.4 378.273 106.61 377.732 106.61 377.004V376.332L105.504 376.374ZM113.758 372.356C114.654 372.356 115.33 372.575 115.788 373.014C116.245 373.443 116.474 374.143 116.474 375.114V380H115.256V375.198C115.256 374.591 115.12 374.139 114.85 373.84C114.579 373.541 114.154 373.392 113.576 373.392C112.745 373.392 112.171 373.625 111.854 374.092C111.536 374.559 111.378 375.231 111.378 376.108V380H110.146V372.496H111.14L111.322 373.518H111.392C111.56 373.257 111.765 373.042 112.008 372.874C112.26 372.697 112.535 372.566 112.834 372.482C113.132 372.398 113.44 372.356 113.758 372.356ZM121.46 380.14C120.527 380.14 119.78 379.818 119.22 379.174C118.66 378.521 118.38 377.55 118.38 376.262C118.38 374.974 118.66 374.003 119.22 373.35C119.789 372.687 120.541 372.356 121.474 372.356C121.866 372.356 122.207 372.407 122.496 372.51C122.785 372.603 123.037 372.734 123.252 372.902C123.467 373.07 123.649 373.257 123.798 373.462H123.882C123.873 373.341 123.854 373.163 123.826 372.93C123.807 372.687 123.798 372.496 123.798 372.356V369.36H125.03V380H124.036L123.854 378.992H123.798C123.649 379.207 123.467 379.403 123.252 379.58C123.037 379.748 122.781 379.883 122.482 379.986C122.193 380.089 121.852 380.14 121.46 380.14ZM121.656 379.118C122.449 379.118 123.005 378.903 123.322 378.474C123.649 378.035 123.812 377.377 123.812 376.5V376.276C123.812 375.343 123.658 374.629 123.35 374.134C123.042 373.63 122.473 373.378 121.642 373.378C120.979 373.378 120.48 373.644 120.144 374.176C119.817 374.699 119.654 375.403 119.654 376.29C119.654 377.186 119.817 377.881 120.144 378.376C120.48 378.871 120.984 379.118 121.656 379.118ZM130.311 372.356C130.955 372.356 131.506 372.496 131.963 372.776C132.43 373.056 132.785 373.453 133.027 373.966C133.279 374.47 133.405 375.063 133.405 375.744V376.486H128.267C128.286 377.335 128.501 377.984 128.911 378.432C129.331 378.871 129.915 379.09 130.661 379.09C131.137 379.09 131.557 379.048 131.921 378.964C132.295 378.871 132.677 378.74 133.069 378.572V379.65C132.687 379.818 132.309 379.939 131.935 380.014C131.562 380.098 131.119 380.14 130.605 380.14C129.896 380.14 129.266 379.995 128.715 379.706C128.174 379.417 127.749 378.987 127.441 378.418C127.143 377.839 126.993 377.135 126.993 376.304C126.993 375.483 127.129 374.778 127.399 374.19C127.679 373.602 128.067 373.149 128.561 372.832C129.065 372.515 129.649 372.356 130.311 372.356ZM130.297 373.364C129.709 373.364 129.243 373.555 128.897 373.938C128.561 374.311 128.361 374.834 128.295 375.506H132.117C132.117 375.077 132.052 374.703 131.921 374.386C131.791 374.069 131.59 373.821 131.319 373.644C131.058 373.457 130.717 373.364 130.297 373.364ZM136.548 380H135.316V369.36H136.548V380ZM141.823 372.356C142.467 372.356 143.018 372.496 143.475 372.776C143.942 373.056 144.296 373.453 144.539 373.966C144.791 374.47 144.917 375.063 144.917 375.744V376.486H139.779C139.798 377.335 140.012 377.984 140.423 378.432C140.843 378.871 141.426 379.09 142.173 379.09C142.649 379.09 143.069 379.048 143.433 378.964C143.806 378.871 144.189 378.74 144.581 378.572V379.65C144.198 379.818 143.82 379.939 143.447 380.014C143.074 380.098 142.63 380.14 142.117 380.14C141.408 380.14 140.778 379.995 140.227 379.706C139.686 379.417 139.261 378.987 138.953 378.418C138.654 377.839 138.505 377.135 138.505 376.304C138.505 375.483 138.64 374.778 138.911 374.19C139.191 373.602 139.578 373.149 140.073 372.832C140.577 372.515 141.16 372.356 141.823 372.356ZM141.809 373.364C141.221 373.364 140.754 373.555 140.409 373.938C140.073 374.311 139.872 374.834 139.807 375.506H143.629C143.629 375.077 143.564 374.703 143.433 374.386C143.302 374.069 143.102 373.821 142.831 373.644C142.57 373.457 142.229 373.364 141.809 373.364ZM150.439 372.356C151.335 372.356 152.012 372.575 152.469 373.014C152.927 373.443 153.155 374.143 153.155 375.114V380H151.937V375.198C151.937 374.591 151.802 374.139 151.531 373.84C151.261 373.541 150.836 373.392 150.257 373.392C149.427 373.392 148.853 373.625 148.535 374.092C148.218 374.559 148.059 375.231 148.059 376.108V380H146.827V372.496H147.821L148.003 373.518H148.073C148.241 373.257 148.447 373.042 148.689 372.874C148.941 372.697 149.217 372.566 149.515 372.482C149.814 372.398 150.122 372.356 150.439 372.356Z" fill="#000240"/>
<rect width="8" height="8" transform="translate(175.667 370.5)" fill="#A97B00"/>
<line x1="188.167" y1="374.5" x2="171.167" y2="374.5" stroke="#A97B00" stroke-width="2"/>
<path d="M201.865 374.722H205.323V379.622C204.781 379.799 204.235 379.93 203.685 380.014C203.134 380.098 202.509 380.14 201.809 380.14C200.773 380.14 199.9 379.935 199.191 379.524C198.481 379.104 197.94 378.511 197.567 377.746C197.203 376.971 197.021 376.057 197.021 375.002C197.021 373.957 197.226 373.051 197.637 372.286C198.047 371.521 198.635 370.928 199.401 370.508C200.175 370.079 201.109 369.864 202.201 369.864C202.761 369.864 203.288 369.915 203.783 370.018C204.287 370.121 204.753 370.265 205.183 370.452L204.707 371.544C204.352 371.385 203.951 371.25 203.503 371.138C203.064 371.026 202.607 370.97 202.131 370.97C201.337 370.97 200.656 371.133 200.087 371.46C199.517 371.787 199.083 372.253 198.785 372.86C198.486 373.457 198.337 374.171 198.337 375.002C198.337 375.795 198.463 376.5 198.715 377.116C198.976 377.723 199.382 378.199 199.933 378.544C200.483 378.88 201.207 379.048 202.103 379.048C202.401 379.048 202.663 379.039 202.887 379.02C203.12 378.992 203.33 378.959 203.517 378.922C203.713 378.885 203.895 378.847 204.063 378.81V375.842H201.865V374.722ZM211.042 372.356C211.182 372.356 211.332 372.365 211.49 372.384C211.658 372.393 211.803 372.412 211.924 372.44L211.77 373.574C211.649 373.546 211.514 373.523 211.364 373.504C211.224 373.485 211.089 373.476 210.958 373.476C210.669 373.476 210.394 373.537 210.132 373.658C209.871 373.779 209.638 373.952 209.432 374.176C209.227 374.391 209.064 374.652 208.942 374.96C208.83 375.268 208.774 375.613 208.774 375.996V380H207.542V372.496H208.55L208.69 373.868H208.746C208.905 373.588 209.096 373.336 209.32 373.112C209.544 372.879 209.801 372.697 210.09 372.566C210.38 372.426 210.697 372.356 211.042 372.356ZM219.576 376.234C219.576 376.859 219.492 377.415 219.324 377.9C219.165 378.376 218.932 378.782 218.624 379.118C218.325 379.454 217.957 379.711 217.518 379.888C217.089 380.056 216.608 380.14 216.076 380.14C215.581 380.14 215.124 380.056 214.704 379.888C214.284 379.711 213.92 379.454 213.612 379.118C213.304 378.782 213.061 378.376 212.884 377.9C212.716 377.415 212.632 376.859 212.632 376.234C212.632 375.403 212.772 374.703 213.052 374.134C213.332 373.555 213.733 373.117 214.256 372.818C214.779 372.51 215.399 372.356 216.118 372.356C216.799 372.356 217.397 372.51 217.91 372.818C218.433 373.117 218.839 373.555 219.128 374.134C219.427 374.703 219.576 375.403 219.576 376.234ZM213.906 376.234C213.906 376.822 213.981 377.335 214.13 377.774C214.289 378.203 214.531 378.535 214.858 378.768C215.185 379.001 215.6 379.118 216.104 379.118C216.608 379.118 217.023 379.001 217.35 378.768C217.677 378.535 217.915 378.203 218.064 377.774C218.223 377.335 218.302 376.822 218.302 376.234C218.302 375.637 218.223 375.128 218.064 374.708C217.905 374.288 217.663 373.966 217.336 373.742C217.019 373.509 216.603 373.392 216.09 373.392C215.325 373.392 214.769 373.644 214.424 374.148C214.079 374.652 213.906 375.347 213.906 376.234ZM225.141 372.356C226.037 372.356 226.713 372.575 227.171 373.014C227.628 373.443 227.857 374.143 227.857 375.114V380H226.639V375.198C226.639 374.591 226.503 374.139 226.233 373.84C225.962 373.541 225.537 373.392 224.959 373.392C224.128 373.392 223.554 373.625 223.237 374.092C222.919 374.559 222.761 375.231 222.761 376.108V380H221.529V372.496H222.523L222.705 373.518H222.775C222.943 373.257 223.148 373.042 223.391 372.874C223.643 372.697 223.918 372.566 224.217 372.482C224.515 372.398 224.823 372.356 225.141 372.356ZM232.843 380.14C231.909 380.14 231.163 379.818 230.603 379.174C230.043 378.521 229.763 377.55 229.763 376.262C229.763 374.974 230.043 374.003 230.603 373.35C231.172 372.687 231.923 372.356 232.857 372.356C233.249 372.356 233.589 372.407 233.879 372.51C234.168 372.603 234.42 372.734 234.635 372.902C234.849 373.07 235.031 373.257 235.181 373.462H235.265C235.255 373.341 235.237 373.163 235.209 372.93C235.19 372.687 235.181 372.496 235.181 372.356V369.36H236.413V380H235.419L235.237 378.992H235.181C235.031 379.207 234.849 379.403 234.635 379.58C234.42 379.748 234.163 379.883 233.865 379.986C233.575 380.089 233.235 380.14 232.843 380.14ZM233.039 379.118C233.832 379.118 234.387 378.903 234.705 378.474C235.031 378.035 235.195 377.377 235.195 376.5V376.276C235.195 375.343 235.041 374.629 234.733 374.134C234.425 373.63 233.855 373.378 233.025 373.378C232.362 373.378 231.863 373.644 231.527 374.176C231.2 374.699 231.037 375.403 231.037 376.29C231.037 377.186 231.2 377.881 231.527 378.376C231.863 378.871 232.367 379.118 233.039 379.118ZM243.682 377.928C243.682 378.413 243.561 378.819 243.318 379.146C243.075 379.473 242.73 379.72 242.282 379.888C241.834 380.056 241.302 380.14 240.686 380.14C240.163 380.14 239.711 380.098 239.328 380.014C238.955 379.93 238.623 379.813 238.334 379.664V378.544C238.633 378.693 238.992 378.833 239.412 378.964C239.841 379.085 240.275 379.146 240.714 379.146C241.339 379.146 241.792 379.048 242.072 378.852C242.352 378.647 242.492 378.376 242.492 378.04C242.492 377.853 242.441 377.685 242.338 377.536C242.235 377.387 242.049 377.237 241.778 377.088C241.517 376.939 241.139 376.771 240.644 376.584C240.159 376.397 239.743 376.211 239.398 376.024C239.053 375.837 238.787 375.613 238.6 375.352C238.413 375.091 238.32 374.755 238.32 374.344C238.32 373.709 238.577 373.219 239.09 372.874C239.613 372.529 240.294 372.356 241.134 372.356C241.591 372.356 242.016 372.403 242.408 372.496C242.809 372.58 243.183 372.701 243.528 372.86L243.108 373.84C242.903 373.747 242.683 373.667 242.45 373.602C242.226 373.527 241.997 373.471 241.764 373.434C241.531 373.387 241.293 373.364 241.05 373.364C240.546 373.364 240.159 373.448 239.888 373.616C239.627 373.775 239.496 373.994 239.496 374.274C239.496 374.479 239.557 374.657 239.678 374.806C239.799 374.946 240 375.086 240.28 375.226C240.569 375.357 240.952 375.515 241.428 375.702C241.904 375.879 242.31 376.061 242.646 376.248C242.982 376.435 243.239 376.663 243.416 376.934C243.593 377.195 243.682 377.527 243.682 377.928ZM248.001 379.132C248.188 379.132 248.379 379.118 248.575 379.09C248.771 379.053 248.93 379.015 249.051 378.978V379.916C248.921 379.981 248.734 380.033 248.491 380.07C248.249 380.117 248.015 380.14 247.791 380.14C247.399 380.14 247.035 380.075 246.699 379.944C246.373 379.804 246.107 379.566 245.901 379.23C245.696 378.894 245.593 378.423 245.593 377.816V373.448H244.529V372.86L245.607 372.37L246.097 370.774H246.825V372.496H248.995V373.448H246.825V377.788C246.825 378.245 246.933 378.586 247.147 378.81C247.371 379.025 247.656 379.132 248.001 379.132ZM257.078 376.234C257.078 376.859 256.994 377.415 256.826 377.9C256.667 378.376 256.434 378.782 256.126 379.118C255.827 379.454 255.459 379.711 255.02 379.888C254.591 380.056 254.11 380.14 253.578 380.14C253.083 380.14 252.626 380.056 252.206 379.888C251.786 379.711 251.422 379.454 251.114 379.118C250.806 378.782 250.563 378.376 250.386 377.9C250.218 377.415 250.134 376.859 250.134 376.234C250.134 375.403 250.274 374.703 250.554 374.134C250.834 373.555 251.235 373.117 251.758 372.818C252.281 372.51 252.901 372.356 253.62 372.356C254.301 372.356 254.899 372.51 255.412 372.818C255.935 373.117 256.341 373.555 256.63 374.134C256.929 374.703 257.078 375.403 257.078 376.234ZM251.408 376.234C251.408 376.822 251.483 377.335 251.632 377.774C251.791 378.203 252.033 378.535 252.36 378.768C252.687 379.001 253.102 379.118 253.606 379.118C254.11 379.118 254.525 379.001 254.852 378.768C255.179 378.535 255.417 378.203 255.566 377.774C255.725 377.335 255.804 376.822 255.804 376.234C255.804 375.637 255.725 375.128 255.566 374.708C255.407 374.288 255.165 373.966 254.838 373.742C254.521 373.509 254.105 373.392 253.592 373.392C252.827 373.392 252.271 373.644 251.926 374.148C251.581 374.652 251.408 375.347 251.408 376.234ZM262.488 373.448H260.598V380H259.366V373.448H258.05V372.874L259.366 372.454V372.02C259.366 371.376 259.46 370.853 259.646 370.452C259.842 370.051 260.122 369.757 260.486 369.57C260.85 369.383 261.289 369.29 261.802 369.29C262.101 369.29 262.372 369.318 262.614 369.374C262.866 369.421 263.081 369.477 263.258 369.542L262.936 370.508C262.787 370.461 262.614 370.415 262.418 370.368C262.222 370.321 262.022 370.298 261.816 370.298C261.406 370.298 261.098 370.438 260.892 370.718C260.696 370.989 260.598 371.418 260.598 372.006V372.496H262.488V373.448ZM267.304 373.448H265.414V380H264.182V373.448H262.866V372.874L264.182 372.454V372.02C264.182 371.376 264.276 370.853 264.462 370.452C264.658 370.051 264.938 369.757 265.302 369.57C265.666 369.383 266.105 369.29 266.618 369.29C266.917 369.29 267.188 369.318 267.43 369.374C267.682 369.421 267.897 369.477 268.074 369.542L267.752 370.508C267.603 370.461 267.43 370.415 267.234 370.368C267.038 370.321 266.838 370.298 266.632 370.298C266.222 370.298 265.914 370.438 265.708 370.718C265.512 370.989 265.414 371.418 265.414 372.006V372.496H267.304V373.448ZM271.567 372.356C272.211 372.356 272.762 372.496 273.219 372.776C273.686 373.056 274.04 373.453 274.283 373.966C274.535 374.47 274.661 375.063 274.661 375.744V376.486H269.523C269.542 377.335 269.756 377.984 270.167 378.432C270.587 378.871 271.17 379.09 271.917 379.09C272.393 379.09 272.813 379.048 273.177 378.964C273.55 378.871 273.933 378.74 274.325 378.572V379.65C273.942 379.818 273.564 379.939 273.191 380.014C272.818 380.098 272.374 380.14 271.861 380.14C271.152 380.14 270.522 379.995 269.971 379.706C269.43 379.417 269.005 378.987 268.697 378.418C268.398 377.839 268.249 377.135 268.249 376.304C268.249 375.483 268.384 374.778 268.655 374.19C268.935 373.602 269.322 373.149 269.817 372.832C270.321 372.515 270.904 372.356 271.567 372.356ZM271.553 373.364C270.965 373.364 270.498 373.555 270.153 373.938C269.817 374.311 269.616 374.834 269.551 375.506H273.373C273.373 375.077 273.308 374.703 273.177 374.386C273.046 374.069 272.846 373.821 272.575 373.644C272.314 373.457 271.973 373.364 271.553 373.364ZM280.183 372.356C281.079 372.356 281.756 372.575 282.213 373.014C282.671 373.443 282.899 374.143 282.899 375.114V380H281.681V375.198C281.681 374.591 281.546 374.139 281.275 373.84C281.005 373.541 280.58 373.392 280.001 373.392C279.171 373.392 278.597 373.625 278.279 374.092C277.962 374.559 277.803 375.231 277.803 376.108V380H276.571V372.496H277.565L277.747 373.518H277.817C277.985 373.257 278.191 373.042 278.433 372.874C278.685 372.697 278.961 372.566 279.259 372.482C279.558 372.398 279.866 372.356 280.183 372.356Z" fill="#000240"/>
<rect x="304.417" y="370.5" width="5" height="5" rx="2.5" fill="#7F3100"/>
<rect x="304.417" y="370.5" width="5" height="5" rx="2.5" stroke="#7F3100"/>
<line x1="314.167" y1="373" x2="300.167" y2="373" stroke="#7F3100" stroke-width="2"/>
<path d="M326.111 378L322.228 367.979H323.664L326.268 375.259C326.478 375.842 326.653 376.389 326.795 376.899C326.95 376.353 327.13 375.806 327.335 375.259L330.042 367.979H331.395L327.471 378H326.111ZM336.126 377.104C335.67 377.492 335.23 377.765 334.806 377.925C334.387 378.084 333.936 378.164 333.453 378.164C332.655 378.164 332.042 377.97 331.614 377.583C331.186 377.191 330.971 376.692 330.971 376.086C330.971 375.73 331.051 375.407 331.211 375.115C331.375 374.819 331.587 374.582 331.846 374.404C332.111 374.227 332.407 374.092 332.735 374.001C332.977 373.937 333.341 373.876 333.829 373.816C334.822 373.698 335.554 373.557 336.023 373.393C336.028 373.224 336.03 373.117 336.03 373.071C336.03 372.57 335.914 372.217 335.681 372.012C335.367 371.734 334.9 371.595 334.28 371.595C333.701 371.595 333.273 371.697 332.995 371.902C332.721 372.103 332.519 372.461 332.386 372.976L331.183 372.812C331.293 372.297 331.473 371.882 331.723 371.567C331.974 371.248 332.336 371.005 332.81 370.836C333.284 370.663 333.833 370.576 334.458 370.576C335.078 370.576 335.581 370.649 335.969 370.795C336.356 370.941 336.641 371.125 336.823 371.349C337.005 371.567 337.133 371.845 337.206 372.183C337.247 372.392 337.267 372.771 337.267 373.317V374.958C337.267 376.102 337.292 376.826 337.343 377.132C337.397 377.433 337.502 377.722 337.657 378H336.372C336.244 377.745 336.162 377.446 336.126 377.104ZM336.023 374.356C335.577 374.539 334.907 374.694 334.013 374.821C333.508 374.894 333.15 374.976 332.94 375.067C332.731 375.159 332.569 375.293 332.455 375.471C332.341 375.644 332.284 375.838 332.284 376.052C332.284 376.38 332.407 376.653 332.653 376.872C332.904 377.091 333.268 377.2 333.747 377.2C334.221 377.2 334.642 377.098 335.011 376.893C335.381 376.683 335.652 376.398 335.825 376.038C335.957 375.76 336.023 375.35 336.023 374.808V374.356ZM338.689 375.833L339.906 375.642C339.974 376.129 340.163 376.503 340.473 376.763C340.788 377.022 341.225 377.152 341.786 377.152C342.351 377.152 342.77 377.038 343.044 376.811C343.317 376.578 343.454 376.307 343.454 375.997C343.454 375.719 343.333 375.5 343.092 375.341C342.923 375.231 342.504 375.092 341.834 374.924C340.931 374.696 340.305 374.5 339.954 374.336C339.608 374.167 339.343 373.937 339.161 373.646C338.983 373.349 338.894 373.023 338.894 372.668C338.894 372.344 338.967 372.046 339.113 371.772C339.263 371.494 339.466 371.264 339.721 371.082C339.913 370.941 340.173 370.822 340.501 370.727C340.833 370.626 341.189 370.576 341.567 370.576C342.137 370.576 342.636 370.658 343.064 370.822C343.497 370.986 343.816 371.21 344.021 371.492C344.226 371.77 344.368 372.144 344.445 372.613L343.242 372.777C343.187 372.404 343.028 372.112 342.763 371.902C342.504 371.693 342.135 371.588 341.656 371.588C341.091 371.588 340.688 371.681 340.446 371.868C340.205 372.055 340.084 372.274 340.084 372.524C340.084 372.684 340.134 372.827 340.234 372.955C340.334 373.087 340.492 373.197 340.706 373.283C340.829 373.329 341.191 373.434 341.793 373.598C342.663 373.83 343.269 374.021 343.611 374.172C343.957 374.318 344.229 374.532 344.425 374.814C344.621 375.097 344.719 375.448 344.719 375.867C344.719 376.277 344.598 376.665 344.356 377.029C344.119 377.389 343.775 377.67 343.324 377.87C342.873 378.066 342.362 378.164 341.793 378.164C340.849 378.164 340.129 377.968 339.633 377.576C339.14 377.184 338.826 376.603 338.689 375.833ZM348.868 376.899L349.046 377.986C348.699 378.059 348.389 378.096 348.116 378.096C347.669 378.096 347.323 378.025 347.077 377.884C346.831 377.743 346.658 377.558 346.557 377.33C346.457 377.098 346.407 376.612 346.407 375.874V371.697H345.505V370.74H346.407V368.942L347.631 368.204V370.74H348.868V371.697H347.631V375.942C347.631 376.293 347.651 376.519 347.692 376.619C347.738 376.719 347.808 376.799 347.904 376.858C348.004 376.918 348.146 376.947 348.328 376.947C348.465 376.947 348.645 376.931 348.868 376.899ZM349.852 378.602L351.049 378.779C351.099 379.148 351.238 379.417 351.466 379.586C351.771 379.814 352.188 379.928 352.717 379.928C353.286 379.928 353.726 379.814 354.036 379.586C354.346 379.358 354.555 379.039 354.665 378.629C354.729 378.378 354.758 377.852 354.754 377.05C354.216 377.683 353.546 378 352.744 378C351.746 378 350.973 377.64 350.427 376.92C349.88 376.2 349.606 375.336 349.606 374.329C349.606 373.636 349.732 372.998 349.982 372.415C350.233 371.827 350.595 371.374 351.069 371.055C351.548 370.736 352.108 370.576 352.751 370.576C353.608 370.576 354.314 370.923 354.87 371.615V370.74H356.005V377.016C356.005 378.146 355.888 378.946 355.656 379.415C355.428 379.889 355.064 380.263 354.562 380.536C354.066 380.81 353.453 380.946 352.723 380.946C351.858 380.946 351.158 380.75 350.625 380.358C350.092 379.971 349.834 379.385 349.852 378.602ZM350.871 374.24C350.871 375.193 351.06 375.888 351.438 376.325C351.816 376.763 352.29 376.981 352.86 376.981C353.425 376.981 353.899 376.765 354.282 376.332C354.665 375.895 354.856 375.211 354.856 374.281C354.856 373.393 354.658 372.723 354.261 372.271C353.87 371.82 353.396 371.595 352.84 371.595C352.293 371.595 351.828 371.818 351.445 372.265C351.062 372.707 350.871 373.365 350.871 374.24ZM357.413 374.37C357.413 373.026 357.787 372.03 358.534 371.383C359.158 370.845 359.919 370.576 360.817 370.576C361.815 370.576 362.631 370.904 363.264 371.561C363.898 372.212 364.215 373.115 364.215 374.268C364.215 375.202 364.073 375.938 363.791 376.476C363.513 377.009 363.105 377.424 362.567 377.72C362.034 378.016 361.451 378.164 360.817 378.164C359.801 378.164 358.978 377.838 358.349 377.187C357.725 376.535 357.413 375.596 357.413 374.37ZM358.677 374.37C358.677 375.3 358.88 375.997 359.286 376.462C359.691 376.922 360.202 377.152 360.817 377.152C361.428 377.152 361.936 376.92 362.342 376.455C362.747 375.99 362.95 375.282 362.95 374.329C362.95 373.431 362.745 372.752 362.335 372.292C361.929 371.827 361.423 371.595 360.817 371.595C360.202 371.595 359.691 371.825 359.286 372.285C358.88 372.745 358.677 373.44 358.677 374.37ZM370.634 375.662L371.905 375.819C371.705 376.562 371.333 377.139 370.791 377.549C370.248 377.959 369.556 378.164 368.713 378.164C367.651 378.164 366.808 377.838 366.183 377.187C365.564 376.53 365.254 375.612 365.254 374.432C365.254 373.21 365.568 372.262 366.197 371.588C366.826 370.913 367.642 370.576 368.644 370.576C369.615 370.576 370.408 370.907 371.023 371.567C371.638 372.228 371.946 373.158 371.946 374.356C371.946 374.429 371.944 374.539 371.939 374.685H366.525C366.571 375.482 366.796 376.093 367.202 376.517C367.608 376.94 368.113 377.152 368.719 377.152C369.171 377.152 369.556 377.034 369.875 376.797C370.194 376.56 370.447 376.182 370.634 375.662ZM366.594 373.673H370.647C370.593 373.062 370.438 372.604 370.182 372.299C369.79 371.825 369.282 371.588 368.658 371.588C368.093 371.588 367.617 371.777 367.229 372.155C366.846 372.534 366.635 373.039 366.594 373.673ZM378.167 378V377.084C377.706 377.804 377.03 378.164 376.136 378.164C375.558 378.164 375.024 378.005 374.537 377.686C374.054 377.367 373.678 376.922 373.409 376.353C373.145 375.778 373.012 375.12 373.012 374.377C373.012 373.652 373.133 372.996 373.375 372.408C373.616 371.816 373.979 371.362 374.462 371.048C374.945 370.733 375.485 370.576 376.082 370.576C376.519 370.576 376.909 370.67 377.251 370.856C377.593 371.039 377.871 371.278 378.085 371.574V367.979H379.308V378H378.167ZM374.277 374.377C374.277 375.307 374.473 376.002 374.865 376.462C375.257 376.922 375.719 377.152 376.253 377.152C376.79 377.152 377.246 376.934 377.62 376.496C377.998 376.054 378.187 375.382 378.187 374.479C378.187 373.486 377.996 372.757 377.613 372.292C377.23 371.827 376.759 371.595 376.198 371.595C375.651 371.595 375.193 371.818 374.824 372.265C374.459 372.711 374.277 373.415 374.277 374.377Z" fill="#000240"/>
<rect width="7" height="7" transform="translate(186.323 404.55) rotate(45)" fill="#67B0E4"/>
<line x1="194.667" y1="409.851" x2="177.667" y2="409.851" stroke="#67B0E4" stroke-width="2"/>
<path d="M212.747 409.988C212.747 410.763 212.649 411.467 212.453 412.102C212.257 412.727 211.963 413.269 211.571 413.726C211.188 414.183 210.707 414.533 210.129 414.776C209.559 415.019 208.897 415.14 208.141 415.14C207.357 415.14 206.675 415.019 206.097 414.776C205.518 414.524 205.037 414.174 204.655 413.726C204.272 413.269 203.987 412.723 203.801 412.088C203.614 411.453 203.521 410.749 203.521 409.974C203.521 408.947 203.689 408.051 204.025 407.286C204.361 406.521 204.869 405.923 205.551 405.494C206.241 405.065 207.109 404.85 208.155 404.85C209.153 404.85 209.993 405.065 210.675 405.494C211.356 405.914 211.869 406.511 212.215 407.286C212.569 408.051 212.747 408.952 212.747 409.988ZM204.851 409.988C204.851 410.828 204.967 411.551 205.201 412.158C205.434 412.765 205.793 413.231 206.279 413.558C206.773 413.885 207.394 414.048 208.141 414.048C208.897 414.048 209.513 413.885 209.989 413.558C210.474 413.231 210.833 412.765 211.067 412.158C211.3 411.551 211.417 410.828 211.417 409.988C211.417 408.728 211.155 407.743 210.633 407.034C210.11 406.315 209.284 405.956 208.155 405.956C207.399 405.956 206.773 406.119 206.279 406.446C205.793 406.763 205.434 407.225 205.201 407.832C204.967 408.429 204.851 409.148 204.851 409.988ZM216.026 406.95C216.026 407.267 216.017 407.566 215.998 407.846C215.989 408.117 215.975 408.331 215.956 408.49H216.026C216.241 408.173 216.535 407.907 216.908 407.692C217.281 407.477 217.762 407.37 218.35 407.37C219.283 407.37 220.03 407.697 220.59 408.35C221.159 408.994 221.444 409.96 221.444 411.248C221.444 412.107 221.313 412.825 221.052 413.404C220.8 413.983 220.441 414.417 219.974 414.706C219.507 414.995 218.966 415.14 218.35 415.14C217.762 415.14 217.281 415.033 216.908 414.818C216.535 414.603 216.241 414.347 216.026 414.048H215.928L215.676 415H214.794V404.36H216.026V406.95ZM218.14 408.392C217.608 408.392 217.188 408.495 216.88 408.7C216.572 408.896 216.353 409.204 216.222 409.624C216.091 410.035 216.026 410.562 216.026 411.206V411.262C216.026 412.186 216.175 412.895 216.474 413.39C216.782 413.875 217.347 414.118 218.168 414.118C218.84 414.118 219.339 413.871 219.666 413.376C220.002 412.881 220.17 412.167 220.17 411.234C220.17 410.291 220.002 409.582 219.666 409.106C219.339 408.63 218.831 408.392 218.14 408.392ZM224.639 415H223.407V404.36H224.639V415ZM228.249 407.496V415H227.017V407.496H228.249ZM227.647 404.682C227.833 404.682 227.997 404.747 228.137 404.878C228.286 404.999 228.361 405.195 228.361 405.466C228.361 405.727 228.286 405.923 228.137 406.054C227.997 406.185 227.833 406.25 227.647 406.25C227.441 406.25 227.269 406.185 227.129 406.054C226.989 405.923 226.919 405.727 226.919 405.466C226.919 405.195 226.989 404.999 227.129 404.878C227.269 404.747 227.441 404.682 227.647 404.682ZM233.286 407.356C233.781 407.356 234.224 407.449 234.616 407.636C235.017 407.823 235.358 408.107 235.638 408.49H235.708L235.876 407.496H236.856V415.126C236.856 415.835 236.735 416.428 236.492 416.904C236.249 417.389 235.881 417.753 235.386 417.996C234.891 418.239 234.261 418.36 233.496 418.36C232.955 418.36 232.455 418.318 231.998 418.234C231.55 418.159 231.149 418.043 230.794 417.884V416.75C231.037 416.871 231.303 416.974 231.592 417.058C231.881 417.151 232.194 417.221 232.53 417.268C232.866 417.315 233.211 417.338 233.566 417.338C234.21 417.338 234.714 417.147 235.078 416.764C235.451 416.391 235.638 415.877 235.638 415.224V414.93C235.638 414.818 235.643 414.659 235.652 414.454C235.661 414.239 235.671 414.09 235.68 414.006H235.624C235.363 414.389 235.036 414.673 234.644 414.86C234.261 415.047 233.813 415.14 233.3 415.14C232.329 415.14 231.569 414.799 231.018 414.118C230.477 413.437 230.206 412.485 230.206 411.262C230.206 410.459 230.327 409.769 230.57 409.19C230.822 408.602 231.177 408.149 231.634 407.832C232.091 407.515 232.642 407.356 233.286 407.356ZM233.454 408.392C233.034 408.392 232.675 408.504 232.376 408.728C232.087 408.952 231.863 409.279 231.704 409.708C231.555 410.137 231.48 410.66 231.48 411.276C231.48 412.2 231.648 412.909 231.984 413.404C232.329 413.889 232.829 414.132 233.482 414.132C233.865 414.132 234.191 414.085 234.462 413.992C234.733 413.889 234.957 413.735 235.134 413.53C235.311 413.315 235.442 413.045 235.526 412.718C235.61 412.391 235.652 412.004 235.652 411.556V411.262C235.652 410.581 235.573 410.03 235.414 409.61C235.265 409.19 235.027 408.882 234.7 408.686C234.373 408.49 233.958 408.392 233.454 408.392ZM242.081 407.37C242.996 407.37 243.673 407.571 244.111 407.972C244.55 408.373 244.769 409.013 244.769 409.89V415H243.873L243.635 413.936H243.579C243.365 414.207 243.141 414.435 242.907 414.622C242.683 414.799 242.422 414.93 242.123 415.014C241.834 415.098 241.479 415.14 241.059 415.14C240.611 415.14 240.205 415.061 239.841 414.902C239.487 414.743 239.207 414.501 239.001 414.174C238.796 413.838 238.693 413.418 238.693 412.914C238.693 412.167 238.987 411.593 239.575 411.192C240.163 410.781 241.069 410.557 242.291 410.52L243.565 410.478V410.03C243.565 409.405 243.43 408.971 243.159 408.728C242.889 408.485 242.506 408.364 242.011 408.364C241.619 408.364 241.246 408.425 240.891 408.546C240.537 408.658 240.205 408.789 239.897 408.938L239.519 408.014C239.846 407.837 240.233 407.687 240.681 407.566C241.129 407.435 241.596 407.37 242.081 407.37ZM242.445 411.374C241.512 411.411 240.863 411.561 240.499 411.822C240.145 412.083 239.967 412.452 239.967 412.928C239.967 413.348 240.093 413.656 240.345 413.852C240.607 414.048 240.938 414.146 241.339 414.146C241.974 414.146 242.501 413.973 242.921 413.628C243.341 413.273 243.551 412.732 243.551 412.004V411.332L242.445 411.374ZM249.593 414.132C249.78 414.132 249.971 414.118 250.167 414.09C250.363 414.053 250.522 414.015 250.643 413.978V414.916C250.512 414.981 250.326 415.033 250.083 415.07C249.84 415.117 249.607 415.14 249.383 415.14C248.991 415.14 248.627 415.075 248.291 414.944C247.964 414.804 247.698 414.566 247.493 414.23C247.288 413.894 247.185 413.423 247.185 412.816V408.448H246.121V407.86L247.199 407.37L247.689 405.774H248.417V407.496H250.587V408.448H248.417V412.788C248.417 413.245 248.524 413.586 248.739 413.81C248.963 414.025 249.248 414.132 249.593 414.132ZM253.378 407.496V415H252.146V407.496H253.378ZM252.776 404.682C252.962 404.682 253.126 404.747 253.266 404.878C253.415 404.999 253.49 405.195 253.49 405.466C253.49 405.727 253.415 405.923 253.266 406.054C253.126 406.185 252.962 406.25 252.776 406.25C252.57 406.25 252.398 406.185 252.258 406.054C252.118 405.923 252.048 405.727 252.048 405.466C252.048 405.195 252.118 404.999 252.258 404.878C252.398 404.747 252.57 404.682 252.776 404.682ZM258.653 407.356C259.297 407.356 259.848 407.496 260.305 407.776C260.772 408.056 261.126 408.453 261.369 408.966C261.621 409.47 261.747 410.063 261.747 410.744V411.486H256.609C256.628 412.335 256.842 412.984 257.253 413.432C257.673 413.871 258.256 414.09 259.003 414.09C259.479 414.09 259.899 414.048 260.263 413.964C260.636 413.871 261.019 413.74 261.411 413.572V414.65C261.028 414.818 260.65 414.939 260.277 415.014C259.904 415.098 259.46 415.14 258.947 415.14C258.238 415.14 257.608 414.995 257.057 414.706C256.516 414.417 256.091 413.987 255.783 413.418C255.484 412.839 255.335 412.135 255.335 411.304C255.335 410.483 255.47 409.778 255.741 409.19C256.021 408.602 256.408 408.149 256.903 407.832C257.407 407.515 257.99 407.356 258.653 407.356ZM258.639 408.364C258.051 408.364 257.584 408.555 257.239 408.938C256.903 409.311 256.702 409.834 256.637 410.506H260.459C260.459 410.077 260.394 409.703 260.263 409.386C260.132 409.069 259.932 408.821 259.661 408.644C259.4 408.457 259.059 408.364 258.639 408.364ZM268.543 412.928C268.543 413.413 268.422 413.819 268.179 414.146C267.937 414.473 267.591 414.72 267.143 414.888C266.695 415.056 266.163 415.14 265.547 415.14C265.025 415.14 264.572 415.098 264.189 415.014C263.816 414.93 263.485 414.813 263.195 414.664V413.544C263.494 413.693 263.853 413.833 264.273 413.964C264.703 414.085 265.137 414.146 265.575 414.146C266.201 414.146 266.653 414.048 266.933 413.852C267.213 413.647 267.353 413.376 267.353 413.04C267.353 412.853 267.302 412.685 267.199 412.536C267.097 412.387 266.91 412.237 266.639 412.088C266.378 411.939 266 411.771 265.505 411.584C265.02 411.397 264.605 411.211 264.259 411.024C263.914 410.837 263.648 410.613 263.461 410.352C263.275 410.091 263.181 409.755 263.181 409.344C263.181 408.709 263.438 408.219 263.951 407.874C264.474 407.529 265.155 407.356 265.995 407.356C266.453 407.356 266.877 407.403 267.269 407.496C267.671 407.58 268.044 407.701 268.389 407.86L267.969 408.84C267.764 408.747 267.545 408.667 267.311 408.602C267.087 408.527 266.859 408.471 266.625 408.434C266.392 408.387 266.154 408.364 265.911 408.364C265.407 408.364 265.02 408.448 264.749 408.616C264.488 408.775 264.357 408.994 264.357 409.274C264.357 409.479 264.418 409.657 264.539 409.806C264.661 409.946 264.861 410.086 265.141 410.226C265.431 410.357 265.813 410.515 266.289 410.702C266.765 410.879 267.171 411.061 267.507 411.248C267.843 411.435 268.1 411.663 268.277 411.934C268.455 412.195 268.543 412.527 268.543 412.928Z" fill="#000240"/>
</g>
<defs>
<clipPath id="clip0_4655_32307">
<rect width="447.333" height="439" fill="white"/>
</clipPath>
<clipPath id="clip1_4655_32307">
<rect width="20" height="20" fill="white" transform="translate(20 23)"/>
</clipPath>
<clipPath id="clip2_4655_32307">
<rect width="412" height="244" fill="white" transform="translate(20 70)"/>
</clipPath>
</defs>
</svg>
