<svg width="448" height="439" viewBox="0 0 448 439" fill="none" xmlns="http://www.w3.org/2000/svg">
<rect width="447.333" height="439" fill="white"/>
<g clip-path="url(#clip0_4655_14219)">
<path d="M34 27.8333L41.9167 32.4166V41.5833L34 46.1666L26.0834 41.5833V32.4166L34 27.8333ZM34 29.7591L27.75 33.3775V40.6225L34 44.2408L40.25 40.6225V33.3775L34 29.7591ZM34 40.3333C33.116 40.3333 32.2681 39.9821 31.643 39.357C31.0179 38.7319 30.6667 37.884 30.6667 37C30.6667 36.1159 31.0179 35.2681 31.643 34.643C32.2681 34.0178 33.116 33.6666 34 33.6666C34.8841 33.6666 35.7319 34.0178 36.3571 34.643C36.9822 35.2681 37.3334 36.1159 37.3334 37C37.3334 37.884 36.9822 38.7319 36.3571 39.357C35.7319 39.9821 34.8841 40.3333 34 40.3333ZM34 38.6666C34.4421 38.6666 34.866 38.4911 35.1786 38.1785C35.4911 37.8659 35.6667 37.442 35.6667 37C35.6667 36.558 35.4911 36.134 35.1786 35.8215C34.866 35.5089 34.4421 35.3333 34 35.3333C33.558 35.3333 33.1341 35.5089 32.8215 35.8215C32.509 36.134 32.3334 36.558 32.3334 37C32.3334 37.442 32.509 37.8659 32.8215 38.1785C33.1341 38.4911 33.558 38.6666 34 38.6666Z" fill="#000240"/>
</g>
<path d="M58.26 44.28C57.2467 44.28 56.34 44.1 55.54 43.74C54.74 43.38 54.1067 42.84 53.64 42.12C53.1867 41.3867 52.96 40.4733 52.96 39.38V38.96H54.62V39.38C54.62 40.54 54.96 41.4067 55.64 41.98C56.32 42.54 57.1933 42.82 58.26 42.82C59.3533 42.82 60.1867 42.5733 60.76 42.08C61.3333 41.5867 61.62 40.9667 61.62 40.22C61.62 39.7 61.4867 39.2867 61.22 38.98C60.9667 38.6733 60.6067 38.4267 60.14 38.24C59.6733 38.04 59.1267 37.8667 58.5 37.72L57.46 37.46C56.6467 37.2467 55.9267 36.9867 55.3 36.68C54.6733 36.3733 54.18 35.9733 53.82 35.48C53.4733 34.9733 53.3 34.3267 53.3 33.54C53.3 32.7533 53.4933 32.0733 53.88 31.5C54.28 30.9267 54.8333 30.4867 55.54 30.18C56.26 29.8733 57.0867 29.72 58.02 29.72C58.9667 29.72 59.8133 29.8867 60.56 30.22C61.32 30.54 61.9133 31.02 62.34 31.66C62.78 32.2867 63 33.08 63 34.04V34.88H61.34V34.04C61.34 33.36 61.1933 32.8133 60.9 32.4C60.62 31.9867 60.2267 31.68 59.72 31.48C59.2267 31.28 58.66 31.18 58.02 31.18C57.1 31.18 56.36 31.3867 55.8 31.8C55.24 32.2 54.96 32.7733 54.96 33.52C54.96 34.0133 55.08 34.4133 55.32 34.72C55.56 35.0267 55.9 35.28 56.34 35.48C56.78 35.6667 57.3067 35.8333 57.92 35.98L58.96 36.24C59.7733 36.4133 60.5 36.6533 61.14 36.96C61.7933 37.2533 62.3133 37.66 62.7 38.18C63.0867 38.6867 63.28 39.3533 63.28 40.18C63.28 41.0067 63.0733 41.7267 62.66 42.34C62.2467 42.9533 61.66 43.4333 60.9 43.78C60.1533 44.1133 59.2733 44.28 58.26 44.28ZM70.4456 44.28C69.459 44.28 68.5856 44.0733 67.8256 43.66C67.079 43.2467 66.4923 42.6667 66.0656 41.92C65.6523 41.16 65.4456 40.2667 65.4456 39.24V38.98C65.4456 37.9667 65.6523 37.08 66.0656 36.32C66.4923 35.56 67.079 34.9733 67.8256 34.56C68.5856 34.1467 69.459 33.94 70.4456 33.94C71.4323 33.94 72.299 34.1467 73.0456 34.56C73.8056 34.9733 74.3923 35.56 74.8056 36.32C75.2323 37.08 75.4456 37.9667 75.4456 38.98V39.24C75.4456 40.2667 75.2323 41.16 74.8056 41.92C74.3923 42.6667 73.8056 43.2467 73.0456 43.66C72.299 44.0733 71.4323 44.28 70.4456 44.28ZM70.4456 42.86C71.4856 42.86 72.3123 42.5333 72.9256 41.88C73.5523 41.2133 73.8656 40.32 73.8656 39.2V39.02C73.8656 37.9 73.5523 37.0133 72.9256 36.36C72.3123 35.6933 71.4856 35.36 70.4456 35.36C69.419 35.36 68.5923 35.6933 67.9656 36.36C67.339 37.0133 67.0256 37.9 67.0256 39.02V39.2C67.0256 40.32 67.339 41.2133 67.9656 41.88C68.5923 42.5333 69.419 42.86 70.4456 42.86ZM78.2889 44V30H79.8689V44H78.2889ZM83.1913 44V34.22H84.7713V44H83.1913ZM83.9913 32.7C83.6446 32.7 83.3513 32.5867 83.1113 32.36C82.8846 32.1333 82.7713 31.8467 82.7713 31.5C82.7713 31.14 82.8846 30.8467 83.1113 30.62C83.3513 30.3933 83.6446 30.28 83.9913 30.28C84.3379 30.28 84.6246 30.3933 84.8513 30.62C85.0779 30.8467 85.1913 31.14 85.1913 31.5C85.1913 31.8467 85.0779 32.1333 84.8513 32.36C84.6246 32.5867 84.3379 32.7 83.9913 32.7ZM92.2336 44.28C91.3936 44.28 90.6203 44.08 89.9136 43.68C89.2069 43.28 88.6469 42.7 88.2336 41.94C87.8203 41.18 87.6136 40.28 87.6136 39.24V38.98C87.6136 37.94 87.8203 37.0467 88.2336 36.3C88.6469 35.54 89.2003 34.96 89.8936 34.56C90.6003 34.1467 91.3803 33.94 92.2336 33.94C92.9136 33.94 93.4869 34.0333 93.9536 34.22C94.4336 34.3933 94.8203 34.62 95.1136 34.9C95.4069 35.1667 95.6336 35.4533 95.7936 35.76H96.0736V30H97.6536V44H96.1136V42.38H95.8336C95.5669 42.8733 95.1536 43.3133 94.5936 43.7C94.0336 44.0867 93.2469 44.28 92.2336 44.28ZM92.6536 42.88C93.6669 42.88 94.4869 42.56 95.1136 41.92C95.7536 41.2667 96.0736 40.36 96.0736 39.2V39.02C96.0736 37.86 95.7536 36.96 95.1136 36.32C94.4869 35.6667 93.6669 35.34 92.6536 35.34C91.6536 35.34 90.8269 35.6667 90.1736 36.32C89.5336 36.96 89.2136 37.86 89.2136 39.02V39.2C89.2136 40.36 89.5336 41.2667 90.1736 41.92C90.8269 42.56 91.6536 42.88 92.6536 42.88ZM103.965 44.28C103.285 44.28 102.665 44.16 102.105 43.92C101.545 43.68 101.105 43.3333 100.785 42.88C100.465 42.4267 100.305 41.8733 100.305 41.22C100.305 40.5533 100.465 40.0067 100.785 39.58C101.105 39.14 101.545 38.8133 102.105 38.6C102.665 38.3733 103.291 38.26 103.985 38.26H107.285V37.54C107.285 36.8467 107.078 36.3 106.665 35.9C106.265 35.5 105.665 35.3 104.865 35.3C104.078 35.3 103.465 35.4933 103.025 35.88C102.585 36.2533 102.285 36.76 102.125 37.4L100.645 36.92C100.805 36.3733 101.058 35.88 101.405 35.44C101.751 34.9867 102.211 34.6267 102.785 34.36C103.371 34.08 104.071 33.94 104.885 33.94C106.138 33.94 107.111 34.2667 107.805 34.92C108.498 35.56 108.845 36.4667 108.845 37.64V42.06C108.845 42.46 109.031 42.66 109.405 42.66H110.305V44H108.925C108.485 44 108.131 43.88 107.865 43.64C107.598 43.3867 107.465 43.0533 107.465 42.64V42.54H107.225C107.078 42.7933 106.878 43.06 106.625 43.34C106.385 43.6067 106.051 43.8267 105.625 44C105.198 44.1867 104.645 44.28 103.965 44.28ZM104.145 42.92C105.078 42.92 105.831 42.6467 106.405 42.1C106.991 41.54 107.285 40.76 107.285 39.76V39.54H104.045C103.418 39.54 102.898 39.68 102.485 39.96C102.085 40.2267 101.885 40.6333 101.885 41.18C101.885 41.7267 102.091 42.1533 102.505 42.46C102.931 42.7667 103.478 42.92 104.145 42.92ZM112.469 44V34.22H114.009V35.42H114.289C114.462 34.9933 114.729 34.68 115.089 34.48C115.449 34.28 115.922 34.18 116.509 34.18H117.669V35.62H116.409C115.702 35.62 115.129 35.82 114.689 36.22C114.262 36.6067 114.049 37.2133 114.049 38.04V44H112.469ZM120.008 44V34.22H121.588V44H120.008ZM120.808 32.7C120.461 32.7 120.168 32.5867 119.928 32.36C119.701 32.1333 119.588 31.8467 119.588 31.5C119.588 31.14 119.701 30.8467 119.928 30.62C120.168 30.3933 120.461 30.28 120.808 30.28C121.154 30.28 121.441 30.3933 121.668 30.62C121.894 30.8467 122.008 31.14 122.008 31.5C122.008 31.8467 121.894 32.1333 121.668 32.36C121.441 32.5867 121.154 32.7 120.808 32.7ZM128.51 44C127.95 44 127.517 43.8467 127.21 43.54C126.917 43.2333 126.77 42.8133 126.77 42.28V35.6H123.83V34.22H126.77V30.74H128.35V34.22H131.55V35.6H128.35V42.04C128.35 42.44 128.543 42.64 128.93 42.64H131.11V44H128.51ZM138.238 44.28C137.251 44.28 136.384 44.0733 135.638 43.66C134.891 43.2333 134.311 42.64 133.898 41.88C133.484 41.12 133.278 40.24 133.278 39.24V39C133.278 37.9867 133.484 37.1 133.898 36.34C134.311 35.58 134.884 34.9933 135.618 34.58C136.351 34.1533 137.191 33.94 138.138 33.94C139.058 33.94 139.871 34.14 140.578 34.54C141.284 34.9267 141.838 35.4867 142.238 36.22C142.638 36.9533 142.838 37.8133 142.838 38.8V39.52H134.858C134.898 40.5733 135.238 41.4 135.878 42C136.518 42.5867 137.318 42.88 138.278 42.88C139.118 42.88 139.764 42.6867 140.218 42.3C140.671 41.9133 141.018 41.4533 141.258 40.92L142.618 41.58C142.418 41.9933 142.138 42.4067 141.778 42.82C141.431 43.2333 140.971 43.58 140.398 43.86C139.838 44.14 139.118 44.28 138.238 44.28ZM134.878 38.22H141.238C141.184 37.3133 140.871 36.6067 140.298 36.1C139.738 35.5933 139.018 35.34 138.138 35.34C137.244 35.34 136.511 35.5933 135.938 36.1C135.364 36.6067 135.011 37.3133 134.878 38.22ZM145.594 44V34.22H147.174V44H145.594ZM146.394 32.7C146.047 32.7 145.754 32.5867 145.514 32.36C145.287 32.1333 145.174 31.8467 145.174 31.5C145.174 31.14 145.287 30.8467 145.514 30.62C145.754 30.3933 146.047 30.28 146.394 30.28C146.74 30.28 147.027 30.3933 147.254 30.62C147.48 30.8467 147.594 31.14 147.594 31.5C147.594 31.8467 147.48 32.1333 147.254 32.36C147.027 32.5867 146.74 32.7 146.394 32.7ZM154.096 44C153.536 44 153.103 43.8467 152.796 43.54C152.503 43.2333 152.356 42.8133 152.356 42.28V35.6H149.416V34.22H152.356V30.74H153.936V34.22H157.136V35.6H153.936V42.04C153.936 42.44 154.129 42.64 154.516 42.64H156.696V44H154.096ZM163.635 44.28C162.422 44.28 161.395 44 160.555 43.44C159.728 42.88 159.228 41.9933 159.055 40.78L160.555 40.44C160.662 41.08 160.862 41.5867 161.155 41.96C161.448 42.32 161.808 42.58 162.235 42.74C162.675 42.8867 163.142 42.96 163.635 42.96C164.368 42.96 164.948 42.8133 165.375 42.52C165.802 42.2267 166.015 41.8333 166.015 41.34C166.015 40.8333 165.808 40.48 165.395 40.28C164.995 40.0667 164.442 39.8933 163.735 39.76L162.915 39.62C162.288 39.5133 161.715 39.3467 161.195 39.12C160.675 38.8933 160.262 38.5867 159.955 38.2C159.648 37.8133 159.495 37.3267 159.495 36.74C159.495 35.86 159.835 35.1733 160.515 34.68C161.195 34.1867 162.095 33.94 163.215 33.94C164.322 33.94 165.215 34.1933 165.895 34.7C166.588 35.1933 167.035 35.8933 167.235 36.8L165.755 37.18C165.635 36.4733 165.348 35.98 164.895 35.7C164.442 35.4067 163.882 35.26 163.215 35.26C162.548 35.26 162.022 35.3867 161.635 35.64C161.248 35.88 161.055 36.24 161.055 36.72C161.055 37.1867 161.235 37.5333 161.595 37.76C161.968 37.9733 162.462 38.1333 163.075 38.24L163.895 38.38C164.588 38.5 165.208 38.6667 165.755 38.88C166.315 39.08 166.755 39.3733 167.075 39.76C167.408 40.1467 167.575 40.6533 167.575 41.28C167.575 42.24 167.215 42.98 166.495 43.5C165.788 44.02 164.835 44.28 163.635 44.28ZM170.242 44V34.22H171.782V35.42H172.062C172.235 34.9933 172.502 34.68 172.862 34.48C173.222 34.28 173.695 34.18 174.282 34.18H175.442V35.62H174.182C173.475 35.62 172.902 35.82 172.462 36.22C172.035 36.6067 171.822 37.2133 171.822 38.04V44H170.242ZM181.91 44.28C180.923 44.28 180.056 44.0733 179.31 43.66C178.563 43.2333 177.983 42.64 177.57 41.88C177.156 41.12 176.95 40.24 176.95 39.24V39C176.95 37.9867 177.156 37.1 177.57 36.34C177.983 35.58 178.556 34.9933 179.29 34.58C180.023 34.1533 180.863 33.94 181.81 33.94C182.73 33.94 183.543 34.14 184.25 34.54C184.956 34.9267 185.51 35.4867 185.91 36.22C186.31 36.9533 186.51 37.8133 186.51 38.8V39.52H178.53C178.57 40.5733 178.91 41.4 179.55 42C180.19 42.5867 180.99 42.88 181.95 42.88C182.79 42.88 183.436 42.6867 183.89 42.3C184.343 41.9133 184.69 41.4533 184.93 40.92L186.29 41.58C186.09 41.9933 185.81 42.4067 185.45 42.82C185.103 43.2333 184.643 43.58 184.07 43.86C183.51 44.14 182.79 44.28 181.91 44.28ZM178.55 38.22H184.91C184.856 37.3133 184.543 36.6067 183.97 36.1C183.41 35.5933 182.69 35.34 181.81 35.34C180.916 35.34 180.183 35.5933 179.61 36.1C179.036 36.6067 178.683 37.3133 178.55 38.22ZM193.205 44.28C191.992 44.28 190.965 44 190.125 43.44C189.299 42.88 188.799 41.9933 188.625 40.78L190.125 40.44C190.232 41.08 190.432 41.5867 190.725 41.96C191.019 42.32 191.379 42.58 191.805 42.74C192.245 42.8867 192.712 42.96 193.205 42.96C193.939 42.96 194.519 42.8133 194.945 42.52C195.372 42.2267 195.585 41.8333 195.585 41.34C195.585 40.8333 195.379 40.48 194.965 40.28C194.565 40.0667 194.012 39.8933 193.305 39.76L192.485 39.62C191.859 39.5133 191.285 39.3467 190.765 39.12C190.245 38.8933 189.832 38.5867 189.525 38.2C189.219 37.8133 189.065 37.3267 189.065 36.74C189.065 35.86 189.405 35.1733 190.085 34.68C190.765 34.1867 191.665 33.94 192.785 33.94C193.892 33.94 194.785 34.1933 195.465 34.7C196.159 35.1933 196.605 35.8933 196.805 36.8L195.325 37.18C195.205 36.4733 194.919 35.98 194.465 35.7C194.012 35.4067 193.452 35.26 192.785 35.26C192.119 35.26 191.592 35.3867 191.205 35.64C190.819 35.88 190.625 36.24 190.625 36.72C190.625 37.1867 190.805 37.5333 191.165 37.76C191.539 37.9733 192.032 38.1333 192.645 38.24L193.465 38.38C194.159 38.5 194.779 38.6667 195.325 38.88C195.885 39.08 196.325 39.3733 196.645 39.76C196.979 40.1467 197.145 40.6533 197.145 41.28C197.145 42.24 196.785 42.98 196.065 43.5C195.359 44.02 194.405 44.28 193.205 44.28ZM204.292 44.28C203.306 44.28 202.439 44.0733 201.692 43.66C200.946 43.2333 200.366 42.64 199.952 41.88C199.539 41.12 199.332 40.24 199.332 39.24V39C199.332 37.9867 199.539 37.1 199.952 36.34C200.366 35.58 200.939 34.9933 201.672 34.58C202.406 34.1533 203.246 33.94 204.192 33.94C205.112 33.94 205.926 34.14 206.632 34.54C207.339 34.9267 207.892 35.4867 208.292 36.22C208.692 36.9533 208.892 37.8133 208.892 38.8V39.52H200.912C200.952 40.5733 201.292 41.4 201.932 42C202.572 42.5867 203.372 42.88 204.332 42.88C205.172 42.88 205.819 42.6867 206.272 42.3C206.726 41.9133 207.072 41.4533 207.312 40.92L208.672 41.58C208.472 41.9933 208.192 42.4067 207.832 42.82C207.486 43.2333 207.026 43.58 206.452 43.86C205.892 44.14 205.172 44.28 204.292 44.28ZM200.932 38.22H207.292C207.239 37.3133 206.926 36.6067 206.352 36.1C205.792 35.5933 205.072 35.34 204.192 35.34C203.299 35.34 202.566 35.5933 201.992 36.1C201.419 36.6067 201.066 37.3133 200.932 38.22ZM211.648 44V34.22H213.188V35.42H213.468C213.642 34.9933 213.908 34.68 214.268 34.48C214.628 34.28 215.102 34.18 215.688 34.18H216.848V35.62H215.588C214.882 35.62 214.308 35.82 213.868 36.22C213.442 36.6067 213.228 37.2133 213.228 38.04V44H211.648ZM221.667 44L218.167 34.22H219.847L222.787 42.82H223.067L226.007 34.22H227.687L224.187 44H221.667ZM234.038 44.28C233.052 44.28 232.185 44.0733 231.438 43.66C230.692 43.2333 230.112 42.64 229.698 41.88C229.285 41.12 229.078 40.24 229.078 39.24V39C229.078 37.9867 229.285 37.1 229.698 36.34C230.112 35.58 230.685 34.9933 231.418 34.58C232.152 34.1533 232.992 33.94 233.938 33.94C234.858 33.94 235.672 34.14 236.378 34.54C237.085 34.9267 237.638 35.4867 238.038 36.22C238.438 36.9533 238.638 37.8133 238.638 38.8V39.52H230.658C230.698 40.5733 231.038 41.4 231.678 42C232.318 42.5867 233.118 42.88 234.078 42.88C234.918 42.88 235.565 42.6867 236.018 42.3C236.472 41.9133 236.818 41.4533 237.058 40.92L238.418 41.58C238.218 41.9933 237.938 42.4067 237.578 42.82C237.232 43.2333 236.772 43.58 236.198 43.86C235.638 44.14 234.918 44.28 234.038 44.28ZM230.678 38.22H237.038C236.985 37.3133 236.672 36.6067 236.098 36.1C235.538 35.5933 234.818 35.34 233.938 35.34C233.045 35.34 232.312 35.5933 231.738 36.1C231.165 36.6067 230.812 37.3133 230.678 38.22Z" fill="#000240"/>
<path d="M31.28 83.274C31.28 83.8433 31.238 84.4127 31.154 84.982C31.0793 85.542 30.944 86.074 30.748 86.578C30.552 87.0727 30.2813 87.516 29.936 87.908C29.5907 88.2907 29.152 88.594 28.62 88.818C28.088 89.0327 27.444 89.14 26.688 89.14C26.5013 89.14 26.282 89.126 26.03 89.098C25.7873 89.0793 25.5867 89.0467 25.428 89V87.95C25.596 88.006 25.792 88.0527 26.016 88.09C26.24 88.118 26.4547 88.132 26.66 88.132C27.3133 88.132 27.85 88.0247 28.27 87.81C28.6993 87.5953 29.04 87.306 29.292 86.942C29.544 86.5687 29.726 86.1393 29.838 85.654C29.95 85.1593 30.0153 84.6413 30.034 84.1H29.95C29.81 84.3147 29.6327 84.5107 29.418 84.688C29.2033 84.8653 28.942 85.0053 28.634 85.108C28.3353 85.2107 27.9807 85.262 27.57 85.262C27.0007 85.262 26.4967 85.1453 26.058 84.912C25.6287 84.6693 25.2927 84.324 25.05 83.876C24.8167 83.428 24.7 82.882 24.7 82.238C24.7 81.538 24.8307 80.936 25.092 80.432C25.3627 79.928 25.736 79.5407 26.212 79.27C26.688 78.9993 27.248 78.864 27.892 78.864C28.368 78.864 28.8113 78.9573 29.222 79.144C29.6327 79.3213 29.992 79.592 30.3 79.956C30.608 80.32 30.846 80.7773 31.014 81.328C31.1913 81.8787 31.28 82.5273 31.28 83.274ZM27.892 79.9C27.3133 79.9 26.8373 80.0913 26.464 80.474C26.1 80.8567 25.918 81.44 25.918 82.224C25.918 82.868 26.072 83.3767 26.38 83.75C26.6973 84.114 27.1827 84.296 27.836 84.296C28.284 84.296 28.6713 84.2073 28.998 84.03C29.3247 83.8433 29.5767 83.61 29.754 83.33C29.9407 83.05 30.034 82.7607 30.034 82.462C30.034 82.1633 29.9873 81.8647 29.894 81.566C29.81 81.258 29.6793 80.978 29.502 80.726C29.3247 80.474 29.1007 80.2733 28.83 80.124C28.5593 79.9747 28.2467 79.9 27.892 79.9ZM34.7417 78.864C35.4324 78.864 35.9551 79.1393 36.3097 79.69C36.6644 80.2313 36.8417 80.9967 36.8417 81.986C36.8417 82.9753 36.6691 83.75 36.3237 84.31C35.9877 84.8607 35.4604 85.136 34.7417 85.136C34.3031 85.136 33.9297 85.01 33.6217 84.758C33.3137 84.506 33.0804 84.1467 32.9217 83.68C32.7724 83.204 32.6977 82.6393 32.6977 81.986C32.6977 80.9967 32.8611 80.2313 33.1877 79.69C33.5144 79.1393 34.0324 78.864 34.7417 78.864ZM34.7417 79.732C34.3871 79.732 34.1257 79.9233 33.9577 80.306C33.7991 80.6793 33.7197 81.2393 33.7197 81.986C33.7197 82.7327 33.7991 83.2973 33.9577 83.68C34.1257 84.0627 34.3871 84.254 34.7417 84.254C35.1057 84.254 35.3764 84.0673 35.5537 83.694C35.7311 83.3113 35.8197 82.742 35.8197 81.986C35.8197 81.2393 35.7311 80.6793 35.5537 80.306C35.3764 79.9233 35.1057 79.732 34.7417 79.732ZM41.1397 79.004L35.5957 89H34.5177L40.0617 79.004H41.1397ZM40.8597 82.868C41.3171 82.868 41.6997 82.994 42.0077 83.246C42.3157 83.4887 42.5491 83.8433 42.7077 84.31C42.8757 84.7673 42.9597 85.3273 42.9597 85.99C42.9597 86.9793 42.7871 87.754 42.4417 88.314C42.1057 88.8647 41.5784 89.14 40.8597 89.14C40.4211 89.14 40.0477 89.014 39.7397 88.762C39.4317 88.51 39.1984 88.1507 39.0397 87.684C38.8904 87.208 38.8157 86.6433 38.8157 85.99C38.8157 85.0007 38.9791 84.2353 39.3057 83.694C39.6324 83.1433 40.1504 82.868 40.8597 82.868ZM40.8597 83.75C40.5051 83.75 40.2437 83.9367 40.0757 84.31C39.9171 84.6833 39.8377 85.2433 39.8377 85.99C39.8377 86.746 39.9171 87.3153 40.0757 87.698C40.2437 88.0713 40.5051 88.258 40.8597 88.258C41.2237 88.258 41.4944 88.0713 41.6717 87.698C41.8491 87.3247 41.9377 86.7553 41.9377 85.99C41.9377 85.2433 41.8491 84.6833 41.6717 84.31C41.4944 83.9367 41.2237 83.75 40.8597 83.75Z" fill="#000240"/>
<line x1="24" y1="100.5" x2="424" y2="100.5" stroke="#D3D6DB"/>
<path d="M27.99 121.531C28.578 121.531 29.096 121.624 29.544 121.811C29.992 121.988 30.342 122.254 30.594 122.609C30.8553 122.963 30.986 123.402 30.986 123.925C30.986 124.326 30.8973 124.676 30.72 124.975C30.552 125.273 30.3233 125.539 30.034 125.773C29.7447 125.997 29.4273 126.197 29.082 126.375C29.4927 126.571 29.866 126.795 30.202 127.047C30.538 127.289 30.804 127.574 31 127.901C31.2053 128.227 31.308 128.619 31.308 129.077C31.308 129.637 31.1727 130.122 30.902 130.533C30.6313 130.934 30.2487 131.247 29.754 131.471C29.2687 131.695 28.6947 131.807 28.032 131.807C27.3133 131.807 26.702 131.699 26.198 131.485C25.7033 131.27 25.3253 130.967 25.064 130.575C24.812 130.173 24.686 129.688 24.686 129.119C24.686 128.661 24.7793 128.265 24.966 127.929C25.162 127.593 25.4187 127.303 25.736 127.061C26.0533 126.818 26.394 126.613 26.758 126.445C26.4313 126.258 26.1327 126.048 25.862 125.815C25.6007 125.572 25.3907 125.297 25.232 124.989C25.0827 124.681 25.008 124.321 25.008 123.911C25.008 123.397 25.1387 122.968 25.4 122.623C25.6613 122.268 26.016 121.997 26.464 121.811C26.912 121.624 27.4207 121.531 27.99 121.531ZM25.89 129.133C25.89 129.618 26.0627 130.024 26.408 130.351C26.7533 130.668 27.2853 130.827 28.004 130.827C28.4613 130.827 28.844 130.752 29.152 130.603C29.46 130.453 29.6933 130.248 29.852 129.987C30.02 129.725 30.104 129.427 30.104 129.091C30.104 128.764 30.0153 128.479 29.838 128.237C29.67 127.985 29.4273 127.761 29.11 127.565C28.802 127.369 28.4333 127.191 28.004 127.033L27.78 126.949C27.3693 127.126 27.024 127.317 26.744 127.523C26.464 127.728 26.2493 127.961 26.1 128.223C25.96 128.484 25.89 128.787 25.89 129.133ZM27.976 122.525C27.4627 122.525 27.038 122.651 26.702 122.903C26.3753 123.145 26.212 123.5 26.212 123.967C26.212 124.312 26.2913 124.601 26.45 124.835C26.618 125.068 26.842 125.269 27.122 125.437C27.402 125.595 27.71 125.749 28.046 125.899C28.3727 125.759 28.662 125.605 28.914 125.437C29.1753 125.269 29.3807 125.068 29.53 124.835C29.6887 124.592 29.768 124.303 29.768 123.967C29.768 123.5 29.6047 123.145 29.278 122.903C28.9513 122.651 28.5173 122.525 27.976 122.525ZM34.7417 121.531C35.4324 121.531 35.9551 121.806 36.3097 122.357C36.6644 122.898 36.8417 123.663 36.8417 124.653C36.8417 125.642 36.6691 126.417 36.3237 126.977C35.9877 127.527 35.4604 127.803 34.7417 127.803C34.3031 127.803 33.9297 127.677 33.6217 127.425C33.3137 127.173 33.0804 126.813 32.9217 126.347C32.7724 125.871 32.6977 125.306 32.6977 124.653C32.6977 123.663 32.8611 122.898 33.1877 122.357C33.5144 121.806 34.0324 121.531 34.7417 121.531ZM34.7417 122.399C34.3871 122.399 34.1257 122.59 33.9577 122.973C33.7991 123.346 33.7197 123.906 33.7197 124.653C33.7197 125.399 33.7991 125.964 33.9577 126.347C34.1257 126.729 34.3871 126.921 34.7417 126.921C35.1057 126.921 35.3764 126.734 35.5537 126.361C35.7311 125.978 35.8197 125.409 35.8197 124.653C35.8197 123.906 35.7311 123.346 35.5537 122.973C35.3764 122.59 35.1057 122.399 34.7417 122.399ZM41.1397 121.671L35.5957 131.667H34.5177L40.0617 121.671H41.1397ZM40.8597 125.535C41.3171 125.535 41.6997 125.661 42.0077 125.913C42.3157 126.155 42.5491 126.51 42.7077 126.977C42.8757 127.434 42.9597 127.994 42.9597 128.657C42.9597 129.646 42.7871 130.421 42.4417 130.981C42.1057 131.531 41.5784 131.807 40.8597 131.807C40.4211 131.807 40.0477 131.681 39.7397 131.429C39.4317 131.177 39.1984 130.817 39.0397 130.351C38.8904 129.875 38.8157 129.31 38.8157 128.657C38.8157 127.667 38.9791 126.902 39.3057 126.361C39.6324 125.81 40.1504 125.535 40.8597 125.535ZM40.8597 126.417C40.5051 126.417 40.2437 126.603 40.0757 126.977C39.9171 127.35 39.8377 127.91 39.8377 128.657C39.8377 129.413 39.9171 129.982 40.0757 130.365C40.2437 130.738 40.5051 130.925 40.8597 130.925C41.2237 130.925 41.4944 130.738 41.6717 130.365C41.8491 129.991 41.9377 129.422 41.9377 128.657C41.9377 127.91 41.8491 127.35 41.6717 126.977C41.4944 126.603 41.2237 126.417 40.8597 126.417Z" fill="#000240"/>
<line x1="24" y1="143.167" x2="424" y2="143.167" stroke="#D3D6DB"/>
<path d="M25.904 174.333L30.006 165.457H24.616V164.337H31.322V165.289L27.262 174.333H25.904ZM34.7417 164.197C35.4324 164.197 35.9551 164.473 36.3097 165.023C36.6644 165.565 36.8417 166.33 36.8417 167.319C36.8417 168.309 36.6691 169.083 36.3237 169.643C35.9877 170.194 35.4604 170.469 34.7417 170.469C34.3031 170.469 33.9297 170.343 33.6217 170.091C33.3137 169.839 33.0804 169.48 32.9217 169.013C32.7724 168.537 32.6977 167.973 32.6977 167.319C32.6977 166.33 32.8611 165.565 33.1877 165.023C33.5144 164.473 34.0324 164.197 34.7417 164.197ZM34.7417 165.065C34.3871 165.065 34.1257 165.257 33.9577 165.639C33.7991 166.013 33.7197 166.573 33.7197 167.319C33.7197 168.066 33.7991 168.631 33.9577 169.013C34.1257 169.396 34.3871 169.587 34.7417 169.587C35.1057 169.587 35.3764 169.401 35.5537 169.027C35.7311 168.645 35.8197 168.075 35.8197 167.319C35.8197 166.573 35.7311 166.013 35.5537 165.639C35.3764 165.257 35.1057 165.065 34.7417 165.065ZM41.1397 164.337L35.5957 174.333H34.5177L40.0617 164.337H41.1397ZM40.8597 168.201C41.3171 168.201 41.6997 168.327 42.0077 168.579C42.3157 168.822 42.5491 169.177 42.7077 169.643C42.8757 170.101 42.9597 170.661 42.9597 171.323C42.9597 172.313 42.7871 173.087 42.4417 173.647C42.1057 174.198 41.5784 174.473 40.8597 174.473C40.4211 174.473 40.0477 174.347 39.7397 174.095C39.4317 173.843 39.1984 173.484 39.0397 173.017C38.8904 172.541 38.8157 171.977 38.8157 171.323C38.8157 170.334 38.9791 169.569 39.3057 169.027C39.6324 168.477 40.1504 168.201 40.8597 168.201ZM40.8597 169.083C40.5051 169.083 40.2437 169.27 40.0757 169.643C39.9171 170.017 39.8377 170.577 39.8377 171.323C39.8377 172.079 39.9171 172.649 40.0757 173.031C40.2437 173.405 40.5051 173.591 40.8597 173.591C41.2237 173.591 41.4944 173.405 41.6717 173.031C41.8491 172.658 41.9377 172.089 41.9377 171.323C41.9377 170.577 41.8491 170.017 41.6717 169.643C41.4944 169.27 41.2237 169.083 40.8597 169.083Z" fill="#000240"/>
<line x1="24" y1="185.833" x2="424" y2="185.833" stroke="#D3D6DB"/>
<path d="M24.77 212.73C24.77 212.151 24.8073 211.582 24.882 211.022C24.966 210.462 25.106 209.935 25.302 209.44C25.498 208.936 25.7687 208.493 26.114 208.11C26.4593 207.718 26.8933 207.415 27.416 207.2C27.948 206.976 28.592 206.864 29.348 206.864C29.544 206.864 29.7587 206.873 29.992 206.892C30.2347 206.911 30.4307 206.943 30.58 206.99V208.04C30.412 207.984 30.2207 207.942 30.006 207.914C29.8007 207.886 29.5907 207.872 29.376 207.872C28.732 207.872 28.1953 207.979 27.766 208.194C27.3367 208.409 26.996 208.703 26.744 209.076C26.5013 209.449 26.324 209.879 26.212 210.364C26.1 210.849 26.03 211.367 26.002 211.918H26.086C26.226 211.694 26.4033 211.493 26.618 211.316C26.8327 211.139 27.0893 210.999 27.388 210.896C27.696 210.793 28.0507 210.742 28.452 210.742C29.0307 210.742 29.5347 210.863 29.964 211.106C30.4027 211.339 30.7433 211.685 30.986 212.142C31.2287 212.59 31.35 213.136 31.35 213.78C31.35 214.471 31.2193 215.068 30.958 215.572C30.6967 216.076 30.328 216.463 29.852 216.734C29.3853 217.005 28.8253 217.14 28.172 217.14C27.696 217.14 27.2527 217.051 26.842 216.874C26.4313 216.697 26.0673 216.426 25.75 216.062C25.442 215.698 25.1993 215.241 25.022 214.69C24.854 214.13 24.77 213.477 24.77 212.73ZM28.158 216.104C28.746 216.104 29.222 215.917 29.586 215.544C29.95 215.161 30.132 214.573 30.132 213.78C30.132 213.145 29.9687 212.641 29.642 212.268C29.3247 211.895 28.844 211.708 28.2 211.708C27.7613 211.708 27.3787 211.801 27.052 211.988C26.7253 212.165 26.4687 212.394 26.282 212.674C26.1047 212.954 26.016 213.243 26.016 213.542C26.016 213.85 26.058 214.153 26.142 214.452C26.2353 214.751 26.3707 215.026 26.548 215.278C26.7347 215.53 26.9587 215.731 27.22 215.88C27.4907 216.029 27.8033 216.104 28.158 216.104ZM34.7417 206.864C35.4324 206.864 35.9551 207.139 36.3097 207.69C36.6644 208.231 36.8417 208.997 36.8417 209.986C36.8417 210.975 36.6691 211.75 36.3237 212.31C35.9877 212.861 35.4604 213.136 34.7417 213.136C34.3031 213.136 33.9297 213.01 33.6217 212.758C33.3137 212.506 33.0804 212.147 32.9217 211.68C32.7724 211.204 32.6977 210.639 32.6977 209.986C32.6977 208.997 32.8611 208.231 33.1877 207.69C33.5144 207.139 34.0324 206.864 34.7417 206.864ZM34.7417 207.732C34.3871 207.732 34.1257 207.923 33.9577 208.306C33.7991 208.679 33.7197 209.239 33.7197 209.986C33.7197 210.733 33.7991 211.297 33.9577 211.68C34.1257 212.063 34.3871 212.254 34.7417 212.254C35.1057 212.254 35.3764 212.067 35.5537 211.694C35.7311 211.311 35.8197 210.742 35.8197 209.986C35.8197 209.239 35.7311 208.679 35.5537 208.306C35.3764 207.923 35.1057 207.732 34.7417 207.732ZM41.1397 207.004L35.5957 217H34.5177L40.0617 207.004H41.1397ZM40.8597 210.868C41.3171 210.868 41.6997 210.994 42.0077 211.246C42.3157 211.489 42.5491 211.843 42.7077 212.31C42.8757 212.767 42.9597 213.327 42.9597 213.99C42.9597 214.979 42.7871 215.754 42.4417 216.314C42.1057 216.865 41.5784 217.14 40.8597 217.14C40.4211 217.14 40.0477 217.014 39.7397 216.762C39.4317 216.51 39.1984 216.151 39.0397 215.684C38.8904 215.208 38.8157 214.643 38.8157 213.99C38.8157 213.001 38.9791 212.235 39.3057 211.694C39.6324 211.143 40.1504 210.868 40.8597 210.868ZM40.8597 211.75C40.5051 211.75 40.2437 211.937 40.0757 212.31C39.9171 212.683 39.8377 213.243 39.8377 213.99C39.8377 214.746 39.9171 215.315 40.0757 215.698C40.2437 216.071 40.5051 216.258 40.8597 216.258C41.2237 216.258 41.4944 216.071 41.6717 215.698C41.8491 215.325 41.9377 214.755 41.9377 213.99C41.9377 213.243 41.8491 212.683 41.6717 212.31C41.4944 211.937 41.2237 211.75 40.8597 211.75Z" fill="#000240"/>
<line x1="24" y1="228.5" x2="424" y2="228.5" stroke="#D3D6DB"/>
<path d="M27.85 253.535C28.5313 253.535 29.124 253.651 29.628 253.885C30.132 254.118 30.5193 254.454 30.79 254.893C31.07 255.322 31.21 255.849 31.21 256.475C31.21 257.165 31.0607 257.763 30.762 258.267C30.4633 258.761 30.034 259.144 29.474 259.415C28.9233 259.676 28.256 259.807 27.472 259.807C26.9587 259.807 26.4733 259.76 26.016 259.667C25.568 259.573 25.19 259.438 24.882 259.261V258.099C25.218 258.304 25.624 258.467 26.1 258.589C26.5853 258.701 27.0473 258.757 27.486 258.757C27.9807 258.757 28.41 258.682 28.774 258.533C29.1473 258.374 29.4367 258.136 29.642 257.819C29.8473 257.492 29.95 257.086 29.95 256.601C29.95 255.947 29.7493 255.448 29.348 255.103C28.9467 254.748 28.312 254.571 27.444 254.571C27.1827 254.571 26.884 254.594 26.548 254.641C26.212 254.687 25.9413 254.734 25.736 254.781L25.12 254.389L25.498 249.671H30.51V250.791H26.548L26.31 253.689C26.4687 253.661 26.6833 253.628 26.954 253.591C27.2247 253.553 27.5233 253.535 27.85 253.535ZM34.7417 249.531C35.4324 249.531 35.9551 249.806 36.3097 250.357C36.6644 250.898 36.8417 251.663 36.8417 252.653C36.8417 253.642 36.6691 254.417 36.3237 254.977C35.9877 255.527 35.4604 255.803 34.7417 255.803C34.3031 255.803 33.9297 255.677 33.6217 255.425C33.3137 255.173 33.0804 254.813 32.9217 254.347C32.7724 253.871 32.6977 253.306 32.6977 252.653C32.6977 251.663 32.8611 250.898 33.1877 250.357C33.5144 249.806 34.0324 249.531 34.7417 249.531ZM34.7417 250.399C34.3871 250.399 34.1257 250.59 33.9577 250.973C33.7991 251.346 33.7197 251.906 33.7197 252.653C33.7197 253.399 33.7991 253.964 33.9577 254.347C34.1257 254.729 34.3871 254.921 34.7417 254.921C35.1057 254.921 35.3764 254.734 35.5537 254.361C35.7311 253.978 35.8197 253.409 35.8197 252.653C35.8197 251.906 35.7311 251.346 35.5537 250.973C35.3764 250.59 35.1057 250.399 34.7417 250.399ZM41.1397 249.671L35.5957 259.667H34.5177L40.0617 249.671H41.1397ZM40.8597 253.535C41.3171 253.535 41.6997 253.661 42.0077 253.913C42.3157 254.155 42.5491 254.51 42.7077 254.977C42.8757 255.434 42.9597 255.994 42.9597 256.657C42.9597 257.646 42.7871 258.421 42.4417 258.981C42.1057 259.531 41.5784 259.807 40.8597 259.807C40.4211 259.807 40.0477 259.681 39.7397 259.429C39.4317 259.177 39.1984 258.817 39.0397 258.351C38.8904 257.875 38.8157 257.31 38.8157 256.657C38.8157 255.667 38.9791 254.902 39.3057 254.361C39.6324 253.81 40.1504 253.535 40.8597 253.535ZM40.8597 254.417C40.5051 254.417 40.2437 254.603 40.0757 254.977C39.9171 255.35 39.8377 255.91 39.8377 256.657C39.8377 257.413 39.9171 257.982 40.0757 258.365C40.2437 258.738 40.5051 258.925 40.8597 258.925C41.2237 258.925 41.4944 258.738 41.6717 258.365C41.8491 257.991 41.9377 257.422 41.9377 256.657C41.9377 255.91 41.8491 255.35 41.6717 254.977C41.4944 254.603 41.2237 254.417 40.8597 254.417Z" fill="#000240"/>
<line x1="24" y1="271.167" x2="424" y2="271.167" stroke="#D3D6DB"/>
<path d="M31.728 300.065H30.272V302.333H29.082V300.065H24.294V299.015L28.998 292.281H30.272V298.959H31.728V300.065ZM29.082 295.809C29.082 295.567 29.082 295.347 29.082 295.151C29.0913 294.946 29.1007 294.755 29.11 294.577C29.1193 294.4 29.124 294.232 29.124 294.073C29.1333 293.905 29.1427 293.747 29.152 293.597H29.096C29.0213 293.775 28.928 293.966 28.816 294.171C28.704 294.377 28.5967 294.549 28.494 294.689L25.498 298.959H29.082V295.809ZM34.7417 292.197C35.4324 292.197 35.9551 292.473 36.3097 293.023C36.6644 293.565 36.8417 294.33 36.8417 295.319C36.8417 296.309 36.6691 297.083 36.3237 297.643C35.9877 298.194 35.4604 298.469 34.7417 298.469C34.3031 298.469 33.9297 298.343 33.6217 298.091C33.3137 297.839 33.0804 297.48 32.9217 297.013C32.7724 296.537 32.6977 295.973 32.6977 295.319C32.6977 294.33 32.8611 293.565 33.1877 293.023C33.5144 292.473 34.0324 292.197 34.7417 292.197ZM34.7417 293.065C34.3871 293.065 34.1257 293.257 33.9577 293.639C33.7991 294.013 33.7197 294.573 33.7197 295.319C33.7197 296.066 33.7991 296.631 33.9577 297.013C34.1257 297.396 34.3871 297.587 34.7417 297.587C35.1057 297.587 35.3764 297.401 35.5537 297.027C35.7311 296.645 35.8197 296.075 35.8197 295.319C35.8197 294.573 35.7311 294.013 35.5537 293.639C35.3764 293.257 35.1057 293.065 34.7417 293.065ZM41.1397 292.337L35.5957 302.333H34.5177L40.0617 292.337H41.1397ZM40.8597 296.201C41.3171 296.201 41.6997 296.327 42.0077 296.579C42.3157 296.822 42.5491 297.177 42.7077 297.643C42.8757 298.101 42.9597 298.661 42.9597 299.323C42.9597 300.313 42.7871 301.087 42.4417 301.647C42.1057 302.198 41.5784 302.473 40.8597 302.473C40.4211 302.473 40.0477 302.347 39.7397 302.095C39.4317 301.843 39.1984 301.484 39.0397 301.017C38.8904 300.541 38.8157 299.977 38.8157 299.323C38.8157 298.334 38.9791 297.569 39.3057 297.027C39.6324 296.477 40.1504 296.201 40.8597 296.201ZM40.8597 297.083C40.5051 297.083 40.2437 297.27 40.0757 297.643C39.9171 298.017 39.8377 298.577 39.8377 299.323C39.8377 300.079 39.9171 300.649 40.0757 301.031C40.2437 301.405 40.5051 301.591 40.8597 301.591C41.2237 301.591 41.4944 301.405 41.6717 301.031C41.8491 300.658 41.9377 300.089 41.9377 299.323C41.9377 298.577 41.8491 298.017 41.6717 297.643C41.4944 297.27 41.2237 297.083 40.8597 297.083Z" fill="#000240"/>
<line x1="24" y1="313.833" x2="424" y2="313.833" stroke="#D3D6DB"/>
<path d="M30.902 337.342C30.902 337.79 30.818 338.177 30.65 338.504C30.482 338.831 30.2393 339.097 29.922 339.302C29.614 339.507 29.25 339.652 28.83 339.736V339.792C29.6327 339.885 30.23 340.137 30.622 340.548C31.014 340.959 31.21 341.495 31.21 342.158C31.21 342.737 31.0747 343.255 30.804 343.712C30.5333 344.16 30.1133 344.51 29.544 344.762C28.984 345.014 28.2607 345.14 27.374 345.14C26.8513 345.14 26.366 345.098 25.918 345.014C25.47 344.939 25.0407 344.799 24.63 344.594V343.446C25.05 343.651 25.5027 343.815 25.988 343.936C26.4733 344.048 26.94 344.104 27.388 344.104C28.284 344.104 28.928 343.931 29.32 343.586C29.7213 343.231 29.922 342.746 29.922 342.13C29.922 341.71 29.81 341.374 29.586 341.122C29.3713 340.861 29.054 340.669 28.634 340.548C28.214 340.427 27.71 340.366 27.122 340.366H26.156V339.316H27.136C27.6867 339.316 28.144 339.237 28.508 339.078C28.8813 338.919 29.1613 338.7 29.348 338.42C29.544 338.131 29.642 337.799 29.642 337.426C29.642 336.941 29.4787 336.567 29.152 336.306C28.8253 336.035 28.382 335.9 27.822 335.9C27.4673 335.9 27.1453 335.937 26.856 336.012C26.5667 336.077 26.296 336.175 26.044 336.306C25.8013 336.427 25.554 336.572 25.302 336.74L24.686 335.9C24.9287 335.713 25.204 335.541 25.512 335.382C25.8293 335.223 26.1793 335.097 26.562 335.004C26.9447 334.911 27.36 334.864 27.808 334.864C28.8533 334.864 29.628 335.097 30.132 335.564C30.6453 336.031 30.902 336.623 30.902 337.342ZM34.7417 334.864C35.4324 334.864 35.9551 335.139 36.3097 335.69C36.6644 336.231 36.8417 336.997 36.8417 337.986C36.8417 338.975 36.6691 339.75 36.3237 340.31C35.9877 340.861 35.4604 341.136 34.7417 341.136C34.3031 341.136 33.9297 341.01 33.6217 340.758C33.3137 340.506 33.0804 340.147 32.9217 339.68C32.7724 339.204 32.6977 338.639 32.6977 337.986C32.6977 336.997 32.8611 336.231 33.1877 335.69C33.5144 335.139 34.0324 334.864 34.7417 334.864ZM34.7417 335.732C34.3871 335.732 34.1257 335.923 33.9577 336.306C33.7991 336.679 33.7197 337.239 33.7197 337.986C33.7197 338.733 33.7991 339.297 33.9577 339.68C34.1257 340.063 34.3871 340.254 34.7417 340.254C35.1057 340.254 35.3764 340.067 35.5537 339.694C35.7311 339.311 35.8197 338.742 35.8197 337.986C35.8197 337.239 35.7311 336.679 35.5537 336.306C35.3764 335.923 35.1057 335.732 34.7417 335.732ZM41.1397 335.004L35.5957 345H34.5177L40.0617 335.004H41.1397ZM40.8597 338.868C41.3171 338.868 41.6997 338.994 42.0077 339.246C42.3157 339.489 42.5491 339.843 42.7077 340.31C42.8757 340.767 42.9597 341.327 42.9597 341.99C42.9597 342.979 42.7871 343.754 42.4417 344.314C42.1057 344.865 41.5784 345.14 40.8597 345.14C40.4211 345.14 40.0477 345.014 39.7397 344.762C39.4317 344.51 39.1984 344.151 39.0397 343.684C38.8904 343.208 38.8157 342.643 38.8157 341.99C38.8157 341.001 38.9791 340.235 39.3057 339.694C39.6324 339.143 40.1504 338.868 40.8597 338.868ZM40.8597 339.75C40.5051 339.75 40.2437 339.937 40.0757 340.31C39.9171 340.683 39.8377 341.243 39.8377 341.99C39.8377 342.746 39.9171 343.315 40.0757 343.698C40.2437 344.071 40.5051 344.258 40.8597 344.258C41.2237 344.258 41.4944 344.071 41.6717 343.698C41.8491 343.325 41.9377 342.755 41.9377 341.99C41.9377 341.243 41.8491 340.683 41.6717 340.31C41.4944 339.937 41.2237 339.75 40.8597 339.75Z" fill="#000240"/>
<line x1="24" y1="356.5" x2="424" y2="356.5" stroke="#D3D6DB"/>
<path d="M74.2331 380H67.6251V378.978L70.2431 376.332C70.7471 375.828 71.1718 375.38 71.5171 374.988C71.8625 374.596 72.1238 374.213 72.3011 373.84C72.4785 373.457 72.5671 373.042 72.5671 372.594C72.5671 372.043 72.4038 371.628 72.0771 371.348C71.7505 371.059 71.3258 370.914 70.8031 370.914C70.3178 370.914 69.8885 370.998 69.5151 371.166C69.1511 371.334 68.7778 371.567 68.3951 371.866L67.7371 371.04C67.9985 370.816 68.2831 370.615 68.5911 370.438C68.9085 370.261 69.2491 370.121 69.6131 370.018C69.9865 369.915 70.3831 369.864 70.8031 369.864C71.4285 369.864 71.9651 369.971 72.4131 370.186C72.8611 370.401 73.2065 370.709 73.4491 371.11C73.7011 371.502 73.8271 371.973 73.8271 372.524C73.8271 372.916 73.7665 373.289 73.6451 373.644C73.5238 373.989 73.3511 374.33 73.1271 374.666C72.9031 375.002 72.6325 375.343 72.3151 375.688C71.9978 376.033 71.6478 376.393 71.2651 376.766L69.1791 378.824V378.88H74.2331V380ZM82.2868 374.988C82.2868 375.8 82.2262 376.523 82.1048 377.158C81.9835 377.793 81.7875 378.334 81.5168 378.782C81.2555 379.221 80.9102 379.557 80.4808 379.79C80.0608 380.023 79.5522 380.14 78.9548 380.14C78.2082 380.14 77.5875 379.935 77.0928 379.524C76.6075 379.113 76.2435 378.525 76.0008 377.76C75.7675 376.985 75.6508 376.061 75.6508 374.988C75.6508 373.905 75.7582 372.981 75.9728 372.216C76.1968 371.451 76.5515 370.867 77.0368 370.466C77.5222 370.055 78.1615 369.85 78.9548 369.85C79.7015 369.85 80.3222 370.055 80.8168 370.466C81.3115 370.867 81.6802 371.451 81.9228 372.216C82.1655 372.981 82.2868 373.905 82.2868 374.988ZM76.8828 374.988C76.8828 375.903 76.9482 376.663 77.0788 377.27C77.2188 377.877 77.4382 378.334 77.7368 378.642C78.0448 378.941 78.4508 379.09 78.9548 379.09C79.4588 379.09 79.8602 378.941 80.1588 378.642C80.4668 378.343 80.6908 377.891 80.8308 377.284C80.9708 376.668 81.0408 375.903 81.0408 374.988C81.0408 374.073 80.9708 373.317 80.8308 372.72C80.6908 372.113 80.4668 371.661 80.1588 371.362C79.8602 371.054 79.4588 370.9 78.9548 370.9C78.4508 370.9 78.0448 371.054 77.7368 371.362C77.4382 371.661 77.2188 372.113 77.0788 372.72C76.9482 373.317 76.8828 374.073 76.8828 374.988ZM90.2566 380H83.6486V378.978L86.2666 376.332C86.7706 375.828 87.1952 375.38 87.5406 374.988C87.8859 374.596 88.1472 374.213 88.3246 373.84C88.5019 373.457 88.5906 373.042 88.5906 372.594C88.5906 372.043 88.4272 371.628 88.1006 371.348C87.7739 371.059 87.3492 370.914 86.8266 370.914C86.3412 370.914 85.9119 370.998 85.5386 371.166C85.1746 371.334 84.8012 371.567 84.4186 371.866L83.7606 371.04C84.0219 370.816 84.3066 370.615 84.6146 370.438C84.9319 370.261 85.2726 370.121 85.6366 370.018C86.0099 369.915 86.4066 369.864 86.8266 369.864C87.4519 369.864 87.9886 369.971 88.4366 370.186C88.8846 370.401 89.2299 370.709 89.4726 371.11C89.7246 371.502 89.8506 371.973 89.8506 372.524C89.8506 372.916 89.7899 373.289 89.6686 373.644C89.5472 373.989 89.3746 374.33 89.1506 374.666C88.9266 375.002 88.6559 375.343 88.3386 375.688C88.0212 376.033 87.6712 376.393 87.2886 376.766L85.2026 378.824V378.88H90.2566V380ZM94.8383 373.868C95.5196 373.868 96.1123 373.985 96.6163 374.218C97.1203 374.451 97.5076 374.787 97.7783 375.226C98.0583 375.655 98.1983 376.183 98.1983 376.808C98.1983 377.499 98.0489 378.096 97.7503 378.6C97.4516 379.095 97.0223 379.477 96.4623 379.748C95.9116 380.009 95.2443 380.14 94.4603 380.14C93.9469 380.14 93.4616 380.093 93.0043 380C92.5563 379.907 92.1783 379.771 91.8703 379.594V378.432C92.2063 378.637 92.6123 378.801 93.0883 378.922C93.5736 379.034 94.0356 379.09 94.4743 379.09C94.9689 379.09 95.3983 379.015 95.7623 378.866C96.1356 378.707 96.4249 378.469 96.6303 378.152C96.8356 377.825 96.9383 377.419 96.9383 376.934C96.9383 376.281 96.7376 375.781 96.3363 375.436C95.9349 375.081 95.3003 374.904 94.4323 374.904C94.1709 374.904 93.8723 374.927 93.5363 374.974C93.2003 375.021 92.9296 375.067 92.7243 375.114L92.1083 374.722L92.4863 370.004H97.4983V371.124H93.5363L93.2983 374.022C93.4569 373.994 93.6716 373.961 93.9423 373.924C94.2129 373.887 94.5116 373.868 94.8383 373.868Z" fill="#000240"/>
<path d="M128.733 380H122.125V378.978L124.743 376.332C125.247 375.828 125.672 375.38 126.017 374.988C126.362 374.596 126.624 374.213 126.801 373.84C126.978 373.457 127.067 373.042 127.067 372.594C127.067 372.043 126.904 371.628 126.577 371.348C126.25 371.059 125.826 370.914 125.303 370.914C124.818 370.914 124.388 370.998 124.015 371.166C123.651 371.334 123.278 371.567 122.895 371.866L122.237 371.04C122.498 370.816 122.783 370.615 123.091 370.438C123.408 370.261 123.749 370.121 124.113 370.018C124.486 369.915 124.883 369.864 125.303 369.864C125.928 369.864 126.465 369.971 126.913 370.186C127.361 370.401 127.706 370.709 127.949 371.11C128.201 371.502 128.327 371.973 128.327 372.524C128.327 372.916 128.266 373.289 128.145 373.644C128.024 373.989 127.851 374.33 127.627 374.666C127.403 375.002 127.132 375.343 126.815 375.688C126.498 376.033 126.148 376.393 125.765 376.766L123.679 378.824V378.88H128.733V380ZM136.787 374.988C136.787 375.8 136.726 376.523 136.605 377.158C136.484 377.793 136.288 378.334 136.017 378.782C135.756 379.221 135.41 379.557 134.981 379.79C134.561 380.023 134.052 380.14 133.455 380.14C132.708 380.14 132.088 379.935 131.593 379.524C131.108 379.113 130.744 378.525 130.501 377.76C130.268 376.985 130.151 376.061 130.151 374.988C130.151 373.905 130.258 372.981 130.473 372.216C130.697 371.451 131.052 370.867 131.537 370.466C132.022 370.055 132.662 369.85 133.455 369.85C134.202 369.85 134.822 370.055 135.317 370.466C135.812 370.867 136.18 371.451 136.423 372.216C136.666 372.981 136.787 373.905 136.787 374.988ZM131.383 374.988C131.383 375.903 131.448 376.663 131.579 377.27C131.719 377.877 131.938 378.334 132.237 378.642C132.545 378.941 132.951 379.09 133.455 379.09C133.959 379.09 134.36 378.941 134.659 378.642C134.967 378.343 135.191 377.891 135.331 377.284C135.471 376.668 135.541 375.903 135.541 374.988C135.541 374.073 135.471 373.317 135.331 372.72C135.191 372.113 134.967 371.661 134.659 371.362C134.36 371.054 133.959 370.9 133.455 370.9C132.951 370.9 132.545 371.054 132.237 371.362C131.938 371.661 131.719 372.113 131.579 372.72C131.448 373.317 131.383 374.073 131.383 374.988ZM144.757 380H138.149V378.978L140.767 376.332C141.271 375.828 141.695 375.38 142.041 374.988C142.386 374.596 142.647 374.213 142.825 373.84C143.002 373.457 143.091 373.042 143.091 372.594C143.091 372.043 142.927 371.628 142.601 371.348C142.274 371.059 141.849 370.914 141.327 370.914C140.841 370.914 140.412 370.998 140.039 371.166C139.675 371.334 139.301 371.567 138.919 371.866L138.261 371.04C138.522 370.816 138.807 370.615 139.115 370.438C139.432 370.261 139.773 370.121 140.137 370.018C140.51 369.915 140.907 369.864 141.327 369.864C141.952 369.864 142.489 369.971 142.937 370.186C143.385 370.401 143.73 370.709 143.973 371.11C144.225 371.502 144.351 371.973 144.351 372.524C144.351 372.916 144.29 373.289 144.169 373.644C144.047 373.989 143.875 374.33 143.651 374.666C143.427 375.002 143.156 375.343 142.839 375.688C142.521 376.033 142.171 376.393 141.789 376.766L139.703 378.824V378.88H144.757V380ZM146.258 375.73C146.258 375.151 146.296 374.582 146.37 374.022C146.454 373.462 146.594 372.935 146.79 372.44C146.986 371.936 147.257 371.493 147.602 371.11C147.948 370.718 148.382 370.415 148.904 370.2C149.436 369.976 150.08 369.864 150.836 369.864C151.032 369.864 151.247 369.873 151.48 369.892C151.723 369.911 151.919 369.943 152.068 369.99V371.04C151.9 370.984 151.709 370.942 151.494 370.914C151.289 370.886 151.079 370.872 150.864 370.872C150.22 370.872 149.684 370.979 149.254 371.194C148.825 371.409 148.484 371.703 148.232 372.076C147.99 372.449 147.812 372.879 147.7 373.364C147.588 373.849 147.518 374.367 147.49 374.918H147.574C147.714 374.694 147.892 374.493 148.106 374.316C148.321 374.139 148.578 373.999 148.876 373.896C149.184 373.793 149.539 373.742 149.94 373.742C150.519 373.742 151.023 373.863 151.452 374.106C151.891 374.339 152.232 374.685 152.474 375.142C152.717 375.59 152.838 376.136 152.838 376.78C152.838 377.471 152.708 378.068 152.446 378.572C152.185 379.076 151.816 379.463 151.34 379.734C150.874 380.005 150.314 380.14 149.66 380.14C149.184 380.14 148.741 380.051 148.33 379.874C147.92 379.697 147.556 379.426 147.238 379.062C146.93 378.698 146.688 378.241 146.51 377.69C146.342 377.13 146.258 376.477 146.258 375.73ZM149.646 379.104C150.234 379.104 150.71 378.917 151.074 378.544C151.438 378.161 151.62 377.573 151.62 376.78C151.62 376.145 151.457 375.641 151.13 375.268C150.813 374.895 150.332 374.708 149.688 374.708C149.25 374.708 148.867 374.801 148.54 374.988C148.214 375.165 147.957 375.394 147.77 375.674C147.593 375.954 147.504 376.243 147.504 376.542C147.504 376.85 147.546 377.153 147.63 377.452C147.724 377.751 147.859 378.026 148.036 378.278C148.223 378.53 148.447 378.731 148.708 378.88C148.979 379.029 149.292 379.104 149.646 379.104Z" fill="#000240"/>
<path d="M183.233 380H176.625V378.978L179.243 376.332C179.747 375.828 180.172 375.38 180.517 374.988C180.862 374.596 181.124 374.213 181.301 373.84C181.478 373.457 181.567 373.042 181.567 372.594C181.567 372.043 181.404 371.628 181.077 371.348C180.75 371.059 180.326 370.914 179.803 370.914C179.318 370.914 178.888 370.998 178.515 371.166C178.151 371.334 177.778 371.567 177.395 371.866L176.737 371.04C176.998 370.816 177.283 370.615 177.591 370.438C177.908 370.261 178.249 370.121 178.613 370.018C178.986 369.915 179.383 369.864 179.803 369.864C180.428 369.864 180.965 369.971 181.413 370.186C181.861 370.401 182.206 370.709 182.449 371.11C182.701 371.502 182.827 371.973 182.827 372.524C182.827 372.916 182.766 373.289 182.645 373.644C182.524 373.989 182.351 374.33 182.127 374.666C181.903 375.002 181.632 375.343 181.315 375.688C180.998 376.033 180.648 376.393 180.265 376.766L178.179 378.824V378.88H183.233V380ZM191.287 374.988C191.287 375.8 191.226 376.523 191.105 377.158C190.984 377.793 190.788 378.334 190.517 378.782C190.256 379.221 189.91 379.557 189.481 379.79C189.061 380.023 188.552 380.14 187.955 380.14C187.208 380.14 186.588 379.935 186.093 379.524C185.608 379.113 185.244 378.525 185.001 377.76C184.768 376.985 184.651 376.061 184.651 374.988C184.651 373.905 184.758 372.981 184.973 372.216C185.197 371.451 185.552 370.867 186.037 370.466C186.522 370.055 187.162 369.85 187.955 369.85C188.702 369.85 189.322 370.055 189.817 370.466C190.312 370.867 190.68 371.451 190.923 372.216C191.166 372.981 191.287 373.905 191.287 374.988ZM185.883 374.988C185.883 375.903 185.948 376.663 186.079 377.27C186.219 377.877 186.438 378.334 186.737 378.642C187.045 378.941 187.451 379.09 187.955 379.09C188.459 379.09 188.86 378.941 189.159 378.642C189.467 378.343 189.691 377.891 189.831 377.284C189.971 376.668 190.041 375.903 190.041 374.988C190.041 374.073 189.971 373.317 189.831 372.72C189.691 372.113 189.467 371.661 189.159 371.362C188.86 371.054 188.459 370.9 187.955 370.9C187.451 370.9 187.045 371.054 186.737 371.362C186.438 371.661 186.219 372.113 186.079 372.72C185.948 373.317 185.883 374.073 185.883 374.988ZM199.257 380H192.649V378.978L195.267 376.332C195.771 375.828 196.195 375.38 196.541 374.988C196.886 374.596 197.147 374.213 197.325 373.84C197.502 373.457 197.591 373.042 197.591 372.594C197.591 372.043 197.427 371.628 197.101 371.348C196.774 371.059 196.349 370.914 195.827 370.914C195.341 370.914 194.912 370.998 194.539 371.166C194.175 371.334 193.801 371.567 193.419 371.866L192.761 371.04C193.022 370.816 193.307 370.615 193.615 370.438C193.932 370.261 194.273 370.121 194.637 370.018C195.01 369.915 195.407 369.864 195.827 369.864C196.452 369.864 196.989 369.971 197.437 370.186C197.885 370.401 198.23 370.709 198.473 371.11C198.725 371.502 198.851 371.973 198.851 372.524C198.851 372.916 198.79 373.289 198.669 373.644C198.547 373.989 198.375 374.33 198.151 374.666C197.927 375.002 197.656 375.343 197.339 375.688C197.021 376.033 196.671 376.393 196.289 376.766L194.203 378.824V378.88H199.257V380ZM201.892 380L205.994 371.124H200.604V370.004H207.31V370.956L203.25 380H201.892Z" fill="#000240"/>
<path d="M237.733 380H231.125V378.978L233.743 376.332C234.247 375.828 234.672 375.38 235.017 374.988C235.362 374.596 235.624 374.213 235.801 373.84C235.978 373.457 236.067 373.042 236.067 372.594C236.067 372.043 235.904 371.628 235.577 371.348C235.25 371.059 234.826 370.914 234.303 370.914C233.818 370.914 233.388 370.998 233.015 371.166C232.651 371.334 232.278 371.567 231.895 371.866L231.237 371.04C231.498 370.816 231.783 370.615 232.091 370.438C232.408 370.261 232.749 370.121 233.113 370.018C233.486 369.915 233.883 369.864 234.303 369.864C234.928 369.864 235.465 369.971 235.913 370.186C236.361 370.401 236.706 370.709 236.949 371.11C237.201 371.502 237.327 371.973 237.327 372.524C237.327 372.916 237.266 373.289 237.145 373.644C237.024 373.989 236.851 374.33 236.627 374.666C236.403 375.002 236.132 375.343 235.815 375.688C235.498 376.033 235.148 376.393 234.765 376.766L232.679 378.824V378.88H237.733V380ZM245.787 374.988C245.787 375.8 245.726 376.523 245.605 377.158C245.484 377.793 245.288 378.334 245.017 378.782C244.756 379.221 244.41 379.557 243.981 379.79C243.561 380.023 243.052 380.14 242.455 380.14C241.708 380.14 241.088 379.935 240.593 379.524C240.108 379.113 239.744 378.525 239.501 377.76C239.268 376.985 239.151 376.061 239.151 374.988C239.151 373.905 239.258 372.981 239.473 372.216C239.697 371.451 240.052 370.867 240.537 370.466C241.022 370.055 241.662 369.85 242.455 369.85C243.202 369.85 243.822 370.055 244.317 370.466C244.812 370.867 245.18 371.451 245.423 372.216C245.666 372.981 245.787 373.905 245.787 374.988ZM240.383 374.988C240.383 375.903 240.448 376.663 240.579 377.27C240.719 377.877 240.938 378.334 241.237 378.642C241.545 378.941 241.951 379.09 242.455 379.09C242.959 379.09 243.36 378.941 243.659 378.642C243.967 378.343 244.191 377.891 244.331 377.284C244.471 376.668 244.541 375.903 244.541 374.988C244.541 374.073 244.471 373.317 244.331 372.72C244.191 372.113 243.967 371.661 243.659 371.362C243.36 371.054 242.959 370.9 242.455 370.9C241.951 370.9 241.545 371.054 241.237 371.362C240.938 371.661 240.719 372.113 240.579 372.72C240.448 373.317 240.383 374.073 240.383 374.988ZM253.757 380H247.149V378.978L249.767 376.332C250.271 375.828 250.695 375.38 251.041 374.988C251.386 374.596 251.647 374.213 251.825 373.84C252.002 373.457 252.091 373.042 252.091 372.594C252.091 372.043 251.927 371.628 251.601 371.348C251.274 371.059 250.849 370.914 250.327 370.914C249.841 370.914 249.412 370.998 249.039 371.166C248.675 371.334 248.301 371.567 247.919 371.866L247.261 371.04C247.522 370.816 247.807 370.615 248.115 370.438C248.432 370.261 248.773 370.121 249.137 370.018C249.51 369.915 249.907 369.864 250.327 369.864C250.952 369.864 251.489 369.971 251.937 370.186C252.385 370.401 252.73 370.709 252.973 371.11C253.225 371.502 253.351 371.973 253.351 372.524C253.351 372.916 253.29 373.289 253.169 373.644C253.047 373.989 252.875 374.33 252.651 374.666C252.427 375.002 252.156 375.343 251.839 375.688C251.521 376.033 251.171 376.393 250.789 376.766L248.703 378.824V378.88H253.757V380ZM258.478 369.864C259.066 369.864 259.584 369.957 260.032 370.144C260.48 370.321 260.83 370.587 261.082 370.942C261.344 371.297 261.474 371.735 261.474 372.258C261.474 372.659 261.386 373.009 261.208 373.308C261.04 373.607 260.812 373.873 260.522 374.106C260.233 374.33 259.916 374.531 259.57 374.708C259.981 374.904 260.354 375.128 260.69 375.38C261.026 375.623 261.292 375.907 261.488 376.234C261.694 376.561 261.796 376.953 261.796 377.41C261.796 377.97 261.661 378.455 261.39 378.866C261.12 379.267 260.737 379.58 260.242 379.804C259.757 380.028 259.183 380.14 258.52 380.14C257.802 380.14 257.19 380.033 256.686 379.818C256.192 379.603 255.814 379.3 255.552 378.908C255.3 378.507 255.174 378.021 255.174 377.452C255.174 376.995 255.268 376.598 255.454 376.262C255.65 375.926 255.907 375.637 256.224 375.394C256.542 375.151 256.882 374.946 257.246 374.778C256.92 374.591 256.621 374.381 256.35 374.148C256.089 373.905 255.879 373.63 255.72 373.322C255.571 373.014 255.496 372.655 255.496 372.244C255.496 371.731 255.627 371.301 255.888 370.956C256.15 370.601 256.504 370.331 256.952 370.144C257.4 369.957 257.909 369.864 258.478 369.864ZM256.378 377.466C256.378 377.951 256.551 378.357 256.896 378.684C257.242 379.001 257.774 379.16 258.492 379.16C258.95 379.16 259.332 379.085 259.64 378.936C259.948 378.787 260.182 378.581 260.34 378.32C260.508 378.059 260.592 377.76 260.592 377.424C260.592 377.097 260.504 376.813 260.326 376.57C260.158 376.318 259.916 376.094 259.598 375.898C259.29 375.702 258.922 375.525 258.492 375.366L258.268 375.282C257.858 375.459 257.512 375.651 257.232 375.856C256.952 376.061 256.738 376.295 256.588 376.556C256.448 376.817 256.378 377.121 256.378 377.466ZM258.464 370.858C257.951 370.858 257.526 370.984 257.19 371.236C256.864 371.479 256.7 371.833 256.7 372.3C256.7 372.645 256.78 372.935 256.938 373.168C257.106 373.401 257.33 373.602 257.61 373.77C257.89 373.929 258.198 374.083 258.534 374.232C258.861 374.092 259.15 373.938 259.402 373.77C259.664 373.602 259.869 373.401 260.018 373.168C260.177 372.925 260.256 372.636 260.256 372.3C260.256 371.833 260.093 371.479 259.766 371.236C259.44 370.984 259.006 370.858 258.464 370.858Z" fill="#000240"/>
<path d="M292.233 380H285.625V378.978L288.243 376.332C288.747 375.828 289.172 375.38 289.517 374.988C289.862 374.596 290.124 374.213 290.301 373.84C290.478 373.457 290.567 373.042 290.567 372.594C290.567 372.043 290.404 371.628 290.077 371.348C289.75 371.059 289.326 370.914 288.803 370.914C288.318 370.914 287.888 370.998 287.515 371.166C287.151 371.334 286.778 371.567 286.395 371.866L285.737 371.04C285.998 370.816 286.283 370.615 286.591 370.438C286.908 370.261 287.249 370.121 287.613 370.018C287.986 369.915 288.383 369.864 288.803 369.864C289.428 369.864 289.965 369.971 290.413 370.186C290.861 370.401 291.206 370.709 291.449 371.11C291.701 371.502 291.827 371.973 291.827 372.524C291.827 372.916 291.766 373.289 291.645 373.644C291.524 373.989 291.351 374.33 291.127 374.666C290.903 375.002 290.632 375.343 290.315 375.688C289.998 376.033 289.648 376.393 289.265 376.766L287.179 378.824V378.88H292.233V380ZM300.287 374.988C300.287 375.8 300.226 376.523 300.105 377.158C299.984 377.793 299.788 378.334 299.517 378.782C299.256 379.221 298.91 379.557 298.481 379.79C298.061 380.023 297.552 380.14 296.955 380.14C296.208 380.14 295.588 379.935 295.093 379.524C294.608 379.113 294.244 378.525 294.001 377.76C293.768 376.985 293.651 376.061 293.651 374.988C293.651 373.905 293.758 372.981 293.973 372.216C294.197 371.451 294.552 370.867 295.037 370.466C295.522 370.055 296.162 369.85 296.955 369.85C297.702 369.85 298.322 370.055 298.817 370.466C299.312 370.867 299.68 371.451 299.923 372.216C300.166 372.981 300.287 373.905 300.287 374.988ZM294.883 374.988C294.883 375.903 294.948 376.663 295.079 377.27C295.219 377.877 295.438 378.334 295.737 378.642C296.045 378.941 296.451 379.09 296.955 379.09C297.459 379.09 297.86 378.941 298.159 378.642C298.467 378.343 298.691 377.891 298.831 377.284C298.971 376.668 299.041 375.903 299.041 374.988C299.041 374.073 298.971 373.317 298.831 372.72C298.691 372.113 298.467 371.661 298.159 371.362C297.86 371.054 297.459 370.9 296.955 370.9C296.451 370.9 296.045 371.054 295.737 371.362C295.438 371.661 295.219 372.113 295.079 372.72C294.948 373.317 294.883 374.073 294.883 374.988ZM308.257 380H301.649V378.978L304.267 376.332C304.771 375.828 305.195 375.38 305.541 374.988C305.886 374.596 306.147 374.213 306.325 373.84C306.502 373.457 306.591 373.042 306.591 372.594C306.591 372.043 306.427 371.628 306.101 371.348C305.774 371.059 305.349 370.914 304.827 370.914C304.341 370.914 303.912 370.998 303.539 371.166C303.175 371.334 302.801 371.567 302.419 371.866L301.761 371.04C302.022 370.816 302.307 370.615 302.615 370.438C302.932 370.261 303.273 370.121 303.637 370.018C304.01 369.915 304.407 369.864 304.827 369.864C305.452 369.864 305.989 369.971 306.437 370.186C306.885 370.401 307.23 370.709 307.473 371.11C307.725 371.502 307.851 371.973 307.851 372.524C307.851 372.916 307.79 373.289 307.669 373.644C307.547 373.989 307.375 374.33 307.151 374.666C306.927 375.002 306.656 375.343 306.339 375.688C306.021 376.033 305.671 376.393 305.289 376.766L303.203 378.824V378.88H308.257V380ZM316.268 374.274C316.268 374.843 316.226 375.413 316.142 375.982C316.068 376.542 315.932 377.074 315.736 377.578C315.54 378.073 315.27 378.516 314.924 378.908C314.579 379.291 314.14 379.594 313.608 379.818C313.076 380.033 312.432 380.14 311.676 380.14C311.49 380.14 311.27 380.126 311.018 380.098C310.776 380.079 310.575 380.047 310.416 380V378.95C310.584 379.006 310.78 379.053 311.004 379.09C311.228 379.118 311.443 379.132 311.648 379.132C312.302 379.132 312.838 379.025 313.258 378.81C313.688 378.595 314.028 378.306 314.28 377.942C314.532 377.569 314.714 377.139 314.826 376.654C314.938 376.159 315.004 375.641 315.022 375.1H314.938C314.798 375.315 314.621 375.511 314.406 375.688C314.192 375.865 313.93 376.005 313.622 376.108C313.324 376.211 312.969 376.262 312.558 376.262C311.989 376.262 311.485 376.145 311.046 375.912C310.617 375.669 310.281 375.324 310.038 374.876C309.805 374.428 309.688 373.882 309.688 373.238C309.688 372.538 309.819 371.936 310.08 371.432C310.351 370.928 310.724 370.541 311.2 370.27C311.676 369.999 312.236 369.864 312.88 369.864C313.356 369.864 313.8 369.957 314.21 370.144C314.621 370.321 314.98 370.592 315.288 370.956C315.596 371.32 315.834 371.777 316.002 372.328C316.18 372.879 316.268 373.527 316.268 374.274ZM312.88 370.9C312.302 370.9 311.826 371.091 311.452 371.474C311.088 371.857 310.906 372.44 310.906 373.224C310.906 373.868 311.06 374.377 311.368 374.75C311.686 375.114 312.171 375.296 312.824 375.296C313.272 375.296 313.66 375.207 313.986 375.03C314.313 374.843 314.565 374.61 314.742 374.33C314.929 374.05 315.022 373.761 315.022 373.462C315.022 373.163 314.976 372.865 314.882 372.566C314.798 372.258 314.668 371.978 314.49 371.726C314.313 371.474 314.089 371.273 313.818 371.124C313.548 370.975 313.235 370.9 312.88 370.9Z" fill="#000240"/>
<path d="M345.733 380H339.125V378.978L341.743 376.332C342.247 375.828 342.672 375.38 343.017 374.988C343.362 374.596 343.624 374.213 343.801 373.84C343.978 373.457 344.067 373.042 344.067 372.594C344.067 372.043 343.904 371.628 343.577 371.348C343.25 371.059 342.826 370.914 342.303 370.914C341.818 370.914 341.388 370.998 341.015 371.166C340.651 371.334 340.278 371.567 339.895 371.866L339.237 371.04C339.498 370.816 339.783 370.615 340.091 370.438C340.408 370.261 340.749 370.121 341.113 370.018C341.486 369.915 341.883 369.864 342.303 369.864C342.928 369.864 343.465 369.971 343.913 370.186C344.361 370.401 344.706 370.709 344.949 371.11C345.201 371.502 345.327 371.973 345.327 372.524C345.327 372.916 345.266 373.289 345.145 373.644C345.024 373.989 344.851 374.33 344.627 374.666C344.403 375.002 344.132 375.343 343.815 375.688C343.498 376.033 343.148 376.393 342.765 376.766L340.679 378.824V378.88H345.733V380ZM353.787 374.988C353.787 375.8 353.726 376.523 353.605 377.158C353.484 377.793 353.288 378.334 353.017 378.782C352.756 379.221 352.41 379.557 351.981 379.79C351.561 380.023 351.052 380.14 350.455 380.14C349.708 380.14 349.088 379.935 348.593 379.524C348.108 379.113 347.744 378.525 347.501 377.76C347.268 376.985 347.151 376.061 347.151 374.988C347.151 373.905 347.258 372.981 347.473 372.216C347.697 371.451 348.052 370.867 348.537 370.466C349.022 370.055 349.662 369.85 350.455 369.85C351.202 369.85 351.822 370.055 352.317 370.466C352.812 370.867 353.18 371.451 353.423 372.216C353.666 372.981 353.787 373.905 353.787 374.988ZM348.383 374.988C348.383 375.903 348.448 376.663 348.579 377.27C348.719 377.877 348.938 378.334 349.237 378.642C349.545 378.941 349.951 379.09 350.455 379.09C350.959 379.09 351.36 378.941 351.659 378.642C351.967 378.343 352.191 377.891 352.331 377.284C352.471 376.668 352.541 375.903 352.541 374.988C352.541 374.073 352.471 373.317 352.331 372.72C352.191 372.113 351.967 371.661 351.659 371.362C351.36 371.054 350.959 370.9 350.455 370.9C349.951 370.9 349.545 371.054 349.237 371.362C348.938 371.661 348.719 372.113 348.579 372.72C348.448 373.317 348.383 374.073 348.383 374.988ZM361.379 372.342C361.379 372.79 361.295 373.177 361.127 373.504C360.959 373.831 360.716 374.097 360.399 374.302C360.091 374.507 359.727 374.652 359.307 374.736V374.792C360.109 374.885 360.707 375.137 361.099 375.548C361.491 375.959 361.687 376.495 361.687 377.158C361.687 377.737 361.551 378.255 361.281 378.712C361.01 379.16 360.59 379.51 360.021 379.762C359.461 380.014 358.737 380.14 357.851 380.14C357.328 380.14 356.843 380.098 356.395 380.014C355.947 379.939 355.517 379.799 355.107 379.594V378.446C355.527 378.651 355.979 378.815 356.465 378.936C356.95 379.048 357.417 379.104 357.865 379.104C358.761 379.104 359.405 378.931 359.797 378.586C360.198 378.231 360.399 377.746 360.399 377.13C360.399 376.71 360.287 376.374 360.063 376.122C359.848 375.861 359.531 375.669 359.111 375.548C358.691 375.427 358.187 375.366 357.599 375.366H356.633V374.316H357.613C358.163 374.316 358.621 374.237 358.985 374.078C359.358 373.919 359.638 373.7 359.825 373.42C360.021 373.131 360.119 372.799 360.119 372.426C360.119 371.941 359.955 371.567 359.629 371.306C359.302 371.035 358.859 370.9 358.299 370.9C357.944 370.9 357.622 370.937 357.333 371.012C357.043 371.077 356.773 371.175 356.521 371.306C356.278 371.427 356.031 371.572 355.779 371.74L355.163 370.9C355.405 370.713 355.681 370.541 355.989 370.382C356.306 370.223 356.656 370.097 357.039 370.004C357.421 369.911 357.837 369.864 358.285 369.864C359.33 369.864 360.105 370.097 360.609 370.564C361.122 371.031 361.379 371.623 361.379 372.342ZM369.81 374.988C369.81 375.8 369.75 376.523 369.628 377.158C369.507 377.793 369.311 378.334 369.04 378.782C368.779 379.221 368.434 379.557 368.004 379.79C367.584 380.023 367.076 380.14 366.478 380.14C365.732 380.14 365.111 379.935 364.616 379.524C364.131 379.113 363.767 378.525 363.524 377.76C363.291 376.985 363.174 376.061 363.174 374.988C363.174 373.905 363.282 372.981 363.496 372.216C363.72 371.451 364.075 370.867 364.56 370.466C365.046 370.055 365.685 369.85 366.478 369.85C367.225 369.85 367.846 370.055 368.34 370.466C368.835 370.867 369.204 371.451 369.446 372.216C369.689 372.981 369.81 373.905 369.81 374.988ZM364.406 374.988C364.406 375.903 364.472 376.663 364.602 377.27C364.742 377.877 364.962 378.334 365.26 378.642C365.568 378.941 365.974 379.09 366.478 379.09C366.982 379.09 367.384 378.941 367.682 378.642C367.99 378.343 368.214 377.891 368.354 377.284C368.494 376.668 368.564 375.903 368.564 374.988C368.564 374.073 368.494 373.317 368.354 372.72C368.214 372.113 367.99 371.661 367.682 371.362C367.384 371.054 366.982 370.9 366.478 370.9C365.974 370.9 365.568 371.054 365.26 371.362C364.962 371.661 364.742 372.113 364.602 372.72C364.472 373.317 364.406 374.073 364.406 374.988Z" fill="#000240"/>
<path d="M399.233 380H392.625V378.978L395.243 376.332C395.747 375.828 396.172 375.38 396.517 374.988C396.862 374.596 397.124 374.213 397.301 373.84C397.478 373.457 397.567 373.042 397.567 372.594C397.567 372.043 397.404 371.628 397.077 371.348C396.75 371.059 396.326 370.914 395.803 370.914C395.318 370.914 394.888 370.998 394.515 371.166C394.151 371.334 393.778 371.567 393.395 371.866L392.737 371.04C392.998 370.816 393.283 370.615 393.591 370.438C393.908 370.261 394.249 370.121 394.613 370.018C394.986 369.915 395.383 369.864 395.803 369.864C396.428 369.864 396.965 369.971 397.413 370.186C397.861 370.401 398.206 370.709 398.449 371.11C398.701 371.502 398.827 371.973 398.827 372.524C398.827 372.916 398.766 373.289 398.645 373.644C398.524 373.989 398.351 374.33 398.127 374.666C397.903 375.002 397.632 375.343 397.315 375.688C396.998 376.033 396.648 376.393 396.265 376.766L394.179 378.824V378.88H399.233V380ZM407.287 374.988C407.287 375.8 407.226 376.523 407.105 377.158C406.984 377.793 406.788 378.334 406.517 378.782C406.256 379.221 405.91 379.557 405.481 379.79C405.061 380.023 404.552 380.14 403.955 380.14C403.208 380.14 402.588 379.935 402.093 379.524C401.608 379.113 401.244 378.525 401.001 377.76C400.768 376.985 400.651 376.061 400.651 374.988C400.651 373.905 400.758 372.981 400.973 372.216C401.197 371.451 401.552 370.867 402.037 370.466C402.522 370.055 403.162 369.85 403.955 369.85C404.702 369.85 405.322 370.055 405.817 370.466C406.312 370.867 406.68 371.451 406.923 372.216C407.166 372.981 407.287 373.905 407.287 374.988ZM401.883 374.988C401.883 375.903 401.948 376.663 402.079 377.27C402.219 377.877 402.438 378.334 402.737 378.642C403.045 378.941 403.451 379.09 403.955 379.09C404.459 379.09 404.86 378.941 405.159 378.642C405.467 378.343 405.691 377.891 405.831 377.284C405.971 376.668 406.041 375.903 406.041 374.988C406.041 374.073 405.971 373.317 405.831 372.72C405.691 372.113 405.467 371.661 405.159 371.362C404.86 371.054 404.459 370.9 403.955 370.9C403.451 370.9 403.045 371.054 402.737 371.362C402.438 371.661 402.219 372.113 402.079 372.72C401.948 373.317 401.883 374.073 401.883 374.988ZM414.879 372.342C414.879 372.79 414.795 373.177 414.627 373.504C414.459 373.831 414.216 374.097 413.899 374.302C413.591 374.507 413.227 374.652 412.807 374.736V374.792C413.609 374.885 414.207 375.137 414.599 375.548C414.991 375.959 415.187 376.495 415.187 377.158C415.187 377.737 415.051 378.255 414.781 378.712C414.51 379.16 414.09 379.51 413.521 379.762C412.961 380.014 412.237 380.14 411.351 380.14C410.828 380.14 410.343 380.098 409.895 380.014C409.447 379.939 409.017 379.799 408.607 379.594V378.446C409.027 378.651 409.479 378.815 409.965 378.936C410.45 379.048 410.917 379.104 411.365 379.104C412.261 379.104 412.905 378.931 413.297 378.586C413.698 378.231 413.899 377.746 413.899 377.13C413.899 376.71 413.787 376.374 413.563 376.122C413.348 375.861 413.031 375.669 412.611 375.548C412.191 375.427 411.687 375.366 411.099 375.366H410.133V374.316H411.113C411.663 374.316 412.121 374.237 412.485 374.078C412.858 373.919 413.138 373.7 413.325 373.42C413.521 373.131 413.619 372.799 413.619 372.426C413.619 371.941 413.455 371.567 413.129 371.306C412.802 371.035 412.359 370.9 411.799 370.9C411.444 370.9 411.122 370.937 410.833 371.012C410.543 371.077 410.273 371.175 410.021 371.306C409.778 371.427 409.531 371.572 409.279 371.74L408.663 370.9C408.905 370.713 409.181 370.541 409.489 370.382C409.806 370.223 410.156 370.097 410.539 370.004C410.921 369.911 411.337 369.864 411.785 369.864C412.83 369.864 413.605 370.097 414.109 370.564C414.622 371.031 414.879 371.623 414.879 372.342ZM420.958 380H419.754V373.014C419.754 372.743 419.754 372.515 419.754 372.328C419.764 372.141 419.773 371.969 419.782 371.81C419.792 371.642 419.801 371.469 419.81 371.292C419.661 371.441 419.526 371.567 419.404 371.67C419.283 371.773 419.129 371.903 418.942 372.062L417.878 372.93L417.234 372.104L419.936 370.004H420.958V380Z" fill="#000240"/>
<path d="M72 271.556L89.2985 163.111L98.0299 156L109.672 300L115.493 294.667L119.567 300L122.478 280.444L125.97 271.556H132.373L144.015 250.222L148.672 200.444L156.821 180.889L165.552 156H249.955L261.597 200.444L267.418 221.778H277.313L289.537 163.111L350.657 156L360.552 200.444L372.194 180.889L379.761 200.444L384.418 195.111L398.97 156H424" stroke="#134DD6" stroke-width="2" stroke-linecap="round"/>
<defs>
<clipPath id="clip0_4655_14219">
<rect width="20" height="20" fill="white" transform="translate(24 27)"/>
</clipPath>
</defs>
</svg>
