<svg width="687" height="401" viewBox="0 0 687 401" fill="none" xmlns="http://www.w3.org/2000/svg">
<rect width="687" height="401" fill="white"/>
<g clip-path="url(#clip0_4655_14353)">
<path d="M30 23.8334L37.9166 28.4167V37.5834L30 42.1667L22.0833 37.5834V28.4167L30 23.8334ZM30 25.7592L23.75 29.3775V36.6225L30 40.2409L36.25 36.6225V29.3775L30 25.7592ZM30 36.3334C29.1159 36.3334 28.2681 35.9822 27.643 35.3571C27.0178 34.7319 26.6666 33.8841 26.6666 33C26.6666 32.116 27.0178 31.2681 27.643 30.643C28.2681 30.0179 29.1159 29.6667 30 29.6667C30.884 29.6667 31.7319 30.0179 32.357 30.643C32.9821 31.2681 33.3333 32.116 33.3333 33C33.3333 33.8841 32.9821 34.7319 32.357 35.3571C31.7319 35.9822 30.884 36.3334 30 36.3334ZM30 34.6667C30.442 34.6667 30.8659 34.4911 31.1785 34.1786C31.4911 33.866 31.6666 33.4421 31.6666 33C31.6666 32.558 31.4911 32.1341 31.1785 31.8215C30.8659 31.509 30.442 31.3334 30 31.3334C29.558 31.3334 29.134 31.509 28.8215 31.8215C28.5089 32.1341 28.3333 32.558 28.3333 33C28.3333 33.4421 28.5089 33.866 28.8215 34.1786C29.134 34.4911 29.558 34.6667 30 34.6667Z" fill="#000240"/>
</g>
<path d="M52.72 40L48.5 26H50.24L54.06 38.98H54.32L58.14 26H59.88L55.66 40H52.72ZM65.7806 40.28C64.794 40.28 63.9273 40.0733 63.1806 39.66C62.434 39.2333 61.854 38.64 61.4406 37.88C61.0273 37.12 60.8206 36.24 60.8206 35.24V35C60.8206 33.9867 61.0273 33.1 61.4406 32.34C61.854 31.58 62.4273 30.9933 63.1606 30.58C63.894 30.1533 64.734 29.94 65.6806 29.94C66.6006 29.94 67.414 30.14 68.1206 30.54C68.8273 30.9267 69.3806 31.4867 69.7806 32.22C70.1806 32.9533 70.3806 33.8133 70.3806 34.8V35.52H62.4006C62.4406 36.5733 62.7806 37.4 63.4206 38C64.0606 38.5867 64.8606 38.88 65.8206 38.88C66.6606 38.88 67.3073 38.6867 67.7606 38.3C68.214 37.9133 68.5606 37.4533 68.8006 36.92L70.1606 37.58C69.9606 37.9933 69.6806 38.4067 69.3206 38.82C68.974 39.2333 68.514 39.58 67.9406 39.86C67.3806 40.14 66.6606 40.28 65.7806 40.28ZM62.4206 34.22H68.7806C68.7273 33.3133 68.414 32.6067 67.8406 32.1C67.2806 31.5933 66.5606 31.34 65.6806 31.34C64.7873 31.34 64.054 31.5933 63.4806 32.1C62.9073 32.6067 62.554 33.3133 62.4206 34.22ZM73.1366 40V30.22H74.6766V31.42H74.9566C75.1299 30.9933 75.3966 30.68 75.7566 30.48C76.1166 30.28 76.5899 30.18 77.1766 30.18H78.3366V31.62H77.0766C76.3699 31.62 75.7966 31.82 75.3566 32.22C74.9299 32.6067 74.7166 33.2133 74.7166 34.04V40H73.1366ZM83.1556 40L79.6556 30.22H81.3356L84.2756 38.82H84.5556L87.4956 30.22H89.1756L85.6756 40H83.1556ZM94.1444 40.28C93.4644 40.28 92.8444 40.16 92.2844 39.92C91.7244 39.68 91.2844 39.3333 90.9644 38.88C90.6444 38.4267 90.4844 37.8733 90.4844 37.22C90.4844 36.5533 90.6444 36.0067 90.9644 35.58C91.2844 35.14 91.7244 34.8133 92.2844 34.6C92.8444 34.3733 93.471 34.26 94.1644 34.26H97.4644V33.54C97.4644 32.8467 97.2577 32.3 96.8444 31.9C96.4444 31.5 95.8444 31.3 95.0444 31.3C94.2577 31.3 93.6444 31.4933 93.2044 31.88C92.7644 32.2533 92.4644 32.76 92.3044 33.4L90.8244 32.92C90.9844 32.3733 91.2377 31.88 91.5844 31.44C91.931 30.9867 92.391 30.6267 92.9644 30.36C93.551 30.08 94.251 29.94 95.0644 29.94C96.3177 29.94 97.291 30.2667 97.9844 30.92C98.6777 31.56 99.0244 32.4667 99.0244 33.64V38.06C99.0244 38.46 99.211 38.66 99.5844 38.66H100.484V40H99.1044C98.6644 40 98.311 39.88 98.0444 39.64C97.7777 39.3867 97.6444 39.0533 97.6444 38.64V38.54H97.4044C97.2577 38.7933 97.0577 39.06 96.8044 39.34C96.5644 39.6067 96.231 39.8267 95.8044 40C95.3777 40.1867 94.8244 40.28 94.1444 40.28ZM94.3244 38.92C95.2577 38.92 96.011 38.6467 96.5844 38.1C97.171 37.54 97.4644 36.76 97.4644 35.76V35.54H94.2244C93.5977 35.54 93.0777 35.68 92.6644 35.96C92.2644 36.2267 92.0644 36.6333 92.0644 37.18C92.0644 37.7267 92.271 38.1533 92.6844 38.46C93.111 38.7667 93.6577 38.92 94.3244 38.92ZM102.648 40V30.22H104.188V31.88H104.468C104.682 31.4133 105.042 30.9933 105.548 30.62C106.068 30.2333 106.828 30.04 107.828 30.04C108.562 30.04 109.215 30.1933 109.788 30.5C110.375 30.8067 110.842 31.26 111.188 31.86C111.535 32.46 111.708 33.2 111.708 34.08V40H110.128V34.2C110.128 33.2267 109.882 32.52 109.388 32.08C108.908 31.64 108.255 31.42 107.428 31.42C106.482 31.42 105.708 31.7267 105.108 32.34C104.522 32.9533 104.228 33.8667 104.228 35.08V40H102.648ZM114.434 35.16V34.88C114.434 33.8533 114.641 32.9733 115.054 32.24C115.467 31.5067 116.027 30.94 116.734 30.54C117.441 30.14 118.214 29.94 119.054 29.94C120.081 29.94 120.867 30.14 121.414 30.54C121.974 30.9267 122.387 31.36 122.654 31.84H122.934V30.22H124.434V42.28C124.434 42.8133 124.287 43.2333 123.994 43.54C123.701 43.8467 123.274 44 122.714 44H116.074V42.6H122.294C122.694 42.6 122.894 42.4 122.894 42V38.28H122.614C122.454 38.5733 122.227 38.86 121.934 39.14C121.641 39.42 121.261 39.6533 120.794 39.84C120.327 40.0133 119.747 40.1 119.054 40.1C118.214 40.1 117.441 39.9 116.734 39.5C116.027 39.1 115.467 38.5333 115.054 37.8C114.641 37.0533 114.434 36.1733 114.434 35.16ZM119.474 38.7C120.487 38.7 121.307 38.38 121.934 37.74C122.574 37.1 122.894 36.22 122.894 35.1V34.94C122.894 33.8067 122.574 32.9267 121.934 32.3C121.307 31.66 120.487 31.34 119.474 31.34C118.474 31.34 117.647 31.66 116.994 32.3C116.354 32.9267 116.034 33.8067 116.034 34.94V35.1C116.034 36.22 116.354 37.1 116.994 37.74C117.647 38.38 118.474 38.7 119.474 38.7ZM127.746 40V30.22H129.326V40H127.746ZM128.546 28.7C128.199 28.7 127.906 28.5867 127.666 28.36C127.439 28.1333 127.326 27.8467 127.326 27.5C127.326 27.14 127.439 26.8467 127.666 26.62C127.906 26.3933 128.199 26.28 128.546 26.28C128.893 26.28 129.179 26.3933 129.406 26.62C129.633 26.8467 129.746 27.14 129.746 27.5C129.746 27.8467 129.633 28.1333 129.406 28.36C129.179 28.5867 128.893 28.7 128.546 28.7ZM132.648 40V30.22H134.188V31.88H134.468C134.682 31.4133 135.042 30.9933 135.548 30.62C136.068 30.2333 136.828 30.04 137.828 30.04C138.562 30.04 139.215 30.1933 139.788 30.5C140.375 30.8067 140.842 31.26 141.188 31.86C141.535 32.46 141.708 33.2 141.708 34.08V40H140.128V34.2C140.128 33.2267 139.882 32.52 139.388 32.08C138.908 31.64 138.255 31.42 137.428 31.42C136.482 31.42 135.708 31.7267 135.108 32.34C134.522 32.9533 134.228 33.8667 134.228 35.08V40H132.648ZM144.434 35.16V34.88C144.434 33.8533 144.641 32.9733 145.054 32.24C145.467 31.5067 146.027 30.94 146.734 30.54C147.441 30.14 148.214 29.94 149.054 29.94C150.081 29.94 150.867 30.14 151.414 30.54C151.974 30.9267 152.387 31.36 152.654 31.84H152.934V30.22H154.434V42.28C154.434 42.8133 154.287 43.2333 153.994 43.54C153.701 43.8467 153.274 44 152.714 44H146.074V42.6H152.294C152.694 42.6 152.894 42.4 152.894 42V38.28H152.614C152.454 38.5733 152.227 38.86 151.934 39.14C151.641 39.42 151.261 39.6533 150.794 39.84C150.327 40.0133 149.747 40.1 149.054 40.1C148.214 40.1 147.441 39.9 146.734 39.5C146.027 39.1 145.467 38.5333 145.054 37.8C144.641 37.0533 144.434 36.1733 144.434 35.16ZM149.474 38.7C150.487 38.7 151.307 38.38 151.934 37.74C152.574 37.1 152.894 36.22 152.894 35.1V34.94C152.894 33.8067 152.574 32.9267 151.934 32.3C151.307 31.66 150.487 31.34 149.474 31.34C148.474 31.34 147.647 31.66 146.994 32.3C146.354 32.9267 146.034 33.8067 146.034 34.94V35.1C146.034 36.22 146.354 37.1 146.994 37.74C147.647 38.38 148.474 38.7 149.474 38.7ZM161.686 40.28C160.473 40.28 159.446 40 158.606 39.44C157.779 38.88 157.279 37.9933 157.106 36.78L158.606 36.44C158.713 37.08 158.913 37.5867 159.206 37.96C159.499 38.32 159.859 38.58 160.286 38.74C160.726 38.8867 161.193 38.96 161.686 38.96C162.419 38.96 162.999 38.8133 163.426 38.52C163.853 38.2267 164.066 37.8333 164.066 37.34C164.066 36.8333 163.859 36.48 163.446 36.28C163.046 36.0667 162.493 35.8933 161.786 35.76L160.966 35.62C160.339 35.5133 159.766 35.3467 159.246 35.12C158.726 34.8933 158.313 34.5867 158.006 34.2C157.699 33.8133 157.546 33.3267 157.546 32.74C157.546 31.86 157.886 31.1733 158.566 30.68C159.246 30.1867 160.146 29.94 161.266 29.94C162.373 29.94 163.266 30.1933 163.946 30.7C164.639 31.1933 165.086 31.8933 165.286 32.8L163.806 33.18C163.686 32.4733 163.399 31.98 162.946 31.7C162.493 31.4067 161.933 31.26 161.266 31.26C160.599 31.26 160.073 31.3867 159.686 31.64C159.299 31.88 159.106 32.24 159.106 32.72C159.106 33.1867 159.286 33.5333 159.646 33.76C160.019 33.9733 160.513 34.1333 161.126 34.24L161.946 34.38C162.639 34.5 163.259 34.6667 163.806 34.88C164.366 35.08 164.806 35.3733 165.126 35.76C165.459 36.1467 165.626 36.6533 165.626 37.28C165.626 38.24 165.266 38.98 164.546 39.5C163.839 40.02 162.886 40.28 161.686 40.28ZM168.293 40V30.22H169.833V31.42H170.113C170.286 30.9933 170.553 30.68 170.913 30.48C171.273 30.28 171.746 30.18 172.333 30.18H173.493V31.62H172.233C171.526 31.62 170.953 31.82 170.513 32.22C170.086 32.6067 169.873 33.2133 169.873 34.04V40H168.293ZM178.5 40.28C177.82 40.28 177.2 40.16 176.64 39.92C176.08 39.68 175.64 39.3333 175.32 38.88C175 38.4267 174.84 37.8733 174.84 37.22C174.84 36.5533 175 36.0067 175.32 35.58C175.64 35.14 176.08 34.8133 176.64 34.6C177.2 34.3733 177.827 34.26 178.52 34.26H181.82V33.54C181.82 32.8467 181.613 32.3 181.2 31.9C180.8 31.5 180.2 31.3 179.4 31.3C178.613 31.3 178 31.4933 177.56 31.88C177.12 32.2533 176.82 32.76 176.66 33.4L175.18 32.92C175.34 32.3733 175.593 31.88 175.94 31.44C176.287 30.9867 176.747 30.6267 177.32 30.36C177.907 30.08 178.607 29.94 179.42 29.94C180.673 29.94 181.647 30.2667 182.34 30.92C183.033 31.56 183.38 32.4667 183.38 33.64V38.06C183.38 38.46 183.567 38.66 183.94 38.66H184.84V40H183.46C183.02 40 182.667 39.88 182.4 39.64C182.133 39.3867 182 39.0533 182 38.64V38.54H181.76C181.613 38.7933 181.413 39.06 181.16 39.34C180.92 39.6067 180.587 39.8267 180.16 40C179.733 40.1867 179.18 40.28 178.5 40.28ZM178.68 38.92C179.613 38.92 180.367 38.6467 180.94 38.1C181.527 37.54 181.82 36.76 181.82 35.76V35.54H178.58C177.953 35.54 177.433 35.68 177.02 35.96C176.62 36.2267 176.42 36.6333 176.42 37.18C176.42 37.7267 176.627 38.1533 177.04 38.46C177.467 38.7667 178.013 38.92 178.68 38.92ZM189.959 40C189.399 40 188.966 39.8467 188.659 39.54C188.366 39.2333 188.219 38.8133 188.219 38.28V31.6H185.279V30.22H188.219V26.74H189.799V30.22H192.999V31.6H189.799V38.04C189.799 38.44 189.993 38.64 190.379 38.64H192.559V40H189.959ZM195.558 40V30.22H197.138V40H195.558ZM196.358 28.7C196.012 28.7 195.718 28.5867 195.478 28.36C195.252 28.1333 195.138 27.8467 195.138 27.5C195.138 27.14 195.252 26.8467 195.478 26.62C195.718 26.3933 196.012 26.28 196.358 26.28C196.705 26.28 196.992 26.3933 197.218 26.62C197.445 26.8467 197.558 27.14 197.558 27.5C197.558 27.8467 197.445 28.1333 197.218 28.36C196.992 28.5867 196.705 28.7 196.358 28.7ZM204.981 40.28C203.994 40.28 203.121 40.0733 202.361 39.66C201.614 39.2467 201.027 38.6667 200.601 37.92C200.187 37.16 199.981 36.2667 199.981 35.24V34.98C199.981 33.9667 200.187 33.08 200.601 32.32C201.027 31.56 201.614 30.9733 202.361 30.56C203.121 30.1467 203.994 29.94 204.981 29.94C205.967 29.94 206.834 30.1467 207.581 30.56C208.341 30.9733 208.927 31.56 209.341 32.32C209.767 33.08 209.981 33.9667 209.981 34.98V35.24C209.981 36.2667 209.767 37.16 209.341 37.92C208.927 38.6667 208.341 39.2467 207.581 39.66C206.834 40.0733 205.967 40.28 204.981 40.28ZM204.981 38.86C206.021 38.86 206.847 38.5333 207.461 37.88C208.087 37.2133 208.401 36.32 208.401 35.2V35.02C208.401 33.9 208.087 33.0133 207.461 32.36C206.847 31.6933 206.021 31.36 204.981 31.36C203.954 31.36 203.127 31.6933 202.501 32.36C201.874 33.0133 201.561 33.9 201.561 35.02V35.2C201.561 36.32 201.874 37.2133 202.501 37.88C203.127 38.5333 203.954 38.86 204.981 38.86Z" fill="#000240"/>
<rect x="671" y="313" width="651" height="71.9999" transform="rotate(-180 671 313)" fill="#F2F4F8"/>
<path d="M29.07 124.23H31.54V127.73C31.1533 127.857 30.7633 127.95 30.37 128.01C29.9767 128.07 29.53 128.1 29.03 128.1C28.29 128.1 27.6667 127.953 27.16 127.66C26.6533 127.36 26.2667 126.937 26 126.39C25.74 125.837 25.61 125.183 25.61 124.43C25.61 123.683 25.7567 123.037 26.05 122.49C26.3433 121.943 26.7633 121.52 27.31 121.22C27.8633 120.913 28.53 120.76 29.31 120.76C29.71 120.76 30.0867 120.797 30.44 120.87C30.8 120.943 31.1333 121.047 31.44 121.18L31.1 121.96C30.8467 121.847 30.56 121.75 30.24 121.67C29.9267 121.59 29.6 121.55 29.26 121.55C28.6933 121.55 28.2067 121.667 27.8 121.9C27.3933 122.133 27.0833 122.467 26.87 122.9C26.6567 123.327 26.55 123.837 26.55 124.43C26.55 124.997 26.64 125.5 26.82 125.94C27.0067 126.373 27.2967 126.713 27.69 126.96C28.0833 127.2 28.6 127.32 29.24 127.32C29.4533 127.32 29.64 127.313 29.8 127.3C29.9667 127.28 30.1167 127.257 30.25 127.23C30.39 127.203 30.52 127.177 30.64 127.15V125.03H29.07V124.23ZM35.1954 122.54C35.6554 122.54 36.0487 122.64 36.3754 122.84C36.7087 123.04 36.9621 123.323 37.1354 123.69C37.3154 124.05 37.4054 124.473 37.4054 124.96V125.49H33.7354C33.7487 126.097 33.9021 126.56 34.1954 126.88C34.4954 127.193 34.9121 127.35 35.4454 127.35C35.7854 127.35 36.0854 127.32 36.3454 127.26C36.6121 127.193 36.8854 127.1 37.1654 126.98V127.75C36.8921 127.87 36.6221 127.957 36.3554 128.01C36.0887 128.07 35.7721 128.1 35.4054 128.1C34.8987 128.1 34.4487 127.997 34.0554 127.79C33.6687 127.583 33.3654 127.277 33.1454 126.87C32.9321 126.457 32.8254 125.953 32.8254 125.36C32.8254 124.773 32.9221 124.27 33.1154 123.85C33.3154 123.43 33.5921 123.107 33.9454 122.88C34.3054 122.653 34.7221 122.54 35.1954 122.54ZM35.1854 123.26C34.7654 123.26 34.4321 123.397 34.1854 123.67C33.9454 123.937 33.8021 124.31 33.7554 124.79H36.4854C36.4854 124.483 36.4387 124.217 36.3454 123.99C36.2521 123.763 36.1087 123.587 35.9154 123.46C35.7287 123.327 35.4854 123.26 35.1854 123.26ZM39.6499 128H38.7699V120.4H39.6499V128ZM45.828 122.64V128H45.108L44.978 127.29H44.938C44.8247 127.477 44.678 127.63 44.498 127.75C44.318 127.87 44.1214 127.957 43.908 128.01C43.6947 128.07 43.4714 128.1 43.238 128.1C42.8114 128.1 42.4514 128.033 42.158 127.9C41.8714 127.76 41.6547 127.547 41.508 127.26C41.3614 126.973 41.288 126.603 41.288 126.15V122.64H42.178V126.09C42.178 126.517 42.2747 126.837 42.468 127.05C42.6614 127.263 42.9614 127.37 43.368 127.37C43.768 127.37 44.0814 127.297 44.308 127.15C44.5414 126.997 44.7047 126.777 44.798 126.49C44.898 126.197 44.948 125.843 44.948 125.43V122.64H45.828ZM48.3997 124.37C48.3997 124.477 48.393 124.617 48.3797 124.79C48.373 124.963 48.3664 125.113 48.3597 125.24H48.3997C48.4397 125.187 48.4997 125.11 48.5797 125.01C48.6597 124.91 48.7397 124.81 48.8197 124.71C48.9064 124.603 48.9797 124.517 49.0397 124.45L50.7497 122.64H51.7797L49.6097 124.93L51.9297 128H50.8697L49.0097 125.5L48.3997 126.03V128H47.5297V120.4H48.3997V124.37ZM53.7415 124.37C53.7415 124.477 53.7348 124.617 53.7215 124.79C53.7148 124.963 53.7082 125.113 53.7015 125.24H53.7415C53.7815 125.187 53.8415 125.11 53.9215 125.01C54.0015 124.91 54.0815 124.81 54.1615 124.71C54.2482 124.603 54.3215 124.517 54.3815 124.45L56.0915 122.64H57.1215L54.9515 124.93L57.2715 128H56.2115L54.3515 125.5L53.7415 126.03V128H52.8715V120.4H53.7415V124.37ZM59.0933 122.64V128H58.2133V122.64H59.0933ZM58.6633 120.63C58.7966 120.63 58.9133 120.677 59.0133 120.77C59.1199 120.857 59.1733 120.997 59.1733 121.19C59.1733 121.377 59.1199 121.517 59.0133 121.61C58.9133 121.703 58.7966 121.75 58.6633 121.75C58.5166 121.75 58.3933 121.703 58.2933 121.61C58.1933 121.517 58.1433 121.377 58.1433 121.19C58.1433 120.997 58.1933 120.857 58.2933 120.77C58.3933 120.677 58.5166 120.63 58.6633 120.63ZM62.6914 122.54C63.0447 122.54 63.3614 122.607 63.6414 122.74C63.9281 122.873 64.1714 123.077 64.3714 123.35H64.4214L64.5414 122.64H65.2414V128.09C65.2414 128.597 65.1547 129.02 64.9814 129.36C64.8081 129.707 64.5447 129.967 64.1914 130.14C63.8381 130.313 63.3881 130.4 62.8414 130.4C62.4547 130.4 62.0981 130.37 61.7714 130.31C61.4514 130.257 61.1647 130.173 60.9114 130.06V129.25C61.0847 129.337 61.2747 129.41 61.4814 129.47C61.6881 129.537 61.9114 129.587 62.1514 129.62C62.3914 129.653 62.6381 129.67 62.8914 129.67C63.3514 129.67 63.7114 129.533 63.9714 129.26C64.2381 128.993 64.3714 128.627 64.3714 128.16V127.95C64.3714 127.87 64.3747 127.757 64.3814 127.61C64.3881 127.457 64.3947 127.35 64.4014 127.29H64.3614C64.1747 127.563 63.9414 127.767 63.6614 127.9C63.3881 128.033 63.0681 128.1 62.7014 128.1C62.0081 128.1 61.4647 127.857 61.0714 127.37C60.6847 126.883 60.4914 126.203 60.4914 125.33C60.4914 124.757 60.5781 124.263 60.7514 123.85C60.9314 123.43 61.1847 123.107 61.5114 122.88C61.8381 122.653 62.2314 122.54 62.6914 122.54ZM62.8114 123.28C62.5114 123.28 62.2547 123.36 62.0414 123.52C61.8347 123.68 61.6747 123.913 61.5614 124.22C61.4547 124.527 61.4014 124.9 61.4014 125.34C61.4014 126 61.5214 126.507 61.7614 126.86C62.0081 127.207 62.3647 127.38 62.8314 127.38C63.1047 127.38 63.3381 127.347 63.5314 127.28C63.7247 127.207 63.8847 127.097 64.0114 126.95C64.1381 126.797 64.2314 126.603 64.2914 126.37C64.3514 126.137 64.3814 125.86 64.3814 125.54V125.33C64.3814 124.843 64.3247 124.45 64.2114 124.15C64.1047 123.85 63.9347 123.63 63.7014 123.49C63.4681 123.35 63.1714 123.28 62.8114 123.28Z" fill="#4E535E"/>
<path d="M32.2 271.42C32.2 271.973 32.13 272.477 31.99 272.93C31.85 273.377 31.64 273.763 31.36 274.09C31.0867 274.417 30.7433 274.667 30.33 274.84C29.9233 275.013 29.45 275.1 28.91 275.1C28.35 275.1 27.8633 275.013 27.45 274.84C27.0367 274.66 26.6933 274.41 26.42 274.09C26.1467 273.763 25.9433 273.373 25.81 272.92C25.6767 272.467 25.61 271.963 25.61 271.41C25.61 270.677 25.73 270.037 25.97 269.49C26.21 268.943 26.5733 268.517 27.06 268.21C27.5533 267.903 28.1733 267.75 28.92 267.75C29.6333 267.75 30.2333 267.903 30.72 268.21C31.2067 268.51 31.5733 268.937 31.82 269.49C32.0733 270.037 32.2 270.68 32.2 271.42ZM26.56 271.42C26.56 272.02 26.6433 272.537 26.81 272.97C26.9767 273.403 27.2333 273.737 27.58 273.97C27.9333 274.203 28.3767 274.32 28.91 274.32C29.45 274.32 29.89 274.203 30.23 273.97C30.5767 273.737 30.8333 273.403 31 272.97C31.1667 272.537 31.25 272.02 31.25 271.42C31.25 270.52 31.0633 269.817 30.69 269.31C30.3167 268.797 29.7267 268.54 28.92 268.54C28.38 268.54 27.9333 268.657 27.58 268.89C27.2333 269.117 26.9767 269.447 26.81 269.88C26.6433 270.307 26.56 270.82 26.56 271.42ZM36.2425 269.54C36.8825 269.54 37.3658 269.697 37.6925 270.01C38.0192 270.317 38.1825 270.817 38.1825 271.51V275H37.3125V271.57C37.3125 271.137 37.2158 270.813 37.0225 270.6C36.8292 270.387 36.5258 270.28 36.1125 270.28C35.5192 270.28 35.1092 270.447 34.8825 270.78C34.6558 271.113 34.5425 271.593 34.5425 272.22V275H33.6625V269.64H34.3725L34.5025 270.37H34.5525C34.6725 270.183 34.8192 270.03 34.9925 269.91C35.1725 269.783 35.3692 269.69 35.5825 269.63C35.7958 269.57 36.0158 269.54 36.2425 269.54ZM41.6341 274.38C41.7675 274.38 41.9041 274.37 42.0441 274.35C42.1841 274.323 42.2975 274.297 42.3841 274.27V274.94C42.2908 274.987 42.1575 275.023 41.9841 275.05C41.8108 275.083 41.6441 275.1 41.4841 275.1C41.2041 275.1 40.9441 275.053 40.7041 274.96C40.4708 274.86 40.2808 274.69 40.1341 274.45C39.9875 274.21 39.9141 273.873 39.9141 273.44V270.32H39.1541V269.9L39.9241 269.55L40.2741 268.41H40.7941V269.64H42.3441V270.32H40.7941V273.42C40.7941 273.747 40.8708 273.99 41.0241 274.15C41.1841 274.303 41.3875 274.38 41.6341 274.38ZM45.5274 269.54C45.9874 269.54 46.3808 269.64 46.7074 269.84C47.0408 270.04 47.2941 270.323 47.4674 270.69C47.6474 271.05 47.7374 271.473 47.7374 271.96V272.49H44.0674C44.0808 273.097 44.2341 273.56 44.5274 273.88C44.8274 274.193 45.2441 274.35 45.7774 274.35C46.1174 274.35 46.4174 274.32 46.6774 274.26C46.9441 274.193 47.2174 274.1 47.4974 273.98V274.75C47.2241 274.87 46.9541 274.957 46.6874 275.01C46.4208 275.07 46.1041 275.1 45.7374 275.1C45.2308 275.1 44.7808 274.997 44.3874 274.79C44.0008 274.583 43.6974 274.277 43.4774 273.87C43.2641 273.457 43.1574 272.953 43.1574 272.36C43.1574 271.773 43.2541 271.27 43.4474 270.85C43.6474 270.43 43.9241 270.107 44.2774 269.88C44.6374 269.653 45.0541 269.54 45.5274 269.54ZM45.5174 270.26C45.0974 270.26 44.7641 270.397 44.5174 270.67C44.2774 270.937 44.1341 271.31 44.0874 271.79H46.8174C46.8174 271.483 46.7708 271.217 46.6774 270.99C46.5841 270.763 46.4408 270.587 46.2474 270.46C46.0608 270.327 45.8174 270.26 45.5174 270.26ZM50.0866 275L48.0566 269.64H48.9966L50.1366 272.8C50.19 272.947 50.2466 273.11 50.3066 273.29C50.3666 273.47 50.42 273.643 50.4666 273.81C50.5133 273.97 50.5466 274.107 50.5666 274.22H50.6066C50.6333 274.107 50.67 273.967 50.7166 273.8C50.77 273.633 50.8266 273.46 50.8866 273.28C50.9533 273.1 51.01 272.94 51.0566 272.8L52.1966 269.64H53.1366L51.0966 275H50.0866ZM56.4848 269.54C56.5848 269.54 56.6914 269.547 56.8048 269.56C56.9248 269.567 57.0281 269.58 57.1148 269.6L57.0048 270.41C56.9181 270.39 56.8214 270.373 56.7148 270.36C56.6148 270.347 56.5181 270.34 56.4248 270.34C56.2181 270.34 56.0214 270.383 55.8348 270.47C55.6481 270.557 55.4814 270.68 55.3348 270.84C55.1881 270.993 55.0714 271.18 54.9848 271.4C54.9048 271.62 54.8648 271.867 54.8648 272.14V275H53.9848V269.64H54.7048L54.8048 270.62H54.8448C54.9581 270.42 55.0948 270.24 55.2548 270.08C55.4148 269.913 55.5981 269.783 55.8048 269.69C56.0114 269.59 56.2381 269.54 56.4848 269.54ZM59.9903 269.54C60.4503 269.54 60.8436 269.64 61.1703 269.84C61.5036 270.04 61.757 270.323 61.9303 270.69C62.1103 271.05 62.2003 271.473 62.2003 271.96V272.49H58.5303C58.5436 273.097 58.697 273.56 58.9903 273.88C59.2903 274.193 59.707 274.35 60.2403 274.35C60.5803 274.35 60.8803 274.32 61.1403 274.26C61.407 274.193 61.6803 274.1 61.9603 273.98V274.75C61.687 274.87 61.417 274.957 61.1503 275.01C60.8836 275.07 60.567 275.1 60.2003 275.1C59.6936 275.1 59.2436 274.997 58.8503 274.79C58.4636 274.583 58.1603 274.277 57.9403 273.87C57.727 273.457 57.6203 272.953 57.6203 272.36C57.6203 271.773 57.717 271.27 57.9103 270.85C58.1103 270.43 58.387 270.107 58.7403 269.88C59.1003 269.653 59.517 269.54 59.9903 269.54ZM59.9803 270.26C59.5603 270.26 59.227 270.397 58.9803 270.67C58.7403 270.937 58.597 271.31 58.5503 271.79H61.2803C61.2803 271.483 61.2336 271.217 61.1403 270.99C61.047 270.763 60.9036 270.587 60.7103 270.46C60.5236 270.327 60.2803 270.26 59.9803 270.26ZM65.4648 275.1C64.7982 275.1 64.2648 274.87 63.8648 274.41C63.4648 273.943 63.2648 273.25 63.2648 272.33C63.2648 271.41 63.4648 270.717 63.8648 270.25C64.2715 269.777 64.8082 269.54 65.4748 269.54C65.7548 269.54 65.9982 269.577 66.2048 269.65C66.4115 269.717 66.5915 269.81 66.7448 269.93C66.8982 270.05 67.0282 270.183 67.1348 270.33H67.1948C67.1882 270.243 67.1748 270.117 67.1548 269.95C67.1415 269.777 67.1348 269.64 67.1348 269.54V267.4H68.0148V275H67.3048L67.1748 274.28H67.1348C67.0282 274.433 66.8982 274.573 66.7448 274.7C66.5915 274.82 66.4082 274.917 66.1948 274.99C65.9882 275.063 65.7448 275.1 65.4648 275.1ZM65.6048 274.37C66.1715 274.37 66.5682 274.217 66.7948 273.91C67.0282 273.597 67.1448 273.127 67.1448 272.5V272.34C67.1448 271.673 67.0348 271.163 66.8148 270.81C66.5948 270.45 66.1882 270.27 65.5948 270.27C65.1215 270.27 64.7648 270.46 64.5248 270.84C64.2915 271.213 64.1748 271.717 64.1748 272.35C64.1748 272.99 64.2915 273.487 64.5248 273.84C64.7648 274.193 65.1248 274.37 65.6048 274.37ZM71.7872 269.54C72.2472 269.54 72.6405 269.64 72.9672 269.84C73.3005 270.04 73.5539 270.323 73.7272 270.69C73.9072 271.05 73.9972 271.473 73.9972 271.96V272.49H70.3272C70.3405 273.097 70.4939 273.56 70.7872 273.88C71.0872 274.193 71.5039 274.35 72.0372 274.35C72.3772 274.35 72.6772 274.32 72.9372 274.26C73.2039 274.193 73.4772 274.1 73.7572 273.98V274.75C73.4839 274.87 73.2139 274.957 72.9472 275.01C72.6805 275.07 72.3639 275.1 71.9972 275.1C71.4905 275.1 71.0405 274.997 70.6472 274.79C70.2605 274.583 69.9572 274.277 69.7372 273.87C69.5239 273.457 69.4172 272.953 69.4172 272.36C69.4172 271.773 69.5139 271.27 69.7072 270.85C69.9072 270.43 70.1839 270.107 70.5372 269.88C70.8972 269.653 71.3139 269.54 71.7872 269.54ZM71.7772 270.26C71.3572 270.26 71.0239 270.397 70.7772 270.67C70.5372 270.937 70.3939 271.31 70.3472 271.79H73.0772C73.0772 271.483 73.0305 271.217 72.9372 270.99C72.8439 270.763 72.7005 270.587 72.5072 270.46C72.3205 270.327 72.0772 270.26 71.7772 270.26ZM77.9417 269.54C78.5817 269.54 79.0651 269.697 79.3917 270.01C79.7184 270.317 79.8817 270.817 79.8817 271.51V275H79.0117V271.57C79.0117 271.137 78.9151 270.813 78.7217 270.6C78.5284 270.387 78.2251 270.28 77.8117 270.28C77.2184 270.28 76.8084 270.447 76.5817 270.78C76.3551 271.113 76.2417 271.593 76.2417 272.22V275H75.3617V269.64H76.0717L76.2017 270.37H76.2517C76.3717 270.183 76.5184 270.03 76.6917 269.91C76.8717 269.783 77.0684 269.69 77.2817 269.63C77.4951 269.57 77.7151 269.54 77.9417 269.54Z" fill="#4E535E"/>
<path d="M31.63 203H30.58L26.76 197.07H26.72C26.7267 197.19 26.7333 197.323 26.74 197.47C26.7533 197.617 26.7633 197.777 26.77 197.95C26.7767 198.117 26.7833 198.29 26.79 198.47C26.7967 198.65 26.8 198.83 26.8 199.01V203H25.97V195.86H27.01L30.82 201.77H30.86C30.8533 201.69 30.8467 201.58 30.84 201.44C30.8333 201.293 30.8267 201.133 30.82 200.96C30.8133 200.78 30.8067 200.597 30.8 200.41C30.7933 200.223 30.79 200.05 30.79 199.89V195.86H31.63V203ZM35.5177 197.54C35.9777 197.54 36.371 197.64 36.6977 197.84C37.031 198.04 37.2843 198.323 37.4577 198.69C37.6377 199.05 37.7277 199.473 37.7277 199.96V200.49H34.0577C34.071 201.097 34.2243 201.56 34.5177 201.88C34.8177 202.193 35.2343 202.35 35.7677 202.35C36.1077 202.35 36.4077 202.32 36.6677 202.26C36.9343 202.193 37.2077 202.1 37.4877 201.98V202.75C37.2143 202.87 36.9443 202.957 36.6777 203.01C36.411 203.07 36.0943 203.1 35.7277 203.1C35.221 203.1 34.771 202.997 34.3777 202.79C33.991 202.583 33.6877 202.277 33.4677 201.87C33.2543 201.457 33.1477 200.953 33.1477 200.36C33.1477 199.773 33.2443 199.27 33.4377 198.85C33.6377 198.43 33.9143 198.107 34.2677 197.88C34.6277 197.653 35.0443 197.54 35.5177 197.54ZM35.5077 198.26C35.0877 198.26 34.7543 198.397 34.5077 198.67C34.2677 198.937 34.1243 199.31 34.0777 199.79H36.8077C36.8077 199.483 36.761 199.217 36.6677 198.99C36.5743 198.763 36.431 198.587 36.2377 198.46C36.051 198.327 35.8077 198.26 35.5077 198.26ZM43.5722 197.64V203H42.8522L42.7222 202.29H42.6822C42.5689 202.477 42.4222 202.63 42.2422 202.75C42.0622 202.87 41.8655 202.957 41.6522 203.01C41.4389 203.07 41.2155 203.1 40.9822 203.1C40.5555 203.1 40.1955 203.033 39.9022 202.9C39.6155 202.76 39.3989 202.547 39.2522 202.26C39.1055 201.973 39.0322 201.603 39.0322 201.15V197.64H39.9222V201.09C39.9222 201.517 40.0189 201.837 40.2122 202.05C40.4055 202.263 40.7055 202.37 41.1122 202.37C41.5122 202.37 41.8255 202.297 42.0522 202.15C42.2855 201.997 42.4489 201.777 42.5422 201.49C42.6422 201.197 42.6922 200.843 42.6922 200.43V197.64H43.5722ZM47.0638 202.38C47.1972 202.38 47.3338 202.37 47.4738 202.35C47.6138 202.323 47.7272 202.297 47.8138 202.27V202.94C47.7205 202.987 47.5872 203.023 47.4138 203.05C47.2405 203.083 47.0738 203.1 46.9138 203.1C46.6338 203.1 46.3738 203.053 46.1338 202.96C45.9005 202.86 45.7105 202.69 45.5638 202.45C45.4172 202.21 45.3438 201.873 45.3438 201.44V198.32H44.5838V197.9L45.3538 197.55L45.7038 196.41H46.2238V197.64H47.7738V198.32H46.2238V201.42C46.2238 201.747 46.3005 201.99 46.4538 202.15C46.6138 202.303 46.8172 202.38 47.0638 202.38ZM51.3871 197.54C51.4871 197.54 51.5938 197.547 51.7071 197.56C51.8271 197.567 51.9304 197.58 52.0171 197.6L51.9071 198.41C51.8204 198.39 51.7238 198.373 51.6171 198.36C51.5171 198.347 51.4204 198.34 51.3271 198.34C51.1204 198.34 50.9238 198.383 50.7371 198.47C50.5504 198.557 50.3838 198.68 50.2371 198.84C50.0904 198.993 49.9738 199.18 49.8871 199.4C49.8071 199.62 49.7671 199.867 49.7671 200.14V203H48.8871V197.64H49.6071L49.7071 198.62H49.7471C49.8604 198.42 49.9971 198.24 50.1571 198.08C50.3171 197.913 50.5004 197.783 50.7071 197.69C50.9138 197.59 51.1404 197.54 51.3871 197.54ZM54.8527 197.55C55.506 197.55 55.9893 197.693 56.3027 197.98C56.616 198.267 56.7727 198.723 56.7727 199.35V203H56.1327L55.9627 202.24H55.9227C55.7693 202.433 55.6093 202.597 55.4427 202.73C55.2827 202.857 55.096 202.95 54.8827 203.01C54.676 203.07 54.4227 203.1 54.1227 203.1C53.8027 203.1 53.5127 203.043 53.2527 202.93C52.9993 202.817 52.7993 202.643 52.6527 202.41C52.506 202.17 52.4327 201.87 52.4327 201.51C52.4327 200.977 52.6427 200.567 53.0627 200.28C53.4827 199.987 54.1293 199.827 55.0027 199.8L55.9127 199.77V199.45C55.9127 199.003 55.816 198.693 55.6227 198.52C55.4293 198.347 55.156 198.26 54.8027 198.26C54.5227 198.26 54.256 198.303 54.0027 198.39C53.7493 198.47 53.5127 198.563 53.2927 198.67L53.0227 198.01C53.256 197.883 53.5327 197.777 53.8527 197.69C54.1727 197.597 54.506 197.55 54.8527 197.55ZM55.1127 200.41C54.446 200.437 53.9827 200.543 53.7227 200.73C53.4693 200.917 53.3427 201.18 53.3427 201.52C53.3427 201.82 53.4327 202.04 53.6127 202.18C53.7993 202.32 54.036 202.39 54.3227 202.39C54.776 202.39 55.1527 202.267 55.4527 202.02C55.7527 201.767 55.9027 201.38 55.9027 200.86V200.38L55.1127 200.41ZM60.4581 197.55C61.1115 197.55 61.5948 197.693 61.9081 197.98C62.2215 198.267 62.3781 198.723 62.3781 199.35V203H61.7381L61.5681 202.24H61.5281C61.3748 202.433 61.2148 202.597 61.0481 202.73C60.8881 202.857 60.7015 202.95 60.4881 203.01C60.2815 203.07 60.0281 203.1 59.7281 203.1C59.4081 203.1 59.1181 203.043 58.8581 202.93C58.6048 202.817 58.4048 202.643 58.2581 202.41C58.1115 202.17 58.0381 201.87 58.0381 201.51C58.0381 200.977 58.2481 200.567 58.6681 200.28C59.0881 199.987 59.7348 199.827 60.6081 199.8L61.5181 199.77V199.45C61.5181 199.003 61.4215 198.693 61.2281 198.52C61.0348 198.347 60.7615 198.26 60.4081 198.26C60.1281 198.26 59.8615 198.303 59.6081 198.39C59.3548 198.47 59.1181 198.563 58.8981 198.67L58.6281 198.01C58.8615 197.883 59.1381 197.777 59.4581 197.69C59.7781 197.597 60.1115 197.55 60.4581 197.55ZM60.7181 200.41C60.0515 200.437 59.5881 200.543 59.3281 200.73C59.0748 200.917 58.9481 201.18 58.9481 201.52C58.9481 201.82 59.0381 202.04 59.2181 202.18C59.4048 202.32 59.6415 202.39 59.9281 202.39C60.3815 202.39 60.7581 202.267 61.0581 202.02C61.3581 201.767 61.5081 201.38 61.5081 200.86V200.38L60.7181 200.41ZM64.9136 203H64.0336V195.4H64.9136V203Z" fill="#4E535E"/>
<rect x="659" y="167" width="638" height="71.9999" transform="rotate(-180 659 167)" fill="#F2F4F8"/>
<g clip-path="url(#clip1_4655_14353)">
<path d="M27.28 79.274C27.28 79.8433 27.238 80.4127 27.154 80.982C27.0793 81.542 26.944 82.074 26.748 82.578C26.552 83.0727 26.2813 83.516 25.936 83.908C25.5907 84.2907 25.152 84.594 24.62 84.818C24.088 85.0327 23.444 85.14 22.688 85.14C22.5013 85.14 22.282 85.126 22.03 85.098C21.7873 85.0793 21.5867 85.0467 21.428 85V83.95C21.596 84.006 21.792 84.0527 22.016 84.09C22.24 84.118 22.4547 84.132 22.66 84.132C23.3133 84.132 23.85 84.0247 24.27 83.81C24.6993 83.5953 25.04 83.306 25.292 82.942C25.544 82.5687 25.726 82.1393 25.838 81.654C25.95 81.1593 26.0153 80.6413 26.034 80.1H25.95C25.81 80.3147 25.6327 80.5107 25.418 80.688C25.2033 80.8653 24.942 81.0053 24.634 81.108C24.3353 81.2107 23.9807 81.262 23.57 81.262C23.0007 81.262 22.4967 81.1453 22.058 80.912C21.6287 80.6693 21.2927 80.324 21.05 79.876C20.8167 79.428 20.7 78.882 20.7 78.238C20.7 77.538 20.8307 76.936 21.092 76.432C21.3627 75.928 21.736 75.5407 22.212 75.27C22.688 74.9993 23.248 74.864 23.892 74.864C24.368 74.864 24.8113 74.9573 25.222 75.144C25.6327 75.3213 25.992 75.592 26.3 75.956C26.608 76.32 26.846 76.7773 27.014 77.328C27.1913 77.8787 27.28 78.5273 27.28 79.274ZM23.892 75.9C23.3133 75.9 22.8373 76.0913 22.464 76.474C22.1 76.8567 21.918 77.44 21.918 78.224C21.918 78.868 22.072 79.3767 22.38 79.75C22.6973 80.114 23.1827 80.296 23.836 80.296C24.284 80.296 24.6713 80.2073 24.998 80.03C25.3247 79.8433 25.5767 79.61 25.754 79.33C25.9407 79.05 26.034 78.7607 26.034 78.462C26.034 78.1633 25.9873 77.8647 25.894 77.566C25.81 77.258 25.6793 76.978 25.502 76.726C25.3247 76.474 25.1007 76.2733 24.83 76.124C24.5593 75.9747 24.2467 75.9 23.892 75.9ZM35.3337 79.988C35.3337 80.8 35.2731 81.5233 35.1517 82.158C35.0304 82.7927 34.8344 83.334 34.5637 83.782C34.3024 84.2207 33.9571 84.5567 33.5277 84.79C33.1077 85.0233 32.5991 85.14 32.0017 85.14C31.2551 85.14 30.6344 84.9347 30.1397 84.524C29.6544 84.1133 29.2904 83.5253 29.0477 82.76C28.8144 81.9853 28.6977 81.0613 28.6977 79.988C28.6977 78.9053 28.8051 77.9813 29.0197 77.216C29.2437 76.4507 29.5984 75.8673 30.0837 75.466C30.5691 75.0553 31.2084 74.85 32.0017 74.85C32.7484 74.85 33.3691 75.0553 33.8637 75.466C34.3584 75.8673 34.7271 76.4507 34.9697 77.216C35.2124 77.9813 35.3337 78.9053 35.3337 79.988ZM29.9297 79.988C29.9297 80.9027 29.9951 81.6633 30.1257 82.27C30.2657 82.8767 30.4851 83.334 30.7837 83.642C31.0917 83.9407 31.4977 84.09 32.0017 84.09C32.5057 84.09 32.9071 83.9407 33.2057 83.642C33.5137 83.3433 33.7377 82.8907 33.8777 82.284C34.0177 81.668 34.0877 80.9027 34.0877 79.988C34.0877 79.0733 34.0177 78.3173 33.8777 77.72C33.7377 77.1133 33.5137 76.6607 33.2057 76.362C32.9071 76.054 32.5057 75.9 32.0017 75.9C31.4977 75.9 31.0917 76.054 30.7837 76.362C30.4851 76.6607 30.2657 77.1133 30.1257 77.72C29.9951 78.3173 29.9297 79.0733 29.9297 79.988ZM38.7534 74.864C39.4441 74.864 39.9668 75.1393 40.3214 75.69C40.6761 76.2313 40.8534 76.9967 40.8534 77.986C40.8534 78.9753 40.6808 79.75 40.3354 80.31C39.9994 80.8607 39.4721 81.136 38.7534 81.136C38.3148 81.136 37.9414 81.01 37.6334 80.758C37.3254 80.506 37.0921 80.1467 36.9334 79.68C36.7841 79.204 36.7094 78.6393 36.7094 77.986C36.7094 76.9967 36.8728 76.2313 37.1994 75.69C37.5261 75.1393 38.0441 74.864 38.7534 74.864ZM38.7534 75.732C38.3988 75.732 38.1374 75.9233 37.9694 76.306C37.8108 76.6793 37.7314 77.2393 37.7314 77.986C37.7314 78.7327 37.8108 79.2973 37.9694 79.68C38.1374 80.0627 38.3988 80.254 38.7534 80.254C39.1174 80.254 39.3881 80.0673 39.5654 79.694C39.7428 79.3113 39.8314 78.742 39.8314 77.986C39.8314 77.2393 39.7428 76.6793 39.5654 76.306C39.3881 75.9233 39.1174 75.732 38.7534 75.732ZM45.1514 75.004L39.6074 85H38.5294L44.0734 75.004H45.1514ZM44.8714 78.868C45.3288 78.868 45.7114 78.994 46.0194 79.246C46.3274 79.4887 46.5608 79.8433 46.7194 80.31C46.8874 80.7673 46.9714 81.3273 46.9714 81.99C46.9714 82.9793 46.7988 83.754 46.4534 84.314C46.1174 84.8647 45.5901 85.14 44.8714 85.14C44.4328 85.14 44.0594 85.014 43.7514 84.762C43.4434 84.51 43.2101 84.1507 43.0514 83.684C42.9021 83.208 42.8274 82.6433 42.8274 81.99C42.8274 81.0007 42.9908 80.2353 43.3174 79.694C43.6441 79.1433 44.1621 78.868 44.8714 78.868ZM44.8714 79.75C44.5168 79.75 44.2554 79.9367 44.0874 80.31C43.9288 80.6833 43.8494 81.2433 43.8494 81.99C43.8494 82.746 43.9288 83.3153 44.0874 83.698C44.2554 84.0713 44.5168 84.258 44.8714 84.258C45.2354 84.258 45.5061 84.0713 45.6834 83.698C45.8608 83.3247 45.9494 82.7553 45.9494 81.99C45.9494 81.2433 45.8608 80.6833 45.6834 80.31C45.5061 79.9367 45.2354 79.75 44.8714 79.75Z" fill="#000240"/>
<line opacity="0.5" x1="20" y1="96.5" x2="665" y2="96.5" stroke="#D3D6DB"/>
<path d="M27.6267 147.197C28.2147 147.197 28.7327 147.291 29.1807 147.477C29.6287 147.655 29.9787 147.921 30.2307 148.275C30.4921 148.63 30.6227 149.069 30.6227 149.591C30.6227 149.993 30.5341 150.343 30.3567 150.641C30.1887 150.94 29.9601 151.206 29.6707 151.439C29.3814 151.663 29.0641 151.864 28.7187 152.041C29.1294 152.237 29.5027 152.461 29.8387 152.713C30.1747 152.956 30.4407 153.241 30.6367 153.567C30.8421 153.894 30.9447 154.286 30.9447 154.743C30.9447 155.303 30.8094 155.789 30.5387 156.199C30.2681 156.601 29.8854 156.913 29.3907 157.137C28.9054 157.361 28.3314 157.473 27.6687 157.473C26.9501 157.473 26.3387 157.366 25.8347 157.151C25.3401 156.937 24.9621 156.633 24.7007 156.241C24.4487 155.84 24.3227 155.355 24.3227 154.785C24.3227 154.328 24.4161 153.931 24.6027 153.595C24.7987 153.259 25.0554 152.97 25.3727 152.727C25.6901 152.485 26.0307 152.279 26.3947 152.111C26.0681 151.925 25.7694 151.715 25.4987 151.481C25.2374 151.239 25.0274 150.963 24.8687 150.655C24.7194 150.347 24.6447 149.988 24.6447 149.577C24.6447 149.064 24.7754 148.635 25.0367 148.289C25.2981 147.935 25.6527 147.664 26.1007 147.477C26.5487 147.291 27.0574 147.197 27.6267 147.197ZM25.5267 154.799C25.5267 155.285 25.6994 155.691 26.0447 156.017C26.3901 156.335 26.9221 156.493 27.6407 156.493C28.0981 156.493 28.4807 156.419 28.7887 156.269C29.0967 156.12 29.3301 155.915 29.4887 155.653C29.6567 155.392 29.7407 155.093 29.7407 154.757C29.7407 154.431 29.6521 154.146 29.4747 153.903C29.3067 153.651 29.0641 153.427 28.7467 153.231C28.4387 153.035 28.0701 152.858 27.6407 152.699L27.4167 152.615C27.0061 152.793 26.6607 152.984 26.3807 153.189C26.1007 153.395 25.8861 153.628 25.7367 153.889C25.5967 154.151 25.5267 154.454 25.5267 154.799ZM27.6127 148.191C27.0994 148.191 26.6747 148.317 26.3387 148.569C26.0121 148.812 25.8487 149.167 25.8487 149.633C25.8487 149.979 25.9281 150.268 26.0867 150.501C26.2547 150.735 26.4787 150.935 26.7587 151.103C27.0387 151.262 27.3467 151.416 27.6827 151.565C28.0094 151.425 28.2987 151.271 28.5507 151.103C28.8121 150.935 29.0174 150.735 29.1667 150.501C29.3254 150.259 29.4047 149.969 29.4047 149.633C29.4047 149.167 29.2414 148.812 28.9147 148.569C28.5881 148.317 28.1541 148.191 27.6127 148.191ZM38.9704 152.321C38.9704 153.133 38.9098 153.857 38.7884 154.491C38.6671 155.126 38.4711 155.667 38.2004 156.115C37.9391 156.554 37.5938 156.89 37.1644 157.123C36.7444 157.357 36.2358 157.473 35.6384 157.473C34.8918 157.473 34.2711 157.268 33.7764 156.857C33.2911 156.447 32.9271 155.859 32.6844 155.093C32.4511 154.319 32.3344 153.395 32.3344 152.321C32.3344 151.239 32.4418 150.315 32.6564 149.549C32.8804 148.784 33.2351 148.201 33.7204 147.799C34.2058 147.389 34.8451 147.183 35.6384 147.183C36.3851 147.183 37.0058 147.389 37.5004 147.799C37.9951 148.201 38.3638 148.784 38.6064 149.549C38.8491 150.315 38.9704 151.239 38.9704 152.321ZM33.5664 152.321C33.5664 153.236 33.6318 153.997 33.7624 154.603C33.9024 155.21 34.1218 155.667 34.4204 155.975C34.7284 156.274 35.1344 156.423 35.6384 156.423C36.1424 156.423 36.5438 156.274 36.8424 155.975C37.1504 155.677 37.3744 155.224 37.5144 154.617C37.6544 154.001 37.7244 153.236 37.7244 152.321C37.7244 151.407 37.6544 150.651 37.5144 150.053C37.3744 149.447 37.1504 148.994 36.8424 148.695C36.5438 148.387 36.1424 148.233 35.6384 148.233C35.1344 148.233 34.7284 148.387 34.4204 148.695C34.1218 148.994 33.9024 149.447 33.7624 150.053C33.6318 150.651 33.5664 151.407 33.5664 152.321ZM42.3902 147.197C43.0808 147.197 43.6035 147.473 43.9582 148.023C44.3128 148.565 44.4902 149.33 44.4902 150.319C44.4902 151.309 44.3175 152.083 43.9722 152.643C43.6362 153.194 43.1088 153.469 42.3902 153.469C41.9515 153.469 41.5782 153.343 41.2702 153.091C40.9622 152.839 40.7288 152.48 40.5702 152.013C40.4208 151.537 40.3462 150.973 40.3462 150.319C40.3462 149.33 40.5095 148.565 40.8362 148.023C41.1628 147.473 41.6808 147.197 42.3902 147.197ZM42.3902 148.065C42.0355 148.065 41.7742 148.257 41.6062 148.639C41.4475 149.013 41.3682 149.573 41.3682 150.319C41.3682 151.066 41.4475 151.631 41.6062 152.013C41.7742 152.396 42.0355 152.587 42.3902 152.587C42.7542 152.587 43.0248 152.401 43.2022 152.027C43.3795 151.645 43.4682 151.075 43.4682 150.319C43.4682 149.573 43.3795 149.013 43.2022 148.639C43.0248 148.257 42.7542 148.065 42.3902 148.065ZM48.7882 147.337L43.2442 157.333H42.1662L47.7102 147.337H48.7882ZM48.5082 151.201C48.9655 151.201 49.3482 151.327 49.6562 151.579C49.9642 151.822 50.1975 152.177 50.3562 152.643C50.5242 153.101 50.6082 153.661 50.6082 154.323C50.6082 155.313 50.4355 156.087 50.0902 156.647C49.7542 157.198 49.2268 157.473 48.5082 157.473C48.0695 157.473 47.6962 157.347 47.3882 157.095C47.0802 156.843 46.8468 156.484 46.6882 156.017C46.5388 155.541 46.4642 154.977 46.4642 154.323C46.4642 153.334 46.6275 152.569 46.9542 152.027C47.2808 151.477 47.7988 151.201 48.5082 151.201ZM48.5082 152.083C48.1535 152.083 47.8922 152.27 47.7242 152.643C47.5655 153.017 47.4862 153.577 47.4862 154.323C47.4862 155.079 47.5655 155.649 47.7242 156.031C47.8922 156.405 48.1535 156.591 48.5082 156.591C48.8722 156.591 49.1428 156.405 49.3202 156.031C49.4975 155.658 49.5862 155.089 49.5862 154.323C49.5862 153.577 49.4975 153.017 49.3202 152.643C49.1428 152.27 48.8722 152.083 48.5082 152.083Z" fill="#000240"/>
<line opacity="0.5" x1="20" y1="168.833" x2="665" y2="168.833" stroke="#D3D6DB"/>
<path d="M25.5407 229.667L29.6427 220.791H24.2527V219.671H30.9587V220.623L26.8987 229.667H25.5407ZM38.9704 224.655C38.9704 225.467 38.9098 226.19 38.7884 226.825C38.6671 227.459 38.4711 228.001 38.2004 228.449C37.9391 228.887 37.5938 229.223 37.1644 229.457C36.7444 229.69 36.2358 229.807 35.6384 229.807C34.8918 229.807 34.2711 229.601 33.7764 229.191C33.2911 228.78 32.9271 228.192 32.6844 227.427C32.4511 226.652 32.3344 225.728 32.3344 224.655C32.3344 223.572 32.4418 222.648 32.6564 221.883C32.8804 221.117 33.2351 220.534 33.7204 220.133C34.2058 219.722 34.8451 219.517 35.6384 219.517C36.3851 219.517 37.0058 219.722 37.5004 220.133C37.9951 220.534 38.3638 221.117 38.6064 221.883C38.8491 222.648 38.9704 223.572 38.9704 224.655ZM33.5664 224.655C33.5664 225.569 33.6318 226.33 33.7624 226.937C33.9024 227.543 34.1218 228.001 34.4204 228.309C34.7284 228.607 35.1344 228.757 35.6384 228.757C36.1424 228.757 36.5438 228.607 36.8424 228.309C37.1504 228.01 37.3744 227.557 37.5144 226.951C37.6544 226.335 37.7244 225.569 37.7244 224.655C37.7244 223.74 37.6544 222.984 37.5144 222.387C37.3744 221.78 37.1504 221.327 36.8424 221.029C36.5438 220.721 36.1424 220.567 35.6384 220.567C35.1344 220.567 34.7284 220.721 34.4204 221.029C34.1218 221.327 33.9024 221.78 33.7624 222.387C33.6318 222.984 33.5664 223.74 33.5664 224.655ZM42.3902 219.531C43.0808 219.531 43.6035 219.806 43.9582 220.357C44.3128 220.898 44.4902 221.663 44.4902 222.653C44.4902 223.642 44.3175 224.417 43.9722 224.977C43.6362 225.527 43.1088 225.803 42.3902 225.803C41.9515 225.803 41.5782 225.677 41.2702 225.425C40.9622 225.173 40.7288 224.813 40.5702 224.347C40.4208 223.871 40.3462 223.306 40.3462 222.653C40.3462 221.663 40.5095 220.898 40.8362 220.357C41.1628 219.806 41.6808 219.531 42.3902 219.531ZM42.3902 220.399C42.0355 220.399 41.7742 220.59 41.6062 220.973C41.4475 221.346 41.3682 221.906 41.3682 222.653C41.3682 223.399 41.4475 223.964 41.6062 224.347C41.7742 224.729 42.0355 224.921 42.3902 224.921C42.7542 224.921 43.0248 224.734 43.2022 224.361C43.3795 223.978 43.4682 223.409 43.4682 222.653C43.4682 221.906 43.3795 221.346 43.2022 220.973C43.0248 220.59 42.7542 220.399 42.3902 220.399ZM48.7882 219.671L43.2442 229.667H42.1662L47.7102 219.671H48.7882ZM48.5082 223.535C48.9655 223.535 49.3482 223.661 49.6562 223.913C49.9642 224.155 50.1975 224.51 50.3562 224.977C50.5242 225.434 50.6082 225.994 50.6082 226.657C50.6082 227.646 50.4355 228.421 50.0902 228.981C49.7542 229.531 49.2268 229.807 48.5082 229.807C48.0695 229.807 47.6962 229.681 47.3882 229.429C47.0802 229.177 46.8468 228.817 46.6882 228.351C46.5388 227.875 46.4642 227.31 46.4642 226.657C46.4642 225.667 46.6275 224.902 46.9542 224.361C47.2808 223.81 47.7988 223.535 48.5082 223.535ZM48.5082 224.417C48.1535 224.417 47.8922 224.603 47.7242 224.977C47.5655 225.35 47.4862 225.91 47.4862 226.657C47.4862 227.413 47.5655 227.982 47.7242 228.365C47.8922 228.738 48.1535 228.925 48.5082 228.925C48.8722 228.925 49.1428 228.738 49.3202 228.365C49.4975 227.991 49.5862 227.422 49.5862 226.657C49.5862 225.91 49.4975 225.35 49.3202 224.977C49.1428 224.603 48.8722 224.417 48.5082 224.417Z" fill="#000240"/>
<line opacity="0.5" x1="20" y1="241.167" x2="665" y2="241.167" stroke="#D3D6DB"/>
<path d="M24.4067 297.73C24.4067 297.151 24.4441 296.582 24.5187 296.022C24.6027 295.462 24.7427 294.935 24.9387 294.44C25.1347 293.936 25.4054 293.493 25.7507 293.11C26.0961 292.718 26.5301 292.415 27.0527 292.2C27.5847 291.976 28.2287 291.864 28.9847 291.864C29.1807 291.864 29.3954 291.873 29.6287 291.892C29.8714 291.911 30.0674 291.943 30.2167 291.99V293.04C30.0487 292.984 29.8574 292.942 29.6427 292.914C29.4374 292.886 29.2274 292.872 29.0127 292.872C28.3687 292.872 27.8321 292.979 27.4027 293.194C26.9734 293.409 26.6327 293.703 26.3807 294.076C26.1381 294.449 25.9607 294.879 25.8487 295.364C25.7367 295.849 25.6667 296.367 25.6387 296.918H25.7227C25.8627 296.694 26.0401 296.493 26.2547 296.316C26.4694 296.139 26.7261 295.999 27.0247 295.896C27.3327 295.793 27.6874 295.742 28.0887 295.742C28.6674 295.742 29.1714 295.863 29.6007 296.106C30.0394 296.339 30.3801 296.685 30.6227 297.142C30.8654 297.59 30.9867 298.136 30.9867 298.78C30.9867 299.471 30.8561 300.068 30.5947 300.572C30.3334 301.076 29.9647 301.463 29.4887 301.734C29.0221 302.005 28.4621 302.14 27.8087 302.14C27.3327 302.14 26.8894 302.051 26.4787 301.874C26.0681 301.697 25.7041 301.426 25.3867 301.062C25.0787 300.698 24.8361 300.241 24.6587 299.69C24.4907 299.13 24.4067 298.477 24.4067 297.73ZM27.7947 301.104C28.3827 301.104 28.8587 300.917 29.2227 300.544C29.5867 300.161 29.7687 299.573 29.7687 298.78C29.7687 298.145 29.6054 297.641 29.2787 297.268C28.9614 296.895 28.4807 296.708 27.8367 296.708C27.3981 296.708 27.0154 296.801 26.6887 296.988C26.3621 297.165 26.1054 297.394 25.9187 297.674C25.7414 297.954 25.6527 298.243 25.6527 298.542C25.6527 298.85 25.6947 299.153 25.7787 299.452C25.8721 299.751 26.0074 300.026 26.1847 300.278C26.3714 300.53 26.5954 300.731 26.8567 300.88C27.1274 301.029 27.4401 301.104 27.7947 301.104ZM38.9704 296.988C38.9704 297.8 38.9098 298.523 38.7884 299.158C38.6671 299.793 38.4711 300.334 38.2004 300.782C37.9391 301.221 37.5938 301.557 37.1644 301.79C36.7444 302.023 36.2358 302.14 35.6384 302.14C34.8918 302.14 34.2711 301.935 33.7764 301.524C33.2911 301.113 32.9271 300.525 32.6844 299.76C32.4511 298.985 32.3344 298.061 32.3344 296.988C32.3344 295.905 32.4418 294.981 32.6564 294.216C32.8804 293.451 33.2351 292.867 33.7204 292.466C34.2058 292.055 34.8451 291.85 35.6384 291.85C36.3851 291.85 37.0058 292.055 37.5004 292.466C37.9951 292.867 38.3638 293.451 38.6064 294.216C38.8491 294.981 38.9704 295.905 38.9704 296.988ZM33.5664 296.988C33.5664 297.903 33.6318 298.663 33.7624 299.27C33.9024 299.877 34.1218 300.334 34.4204 300.642C34.7284 300.941 35.1344 301.09 35.6384 301.09C36.1424 301.09 36.5438 300.941 36.8424 300.642C37.1504 300.343 37.3744 299.891 37.5144 299.284C37.6544 298.668 37.7244 297.903 37.7244 296.988C37.7244 296.073 37.6544 295.317 37.5144 294.72C37.3744 294.113 37.1504 293.661 36.8424 293.362C36.5438 293.054 36.1424 292.9 35.6384 292.9C35.1344 292.9 34.7284 293.054 34.4204 293.362C34.1218 293.661 33.9024 294.113 33.7624 294.72C33.6318 295.317 33.5664 296.073 33.5664 296.988ZM42.3902 291.864C43.0808 291.864 43.6035 292.139 43.9582 292.69C44.3128 293.231 44.4902 293.997 44.4902 294.986C44.4902 295.975 44.3175 296.75 43.9722 297.31C43.6362 297.861 43.1088 298.136 42.3902 298.136C41.9515 298.136 41.5782 298.01 41.2702 297.758C40.9622 297.506 40.7288 297.147 40.5702 296.68C40.4208 296.204 40.3462 295.639 40.3462 294.986C40.3462 293.997 40.5095 293.231 40.8362 292.69C41.1628 292.139 41.6808 291.864 42.3902 291.864ZM42.3902 292.732C42.0355 292.732 41.7742 292.923 41.6062 293.306C41.4475 293.679 41.3682 294.239 41.3682 294.986C41.3682 295.733 41.4475 296.297 41.6062 296.68C41.7742 297.063 42.0355 297.254 42.3902 297.254C42.7542 297.254 43.0248 297.067 43.2022 296.694C43.3795 296.311 43.4682 295.742 43.4682 294.986C43.4682 294.239 43.3795 293.679 43.2022 293.306C43.0248 292.923 42.7542 292.732 42.3902 292.732ZM48.7882 292.004L43.2442 302H42.1662L47.7102 292.004H48.7882ZM48.5082 295.868C48.9655 295.868 49.3482 295.994 49.6562 296.246C49.9642 296.489 50.1975 296.843 50.3562 297.31C50.5242 297.767 50.6082 298.327 50.6082 298.99C50.6082 299.979 50.4355 300.754 50.0902 301.314C49.7542 301.865 49.2268 302.14 48.5082 302.14C48.0695 302.14 47.6962 302.014 47.3882 301.762C47.0802 301.51 46.8468 301.151 46.6882 300.684C46.5388 300.208 46.4642 299.643 46.4642 298.99C46.4642 298.001 46.6275 297.235 46.9542 296.694C47.2808 296.143 47.7988 295.868 48.5082 295.868ZM48.5082 296.75C48.1535 296.75 47.8922 296.937 47.7242 297.31C47.5655 297.683 47.4862 298.243 47.4862 298.99C47.4862 299.746 47.5655 300.315 47.7242 300.698C47.8922 301.071 48.1535 301.258 48.5082 301.258C48.8722 301.258 49.1428 301.071 49.3202 300.698C49.4975 300.325 49.5862 299.755 49.5862 298.99C49.5862 298.243 49.4975 297.683 49.3202 297.31C49.1428 296.937 48.8722 296.75 48.5082 296.75Z" fill="#000240"/>
<line opacity="0.5" x1="20" y1="313.5" x2="665" y2="313.5" stroke="#D3D6DB"/>
</g>
<path d="M64.876 333.817V335H58.252C58.2428 334.704 58.2907 334.419 58.3955 334.146C58.5641 333.694 58.833 333.25 59.2021 332.812C59.5758 332.375 60.1136 331.869 60.8154 331.295C61.9046 330.402 62.6406 329.695 63.0234 329.176C63.4062 328.652 63.5977 328.157 63.5977 327.692C63.5977 327.205 63.4222 326.795 63.0713 326.462C62.7249 326.125 62.2715 325.956 61.7109 325.956C61.1185 325.956 60.6445 326.134 60.2891 326.489C59.9336 326.845 59.7536 327.337 59.749 327.966L58.4844 327.836C58.571 326.893 58.8968 326.175 59.4619 325.683C60.027 325.186 60.7858 324.938 61.7383 324.938C62.6999 324.938 63.4609 325.204 64.0215 325.737C64.582 326.271 64.8623 326.931 64.8623 327.72C64.8623 328.121 64.7803 328.515 64.6162 328.902C64.4521 329.29 64.1787 329.698 63.7959 330.126C63.4176 330.554 62.7865 331.142 61.9023 331.89C61.1641 332.509 60.6901 332.931 60.4805 333.154C60.2708 333.373 60.0977 333.594 59.9609 333.817H64.876ZM66.2021 330.058C66.2021 328.873 66.3229 327.92 66.5645 327.2C66.8105 326.476 67.1729 325.917 67.6514 325.525C68.1344 325.133 68.7406 324.938 69.4697 324.938C70.0075 324.938 70.4792 325.047 70.8848 325.266C71.2904 325.48 71.6253 325.792 71.8896 326.202C72.154 326.608 72.3613 327.104 72.5117 327.692C72.6621 328.276 72.7373 329.064 72.7373 330.058C72.7373 331.233 72.6165 332.184 72.375 332.908C72.1335 333.628 71.7712 334.187 71.2881 334.583C70.8096 334.975 70.2035 335.171 69.4697 335.171C68.5036 335.171 67.7448 334.825 67.1934 334.132C66.5326 333.298 66.2021 331.94 66.2021 330.058ZM67.4668 330.058C67.4668 331.703 67.6582 332.799 68.041 333.346C68.4284 333.888 68.9046 334.159 69.4697 334.159C70.0348 334.159 70.5088 333.886 70.8916 333.339C71.279 332.792 71.4727 331.698 71.4727 330.058C71.4727 328.408 71.279 327.312 70.8916 326.77C70.5088 326.227 70.0303 325.956 69.4561 325.956C68.891 325.956 68.4398 326.195 68.1025 326.674C67.6787 327.285 67.4668 328.412 67.4668 330.058ZM80.4619 333.817V335H73.8379C73.8288 334.704 73.8766 334.419 73.9814 334.146C74.1501 333.694 74.4189 333.25 74.7881 332.812C75.1618 332.375 75.6995 331.869 76.4014 331.295C77.4906 330.402 78.2266 329.695 78.6094 329.176C78.9922 328.652 79.1836 328.157 79.1836 327.692C79.1836 327.205 79.0081 326.795 78.6572 326.462C78.3109 326.125 77.8574 325.956 77.2969 325.956C76.7044 325.956 76.2305 326.134 75.875 326.489C75.5195 326.845 75.3395 327.337 75.335 327.966L74.0703 327.836C74.1569 326.893 74.4827 326.175 75.0479 325.683C75.613 325.186 76.3717 324.938 77.3242 324.938C78.2858 324.938 79.0469 325.204 79.6074 325.737C80.168 326.271 80.4482 326.931 80.4482 327.72C80.4482 328.121 80.3662 328.515 80.2021 328.902C80.0381 329.29 79.7646 329.698 79.3818 330.126C79.0036 330.554 78.3724 331.142 77.4883 331.89C76.75 332.509 76.276 332.931 76.0664 333.154C75.8568 333.373 75.6836 333.594 75.5469 333.817H80.4619ZM81.7881 332.375L83.0801 332.266C83.1758 332.895 83.3968 333.368 83.7432 333.688C84.0941 334.002 84.5156 334.159 85.0078 334.159C85.6003 334.159 86.1016 333.936 86.5117 333.489C86.9219 333.043 87.127 332.45 87.127 331.712C87.127 331.01 86.9287 330.456 86.5322 330.051C86.1403 329.645 85.6253 329.442 84.9873 329.442C84.5908 329.442 84.2331 329.534 83.9141 329.716C83.5951 329.894 83.3444 330.126 83.1621 330.413L82.0068 330.263L82.9775 325.115H87.9609V326.291H83.9619L83.4219 328.984C84.0234 328.565 84.6546 328.355 85.3154 328.355C86.1904 328.355 86.9287 328.659 87.5303 329.265C88.1318 329.871 88.4326 330.65 88.4326 331.603C88.4326 332.509 88.1683 333.293 87.6396 333.954C86.9971 334.765 86.1198 335.171 85.0078 335.171C84.0964 335.171 83.3512 334.916 82.7725 334.405C82.1982 333.895 81.8701 333.218 81.7881 332.375Z" fill="#000240"/>
<path d="M256.048 333.817V335H249.424C249.415 334.704 249.463 334.419 249.567 334.146C249.736 333.694 250.005 333.25 250.374 332.812C250.748 332.375 251.285 331.869 251.987 331.295C253.076 330.402 253.812 329.695 254.195 329.176C254.578 328.652 254.77 328.157 254.77 327.692C254.77 327.205 254.594 326.795 254.243 326.462C253.897 326.125 253.443 325.956 252.883 325.956C252.29 325.956 251.816 326.134 251.461 326.489C251.105 326.845 250.925 327.337 250.921 327.966L249.656 327.836C249.743 326.893 250.069 326.175 250.634 325.683C251.199 325.186 251.958 324.938 252.91 324.938C253.872 324.938 254.633 325.204 255.193 325.737C255.754 326.271 256.034 326.931 256.034 327.72C256.034 328.121 255.952 328.515 255.788 328.902C255.624 329.29 255.351 329.698 254.968 330.126C254.59 330.554 253.958 331.142 253.074 331.89C252.336 332.509 251.862 332.931 251.652 333.154C251.443 333.373 251.27 333.594 251.133 333.817H256.048ZM257.374 330.058C257.374 328.873 257.495 327.92 257.736 327.2C257.982 326.476 258.345 325.917 258.823 325.525C259.306 325.133 259.912 324.938 260.642 324.938C261.179 324.938 261.651 325.047 262.057 325.266C262.462 325.48 262.797 325.792 263.062 326.202C263.326 326.608 263.533 327.104 263.684 327.692C263.834 328.276 263.909 329.064 263.909 330.058C263.909 331.233 263.788 332.184 263.547 332.908C263.305 333.628 262.943 334.187 262.46 334.583C261.981 334.975 261.375 335.171 260.642 335.171C259.675 335.171 258.917 334.825 258.365 334.132C257.704 333.298 257.374 331.94 257.374 330.058ZM258.639 330.058C258.639 331.703 258.83 332.799 259.213 333.346C259.6 333.888 260.076 334.159 260.642 334.159C261.207 334.159 261.681 333.886 262.063 333.339C262.451 332.792 262.645 331.698 262.645 330.058C262.645 328.408 262.451 327.312 262.063 326.77C261.681 326.227 261.202 325.956 260.628 325.956C260.063 325.956 259.612 326.195 259.274 326.674C258.851 327.285 258.639 328.412 258.639 330.058ZM269.111 335V332.601H264.764V331.473L269.337 324.979H270.342V331.473H271.695V332.601H270.342V335H269.111ZM269.111 331.473V326.954L265.974 331.473H269.111ZM272.96 332.375L274.252 332.266C274.348 332.895 274.569 333.368 274.915 333.688C275.266 334.002 275.688 334.159 276.18 334.159C276.772 334.159 277.273 333.936 277.684 333.489C278.094 333.043 278.299 332.45 278.299 331.712C278.299 331.01 278.101 330.456 277.704 330.051C277.312 329.645 276.797 329.442 276.159 329.442C275.763 329.442 275.405 329.534 275.086 329.716C274.767 329.894 274.516 330.126 274.334 330.413L273.179 330.263L274.149 325.115H279.133V326.291H275.134L274.594 328.984C275.195 328.565 275.826 328.355 276.487 328.355C277.362 328.355 278.101 328.659 278.702 329.265C279.304 329.871 279.604 330.65 279.604 331.603C279.604 332.509 279.34 333.293 278.812 333.954C278.169 334.765 277.292 335.171 276.18 335.171C275.268 335.171 274.523 334.916 273.944 334.405C273.37 333.895 273.042 333.218 272.96 332.375Z" fill="#000240"/>
<path d="M448.048 333.817V335H441.424C441.415 334.704 441.463 334.419 441.567 334.146C441.736 333.694 442.005 333.25 442.374 332.812C442.748 332.375 443.285 331.869 443.987 331.295C445.076 330.402 445.812 329.695 446.195 329.176C446.578 328.652 446.77 328.157 446.77 327.692C446.77 327.205 446.594 326.795 446.243 326.462C445.897 326.125 445.443 325.956 444.883 325.956C444.29 325.956 443.816 326.134 443.461 326.489C443.105 326.845 442.925 327.337 442.921 327.966L441.656 327.836C441.743 326.893 442.069 326.175 442.634 325.683C443.199 325.186 443.958 324.938 444.91 324.938C445.872 324.938 446.633 325.204 447.193 325.737C447.754 326.271 448.034 326.931 448.034 327.72C448.034 328.121 447.952 328.515 447.788 328.902C447.624 329.29 447.351 329.698 446.968 330.126C446.59 330.554 445.958 331.142 445.074 331.89C444.336 332.509 443.862 332.931 443.652 333.154C443.443 333.373 443.27 333.594 443.133 333.817H448.048ZM449.374 330.058C449.374 328.873 449.495 327.92 449.736 327.2C449.982 326.476 450.345 325.917 450.823 325.525C451.306 325.133 451.912 324.938 452.642 324.938C453.179 324.938 453.651 325.047 454.057 325.266C454.462 325.48 454.797 325.792 455.062 326.202C455.326 326.608 455.533 327.104 455.684 327.692C455.834 328.276 455.909 329.064 455.909 330.058C455.909 331.233 455.788 332.184 455.547 332.908C455.305 333.628 454.943 334.187 454.46 334.583C453.981 334.975 453.375 335.171 452.642 335.171C451.675 335.171 450.917 334.825 450.365 334.132C449.704 333.298 449.374 331.94 449.374 330.058ZM450.639 330.058C450.639 331.703 450.83 332.799 451.213 333.346C451.6 333.888 452.076 334.159 452.642 334.159C453.207 334.159 453.681 333.886 454.063 333.339C454.451 332.792 454.645 331.698 454.645 330.058C454.645 328.408 454.451 327.312 454.063 326.77C453.681 326.227 453.202 325.956 452.628 325.956C452.063 325.956 451.612 326.195 451.274 326.674C450.851 327.285 450.639 328.412 450.639 330.058ZM463.552 327.433L462.328 327.528C462.219 327.045 462.064 326.694 461.863 326.476C461.531 326.125 461.12 325.949 460.633 325.949C460.241 325.949 459.897 326.059 459.601 326.277C459.213 326.56 458.908 326.972 458.685 327.515C458.461 328.057 458.345 328.829 458.336 329.832C458.632 329.381 458.994 329.046 459.423 328.827C459.851 328.608 460.3 328.499 460.77 328.499C461.59 328.499 462.287 328.802 462.861 329.408C463.44 330.01 463.729 330.789 463.729 331.746C463.729 332.375 463.593 332.961 463.319 333.503C463.05 334.041 462.679 334.453 462.205 334.74C461.731 335.027 461.193 335.171 460.592 335.171C459.566 335.171 458.73 334.795 458.083 334.043C457.436 333.286 457.112 332.042 457.112 330.311C457.112 328.374 457.47 326.965 458.186 326.086C458.81 325.32 459.651 324.938 460.708 324.938C461.496 324.938 462.141 325.159 462.643 325.601C463.148 326.043 463.451 326.653 463.552 327.433ZM458.527 331.753C458.527 332.177 458.616 332.582 458.794 332.97C458.976 333.357 459.229 333.653 459.553 333.858C459.876 334.059 460.216 334.159 460.571 334.159C461.091 334.159 461.537 333.95 461.911 333.53C462.285 333.111 462.472 332.541 462.472 331.821C462.472 331.129 462.287 330.584 461.918 330.188C461.549 329.786 461.084 329.586 460.523 329.586C459.967 329.586 459.496 329.786 459.108 330.188C458.721 330.584 458.527 331.106 458.527 331.753ZM464.96 332.375L466.252 332.266C466.348 332.895 466.569 333.368 466.915 333.688C467.266 334.002 467.688 334.159 468.18 334.159C468.772 334.159 469.273 333.936 469.684 333.489C470.094 333.043 470.299 332.45 470.299 331.712C470.299 331.01 470.101 330.456 469.704 330.051C469.312 329.645 468.797 329.442 468.159 329.442C467.763 329.442 467.405 329.534 467.086 329.716C466.767 329.894 466.516 330.126 466.334 330.413L465.179 330.263L466.149 325.115H471.133V326.291H467.134L466.594 328.984C467.195 328.565 467.826 328.355 468.487 328.355C469.362 328.355 470.101 328.659 470.702 329.265C471.304 329.871 471.604 330.65 471.604 331.603C471.604 332.509 471.34 333.293 470.812 333.954C470.169 334.765 469.292 335.171 468.18 335.171C467.268 335.171 466.523 334.916 465.944 334.405C465.37 333.895 465.042 333.218 464.96 332.375Z" fill="#000240"/>
<path d="M640.048 333.817V335H633.424C633.415 334.704 633.463 334.419 633.567 334.146C633.736 333.694 634.005 333.25 634.374 332.812C634.748 332.375 635.285 331.869 635.987 331.295C637.076 330.402 637.812 329.695 638.195 329.176C638.578 328.652 638.77 328.157 638.77 327.692C638.77 327.205 638.594 326.795 638.243 326.462C637.897 326.125 637.443 325.956 636.883 325.956C636.29 325.956 635.816 326.134 635.461 326.489C635.105 326.845 634.925 327.337 634.921 327.966L633.656 327.836C633.743 326.893 634.069 326.175 634.634 325.683C635.199 325.186 635.958 324.938 636.91 324.938C637.872 324.938 638.633 325.204 639.193 325.737C639.754 326.271 640.034 326.931 640.034 327.72C640.034 328.121 639.952 328.515 639.788 328.902C639.624 329.29 639.351 329.698 638.968 330.126C638.59 330.554 637.958 331.142 637.074 331.89C636.336 332.509 635.862 332.931 635.652 333.154C635.443 333.373 635.27 333.594 635.133 333.817H640.048ZM641.374 330.058C641.374 328.873 641.495 327.92 641.736 327.2C641.982 326.476 642.345 325.917 642.823 325.525C643.306 325.133 643.912 324.938 644.642 324.938C645.179 324.938 645.651 325.047 646.057 325.266C646.462 325.48 646.797 325.792 647.062 326.202C647.326 326.608 647.533 327.104 647.684 327.692C647.834 328.276 647.909 329.064 647.909 330.058C647.909 331.233 647.788 332.184 647.547 332.908C647.305 333.628 646.943 334.187 646.46 334.583C645.981 334.975 645.375 335.171 644.642 335.171C643.675 335.171 642.917 334.825 642.365 334.132C641.704 333.298 641.374 331.94 641.374 330.058ZM642.639 330.058C642.639 331.703 642.83 332.799 643.213 333.346C643.6 333.888 644.076 334.159 644.642 334.159C645.207 334.159 645.681 333.886 646.063 333.339C646.451 332.792 646.645 331.698 646.645 330.058C646.645 328.408 646.451 327.312 646.063 326.77C645.681 326.227 645.202 325.956 644.628 325.956C644.063 325.956 643.612 326.195 643.274 326.674C642.851 327.285 642.639 328.412 642.639 330.058ZM651.061 329.565C650.55 329.379 650.172 329.112 649.926 328.766C649.68 328.419 649.557 328.005 649.557 327.521C649.557 326.792 649.819 326.179 650.343 325.683C650.867 325.186 651.564 324.938 652.435 324.938C653.31 324.938 654.014 325.193 654.547 325.703C655.08 326.209 655.347 326.826 655.347 327.556C655.347 328.021 655.224 328.426 654.978 328.772C654.736 329.114 654.367 329.379 653.87 329.565C654.485 329.766 654.952 330.09 655.271 330.536C655.595 330.983 655.757 331.516 655.757 332.136C655.757 332.993 655.454 333.713 654.848 334.296C654.242 334.879 653.444 335.171 652.455 335.171C651.466 335.171 650.669 334.879 650.062 334.296C649.456 333.708 649.153 332.977 649.153 332.102C649.153 331.45 649.317 330.905 649.646 330.468C649.978 330.026 650.45 329.725 651.061 329.565ZM650.814 327.48C650.814 327.954 650.967 328.342 651.272 328.643C651.578 328.943 651.974 329.094 652.462 329.094C652.936 329.094 653.323 328.946 653.624 328.649C653.929 328.349 654.082 327.982 654.082 327.549C654.082 327.098 653.925 326.719 653.61 326.414C653.3 326.104 652.913 325.949 652.448 325.949C651.979 325.949 651.589 326.1 651.279 326.4C650.969 326.701 650.814 327.061 650.814 327.48ZM650.418 332.108C650.418 332.459 650.5 332.799 650.664 333.127C650.833 333.455 651.081 333.71 651.409 333.893C651.737 334.07 652.09 334.159 652.469 334.159C653.057 334.159 653.542 333.97 653.925 333.592C654.308 333.214 654.499 332.733 654.499 332.149C654.499 331.557 654.301 331.067 653.904 330.68C653.512 330.292 653.02 330.099 652.428 330.099C651.849 330.099 651.368 330.29 650.985 330.673C650.607 331.056 650.418 331.534 650.418 332.108ZM656.96 332.375L658.252 332.266C658.348 332.895 658.569 333.368 658.915 333.688C659.266 334.002 659.688 334.159 660.18 334.159C660.772 334.159 661.273 333.936 661.684 333.489C662.094 333.043 662.299 332.45 662.299 331.712C662.299 331.01 662.101 330.456 661.704 330.051C661.312 329.645 660.797 329.442 660.159 329.442C659.763 329.442 659.405 329.534 659.086 329.716C658.767 329.894 658.516 330.126 658.334 330.413L657.179 330.263L658.149 325.115H663.133V326.291H659.134L658.594 328.984C659.195 328.565 659.826 328.355 660.487 328.355C661.362 328.355 662.101 328.659 662.702 329.265C663.304 329.871 663.604 330.65 663.604 331.603C663.604 332.509 663.34 333.293 662.812 333.954C662.169 334.765 661.292 335.171 660.18 335.171C659.268 335.171 658.523 334.916 657.944 334.405C657.37 333.895 657.042 333.218 656.96 332.375Z" fill="#000240"/>
<path d="M155.634 314.25L232.323 271.044L267.701 228.26L302.184 183.878L383.647 136.21L445.956 130.25L495.941 154.088L547.871 175.094L588.818 200.059L634.076 213.928L639.746 223.5" stroke="#D06ADD" stroke-width="2"/>
<path d="M333.872 313L395.352 270.086L479.577 199.582L529.681 145.398L569.419 133L606.688 153.922L636.695 180.5" stroke="#9A63FF" stroke-width="2"/>
<path d="M521.491 313L564.764 269.884L613.059 186.625L650.15 135.331H659" stroke="#5AC498" stroke-width="2"/>
<path d="M71.6992 136.2L137.968 130.25L191.129 154.048L246.358 175.019L289.908 199.942L339.57 220.25L381.592 217.481" stroke="#F9B77A" stroke-width="2"/>
<path d="M72.1942 179L96.1285 205.765L123.422 227.574L141.898 236" stroke="#042340" stroke-width="2"/>
<line x1="180" y1="372.497" x2="166" y2="372.497" stroke="#042340" stroke-width="2"/>
<path d="M177.25 369.5L173.244 376.5L169.25 369.5L177.25 369.5Z" fill="#042340"/>
<path d="M189.101 378V367.979H193.544C194.437 367.979 195.116 368.07 195.581 368.252C196.046 368.43 196.417 368.746 196.695 369.202C196.973 369.658 197.112 370.161 197.112 370.713C197.112 371.424 196.882 372.023 196.422 372.511C195.962 372.998 195.251 373.308 194.289 373.44C194.64 373.609 194.907 373.775 195.089 373.939C195.476 374.295 195.843 374.739 196.189 375.272L197.933 378H196.265L194.938 375.915C194.551 375.313 194.232 374.853 193.981 374.534C193.731 374.215 193.505 373.992 193.305 373.864C193.109 373.737 192.908 373.648 192.703 373.598C192.553 373.566 192.307 373.55 191.965 373.55H190.427V378H189.101ZM190.427 372.401H193.277C193.883 372.401 194.357 372.34 194.699 372.217C195.041 372.089 195.301 371.889 195.479 371.615C195.656 371.337 195.745 371.036 195.745 370.713C195.745 370.239 195.572 369.849 195.226 369.544C194.884 369.239 194.341 369.086 193.599 369.086H190.427V372.401ZM198.582 374.37C198.582 373.026 198.956 372.03 199.703 371.383C200.327 370.845 201.089 370.576 201.986 370.576C202.984 370.576 203.8 370.904 204.434 371.561C205.067 372.212 205.384 373.115 205.384 374.268C205.384 375.202 205.243 375.938 204.96 376.476C204.682 377.009 204.274 377.424 203.736 377.72C203.203 378.016 202.62 378.164 201.986 378.164C200.97 378.164 200.147 377.838 199.519 377.187C198.894 376.535 198.582 375.596 198.582 374.37ZM199.847 374.37C199.847 375.3 200.049 375.997 200.455 376.462C200.861 376.922 201.371 377.152 201.986 377.152C202.597 377.152 203.105 376.92 203.511 376.455C203.916 375.99 204.119 375.282 204.119 374.329C204.119 373.431 203.914 372.752 203.504 372.292C203.098 371.827 202.592 371.595 201.986 371.595C201.371 371.595 200.861 371.825 200.455 372.285C200.049 372.745 199.847 373.44 199.847 374.37ZM207.968 378H206.826V367.979H208.057V371.554C208.576 370.902 209.239 370.576 210.046 370.576C210.493 370.576 210.914 370.667 211.311 370.85C211.712 371.027 212.04 371.28 212.295 371.608C212.555 371.932 212.757 372.324 212.903 372.784C213.049 373.244 213.122 373.737 213.122 374.261C213.122 375.505 212.814 376.466 212.199 377.146C211.584 377.825 210.846 378.164 209.984 378.164C209.128 378.164 208.455 377.806 207.968 377.091V378ZM207.954 374.315C207.954 375.186 208.073 375.815 208.31 376.202C208.697 376.836 209.221 377.152 209.882 377.152C210.42 377.152 210.884 376.92 211.276 376.455C211.668 375.986 211.864 375.288 211.864 374.363C211.864 373.415 211.675 372.716 211.297 372.265C210.923 371.813 210.47 371.588 209.937 371.588C209.399 371.588 208.934 371.823 208.542 372.292C208.15 372.757 207.954 373.431 207.954 374.315ZM219.596 375.662L220.867 375.819C220.667 376.562 220.295 377.139 219.753 377.549C219.211 377.959 218.518 378.164 217.675 378.164C216.613 378.164 215.77 377.838 215.146 377.187C214.526 376.53 214.216 375.612 214.216 374.432C214.216 373.21 214.53 372.262 215.159 371.588C215.788 370.913 216.604 370.576 217.606 370.576C218.577 370.576 219.37 370.907 219.985 371.567C220.601 372.228 220.908 373.158 220.908 374.356C220.908 374.429 220.906 374.539 220.901 374.685H215.487C215.533 375.482 215.758 376.093 216.164 376.517C216.57 376.94 217.076 377.152 217.682 377.152C218.133 377.152 218.518 377.034 218.837 376.797C219.156 376.56 219.409 376.182 219.596 375.662ZM215.556 373.673H219.609C219.555 373.062 219.4 372.604 219.145 372.299C218.753 371.825 218.244 371.588 217.62 371.588C217.055 371.588 216.579 371.777 216.191 372.155C215.809 372.534 215.597 373.039 215.556 373.673ZM222.405 378V370.74H223.513V371.841C223.795 371.326 224.055 370.986 224.292 370.822C224.534 370.658 224.798 370.576 225.085 370.576C225.5 370.576 225.921 370.708 226.35 370.973L225.926 372.114C225.625 371.937 225.324 371.848 225.023 371.848C224.755 371.848 224.513 371.93 224.299 372.094C224.085 372.253 223.932 372.477 223.841 372.764C223.704 373.201 223.636 373.68 223.636 374.199V378H222.405ZM229.768 376.899L229.945 377.986C229.599 378.059 229.289 378.096 229.016 378.096C228.569 378.096 228.223 378.025 227.977 377.884C227.73 377.743 227.557 377.558 227.457 377.33C227.357 377.098 227.307 376.612 227.307 375.874V371.697H226.404V370.74H227.307V368.942L228.53 368.204V370.74H229.768V371.697H228.53V375.942C228.53 376.293 228.551 376.519 228.592 376.619C228.637 376.719 228.708 376.799 228.804 376.858C228.904 376.918 229.045 376.947 229.228 376.947C229.364 376.947 229.544 376.931 229.768 376.899Z" fill="#000240"/>
<rect width="6" height="6" transform="translate(250.75 370)" fill="#F9B77A"/>
<line x1="261" y1="373" x2="247" y2="373" stroke="#F9B77A" stroke-width="2"/>
<path d="M268.979 378L272.828 367.979H274.257L278.358 378H276.848L275.679 374.965H271.488L270.388 378H268.979ZM271.871 373.885H275.269L274.223 371.109C273.904 370.266 273.667 369.574 273.512 369.031C273.384 369.674 273.204 370.312 272.972 370.945L271.871 373.885ZM279.261 378V370.74H280.368V371.772C280.901 370.975 281.672 370.576 282.679 370.576C283.116 370.576 283.517 370.656 283.882 370.815C284.251 370.97 284.527 371.175 284.709 371.431C284.891 371.686 285.019 371.989 285.092 372.34C285.137 372.568 285.16 372.966 285.16 373.536V378H283.93V373.584C283.93 373.083 283.882 372.709 283.786 372.463C283.69 372.212 283.52 372.014 283.273 371.868C283.032 371.718 282.747 371.643 282.419 371.643C281.895 371.643 281.441 371.809 281.059 372.142C280.68 372.474 280.491 373.105 280.491 374.035V378H279.261ZM287.054 378V370.74H288.161V371.772C288.694 370.975 289.465 370.576 290.472 370.576C290.909 370.576 291.31 370.656 291.675 370.815C292.044 370.97 292.32 371.175 292.502 371.431C292.684 371.686 292.812 371.989 292.885 372.34C292.93 372.568 292.953 372.966 292.953 373.536V378H291.723V373.584C291.723 373.083 291.675 372.709 291.579 372.463C291.483 372.212 291.312 372.014 291.066 371.868C290.825 371.718 290.54 371.643 290.212 371.643C289.688 371.643 289.234 371.809 288.852 372.142C288.473 372.474 288.284 373.105 288.284 374.035V378H287.054ZM299.584 377.104C299.128 377.492 298.688 377.765 298.265 377.925C297.845 378.084 297.394 378.164 296.911 378.164C296.114 378.164 295.501 377.97 295.072 377.583C294.644 377.191 294.43 376.692 294.43 376.086C294.43 375.73 294.509 375.407 294.669 375.115C294.833 374.819 295.045 374.582 295.305 374.404C295.569 374.227 295.865 374.092 296.193 374.001C296.435 373.937 296.799 373.876 297.287 373.816C298.281 373.698 299.012 373.557 299.481 373.393C299.486 373.224 299.488 373.117 299.488 373.071C299.488 372.57 299.372 372.217 299.14 372.012C298.825 371.734 298.358 371.595 297.738 371.595C297.16 371.595 296.731 371.697 296.453 371.902C296.18 372.103 295.977 372.461 295.845 372.976L294.642 372.812C294.751 372.297 294.931 371.882 295.182 371.567C295.432 371.248 295.795 371.005 296.269 370.836C296.743 370.663 297.292 370.576 297.916 370.576C298.536 370.576 299.039 370.649 299.427 370.795C299.814 370.941 300.099 371.125 300.281 371.349C300.464 371.567 300.591 371.845 300.664 372.183C300.705 372.392 300.726 372.771 300.726 373.317V374.958C300.726 376.102 300.751 376.826 300.801 377.132C300.855 377.433 300.96 377.722 301.115 378H299.83C299.702 377.745 299.62 377.446 299.584 377.104ZM299.481 374.356C299.035 374.539 298.365 374.694 297.472 374.821C296.966 374.894 296.608 374.976 296.398 375.067C296.189 375.159 296.027 375.293 295.913 375.471C295.799 375.644 295.742 375.838 295.742 376.052C295.742 376.38 295.865 376.653 296.111 376.872C296.362 377.091 296.727 377.2 297.205 377.2C297.679 377.2 298.101 377.098 298.47 376.893C298.839 376.683 299.11 376.398 299.283 376.038C299.415 375.76 299.481 375.35 299.481 374.808V374.356Z" fill="#000240"/>
<rect x="322.25" y="370.5" width="5" height="5" rx="2.5" fill="#D06ADD"/>
<rect x="322.25" y="370.5" width="5" height="5" rx="2.5" stroke="#D06ADD"/>
<line x1="332" y1="373" x2="318" y2="373" stroke="#D06ADD" stroke-width="2"/>
<path d="M341.08 378V367.979H344.86C345.526 367.979 346.034 368.01 346.385 368.074C346.877 368.156 347.289 368.313 347.622 368.546C347.955 368.774 348.221 369.095 348.422 369.51C348.627 369.924 348.729 370.38 348.729 370.877C348.729 371.729 348.458 372.451 347.916 373.044C347.374 373.632 346.394 373.926 344.977 373.926H342.406V378H341.08ZM342.406 372.743H344.997C345.854 372.743 346.462 372.584 346.822 372.265C347.182 371.946 347.362 371.497 347.362 370.918C347.362 370.499 347.255 370.141 347.041 369.845C346.831 369.544 346.553 369.346 346.207 369.25C345.984 369.191 345.571 369.161 344.97 369.161H342.406V372.743ZM355.23 375.662L356.502 375.819C356.301 376.562 355.93 377.139 355.388 377.549C354.845 377.959 354.153 378.164 353.31 378.164C352.248 378.164 351.405 377.838 350.78 377.187C350.16 376.53 349.851 375.612 349.851 374.432C349.851 373.21 350.165 372.262 350.794 371.588C351.423 370.913 352.239 370.576 353.241 370.576C354.212 370.576 355.005 370.907 355.62 371.567C356.235 372.228 356.543 373.158 356.543 374.356C356.543 374.429 356.541 374.539 356.536 374.685H351.122C351.168 375.482 351.393 376.093 351.799 376.517C352.204 376.94 352.71 377.152 353.316 377.152C353.768 377.152 354.153 377.034 354.472 376.797C354.791 376.56 355.044 376.182 355.23 375.662ZM351.19 373.673H355.244C355.189 373.062 355.035 372.604 354.779 372.299C354.387 371.825 353.879 371.588 353.255 371.588C352.69 371.588 352.214 371.777 351.826 372.155C351.443 372.534 351.231 373.039 351.19 373.673ZM360.74 376.899L360.918 377.986C360.572 378.059 360.262 378.096 359.988 378.096C359.542 378.096 359.195 378.025 358.949 377.884C358.703 377.743 358.53 377.558 358.43 377.33C358.329 377.098 358.279 376.612 358.279 375.874V371.697H357.377V370.74H358.279V368.942L359.503 368.204V370.74H360.74V371.697H359.503V375.942C359.503 376.293 359.523 376.519 359.564 376.619C359.61 376.719 359.681 376.799 359.776 376.858C359.877 376.918 360.018 376.947 360.2 376.947C360.337 376.947 360.517 376.931 360.74 376.899ZM366.92 375.662L368.191 375.819C367.991 376.562 367.619 377.139 367.077 377.549C366.535 377.959 365.842 378.164 364.999 378.164C363.937 378.164 363.094 377.838 362.47 377.187C361.85 376.53 361.54 375.612 361.54 374.432C361.54 373.21 361.854 372.262 362.483 371.588C363.112 370.913 363.928 370.576 364.931 370.576C365.901 370.576 366.694 370.907 367.31 371.567C367.925 372.228 368.232 373.158 368.232 374.356C368.232 374.429 368.23 374.539 368.226 374.685H362.812C362.857 375.482 363.083 376.093 363.488 376.517C363.894 376.94 364.4 377.152 365.006 377.152C365.457 377.152 365.842 377.034 366.161 376.797C366.48 376.56 366.733 376.182 366.92 375.662ZM362.88 373.673H366.934C366.879 373.062 366.724 372.604 366.469 372.299C366.077 371.825 365.569 371.588 364.944 371.588C364.379 371.588 363.903 371.777 363.516 372.155C363.133 372.534 362.921 373.039 362.88 373.673ZM369.729 378V370.74H370.837V371.841C371.119 371.326 371.379 370.986 371.616 370.822C371.858 370.658 372.122 370.576 372.409 370.576C372.824 370.576 373.245 370.708 373.674 370.973L373.25 372.114C372.949 371.937 372.648 371.848 372.348 371.848C372.079 371.848 371.837 371.93 371.623 372.094C371.409 372.253 371.256 372.477 371.165 372.764C371.028 373.201 370.96 373.68 370.96 374.199V378H369.729Z" fill="#000240"/>
<line x1="404" y1="371.997" x2="390" y2="371.997" stroke="#9A63FF" stroke-width="2"/>
<path d="M401.5 369.5L397.494 376.5L393.5 369.5L401.5 369.5Z" fill="#9A63FF"/>
<path d="M413.066 378V367.979H414.427L419.69 375.847V367.979H420.962V378H419.602L414.338 370.125V378H413.066ZM427.777 377.104C427.322 377.492 426.882 377.765 426.458 377.925C426.039 378.084 425.588 378.164 425.104 378.164C424.307 378.164 423.694 377.97 423.266 377.583C422.837 377.191 422.623 376.692 422.623 376.086C422.623 375.73 422.703 375.407 422.862 375.115C423.026 374.819 423.238 374.582 423.498 374.404C423.762 374.227 424.059 374.092 424.387 374.001C424.628 373.937 424.993 373.876 425.48 373.816C426.474 373.698 427.205 373.557 427.675 373.393C427.679 373.224 427.682 373.117 427.682 373.071C427.682 372.57 427.565 372.217 427.333 372.012C427.019 371.734 426.551 371.595 425.932 371.595C425.353 371.595 424.924 371.697 424.646 371.902C424.373 372.103 424.17 372.461 424.038 372.976L422.835 372.812C422.944 372.297 423.124 371.882 423.375 371.567C423.626 371.248 423.988 371.005 424.462 370.836C424.936 370.663 425.485 370.576 426.109 370.576C426.729 370.576 427.233 370.649 427.62 370.795C428.007 370.941 428.292 371.125 428.475 371.349C428.657 371.567 428.785 371.845 428.857 372.183C428.898 372.392 428.919 372.771 428.919 373.317V374.958C428.919 376.102 428.944 376.826 428.994 377.132C429.049 377.433 429.154 377.722 429.309 378H428.023C427.896 377.745 427.814 377.446 427.777 377.104ZM427.675 374.356C427.228 374.539 426.558 374.694 425.665 374.821C425.159 374.894 424.801 374.976 424.592 375.067C424.382 375.159 424.22 375.293 424.106 375.471C423.993 375.644 423.936 375.838 423.936 376.052C423.936 376.38 424.059 376.653 424.305 376.872C424.555 377.091 424.92 377.2 425.398 377.2C425.872 377.2 426.294 377.098 426.663 376.893C427.032 376.683 427.303 376.398 427.477 376.038C427.609 375.76 427.675 375.35 427.675 374.808V374.356ZM430.375 374.37C430.375 373.026 430.749 372.03 431.496 371.383C432.12 370.845 432.882 370.576 433.779 370.576C434.777 370.576 435.593 370.904 436.227 371.561C436.86 372.212 437.177 373.115 437.177 374.268C437.177 375.202 437.035 375.938 436.753 376.476C436.475 377.009 436.067 377.424 435.529 377.72C434.996 378.016 434.413 378.164 433.779 378.164C432.763 378.164 431.94 377.838 431.312 377.187C430.687 376.535 430.375 375.596 430.375 374.37ZM431.64 374.37C431.64 375.3 431.842 375.997 432.248 376.462C432.654 376.922 433.164 377.152 433.779 377.152C434.39 377.152 434.898 376.92 435.304 376.455C435.709 375.99 435.912 375.282 435.912 374.329C435.912 373.431 435.707 372.752 435.297 372.292C434.891 371.827 434.385 371.595 433.779 371.595C433.164 371.595 432.654 371.825 432.248 372.285C431.842 372.745 431.64 373.44 431.64 374.37ZM438.626 378V370.74H439.727V371.759C439.954 371.403 440.257 371.118 440.636 370.904C441.014 370.686 441.445 370.576 441.928 370.576C442.465 370.576 442.905 370.688 443.247 370.911C443.593 371.134 443.837 371.447 443.979 371.848C444.553 371 445.3 370.576 446.221 370.576C446.941 370.576 447.494 370.777 447.882 371.178C448.269 371.574 448.463 372.187 448.463 373.017V378H447.239V373.427C447.239 372.935 447.198 372.581 447.116 372.367C447.039 372.148 446.895 371.973 446.686 371.841C446.476 371.709 446.23 371.643 445.947 371.643C445.437 371.643 445.013 371.813 444.676 372.155C444.339 372.493 444.17 373.035 444.17 373.782V378H442.939V373.283C442.939 372.736 442.839 372.326 442.639 372.053C442.438 371.779 442.11 371.643 441.654 371.643C441.308 371.643 440.987 371.734 440.69 371.916C440.399 372.098 440.187 372.365 440.055 372.716C439.923 373.067 439.856 373.573 439.856 374.233V378H438.626ZM450.295 369.394V367.979H451.525V369.394H450.295ZM450.295 378V370.74H451.525V378H450.295Z" fill="#000240"/>
<rect width="6" height="6" transform="translate(475.75 368.757) rotate(45)" fill="#5AC498"/>
<line x1="483" y1="373" x2="469" y2="373" stroke="#5AC498" stroke-width="2"/>
<path d="M492.039 378V367.979H494.035L496.407 375.074C496.626 375.735 496.785 376.229 496.886 376.558C497 376.193 497.177 375.658 497.419 374.951L499.818 367.979H501.603V378H500.324V369.612L497.412 378H496.216L493.317 369.469V378H492.039ZM503.592 369.394V367.979H504.822V369.394H503.592ZM503.592 378V370.74H504.822V378H503.592ZM506.709 378V367.979H507.939V373.693L510.852 370.74H512.444L509.669 373.434L512.725 378H511.207L508.808 374.288L507.939 375.122V378H506.709ZM518.672 375.662L519.943 375.819C519.743 376.562 519.371 377.139 518.829 377.549C518.287 377.959 517.594 378.164 516.751 378.164C515.689 378.164 514.846 377.838 514.222 377.187C513.602 376.53 513.292 375.612 513.292 374.432C513.292 373.21 513.606 372.262 514.235 371.588C514.864 370.913 515.68 370.576 516.683 370.576C517.653 370.576 518.446 370.907 519.062 371.567C519.677 372.228 519.984 373.158 519.984 374.356C519.984 374.429 519.982 374.539 519.978 374.685H514.563C514.609 375.482 514.835 376.093 515.24 376.517C515.646 376.94 516.152 377.152 516.758 377.152C517.209 377.152 517.594 377.034 517.913 376.797C518.232 376.56 518.485 376.182 518.672 375.662ZM514.632 373.673H518.686C518.631 373.062 518.476 372.604 518.221 372.299C517.829 371.825 517.321 371.588 516.696 371.588C516.131 371.588 515.655 371.777 515.268 372.155C514.885 372.534 514.673 373.039 514.632 373.673Z" fill="#000240"/>
<defs>
<clipPath id="clip0_4655_14353">
<rect width="20" height="20" fill="white" transform="translate(20 23)"/>
</clipPath>
<clipPath id="clip1_4655_14353">
<rect width="645" height="244" fill="white" transform="translate(20 70)"/>
</clipPath>
</defs>
</svg>
