<svg width="569" height="64" viewBox="0 0 569 64" fill="none" xmlns="http://www.w3.org/2000/svg">
<path d="M141.348 32.1106V31.9725C141.298 28.6346 141.923 25.3211 143.186 22.2309C144.449 19.1407 146.323 16.3377 148.696 13.9901C151.068 11.6425 153.891 9.79876 156.994 8.56969C160.098 7.34062 163.417 6.75154 166.754 6.83781C176.626 6.83781 182.976 10.9809 187.257 16.8501L177.178 24.6534C174.416 21.2693 171.24 18.991 166.615 18.991C159.85 18.991 155.086 24.7915 155.086 31.8345V31.9726C155.086 39.223 159.85 44.8848 166.615 44.8848C171.655 44.8848 174.623 42.5371 177.523 39.0156L187.602 46.1973C183.046 52.4807 176.902 57.1073 166.27 57.1073C162.977 57.1592 159.707 56.5476 156.656 55.3088C153.604 54.0701 150.833 52.2297 148.507 49.8972C146.182 47.5647 144.349 44.7878 143.119 41.732C141.889 38.6763 141.287 35.4042 141.348 32.1106Z" fill="#212A3F"/>
<path d="M200.781 32.1106V31.9725C200.781 18.0933 211.964 6.83779 226.876 6.83779C241.788 6.83779 252.833 17.9552 252.833 31.8345V31.9726C252.833 45.8518 241.649 57.1073 226.738 57.1073C211.826 57.1073 200.781 45.9899 200.781 32.1106ZM239.096 32.1106V31.9725C239.096 24.9295 234.125 18.9216 226.738 18.9216C219.351 18.9216 214.45 24.8602 214.45 31.8345V31.9726C214.45 38.9462 219.489 45.0235 226.876 45.0235C234.194 45.0235 239.096 39.0849 239.096 32.1106Z" fill="#212A3F"/>
<path d="M269.393 7.80488H283.546L295.075 26.5176L306.604 7.80488H320.756V56.1403H307.432V28.3817L295.075 47.3018H294.799L282.51 28.4511V56.1403H269.393L269.393 7.80488Z" fill="#212A3F"/>
<path d="M339.663 7.80488H360.443C372.593 7.80488 380.463 14.0889 380.463 24.7228V24.8602C380.463 36.3224 371.696 42.3303 359.752 42.3303H353.056V56.1403H339.663L339.663 7.80488ZM359.476 31.8345C364.171 31.8345 367.139 29.2795 367.139 25.4818V25.3437C367.139 21.2006 364.171 19.0604 359.407 19.0604H353.056V31.8345L359.476 31.8345Z" fill="#212A3F"/>
<path d="M408.347 7.45941H421.257L441.829 56.1403H427.469L424.018 47.4399H405.309L401.857 56.1403H387.843L408.347 7.45941ZM420.083 37.0134L414.698 23.3409L409.244 37.0134H420.083Z" fill="#212A3F"/>
<path d="M456.871 7.80488H469.366L489.249 33.3532V7.80488H502.503V56.1403H490.836L470.126 29.6249V56.1403H456.871V7.80488Z" fill="#212A3F"/>
<path d="M536.805 38.0492L518.373 7.80488H533.63L543.571 25.4124L553.581 7.80488H568.562L550.198 37.8418V56.1403H536.805L536.805 38.0492Z" fill="#212A3F"/>
<path d="M0 7.85067H14.9086L25.9479 38.4L36.9871 7.85067H51.5543L31.9796 56.1671H19.5747L0 7.85067Z" fill="#FB5F61"/>
<path d="M63.2763 7.85067H76.8193V56.2062H63.2763V7.85067Z" fill="#FB5F61"/>
<path d="M0 7.85067H14.9086L25.9479 38.4L36.9871 7.85067H51.5543L31.9796 56.1671H19.5747L0 7.85067Z" fill="#FB5F61"/>
<path d="M63.2763 7.85067H76.8193V56.2062H63.2763V7.85067Z" fill="#FB5F61"/>
<path d="M132.129 0H121.431L90.8175 64H101.515L132.129 0Z" fill="#FB5F61"/>
</svg>
